<svg width="100" height="99" xmlns="http://www.w3.org/2000/svg">
 <style type="text/css">.st0{fill:#1B1918;}
	.st1{fill:#E53114;}
	.st2{fill:#9A9C9A;}
	.st3{fill:none;}</style>

 <g>
  <title>background</title>
  <rect x="-1" y="-1" width="102" height="101" id="canvas_background" fill="none"/>
 </g>
 <g>
  <title>Layer 1</title>
  <path id="path8" class="st1" d="m50,53l-4.7,0l0,12l-6.8,0l0,-29.7l6.8,0l0,12l4.9,0l7.8,-12l7.3,0l-9.7,14.3l10,15.4l-7.8,0l-7.8,-12l0,0z"/>
  <path id="path10" class="st2" d="m2,1.2l96,0l0.5,0l0,0.5l0,96l0,0.5l-0.5,0l-96,0l-0.5,0l0,-0.5l0,-96l0,-0.5l0.5,0zm95.6,1l-95,0l0,95l95,0l0,-95z"/>
  <path id="path12" class="st2" d="m50.1,7.9l0.3,0.3c0.2,0.2 0.5,0.5 0.7,0.7c2.5,2.8 3.3,6.1 3.1,9c-0.2,2.9 -1.5,5.6 -3.1,7.2c-0.1,0.1 -0.2,0.2 -0.2,0.2c0.1,0.1 0.3,0.2 0.4,0.3c0.4,0.2 0.7,0.5 1.1,0.6c1.8,0.9 3.5,1 5,0.6l0,0c0.3,-0.1 0.6,-0.2 0.9,-0.3c0.3,-0.1 0.5,-0.3 0.8,-0.4c0.7,-0.5 1.2,-1.1 1.5,-1.9c0.7,-1.7 0.1,-4.5 -2.1,-4.7c-1.1,-0.1 -1.8,0.4 -2.2,1c-0.2,0.3 -0.2,0.6 -0.2,0.9c0,0.3 0.1,0.6 0.2,0.8c0.3,0.5 0.8,0.8 1.8,0.7c-0.1,1 -2,0.8 -2.6,-0.2c-0.2,-0.4 -0.3,-0.9 -0.3,-1.3c0,-0.5 0.1,-0.9 0.4,-1.3c0.5,-0.9 1.6,-1.6 3.1,-1.5c2.8,0.2 3.7,3.4 3,5.7c-0.3,1.1 -1,2 -1.9,2.6c-0.3,0.2 -0.6,0.4 -0.9,0.5c-0.3,0.2 -0.7,0.3 -1,0.4l0,0c-1.7,0.5 -3.7,0.3 -5.7,-0.7c-0.4,-0.2 -0.8,-0.4 -1.2,-0.7c-0.2,-0.1 -0.4,-0.3 -0.6,-0.4l0,0l0,0c-0.2,0.2 -0.4,0.3 -0.6,0.4c-0.4,0.3 -0.8,0.5 -1.2,0.7c-2,1 -4,1.2 -5.7,0.7l0,0c-0.4,-0.1 -0.7,-0.2 -1,-0.4c-0.3,-0.2 -0.6,-0.3 -0.9,-0.5c-0.8,-0.5 -1.4,-1.3 -1.7,-2.1c-1,-2.3 -0.2,-6 2.8,-6.2c1.5,-0.1 2.6,0.6 3.1,1.5c0.2,0.4 0.4,0.9 0.4,1.3c0,0.5 -0.1,0.9 -0.3,1.3c-0.6,1.1 -2.6,1.2 -2.6,0.2c0.9,0.1 1.5,-0.2 1.8,-0.7c0.1,-0.2 0.2,-0.5 0.2,-0.8c0,-0.3 -0.1,-0.6 -0.2,-0.9c-0.3,-0.6 -1.1,-1.1 -2.2,-1c-2.4,0.2 -2.8,3.3 -1.9,5c0.3,0.6 0.8,1.1 1.3,1.5c0.2,0.2 0.5,0.3 0.8,0.4c0.3,0.1 0.6,0.2 0.9,0.3l0,0c1.4,0.4 3.2,0.3 5,-0.6c0.4,-0.2 0.7,-0.4 1.1,-0.6c0.1,-0.1 0.3,-0.2 0.4,-0.3c-0.1,-0.1 -0.2,-0.2 -0.2,-0.2c-1.6,-1.6 -2.8,-4.2 -3.1,-7.2c-0.2,-2.9 0.5,-6.2 3.1,-9c0.2,-0.3 0.5,-0.5 0.7,-0.7l-0.3,-0.2l0,0zm0,16.8l0,0c0.1,-0.1 0.2,-0.2 0.3,-0.3c1.4,-1.5 2.6,-3.9 2.8,-6.6c0.2,-2.7 -0.5,-5.7 -2.8,-8.3c-0.1,-0.1 -0.2,-0.2 -0.3,-0.3l0,0l0,0c-0.1,0.1 -0.2,0.2 -0.3,0.3c-2.3,2.6 -3,5.6 -2.8,8.3c0.2,2.7 1.4,5.1 2.8,6.6c0.1,0.2 0.2,0.3 0.3,0.3l0,0l0,0z"/>
  <path id="path14" class="st2" d="m64.7,23.4l0,0l0,0c0.2,-0.2 0.3,-0.3 0.5,-0.4c0.2,-0.1 0.3,-0.2 0.5,-0.3c0.9,-0.5 1.9,-0.7 2.9,-0.6l0.4,0l0,0.4l0,0c0,0.2 0,0.4 0,0.6c0,0.2 0,0.4 0,0.6c-0.1,1 -0.6,1.9 -1.3,2.7l0,0l0,0c-0.2,0.1 -0.3,0.3 -0.5,0.4c-0.2,0.1 -0.3,0.2 -0.5,0.3c-0.9,0.5 -1.9,0.7 -2.9,0.6l-0.4,0l0,-0.4l0,0c0,-0.2 0,-0.4 0,-0.6c0,-0.2 0,-0.4 0,-0.6c0.1,-0.9 0.6,-1.9 1.3,-2.7l0,0zm0.7,0.7l0,0l0,0c-0.6,0.6 -1,1.4 -1.1,2.1c0,0.2 0,0.3 0,0.5l0,0.1c0.6,0 1.3,-0.2 1.9,-0.5c0.1,-0.1 0.3,-0.2 0.4,-0.3c0.1,-0.1 0.3,-0.2 0.4,-0.3l0,0l0,0c0.6,-0.6 1,-1.3 1.1,-2.1c0,-0.2 0,-0.3 0,-0.5l0,-0.1c-0.6,0 -1.3,0.2 -1.9,0.5c-0.1,0.1 -0.3,0.2 -0.4,0.3c-0.1,0.1 -0.3,0.2 -0.4,0.3l0,0z"/>
  <g id="g16">
   <path id="path18" class="st2" d="m62.6,12.2l0,0l0,0c0,0.1 0,0.2 -0.1,0.2c0,0.1 0,0.1 0,0.2c-0.1,0.4 -0.1,0.8 -0.1,1.2l0,0l0,0c0,1.1 0.3,2.1 0.7,3.1l0,0c0.1,0.2 0.2,0.3 0.2,0.4c0.4,0.6 0.8,1.2 1.3,1.7c0.1,-0.1 0.2,-0.2 0.3,-0.3c0.2,-0.2 0.4,-0.4 0.5,-0.7c0.9,-1.2 1.4,-2.7 1.4,-4.3l0,0l0,0c0,-0.3 0,-0.6 -0.1,-0.9l0,0l0,-0.1l0,0c0,-0.2 -0.1,-0.5 -0.1,-0.7l-0.2,-0.9l0.9,0.3l0,0l0,0c0.1,0 0.1,0 0.2,0.1l0,0l0,0c0.1,0 0.1,0 0.2,0c0.3,0.1 0.6,0.1 0.9,0.1l0,0l0,0c1.1,0 2.1,-0.5 2.9,-1.2c0.6,-0.5 1.1,-1.4 1.1,-2.4c-0.1,0 -0.1,0.1 -0.2,0.1c-0.9,0.5 -1.9,0.8 -2.9,0.8l0,0l0,0c-1.1,0 -2.1,-0.3 -3,-0.8c-0.1,-0.1 -0.3,-0.2 -0.4,-0.3c-0.5,-0.4 -1,-0.8 -1.4,-1.4l0,0.1l0,-0.1c-0.1,0.1 -0.1,0.2 -0.2,0.2c-0.2,0.2 -0.4,0.4 -0.6,0.6c-1.1,1 -2.5,1.6 -4.1,1.6l0,0l0,0c-0.7,0 -1.5,-0.1 -2.1,-0.4c-0.1,0 -0.2,-0.1 -0.3,-0.1c-0.4,0 -0.6,-0.1 -0.8,-0.3c0.1,1 0.5,1.9 1.2,2.6c0.7,0.7 1.8,1.2 2.9,1.2l0,0l0,0l0,0l0,0c0.2,0 0.4,0 0.6,-0.1l0,0l0.1,0l0,0c0.2,0 0.4,-0.1 0.5,-0.1l0.8,-0.3l-0.1,0.9l0,0zm-1.2,1.7c0,-0.4 0,-0.8 0.1,-1.2c-0.3,0 -0.5,0.1 -0.8,0.1l0,0l0,0l0,0l0,0c-1.4,0 -2.7,-0.6 -3.6,-1.5c-0.9,-0.9 -1.5,-2.2 -1.5,-3.6l0,0l0,0c0,-0.2 0,-0.3 0,-0.5l0,0l0,-0.1l0,0l0,-0.1l0,0l0,0l0.1,-0.9l0.7,0.6c0.4,0.3 0.8,0.6 1.2,0.8c0.1,0 0.2,0.1 0.3,0.1c0.5,0.2 1.1,0.3 1.8,0.3l0,0l0,0c1.3,0 2.5,-0.5 3.4,-1.3c0.2,-0.2 0.3,-0.3 0.5,-0.5c0.1,-0.2 0.3,-0.4 0.4,-0.6l0,0l0.1,-0.1l0,0l0.1,-0.1l0.2,-0.5l0.2,-0.3l0,0l0,0l0.3,0.5l0.1,0.2c0,0.1 0.1,0.1 0.1,0.1l0,0l0.1,0.1l0,0c0.4,0.6 0.9,1.1 1.4,1.5c0.1,0.1 0.2,0.2 0.4,0.2c0.7,0.4 1.6,0.7 2.5,0.7l0,0l0,0c0.9,0 1.7,-0.2 2.5,-0.6c0.1,-0.1 0.3,-0.2 0.4,-0.3l0,0c0.1,-0.1 0.3,-0.2 0.4,-0.3l0,0l0,0l0.7,-0.6l0.1,1c0,0.1 0,0.2 0,0.3l0,0.1l0,0c0,0.1 0,0.2 0,0.3l0,0l0,0l0,0l0,0c0,1.4 -0.6,2.7 -1.5,3.6c-0.9,0.9 -2.2,1.5 -3.6,1.5l0,0l0,0c-0.3,0 -0.5,0 -0.8,-0.1l0,0l0,0l0,0.2l0,0c0,0.3 0.1,0.6 0.1,1l0,0l0,0c0,1.8 -0.6,3.5 -1.6,4.8c-0.2,0.3 -0.4,0.5 -0.6,0.8c-0.2,0.2 -0.5,0.5 -0.7,0.7l0,0l-0.3,0.3l-0.3,-0.3c-0.7,-0.6 -1.4,-1.4 -1.9,-2.2c-0.1,-0.2 -0.2,-0.3 -0.3,-0.5l0,0c-0.4,-1.1 -0.7,-2.3 -0.7,-3.6l0,0l0,0l0,0zm3.5,6.3l0,0l0,0z"/>
   <path id="path20" class="st2" d="m33.5,12.2l0,0l0,0c0,0.1 0,0.2 -0.1,0.2c0,0.1 0,0.1 0,0.2c-0.1,0.4 -0.1,0.8 -0.1,1.2l0,0l0,0c0,1.1 0.3,2.1 0.7,3.1l0,0c0.1,0.2 0.2,0.3 0.2,0.4c0.4,0.6 0.8,1.2 1.3,1.7c0.1,-0.1 0.2,-0.2 0.3,-0.3c0.2,-0.2 0.4,-0.4 0.5,-0.7c0.9,-1.2 1.4,-2.7 1.4,-4.3l0,0l0,0c0,-0.3 0,-0.6 -0.1,-0.9l0,0l0,-0.1l0,0c0,-0.2 -0.1,-0.5 -0.1,-0.7l-0.2,-0.9l0.9,0.3l0,0l0,0c0.1,0 0.1,0 0.2,0.1l0,0l0,0c0.1,0 0.1,0 0.2,0c0.3,0.1 0.6,0.1 0.9,0.1l0,0l0,0c1.1,0 2.1,-0.5 2.9,-1.2c0.6,-0.4 1.1,-1.3 1.2,-2.4c-0.1,0 -0.1,0.1 -0.2,0.1c-0.9,0.5 -1.9,0.8 -2.9,0.8l0,0l0,0c-1.1,0 -2.1,-0.3 -3,-0.8c-0.2,-0.1 -0.4,-0.2 -0.5,-0.3c-0.5,-0.4 -1,-0.8 -1.4,-1.4l0,0.1l0,-0.1c-0.1,0.1 -0.1,0.2 -0.2,0.2c-0.2,0.2 -0.4,0.4 -0.6,0.6c-1.1,1 -2.5,1.6 -4.1,1.6l0,0l0,0c-0.7,0 -1.5,-0.1 -2.1,-0.4c-0.1,0 -0.2,-0.1 -0.3,-0.1c-0.3,0 -0.6,-0.1 -0.8,-0.3c0.1,1 0.5,1.9 1.2,2.6c0.7,0.7 1.8,1.2 2.9,1.2l0,0l0,0l0,0l0,0c0.2,0 0.4,0 0.6,-0.1l0,0l0.1,0l0,0c0.2,0 0.4,-0.1 0.5,-0.1l0.8,-0.3l-0.1,0.9l0,0zm-1.2,1.7c0,-0.4 0,-0.8 0.1,-1.2c-0.3,0 -0.5,0.1 -0.8,0.1l0,0l0,0l0,0l0,0c-1.4,0 -2.7,-0.6 -3.6,-1.5c-0.9,-0.9 -1.5,-2.2 -1.5,-3.6l0,0l0,0c0,-0.2 0,-0.3 0,-0.5l0,0l0,-0.1l0,0l0,-0.1l0,0l0,0l0.1,-0.9l0.7,0.6c0.4,0.3 0.8,0.6 1.2,0.8c0.1,0 0.2,0.1 0.3,0.1c0.5,0.2 1.1,0.3 1.8,0.3l0,0l0,0c1.3,0 2.5,-0.5 3.4,-1.3c0.2,-0.2 0.3,-0.3 0.5,-0.5c0.1,-0.2 0.3,-0.4 0.4,-0.6l0,0l0.1,-0.1l0,0l0.1,-0.1l0.2,-0.5l0.2,-0.3l0,0l0,0l0.4,0.5l0.1,0.2c0,0.1 0,0.1 0,0.2l0,0l0.1,0.1l0,0c0.4,0.6 0.9,1.1 1.5,1.5c0.1,0.1 0.2,0.2 0.4,0.2c0.7,0.4 1.6,0.7 2.5,0.7l0,0l0,0c0.9,0 1.7,-0.2 2.5,-0.6c0,-0.1 0.2,-0.2 0.3,-0.3l0,0c0.1,-0.1 0.3,-0.2 0.4,-0.3l0,0l0,0l0.7,-0.6l0.1,0.9c0,0.1 0,0.2 0,0.3l0,0.1l0,0c0,0.1 0,0.2 0,0.3l0,0l0,0l0,0l0,0c0,1.4 -0.6,2.7 -1.5,3.6c-0.9,0.9 -2.2,1.5 -3.6,1.5l0,0l0,0c-0.3,0 -0.5,0 -0.8,-0.1l0,0l0,0l0,0.2l0,0c0,0.3 0.1,0.6 0.1,1l0,0l0,0c0,1.8 -0.6,3.5 -1.6,4.8c-0.2,0.3 -0.4,0.5 -0.6,0.8c-0.2,0.2 -0.5,0.5 -0.7,0.7l0,0l-0.3,0.3l-0.3,-0.3c-0.7,-0.6 -1.4,-1.4 -1.9,-2.2c-0.1,-0.2 -0.2,-0.3 -0.3,-0.5l0,0c-0.4,-1.1 -0.7,-2.3 -0.7,-3.6l0,0l0,0l0,0zm3.6,6.3l0,0l0,0z"/>
  </g>
  <path id="path22" class="st2" d="m12.1,8.9l0,0l0,0c-0.1,-0.1 -0.1,-0.1 -0.2,-0.2c0,0 -0.1,-0.1 -0.1,-0.2l0,0c-0.2,-0.3 -0.5,-0.7 -0.8,-1l0,0l0,0c-0.3,-0.2 -0.5,-0.4 -0.7,-0.6c-0.3,-0.2 -0.5,-0.3 -0.8,-0.5c-1.2,-0.7 -2.5,-1 -3.8,-1c0,0.2 0,0.3 0,0.4c0,0.3 0,0.6 0.1,0.9c0.2,1.5 0.9,2.8 2,4l0,0l0,0c0.1,0.1 0.1,0.1 0.2,0.2c0.1,0.1 0.1,0.1 0.2,0.2c0.3,0.3 0.7,0.5 1,0.7l0.8,0.5l-0.8,0.4l0,0c0,0 -0.1,0 -0.2,0.1c-0.1,0 -0.1,0.1 -0.2,0.1c-0.3,0.2 -0.5,0.4 -0.7,0.6l0,0l0,0l0,0c-0.8,0.8 -1.2,1.8 -1.2,2.9l0,0c0,0.9 0.3,1.9 1,2.7c0,-0.1 0,-0.1 0.1,-0.2c0.3,-1 0.8,-1.9 1.5,-2.6l0,0l0,0c0.2,-0.2 0.4,-0.4 0.7,-0.6c0.2,-0.2 0.5,-0.3 0.7,-0.5l0,0c0.9,-0.5 1.9,-0.7 2.9,-0.7c0.3,0 0.6,0 0.9,0.1c0,-0.1 0,-0.3 -0.1,-0.4c0,-0.3 0,-0.6 0,-0.9c0.1,-1.5 0.6,-2.9 1.8,-4l0,0l0,0l0,0c0.1,-0.1 0.3,-0.3 0.5,-0.4l0,0l0,0c0.2,-0.1 0.3,-0.3 0.5,-0.4c0.6,-0.4 1.2,-0.6 1.9,-0.8c-0.8,-0.7 -1.7,-1 -2.7,-1c-1,0 -2.1,0.4 -2.9,1.2l0,0l0,0l0,0c-0.1,0.1 -0.1,0.1 -0.1,0.1l0,0c0,0 -0.1,0.1 -0.1,0.1l0,0c-0.2,0.2 -0.4,0.5 -0.5,0.8l-0.4,0.8l-0.5,-0.8l0,0zm-0.4,-2.1c0.3,0.3 0.5,0.6 0.8,0.9c0.1,-0.1 0.1,-0.2 0.2,-0.3l0,0c0,-0.1 0.1,-0.1 0.2,-0.2l0,0c0.1,-0.1 0.1,-0.1 0.2,-0.2l0,0l0,0l0,0c1,-1 2.3,-1.5 3.6,-1.5c1.3,0 2.6,0.5 3.6,1.5l0,0l0,0l0,0c0.1,0.1 0.2,0.3 0.3,0.4l0,0l0.1,0.1l0,0l0.1,0.1l0,0l0,0l0.5,0.7l-0.9,0.1c-0.8,0.1 -1.6,0.3 -2.3,0.8c-0.1,0.1 -0.3,0.2 -0.4,0.3l0,0c-0.1,0.1 -0.3,0.2 -0.4,0.3l0,0l0,0l0,0c-0.9,0.9 -1.4,2.1 -1.5,3.4c0,0.2 0,0.5 0,0.7c0.1,0.6 0.3,1.3 0.4,1.8c-0.9,-0.3 -1.9,-0.5 -2.8,-0.4c-0.7,0.1 -1.3,0.2 -1.9,0.6l0,0c-0.2,0.1 -0.4,0.2 -0.6,0.4c-0.2,0.1 -0.4,0.3 -0.6,0.5l0,0l0,0c-0.6,0.6 -1.1,1.4 -1.3,2.2c0,0.2 -0.1,0.3 -0.1,0.5c0,0.1 0,0.3 -0.1,0.5l0,0l-0.1,0.9l-0.7,-0.5c-0.1,-0.1 -0.3,-0.2 -0.4,-0.3l0,0l-0.1,-0.1l0,0l-0.1,-0.1l0,0l0,0l0,0l0,0c-1,-1 -1.5,-2.3 -1.5,-3.6l0,0c0,-1.3 0.5,-2.6 1.5,-3.6l0,0l0,0l0,0c0.2,-0.2 0.4,-0.4 0.6,-0.5c-0.2,-0.1 -0.3,-0.3 -0.5,-0.4c-0.1,-0.1 -0.1,-0.1 -0.2,-0.2c-0.1,-0.1 -0.1,-0.1 -0.2,-0.2l0,0l0,0c-1.3,-1.3 -2,-2.9 -2.3,-4.5c-0.1,-0.3 -0.1,-0.6 -0.1,-1c0,-0.3 0,-0.7 0,-1l0,0l0,-0.4l0.4,0c1.8,-0.2 3.5,0.2 4.9,1.1c0.3,0.2 0.6,0.4 0.8,0.6c0.4,0.1 0.6,0.4 0.9,0.6l0,0l0,0l0,0z"/>
  <path id="path24" class="st2" d="m16.9,22.5c0.3,0.1 0.5,0.2 0.7,0.3c0.2,0.2 0.4,0.4 0.6,0.7c0.4,0.9 0.3,2 -0.4,2.8c-0.4,0.5 -0.9,0.8 -1.6,0.9c-0.1,0 -0.1,0 -0.2,0c-2,0.2 -3.7,-1.3 -4,-3.3l0,0l0,0l0,0c0,-0.1 0,-0.3 0,-0.4c0,-0.1 0,-0.3 0,-0.4c0,-0.7 0.3,-1.5 0.6,-2.2l0,0l0,0l0,0c0.1,-0.2 0.3,-0.5 0.5,-0.7c0.2,-0.2 0.4,-0.4 0.6,-0.6c1,-0.9 2.4,-1.6 4.2,-1.9c0.2,-1.8 0.9,-3.2 1.9,-4.2c0.2,-0.2 0.4,-0.4 0.6,-0.6c0.2,-0.2 0.5,-0.3 0.7,-0.5l0,0l0,0l0,0c0.7,-0.4 1.4,-0.6 2.2,-0.6c0.1,0 0.3,0 0.4,0c0.1,0 0.3,0 0.4,0l0,0l0,0l0,0c2,0.3 3.5,2 3.3,4c0,0.1 0,0.1 0,0.2c-0.1,0.7 -0.4,1.2 -0.9,1.6c-0.8,0.6 -1.9,0.8 -2.8,0.4c-0.3,-0.1 -0.5,-0.3 -0.7,-0.6c-0.2,-0.2 -0.3,-0.5 -0.3,-0.7c-0.2,-0.8 0.6,-1.9 1.4,-1.6c-0.3,0.2 -0.5,0.6 -0.5,0.9c0,0.2 0,0.3 0,0.5c0,0.1 0.1,0.3 0.2,0.4c0.5,0.7 1.6,0.5 2.1,-0.1c0.4,-0.4 0.5,-1 0.5,-1.6c-0.1,-0.6 -0.4,-1.2 -0.8,-1.6c-0.4,-0.4 -1,-0.7 -1.6,-0.8l0,0l0,0l0,0c-0.1,0 -0.2,0 -0.3,0c-0.1,0 -0.2,0 -0.3,0c-0.6,0 -1.2,0.2 -1.7,0.5l0,0l0,0l0,0c-0.2,0.1 -0.4,0.2 -0.6,0.4c-0.2,0.1 -0.4,0.3 -0.5,0.5c-0.8,0.8 -1.3,1.9 -1.6,3.4c0.1,0 0.1,0 0.2,0c1.8,0 4,0.8 5.9,2.3c1.8,1.5 3.2,3.8 3.4,6.9l0,0c0,0.3 0,0.5 0,0.8l0,0.5l-0.5,0c-0.3,0 -0.6,0 -0.8,0l0,0c-3.1,-0.2 -5.4,-1.6 -6.9,-3.4c-1.5,-1.8 -2.3,-4 -2.3,-5.9c0,-0.1 0,-0.1 0,-0.2c-1.5,0.2 -2.6,0.8 -3.4,1.6c-0.2,0.2 -0.3,0.3 -0.5,0.5c-0.1,0.2 -0.3,0.4 -0.4,0.6l0,0l0,0l0,0c-0.3,0.6 -0.5,1.2 -0.5,1.7c0,0.1 0,0.2 0,0.3c0,0.1 0,0.2 0,0.3l0,0l0,0l0,0c0.1,0.6 0.4,1.2 0.8,1.6c0.4,0.5 1,0.8 1.6,0.8c0.6,0.1 1.2,-0.1 1.6,-0.5c0.6,-0.6 0.7,-1.6 0.1,-2.1c-0.1,-0.1 -0.2,-0.1 -0.4,-0.2c-0.1,0 -0.3,0 -0.5,0c-0.3,0 -0.6,0.2 -0.9,0.5c-0.5,-0.6 0.7,-1.4 1.4,-1.2l0,0zm2,-3.9c0,0.1 0,0.2 0,0.2c0,1.6 0.7,3.6 2.1,5.2c1.4,1.6 3.4,2.9 6.2,3l0,0c0.1,0 0.2,0 0.2,0c0,-0.1 0,-0.2 0,-0.2l0,0c-0.2,-2.8 -1.4,-4.8 -3,-6.2c-1.6,-1.4 -3.6,-2.1 -5.2,-2.1c-0.2,0.1 -0.2,0.1 -0.3,0.1l0,0z"/>
  <path id="path26" class="st2" d="m88.1,8.9l0,0l0,0c0.1,-0.1 0.1,-0.2 0.1,-0.2c0,0 0.1,-0.1 0.1,-0.2l0,0c0.2,-0.3 0.5,-0.7 0.8,-1l0,0l0,0c0.2,-0.2 0.4,-0.4 0.7,-0.6c0.2,-0.2 0.5,-0.4 0.7,-0.5c1.2,-0.7 2.5,-1 3.8,-1c0,0.2 0,0.3 0,0.4c0,0.3 0,0.6 -0.1,0.9c-0.2,1.5 -0.9,2.8 -2,4l0,0l0,0c-0.1,0.1 -0.1,0.1 -0.2,0.2c0.1,0 0,0.1 0,0.2c-0.3,0.3 -0.7,0.5 -1,0.7l-0.8,0.5l0.8,0.4l0,0c0,0 0.1,0 0.2,0.1c0.1,0 0.1,0.1 0.2,0.1c0.3,0.2 0.5,0.4 0.7,0.6l0,0l0,0l0,0c0.8,0.8 1.2,1.8 1.2,2.9l0,0c0,0.9 -0.3,1.9 -1,2.7c0,-0.1 0,-0.1 -0.1,-0.2c-0.3,-1 -0.8,-1.9 -1.5,-2.6l0,0l0,0c-0.2,-0.2 -0.4,-0.4 -0.7,-0.6c-0.2,-0.2 -0.5,-0.3 -0.7,-0.5l0,0c-0.9,-0.5 -1.9,-0.7 -2.9,-0.7c-0.3,0 -0.6,0 -0.9,0.1c0,-0.1 0,-0.3 0.1,-0.4c0,-0.3 0,-0.6 0,-0.9c-0.1,-1.5 -0.6,-2.9 -1.8,-4l0,0l0,0l0,0c-0.1,-0.1 -0.3,-0.3 -0.5,-0.4l0,0l0,0c-0.2,-0.1 -0.3,-0.3 -0.5,-0.4c-0.6,-0.4 -1.2,-0.6 -1.9,-0.8c0.8,-0.7 1.7,-1 2.7,-1c1,0 2.1,0.4 2.9,1.2l0,0l0,0l0,0c0.1,0.1 0.1,0.1 0.1,0.1l0,0c0,0 0.1,0.1 0.1,0.1l0,0c0.2,0.2 0.4,0.5 0.5,0.8l0.4,0.8l0.5,-0.8l0,0zm0.4,-2.1c-0.3,0.3 -0.5,0.6 -0.8,0.9c-0.1,-0.1 -0.1,-0.2 -0.2,-0.3l0,0c0,-0.1 -0.1,-0.1 -0.2,-0.2l0,0c-0.1,-0.1 -0.1,-0.1 -0.2,-0.2l0,0l0,0l0,0c-1,-1 -2.3,-1.5 -3.6,-1.5c-1.3,0 -2.6,0.5 -3.6,1.5l0,0l0,0l0,0c-0.1,0.1 -0.2,0.3 -0.3,0.4l0,0l-0.1,0.1l0,0l-0.1,0.1l0,0l0,0l-0.4,0.8l0.9,0.1c0.8,0.1 1.6,0.3 2.3,0.8c0.1,0.1 0.3,0.2 0.4,0.3l0,0c0.1,0.1 0.3,0.2 0.4,0.3l0,0l0,0l0,0c0.9,0.9 1.4,2.1 1.5,3.4c0,0.2 0,0.5 0,0.7c-0.1,0.6 -0.3,1.3 -0.4,1.8c0.9,-0.3 1.9,-0.5 2.8,-0.4c0.7,0.1 1.3,0.2 1.9,0.6l0,0c0.2,0.1 0.4,0.2 0.6,0.4c0.2,0.1 0.4,0.3 0.6,0.5l0,0l0,0c0.6,0.6 1.1,1.4 1.3,2.2c0,0.2 0.1,0.3 0.1,0.5c0,0.1 0,0.3 0.1,0.5l0,0l0.1,0.9l0.7,-0.5c0.1,-0.1 0.3,-0.2 0.4,-0.3l0,0l0.1,-0.1l0,0l0.1,-0.1l0,0l0,0l0,0l0,0c1,-1 1.5,-2.3 1.5,-3.6l0,0c0,-1.3 -0.5,-2.6 -1.5,-3.6l0,0l0,0l0,0c-0.2,-0.2 -0.4,-0.4 -0.6,-0.5c0.2,-0.1 0.3,-0.3 0.5,-0.4c0.1,-0.1 0.1,-0.1 0.2,-0.2c0.1,-0.1 0.1,-0.1 0.2,-0.2l0,0l0,0c1.3,-1.3 2,-2.9 2.3,-4.5c0.1,-0.3 0.1,-0.6 0.1,-1c0,-0.3 0,-0.7 0,-1l0,0l0,-0.4l-0.4,0c-1.7,-0.1 -3.4,0.2 -4.9,1.1c-0.3,0.2 -0.6,0.4 -0.8,0.6c-0.5,0 -0.8,0.3 -1,0.5l0,0l0,0l0,0z"/>
  <path id="path28" class="st2" d="m35.3,23.8l0,0l0,0c-0.2,-0.2 -0.3,-0.3 -0.5,-0.4c-0.2,-0.1 -0.3,-0.2 -0.5,-0.3c-0.9,-0.5 -1.9,-0.7 -2.9,-0.6l-0.4,0l0,0.4l0,0c0,0.2 0,0.4 0,0.6c0,0.2 0,0.4 0,0.6c0.1,1 0.6,1.9 1.3,2.7l0,0l0,0c0.2,0.1 0.3,0.3 0.5,0.4c0.2,0.1 0.3,0.2 0.5,0.3c0.9,0.5 1.9,0.7 2.9,0.6l0.4,0l0,-0.4l0,0c0,-0.2 0,-0.4 0,-0.6c0,-0.2 0,-0.4 0,-0.6c-0.1,-1 -0.6,-1.9 -1.3,-2.7l0,0zm-0.7,0.7l0,0l0,0c0.6,0.6 1,1.4 1.1,2.1c0,0.2 0,0.3 0,0.5l0,0.1c-0.6,0 -1.3,-0.2 -1.9,-0.5c-0.1,-0.1 -0.3,-0.2 -0.4,-0.3c-0.1,-0.1 -0.3,-0.2 -0.4,-0.3l0,0l0,0c-0.6,-0.6 -1,-1.3 -1.1,-2.1c0,-0.2 0,-0.3 0,-0.5l0,-0.1c0.6,0 1.3,0.2 1.9,0.5c0.1,0.1 0.3,0.2 0.4,0.3c0.1,0.1 0.2,0.2 0.4,0.3l0,0z"/>
  <path id="path30" class="st3" d="m53.4,2.2c0,1.8 -1.5,3.3 -3.3,3.3c-1.8,0 -3.3,-1.5 -3.3,-3.3"/>
  <path id="path32" class="st2" d="m53.9,2.2l0,0l0,0c0,1.1 -0.4,2 -1.1,2.7c-0.7,0.7 -1.7,1.1 -2.7,1.1l0,0l0,0l0,0l0,0c-1.1,0 -2,-0.4 -2.7,-1.1c-0.7,-0.7 -1.1,-1.6 -1.1,-2.7l0,0l0,0l1,0l0,0l0,0c0,0.8 0.3,1.5 0.8,2c0.5,0.5 1.2,0.8 2,0.8l0,0l0,0l0,0l0,0c0.8,0 1.5,-0.3 2,-0.8c0.5,-0.5 0.8,-1.2 0.8,-2l0,0l0,0l1,0l0,0z"/>
  <path id="path34" class="st3" d="m80.3,2.2c0,1.8 -1.5,3.3 -3.3,3.3c-1.8,0 -3.3,-1.5 -3.3,-3.3"/>
  <path id="path36" class="st2" d="m80.8,2.2l0,0l0,0c0,1.1 -0.4,2 -1.1,2.7c-0.8,0.7 -1.7,1.1 -2.8,1.1l0,0l0,0l0,0l0,0c-1.1,0 -2,-0.4 -2.7,-1.1c-0.7,-0.7 -1.1,-1.6 -1.1,-2.7l0,0l0,0l1,0l0,0l0,0c0,0.8 0.3,1.5 0.8,2c0.5,0.5 1.2,0.8 2,0.8l0,0l0,0l0,0l0,0c0.8,0 1.5,-0.3 2,-0.8c0.5,-0.5 0.8,-1.2 0.8,-2l0,0l0,0l1.1,0l0,0z"/>
  <path id="path38" class="st3" d="m26.1,2.2c0,1.8 -1.5,3.3 -3.3,3.3c-1.8,0 -3.3,-1.5 -3.3,-3.3"/>
  <path id="path40" class="st2" d="m26.6,2.2l0,0l0,0c0,1.1 -0.4,2 -1.1,2.7c-0.7,0.7 -1.7,1.1 -2.7,1.1l0,0l0,0l0,0l0,0c-1.1,0 -2,-0.4 -2.7,-1.1c-0.7,-0.7 -1.1,-1.6 -1.1,-2.7l0,0l0,0l1,0l0,0l0,0c0,0.8 0.3,1.5 0.8,2c0.5,0.5 1.2,0.8 1.9,0.8l0,0l0,0l0,0l0,0c0.8,0 1.5,-0.3 2,-0.8c0.5,-0.5 0.8,-1.2 0.8,-2l0,0l0,0l1.1,0l0,0z"/>
  <path id="path42" class="st2" d="m83.6,22.5c-0.3,0.1 -0.5,0.2 -0.7,0.3c-0.2,0.2 -0.4,0.4 -0.6,0.7c-0.4,0.9 -0.3,2 0.4,2.8c0.4,0.5 0.9,0.8 1.6,0.9c0.1,0 0.1,0 0.2,0c2,0.2 3.7,-1.3 4,-3.3l0,0l0,0l0,0c0,-0.1 0,-0.3 0,-0.4c0,-0.1 0,-0.3 0,-0.4c0,-0.7 -0.3,-1.5 -0.6,-2.2l0,0l0,0l0,0c-0.1,-0.2 -0.3,-0.5 -0.5,-0.7c-0.2,-0.2 -0.4,-0.4 -0.6,-0.6c-1,-0.9 -2.4,-1.6 -4.2,-1.9c-0.2,-1.8 -0.9,-3.2 -1.9,-4.2c-0.2,-0.2 -0.4,-0.4 -0.6,-0.6c-0.2,-0.2 -0.5,-0.3 -0.7,-0.5l0,0l0,0l0,0c-0.7,-0.4 -1.4,-0.6 -2.2,-0.6c-0.1,0 -0.3,0 -0.4,0c-0.1,0 -0.3,0 -0.4,0l0,0l0,0l0,0c-2,0.3 -3.5,2 -3.3,4c0,0.1 0,0.1 0,0.2c0.1,0.7 0.4,1.2 0.9,1.6c0.8,0.6 1.9,0.8 2.8,0.4c0.3,-0.1 0.5,-0.3 0.7,-0.6c0.2,-0.2 0.3,-0.5 0.3,-0.7c0.2,-0.8 -0.6,-1.9 -1.4,-1.6c0.3,0.2 0.5,0.6 0.5,0.9c0,0.2 0,0.3 0,0.5c0,0.1 -0.1,0.3 -0.2,0.4c-0.5,0.7 -1.6,0.5 -2.1,-0.1c-0.4,-0.4 -0.5,-1 -0.5,-1.6c0.1,-0.6 0.4,-1.2 0.8,-1.6c0.4,-0.4 1,-0.7 1.6,-0.8l0,0l0,0l0,0c0.1,0 0.2,0 0.3,0c0.1,0 0.2,0 0.3,0c0.6,0 1.2,0.2 1.7,0.5l0,0l0,0l0,0c0.2,0.1 0.4,0.2 0.6,0.4c0.2,0.1 0.4,0.3 0.5,0.5c0.8,0.8 1.3,1.9 1.6,3.4c-0.1,0 -0.1,0 -0.2,0c-1.8,0 -4,0.8 -5.9,2.3c-1.8,1.5 -3.2,3.8 -3.4,6.9l0,0c0,0.3 0,0.5 0,0.8l0,0.5l0.5,0c0.3,0 0.6,0 0.8,0l0,0c3.1,-0.2 5.4,-1.6 6.9,-3.4c1.5,-1.8 2.3,-4 2.3,-5.9c0,-0.1 0,-0.1 0,-0.2c1.5,0.2 2.6,0.8 3.4,1.6c0.2,0.2 0.3,0.3 0.5,0.5c0.1,0.2 0.3,0.4 0.4,0.6l0,0l0,0l0,0c0.3,0.6 0.5,1.2 0.5,1.7c0,0.1 0,0.2 0,0.3c0,0.1 0,0.2 0,0.3l0,0l0,0l0,0c-0.1,0.6 -0.4,1.2 -0.8,1.6c-0.4,0.5 -1,0.8 -1.6,0.8c-0.6,0.1 -1.2,-0.1 -1.6,-0.5c-0.6,-0.6 -0.7,-1.6 -0.1,-2.1c0.1,-0.1 0.2,-0.1 0.4,-0.2c0.1,0 0.3,0 0.5,0c0.3,0 0.6,0.2 0.9,0.5c0.6,-0.6 -0.6,-1.4 -1.4,-1.2l0,0zm-1.9,-3.9c0,0.1 0,0.2 0,0.2c0,1.6 -0.7,3.6 -2.1,5.2c-1.4,1.6 -3.4,2.9 -6.2,3l0,0c-0.1,0 -0.2,0 -0.2,0c0,-0.1 0,-0.2 0,-0.2l0,0c0.2,-2.8 1.4,-4.8 3,-6.2c1.6,-1.4 3.6,-2.1 5.2,-2.1c0.1,0.1 0.2,0.1 0.3,0.1l0,0z"/>
  <path id="path44" class="st2" d="m50.1,91.5l0.3,-0.3c0.2,-0.2 0.5,-0.5 0.7,-0.7c2.5,-2.8 3.3,-6.1 3.1,-9c-0.2,-2.9 -1.5,-5.6 -3.1,-7.2c-0.1,-0.1 -0.2,-0.2 -0.2,-0.2c0.1,-0.1 0.3,-0.2 0.4,-0.3c0.4,-0.2 0.7,-0.5 1.1,-0.6c1.8,-0.9 3.5,-1 5,-0.6l0,0c0.3,0.1 0.6,0.2 0.9,0.3c0.3,0.1 0.5,0.3 0.8,0.4c0.7,0.5 1.2,1.1 1.5,1.9c0.7,1.7 0.1,4.5 -2.1,4.7c-1.1,0.1 -1.8,-0.4 -2.2,-1c-0.2,-0.3 -0.2,-0.6 -0.2,-0.9c0,-0.3 0.1,-0.6 0.2,-0.8c0.3,-0.5 0.8,-0.8 1.8,-0.7c-0.1,-1 -2,-0.8 -2.6,0.2c-0.2,0.4 -0.3,0.9 -0.3,1.3c0,0.5 0.1,0.9 0.4,1.3c0.5,0.9 1.6,1.6 3.1,1.5c2.8,-0.2 3.7,-3.4 3,-5.7c-0.3,-1.1 -1,-2 -1.9,-2.6c-0.3,-0.2 -0.6,-0.4 -0.9,-0.5c-0.3,-0.2 -0.7,-0.3 -1,-0.4l0,0c-1.7,-0.5 -3.7,-0.3 -5.7,0.7c-0.4,0.2 -0.8,0.4 -1.2,0.7c-0.2,0.1 -0.4,0.3 -0.6,0.4l0,0l0,0c-0.2,-0.2 -0.4,-0.3 -0.6,-0.4c-0.4,-0.3 -0.8,-0.5 -1.2,-0.7c-2,-1 -4,-1.2 -5.7,-0.7l0,0c-0.4,0.1 -0.7,0.2 -1,0.4c-0.3,0.2 -0.6,0.3 -0.9,0.5c-0.8,0.5 -1.4,1.3 -1.7,2.1c-1,2.3 -0.2,6 2.8,6.2c1.5,0.1 2.6,-0.6 3.1,-1.5c0.2,-0.4 0.4,-0.9 0.4,-1.3c0,-0.5 -0.1,-0.9 -0.3,-1.3c-0.6,-1.1 -2.6,-1.2 -2.6,-0.2c0.9,-0.1 1.5,0.2 1.8,0.7c0.1,0.2 0.2,0.5 0.2,0.8c0,0.3 -0.1,0.6 -0.2,0.9c-0.3,0.6 -1.1,1.1 -2.2,1c-2.4,-0.2 -2.8,-3.3 -1.9,-5c0.3,-0.6 0.8,-1.1 1.3,-1.5c0.2,-0.2 0.5,-0.3 0.8,-0.4c0.3,-0.1 0.6,-0.2 0.9,-0.3l0,0c1.4,-0.4 3.2,-0.3 5,0.6c0.4,0.2 0.7,0.4 1.1,0.6c0.1,0.1 0.3,0.2 0.4,0.3c-0.1,0.1 -0.2,0.2 -0.2,0.2c-1.6,1.6 -2.8,4.2 -3.1,7.2c-0.2,2.9 0.5,6.2 3.1,9c0.2,0.3 0.5,0.5 0.7,0.7l-0.3,0.2l0,0zm0,-16.8l0,0c0.1,0.1 0.2,0.2 0.3,0.3c1.4,1.5 2.6,3.9 2.8,6.6c0.2,2.7 -0.5,5.7 -2.8,8.3c-0.1,0.1 -0.2,0.2 -0.3,0.3l0,0l0,0c-0.1,-0.1 -0.2,-0.2 -0.3,-0.3c-2.3,-2.6 -3,-5.6 -2.8,-8.3c0.2,-2.7 1.4,-5.1 2.8,-6.6c0.1,-0.1 0.2,-0.2 0.3,-0.3l0,0l0,0z"/>
  <path id="path46" class="st2" d="m64.7,76l0,0l0,0c0.2,0.2 0.3,0.3 0.5,0.4c0.2,0.1 0.3,0.2 0.5,0.3c0.9,0.5 1.9,0.7 2.9,0.6l0.4,0l0,-0.4l0,0c0,-0.2 0,-0.4 0,-0.6c0,-0.2 0,-0.4 0,-0.6c-0.1,-1 -0.6,-1.9 -1.3,-2.7l0,0l0,0c-0.2,-0.1 -0.3,-0.3 -0.5,-0.4c-0.2,-0.1 -0.3,-0.2 -0.5,-0.3c-0.9,-0.5 -1.9,-0.7 -2.9,-0.6l-0.4,0l0,0.4l0,0c0,0.2 0,0.4 0,0.6c0,0.2 0,0.4 0,0.6c0.1,1 0.6,1.9 1.3,2.7l0,0zm0.7,-0.7l0,0l0,0c-0.6,-0.6 -1,-1.4 -1.1,-2.1c0,-0.2 0,-0.3 0,-0.5l0,-0.1c0.6,0 1.3,0.2 1.9,0.5c0.1,0.1 0.3,0.2 0.4,0.3c0.1,0.1 0.3,0.2 0.4,0.3l0,0l0,0c0.6,0.6 1,1.3 1.1,2.1c0,0.2 0,0.3 0,0.5l0,0.1c-0.6,0 -1.3,-0.2 -1.9,-0.5c-0.1,-0.1 -0.3,-0.2 -0.4,-0.3c-0.1,-0.1 -0.3,-0.2 -0.4,-0.3l0,0z"/>
  <g id="g48">
   <path id="path50" class="st2" d="m62.6,87.3l0,0l0,0c0,-0.1 0,-0.2 -0.1,-0.2c0,-0.1 0,-0.1 0,-0.2c-0.1,-0.4 -0.1,-0.8 -0.1,-1.2l0,0l0,0c0,-1.1 0.3,-2.1 0.7,-3.1l0,0c0.1,-0.2 0.2,-0.3 0.2,-0.4c0.4,-0.6 0.8,-1.2 1.3,-1.7c0.1,0.1 0.2,0.2 0.3,0.3c0.2,0.2 0.4,0.4 0.5,0.7c0.9,1.2 1.4,2.7 1.4,4.3l0,0l0,0c0,0.3 0,0.6 -0.1,0.9l0,0l0,0.1l0,0c0,0.2 -0.1,0.5 -0.1,0.7l-0.2,0.9l0.9,-0.3l0,0l0,0c0.1,0 0.1,0 0.2,-0.1l0,0l0,0c0.1,0 0.1,0 0.2,0c0.3,-0.1 0.6,-0.1 0.9,-0.1l0,0l0,0c1.1,0 2.1,0.5 2.9,1.2c0.7,0.7 1.1,1.6 1.2,2.6c-0.1,0 -0.1,-0.1 -0.2,-0.1c-0.9,-0.5 -1.9,-0.8 -2.9,-0.8l0,0l0,0c-1.1,0 -2.1,0.3 -3,0.8c-0.1,0.1 -0.3,0.2 -0.4,0.3c-0.5,0.4 -1,0.8 -1.4,1.4l0,-0.1l0,0.1c-0.1,-0.1 -0.1,-0.2 -0.2,-0.2c-0.2,-0.2 -0.4,-0.4 -0.6,-0.6c-1.1,-1 -2.5,-1.6 -4.1,-1.6l0,0l0,0c-0.7,0 -1.5,0.1 -2.1,0.4c-0.1,0 -0.2,0.1 -0.3,0.1c-0.2,0.1 -0.5,0.2 -0.7,0.4c0.1,-1 0.5,-1.9 1.2,-2.6c0.7,-0.7 1.8,-1.2 2.9,-1.2l0,0l0,0l0,0l0,0c0.2,0 0.4,0 0.6,0.1l0,0l0.1,0l0,0c0.2,0 0.4,0.1 0.5,0.1l0.8,0.3l-0.3,-1.2l0,0zm-1.2,-1.8c0,0.4 0,0.8 0.1,1.2c-0.3,0 -0.5,-0.1 -0.8,-0.1l0,0l0,0l0,0l0,0c-1.4,0 -2.7,0.6 -3.6,1.5c-0.9,0.9 -1.5,2.2 -1.5,3.6l0,0l0,0c0,0.2 0,0.3 0,0.5l0,0l0,0.1l0,0l0,0.1l0,0l0,0l0.1,0.9l0.7,-0.6c0.4,-0.3 0.8,-0.6 1.2,-0.8c0.1,0 0.2,-0.1 0.3,-0.1c0.5,-0.2 1.1,-0.3 1.8,-0.3l0,0l0,0c1.3,0 2.5,0.5 3.4,1.3c0.2,0.2 0.3,0.3 0.5,0.5c0.1,0.2 0.3,0.4 0.4,0.6l0,0l0.1,0.1l0,0l0.1,0.1l0.2,0.5l0.2,0.3l0,0l0,0l0.3,-0.6l0.1,-0.2c0,-0.1 0.1,-0.1 0.1,-0.1l0,0l0.1,-0.1l0,0c0.4,-0.6 0.9,-1.1 1.4,-1.5c0.1,-0.1 0.2,-0.2 0.4,-0.2c0.7,-0.4 1.6,-0.7 2.5,-0.7l0,0l0,0c0.9,0 1.7,0.2 2.5,0.6c0.1,0.1 0.3,0.2 0.4,0.3l0,0c0.1,0.1 0.3,0.2 0.4,0.3l0,0l0,0l0.7,0.6l0.1,-0.9c0,-0.1 0,-0.2 0,-0.3l0,-0.1l0,0c0,-0.1 0,-0.2 0,-0.3l0,0l0,0l0,0l0,0c0,-1.4 -0.6,-2.7 -1.5,-3.6c-0.9,-0.9 -2.2,-1.5 -3.6,-1.5l0,0l0,0c-0.3,0 -0.5,0 -0.8,0.1l0,0l0,0l0,-0.2l0,0c0,-0.3 0.1,-0.6 0.1,-1l0,0l0,0c0,-1.8 -0.6,-3.5 -1.6,-4.8c-0.2,-0.3 -0.4,-0.5 -0.6,-0.8c-0.2,-0.2 -0.5,-0.5 -0.7,-0.7l0,0l-0.3,-0.2l-0.3,0.3c-0.7,0.6 -1.4,1.4 -1.9,2.2c-0.1,0.2 -0.2,0.3 -0.3,0.5l0,0c-0.4,1.1 -0.7,2.3 -0.7,3.5l0,0l0,0l0,0zm3.5,-6.2l0,0l0,0z"/>
   <path id="path52" class="st2" d="m33.5,87.2l0,0l0,0c0,-0.1 0,-0.2 -0.1,-0.2c0,-0.1 0,-0.1 0,-0.2c-0.1,-0.4 -0.1,-0.8 -0.1,-1.2l0,0l0,0c0,-1.1 0.3,-2.1 0.7,-3.1l0,0c0.1,-0.2 0.2,-0.3 0.2,-0.4c0.4,-0.6 0.8,-1.2 1.3,-1.7c0.1,0.1 0.2,0.2 0.3,0.3c0.2,0.2 0.4,0.4 0.5,0.7c0.9,1.2 1.4,2.7 1.4,4.3l0,0l0,0c0,0.3 0,0.6 -0.1,0.9l0,0l0,0.1l0,0c0,0.2 -0.1,0.5 -0.1,0.7l-0.2,0.9l0.9,-0.3l0,0l0,0c0.1,0 0.1,0 0.2,-0.1l0,0l0,0c0.1,0 0.1,0 0.2,0c0.3,-0.1 0.6,-0.1 0.9,-0.1l0,0l0,0c1.1,0 2.1,0.5 2.9,1.2c0.7,0.7 1.1,1.6 1.2,2.6c-0.1,0 -0.1,-0.1 -0.2,-0.1c-0.9,-0.5 -1.9,-0.8 -2.9,-0.8l0,0l0,0c-1.1,0 -2.1,0.3 -3,0.8c-0.1,0.1 -0.3,0.2 -0.4,0.3c-0.5,0.4 -1,0.8 -1.4,1.4l0,-0.1l0,0.1c-0.1,-0.1 -0.1,-0.2 -0.2,-0.2c-0.2,-0.2 -0.4,-0.4 -0.6,-0.6c-1.1,-1 -2.5,-1.6 -4.1,-1.6l0,0l0,0c-0.7,0 -1.5,0.1 -2.1,0.4c-0.1,0 -0.2,0.1 -0.3,0.1c-0.2,0.1 -0.5,0.2 -0.7,0.4c0.1,-1 0.5,-1.9 1.2,-2.6c0.7,-0.7 1.8,-1.2 2.9,-1.2l0,0l0,0l0,0l0,0c0.2,0 0.4,0 0.6,0.1l0,0l0.1,0l0,0c0.2,0 0.4,0.1 0.5,0.1l0.8,0.3l-0.3,-1.2l0,0zm-1.2,-1.7c0,0.4 0,0.8 0.1,1.2c-0.3,0 -0.5,-0.1 -0.8,-0.1l0,0l0,0l0,0l0,0c-1.4,0 -2.7,0.6 -3.6,1.5c-0.9,0.9 -1.5,2.2 -1.5,3.6l0,0l0,0c0,0.2 0,0.3 0,0.5l0,0l0,0.1l0,0l0,0.1l0,0l0,0l0.1,0.9l0.7,-0.6c0.4,-0.3 0.8,-0.6 1.2,-0.8c0.1,0 0.2,-0.1 0.3,-0.1c0.5,-0.2 1.1,-0.3 1.8,-0.3l0,0l0,0c1.3,0 2.5,0.5 3.4,1.3c0.2,0.2 0.3,0.3 0.5,0.5c0.1,0.2 0.3,0.4 0.4,0.6l0,0l0.1,0.1l0,0l0.1,0.1l0.2,0.5l0.2,0.3l0,0l0,0l0.3,-0.6l0.1,-0.2c0,-0.1 0.1,-0.1 0.1,-0.1l0,0l0.1,-0.1l0,0c0.4,-0.6 0.9,-1.1 1.4,-1.5c0.1,-0.1 0.2,-0.2 0.4,-0.2c0.7,-0.4 1.6,-0.7 2.5,-0.7l0,0l0,0c0.9,0 1.7,0.2 2.5,0.6c0.1,0.1 0.3,0.2 0.4,0.3l0,0c0.1,0.1 0.3,0.2 0.4,0.3l0,0l0,0l0.7,0.6l0.1,-0.9c0,-0.1 0,-0.2 0,-0.3l0,-0.1l0,0c0,-0.1 0,-0.2 0,-0.3l0,0l0,0l0,0l0,0c0,-1.4 -0.6,-2.7 -1.5,-3.6c-0.9,-0.9 -2.2,-1.5 -3.6,-1.5l0,0l0,0c-0.3,0 -0.5,0 -0.8,0.1l0,0l0,0l0,-0.2l0,0c0,-0.3 0.1,-0.6 0.1,-1l0,0l0,0c0,-1.8 -0.6,-3.5 -1.6,-4.8c-0.2,-0.3 -0.4,-0.5 -0.6,-0.8c-0.2,-0.2 -0.5,-0.5 -0.7,-0.7l0,0l-0.3,-0.3l-0.3,0.3c-0.7,0.6 -1.4,1.4 -1.9,2.2c-0.1,0.2 -0.2,0.3 -0.3,0.5l0,0c-0.4,1.1 -0.7,2.3 -0.7,3.6l0,0l0,0l0,0zm3.6,-6.3l0,0l0,0z"/>
  </g>
  <path id="path54" class="st2" d="m12.1,90.5l0,0l0,0c-0.1,0.1 -0.1,0.2 -0.1,0.2c0,0 -0.1,0.1 -0.1,0.2l0,0c-0.2,0.3 -0.5,0.7 -0.8,1l0,0l0,0c-0.2,0.2 -0.4,0.4 -0.7,0.6c-0.4,0.2 -0.6,0.4 -0.9,0.5c-1.2,0.7 -2.5,1 -3.8,1c0,-0.2 0,-0.3 0,-0.4c0,-0.3 0,-0.6 0.1,-0.9c0.2,-1.5 0.9,-2.8 2,-4l0,0l0,0c0.1,-0.1 0.1,-0.1 0.2,-0.2c0.1,-0.1 0.1,-0.1 0.2,-0.2c0.3,-0.3 0.7,-0.5 1,-0.7l0.8,-0.5l-0.8,-0.4l0,0c0,0 -0.1,0 -0.2,-0.1c-0.1,0 -0.1,-0.1 -0.2,-0.1c-0.3,-0.2 -0.5,-0.4 -0.7,-0.6l0,0l0,0l0,0c-0.8,-0.8 -1.2,-1.8 -1.2,-2.9l0,0c0,-0.9 0.3,-1.9 1,-2.7c0,0.1 0,0.1 0.1,0.2c0.3,1 0.8,1.9 1.5,2.6l0,0l0,0c0.2,0.2 0.4,0.4 0.7,0.6c0.2,0.2 0.5,0.3 0.7,0.5l0,0c0.9,0.5 1.9,0.7 2.9,0.7c0.3,0 0.6,0 0.9,-0.1c0,0.1 0,0.3 -0.1,0.4c0,0.3 0,0.6 0,0.9c0.1,1.5 0.6,2.9 1.8,4l0,0l0,0l0,0c0.1,0.1 0.3,0.3 0.5,0.4l0,0l0,0c0.2,0.1 0.3,0.3 0.5,0.4c0.6,0.4 1.2,0.6 1.9,0.8c-0.8,0.7 -1.7,1 -2.7,1c-1,0 -2.1,-0.4 -2.9,-1.2l0,0l0,0l0,0c-0.1,-0.1 -0.1,-0.1 -0.1,-0.1l0,0c0,0 -0.1,-0.1 -0.1,-0.1l0,0c-0.2,-0.2 -0.4,-0.5 -0.5,-0.8l-0.4,-0.8l-0.5,0.8l0,0zm-0.4,2.1c0.3,-0.3 0.5,-0.6 0.8,-0.9c0.1,0.1 0.1,0.2 0.2,0.3l0,0c0,0.1 0.1,0.1 0.2,0.2l0,0c0.1,0.1 0.1,0.1 0.2,0.2l0,0l0,0l0,0c1,1 2.3,1.5 3.6,1.5c1.3,0 2.6,-0.5 3.6,-1.5l0,0l0,0l0,0c0.1,-0.1 0.2,-0.3 0.3,-0.4l0,0l0.1,-0.1l0,0l0.1,-0.1l0,0l0,0l0.5,-0.7l-1,-0.1c-0.8,-0.1 -1.6,-0.3 -2.3,-0.8c-0.1,-0.1 -0.3,-0.2 -0.4,-0.3l0,0c-0.1,-0.1 -0.3,-0.2 -0.4,-0.3l0,0l0,0l0,0c-0.9,-0.9 -1.4,-2.1 -1.5,-3.4c0,-0.2 0,-0.5 0,-0.7c0.1,-0.6 0.3,-1.3 0.4,-1.8c-0.9,0.3 -1.9,0.5 -2.8,0.4c-0.7,-0.1 -1.3,-0.2 -1.9,-0.6l0,0c-0.2,-0.1 -0.4,-0.2 -0.6,-0.4c-0.2,-0.1 -0.4,-0.3 -0.6,-0.5l0,0l0,0c-0.6,-0.6 -1.1,-1.4 -1.3,-2.2c0,-0.2 -0.1,-0.3 -0.1,-0.5c0,-0.1 0,-0.3 -0.1,-0.5l0,0l-0.1,-0.9l-0.7,0.5c-0.1,0.1 -0.3,0.2 -0.4,0.3l0,0l-0.1,0.1l0,0l-0.1,0.1l0,0l0,0l0,0l0,0c-1,1 -1.5,2.3 -1.5,3.6l0,0c0,1.3 0.5,2.6 1.5,3.6l0,0l0,0l0,0c0.2,0.2 0.4,0.4 0.6,0.5c-0.2,0.1 -0.3,0.3 -0.5,0.4c-0.1,0.1 -0.1,0.1 -0.2,0.2c-0.1,0.1 -0.1,0.1 -0.2,0.2l0,0l0,0c-1.3,1.3 -2,2.9 -2.3,4.5c-0.1,0.3 -0.1,0.6 -0.1,1c0,0.3 0,0.7 0,1l0,0l0,0.4l0.4,0c1.7,0.1 3.4,-0.2 4.9,-1.1c0.3,-0.2 0.6,-0.4 0.8,-0.6c0.5,-0.1 0.7,-0.4 1,-0.6l0,0l0,0l0,0z"/>
  <path id="path56" class="st2" d="m16.9,76.9c0.3,-0.1 0.5,-0.2 0.7,-0.3c0.2,-0.2 0.4,-0.4 0.6,-0.7c0.4,-0.9 0.3,-2 -0.4,-2.8c-0.4,-0.5 -0.9,-0.8 -1.6,-0.9c-0.1,0 -0.1,0 -0.2,0c-2,-0.2 -3.7,1.3 -4,3.3l0,0l0,0l0,0c0,0.1 0,0.3 0,0.4c0,0.1 0,0.3 0,0.4c0,0.7 0.3,1.5 0.6,2.2l0,0l0,0l0,0c0.1,0.2 0.3,0.5 0.5,0.7c0.2,0.2 0.4,0.4 0.6,0.6c1,0.9 2.4,1.6 4.2,1.9c0.2,1.8 0.9,3.2 1.9,4.2c0.2,0.2 0.4,0.4 0.6,0.6c0.2,0.2 0.5,0.3 0.7,0.5l0,0l0,0l0,0c0.7,0.4 1.4,0.6 2.2,0.6c0.1,0 0.3,0 0.4,0c0.1,0 0.3,0 0.4,0l0,0l0,0l0,0c2,-0.3 3.5,-2 3.3,-4c0,-0.1 0,-0.1 0,-0.2c-0.1,-0.7 -0.4,-1.2 -0.9,-1.6c-0.8,-0.6 -1.9,-0.8 -2.8,-0.4c-0.3,0.1 -0.5,0.3 -0.7,0.6c-0.2,0.2 -0.3,0.5 -0.3,0.7c-0.2,0.8 0.6,1.9 1.4,1.6c-0.3,-0.2 -0.5,-0.6 -0.5,-0.9c0,-0.2 0,-0.3 0,-0.5c0,-0.1 0.1,-0.3 0.2,-0.4c0.5,-0.7 1.6,-0.5 2.1,0.1c0.4,0.4 0.5,1 0.5,1.6c-0.1,0.6 -0.4,1.2 -0.8,1.6c-0.4,0.4 -1,0.7 -1.6,0.8l0,0l0,0l0,0c-0.1,0 -0.2,0 -0.3,0c-0.1,0 -0.2,0 -0.3,0c-0.6,0 -1.2,-0.2 -1.7,-0.5l0,0l0,0l0,0c-0.2,-0.1 -0.4,-0.2 -0.6,-0.4c-0.2,-0.1 -0.4,-0.3 -0.5,-0.5c-0.8,-0.8 -1.3,-1.9 -1.6,-3.4c0.1,0 0.1,0 0.2,0c1.8,0 4,-0.8 5.9,-2.3c1.8,-1.5 3.2,-3.8 3.4,-6.9l0,0c0,-0.3 0,-0.5 0,-0.8l0,-0.5l-0.5,0c-0.3,0 -0.6,0 -0.8,0l0,0c-3.1,0.2 -5.4,1.6 -6.9,3.4c-1.5,1.8 -2.3,4 -2.3,5.9c0,0.1 0,0.1 0,0.2c-1.5,-0.2 -2.6,-0.8 -3.4,-1.6c-0.2,-0.2 -0.3,-0.3 -0.5,-0.5c-0.1,-0.2 -0.3,-0.4 -0.4,-0.6l0,0l0,0l0,0c-0.3,-0.6 -0.5,-1.2 -0.5,-1.7c0,-0.1 0,-0.2 0,-0.3c0,-0.1 0,-0.2 0,-0.3l0,0l0,0l0,0c0.1,-0.6 0.4,-1.2 0.8,-1.6c0.4,-0.5 1,-0.8 1.6,-0.8c0.6,-0.1 1.2,0.1 1.6,0.5c0.6,0.6 0.7,1.6 0.1,2.1c-0.1,0.1 -0.2,0.1 -0.4,0.2c-0.1,0 -0.3,0 -0.5,0c-0.3,0 -0.6,-0.2 -0.9,-0.5c-0.5,0.6 0.7,1.4 1.4,1.2l0,0zm2,3.9c0,-0.1 0,-0.2 0,-0.2c0,-1.6 0.7,-3.6 2.1,-5.2c1.4,-1.6 3.4,-2.9 6.2,-3l0,0c0.1,0 0.2,0 0.2,0c0,0.1 0,0.2 0,0.2l0,0c-0.2,2.8 -1.4,4.8 -3,6.2c-1.6,1.4 -3.6,2.1 -5.2,2.1c-0.2,-0.1 -0.2,-0.1 -0.3,-0.1l0,0z"/>
  <path id="path58" class="st2" d="m88.1,90.5l0,0l0,0c0.1,0.1 0.1,0.2 0.1,0.2c0,0 0.1,0.1 0.1,0.2l0,0c0.2,0.3 0.5,0.7 0.8,1l0,0l0,0c0.2,0.2 0.4,0.4 0.7,0.6c0.2,0.2 0.5,0.4 0.7,0.5c1.2,0.7 2.5,1 3.8,1c0,-0.2 0,-0.3 0,-0.4c0,-0.3 0,-0.6 -0.1,-0.9c-0.2,-1.5 -0.9,-2.8 -2,-4l0,0l0,0c-0.1,-0.1 -0.1,-0.1 -0.2,-0.2c-0.1,-0.1 -0.1,-0.1 -0.2,-0.2c-0.3,-0.3 -0.7,-0.5 -1,-0.7l-0.8,-0.5l0.8,-0.4l0,0c0,0 0.1,0 0.2,-0.1c0.1,0 0.1,-0.1 0.2,-0.1c0.3,-0.2 0.5,-0.4 0.7,-0.6l0,0l0,0l0,0c0.8,-0.8 1.2,-1.8 1.2,-2.9l0,0c0,-0.9 -0.3,-1.9 -1,-2.7c0,0.1 0,0.1 -0.1,0.2c-0.3,1 -0.8,1.9 -1.5,2.6l0,0l0,0c-0.2,0.2 -0.4,0.4 -0.7,0.6c-0.2,0.2 -0.5,0.3 -0.7,0.5l0,0c-0.9,0.5 -1.9,0.7 -2.9,0.7c-0.3,0 -0.6,0 -0.9,-0.1c0,0.1 0,0.3 0.1,0.4c0,0.3 0,0.6 0,0.9c-0.1,1.5 -0.6,2.9 -1.8,4l0,0l0,0l0,0c-0.1,0.1 -0.3,0.3 -0.5,0.4l0,0l0,0c-0.2,0.1 -0.3,0.3 -0.5,0.4c-0.6,0.4 -1.2,0.6 -1.9,0.8c0.8,0.7 1.7,1 2.7,1c1,0 2.1,-0.4 2.9,-1.2l0,0l0,0l0,0c0.1,-0.1 0.1,-0.1 0.1,-0.1l0,0c0,0 0.1,-0.1 0.1,-0.1l0,0c0.2,-0.2 0.4,-0.5 0.5,-0.8l0.4,-0.8l0.7,0.8l0,0zm0.4,2.1c-0.3,-0.3 -0.5,-0.6 -0.8,-0.9c-0.1,0.1 -0.1,0.2 -0.2,0.3l0,0c0,0.1 -0.1,0.1 -0.2,0.2l0,0c-0.1,0.1 -0.1,0.1 -0.2,0.2l0,0l0,0l0,0c-1,1 -2.3,1.5 -3.6,1.5c-1.3,0 -2.6,-0.5 -3.6,-1.5l0,0l0,0l0,0c-0.1,-0.1 -0.2,-0.3 -0.3,-0.4l0,0l-0.1,-0.1l0,0l-0.1,-0.1l0,0l0,0l-0.4,-0.7l0.9,-0.1c0.8,-0.1 1.6,-0.3 2.3,-0.8c0.1,-0.1 0.3,-0.2 0.4,-0.3l0,0c0.1,-0.1 0.3,-0.2 0.4,-0.3l0,0l0,0l0,0c0.9,-0.9 1.4,-2.1 1.5,-3.4c0,-0.2 0,-0.5 0,-0.7c-0.1,-0.6 -0.3,-1.3 -0.4,-1.8c0.9,0.3 1.9,0.5 2.8,0.4c0.7,-0.1 1.3,-0.2 1.9,-0.6l0,0c0.2,-0.1 0.4,-0.2 0.6,-0.4c0.2,-0.1 0.4,-0.3 0.6,-0.5l0,0l0,0c0.6,-0.6 1.1,-1.4 1.3,-2.2c0,-0.2 0.1,-0.3 0.1,-0.5c0,-0.1 0,-0.3 0.1,-0.5l0,0l0.1,-0.9l0.7,0.5c0.1,0.1 0.3,0.2 0.4,0.3l0,0l0.1,0.1l0,0l0.1,0.1l0,0l0,0l0,0l0,0c1,1 1.5,2.3 1.5,3.6l0,0c0,1.3 -0.5,2.6 -1.5,3.6l0,0l0,0l0,0c-0.2,0.2 -0.4,0.4 -0.6,0.5c0.2,0.1 0.3,0.3 0.5,0.4c0.1,0.1 0.1,0.1 0.2,0.2c0.1,0.1 0.1,0.1 0.2,0.2l0,0l0,0c1.3,1.3 2,2.9 2.3,4.5c0.1,0.3 0.1,0.6 0.1,1c0,0.3 0,0.7 0,1l0,0l0,0.4l-0.6,0.1c-1.7,0.1 -3.4,-0.2 -4.9,-1.1c-0.3,-0.2 -0.6,-0.4 -0.8,-0.6c-0.3,-0.2 -0.6,-0.5 -0.8,-0.7l0,0l0,0l0,0z"/>
  <path id="path60" class="st2" d="m35.3,75.6l0,0l0,0c-0.2,0.2 -0.3,0.3 -0.5,0.4c-0.2,0.1 -0.3,0.2 -0.5,0.3c-0.9,0.5 -1.9,0.7 -2.9,0.6l-0.4,0l0,-0.4l0,0c0,-0.2 0,-0.4 0,-0.6c0,-0.2 0,-0.4 0,-0.6c0.1,-1 0.6,-1.9 1.3,-2.7l0,0l0,0c0.2,-0.1 0.3,-0.3 0.5,-0.4c0.2,-0.1 0.3,-0.2 0.5,-0.3c0.9,-0.5 1.9,-0.7 2.9,-0.6l0.4,0l0,0.4l0,0c0,0.2 0,0.4 0,0.6c0,0.2 0,0.4 0,0.6c-0.1,1 -0.6,2 -1.3,2.7l0,0zm-0.7,-0.7l0,0l0,0c0.6,-0.6 1,-1.4 1.1,-2.1c0,-0.2 0,-0.3 0,-0.5l0,-0.1c-0.6,0 -1.3,0.2 -1.9,0.5c-0.1,0.1 -0.3,0.2 -0.4,0.3c-0.1,0.1 -0.3,0.2 -0.4,0.3l0,0l0,0c-0.6,0.6 -1,1.3 -1.1,2.1c0,0.2 0,0.3 0,0.5l0,0.1c0.6,0 1.3,-0.2 1.9,-0.5c0.1,-0.1 0.3,-0.2 0.4,-0.3c0.1,-0.1 0.2,-0.2 0.4,-0.3l0,0z"/>
  <path id="path62" class="st3" d="m53.4,97.2c0,-1.8 -1.5,-3.3 -3.3,-3.3c-1.8,0 -3.3,1.5 -3.3,3.3"/>
  <path id="path64" class="st2" d="m53.9,97.2l0,0l0,0c0,-1.1 -0.4,-2 -1.1,-2.7c-0.7,-0.7 -1.6,-1.1 -2.7,-1.1l0,0l0,0l0,0l0,0c-1.1,0 -2,0.4 -2.7,1.1c-0.7,0.7 -1.1,1.6 -1.1,2.7l0,0l0,0l1,0l0,0l0,0c0,-0.8 0.3,-1.5 0.8,-2c0.5,-0.5 1.2,-0.8 2,-0.8l0,0l0,0l0,0l0,0c0.8,0 1.5,0.3 2,0.8c0.5,0.5 0.8,1.2 0.8,2l0,0l0,0l1,0l0,0z"/>
  <path id="path66" class="st3" d="m80.3,97.2c0,-1.8 -1.5,-3.3 -3.3,-3.3c-1.8,0 -3.3,1.5 -3.3,3.3"/>
  <path id="path68" class="st2" d="m80.8,97.2l0,0l0,0c0,-1.1 -0.4,-2 -1.1,-2.7c-0.7,-0.7 -1.6,-1.1 -2.7,-1.1l0,0l0,0l0,0l0,0c-1.1,0 -2,0.4 -2.7,1.1c-0.7,0.7 -1.1,1.6 -1.1,2.7l0,0l0,0l1,0l0,0l0,0c0,-0.8 0.3,-1.5 0.8,-2c0.5,-0.5 1.2,-0.8 2,-0.8l0,0l0,0l0,0l0,0c0.8,0 1.5,0.3 2,0.8c0.5,0.5 0.8,1.2 0.8,2l0,0l0,0l1,0l0,0z"/>
  <path id="path70" class="st3" d="m26.1,97.2c0,-1.8 -1.5,-3.3 -3.3,-3.3c-1.8,0 -3.3,1.5 -3.3,3.3"/>
  <path id="path72" class="st2" d="m26.6,97.2l0,0l0,0c0,-1.1 -0.4,-2 -1.1,-2.7c-0.7,-0.7 -1.6,-1.1 -2.7,-1.1l0,0l0,0l0,0l0,0c-1.1,0 -2,0.4 -2.7,1.1c-0.7,0.7 -1.1,1.6 -1.1,2.7l0,0l0,0l1,0l0,0l0,0c0,-0.8 0.3,-1.5 0.8,-2c0.5,-0.5 1.2,-0.8 2,-0.8l0,0l0,0l0,0l0,0c0.8,0 1.5,0.3 2,0.8c0.5,0.5 0.8,1.2 0.8,2l0,0l0,0l1,0l0,0z"/>
  <path id="path74" class="st2" d="m83.6,76.9c-0.3,-0.1 -0.5,-0.2 -0.7,-0.3c-0.2,-0.2 -0.4,-0.4 -0.6,-0.7c-0.4,-0.9 -0.3,-2 0.4,-2.8c0.4,-0.5 0.9,-0.8 1.6,-0.9c0.1,0 0.1,0 0.2,0c2,-0.2 3.7,1.3 4,3.3l0,0l0,0l0,0c0,0.1 0,0.3 0,0.4c0,0.1 0,0.3 0,0.4c0,0.7 -0.3,1.5 -0.6,2.2l0,0l0,0l0,0c-0.1,0.2 -0.3,0.5 -0.5,0.7c-0.2,0.2 -0.4,0.4 -0.6,0.6c-1,0.9 -2.4,1.6 -4.2,1.9c-0.2,1.8 -0.9,3.2 -1.9,4.2c-0.2,0.2 -0.4,0.4 -0.6,0.6c-0.2,0.2 -0.5,0.3 -0.7,0.5l0,0l0,0l0,0c-0.7,0.4 -1.4,0.6 -2.2,0.6c-0.1,0 -0.3,0 -0.4,0c-0.1,0 -0.3,0 -0.4,0l0,0l0,0l0,0c-2,-0.3 -3.5,-2 -3.3,-4c0,-0.1 0,-0.1 0,-0.2c0.1,-0.7 0.4,-1.2 0.9,-1.6c0.8,-0.6 1.9,-0.8 2.8,-0.4c0.3,0.1 0.5,0.3 0.7,0.6c0.2,0.2 0.3,0.5 0.3,0.7c0.2,0.8 -0.6,1.9 -1.4,1.6c0.3,-0.2 0.5,-0.6 0.5,-0.9c0,-0.2 0,-0.3 0,-0.5c0,-0.1 -0.1,-0.3 -0.2,-0.4c-0.5,-0.7 -1.6,-0.5 -2.1,0.1c-0.4,0.4 -0.5,1 -0.5,1.6c0.1,0.6 0.4,1.2 0.8,1.6c0.4,0.4 1,0.7 1.6,0.8l0,0l0,0l0,0c0.1,0 0.2,0 0.3,0c0.1,0 0.2,0 0.3,0c0.6,0 1.2,-0.2 1.7,-0.5l0,0l0,0l0,0c0.2,-0.1 0.4,-0.2 0.6,-0.4c0.2,-0.1 0.4,-0.3 0.5,-0.5c0.8,-0.8 1.3,-1.9 1.6,-3.4c-0.1,0 -0.1,0 -0.2,0c-1.8,0 -4,-0.8 -5.9,-2.3c-1.8,-1.5 -3.2,-3.8 -3.4,-6.9l0,0c0,-0.3 0,-0.5 0,-0.8l0,-0.5l0.5,0c0.3,0 0.6,0 0.8,0l0,0c3.1,0.2 5.4,1.6 6.9,3.4c1.5,1.8 2.3,4 2.3,5.9c0,0.1 0,0.1 0,0.2c1.5,-0.2 2.6,-0.8 3.4,-1.6c0.2,-0.2 0.3,-0.3 0.5,-0.5c0.1,-0.2 0.3,-0.4 0.4,-0.6l0,0l0,0l0,0c0.3,-0.6 0.5,-1.2 0.5,-1.7c0,-0.1 0,-0.2 0,-0.3c0,-0.1 0,-0.2 0,-0.3l0,0l0,0l0,0c-0.1,-0.6 -0.4,-1.2 -0.8,-1.6c-0.4,-0.5 -1,-0.8 -1.6,-0.8c-0.6,-0.1 -1.2,0.1 -1.6,0.5c-0.6,0.6 -0.7,1.6 -0.1,2.1c0.1,0.1 0.2,0.1 0.4,0.2c0.1,0 0.3,0 0.5,0c0.3,0 0.6,-0.2 0.9,-0.5c0.6,0.6 -0.6,1.4 -1.4,1.2l0,0zm-1.9,3.9c0,-0.1 0,-0.2 0,-0.2c0,-1.6 -0.7,-3.6 -2.1,-5.2c-1.4,-1.6 -3.4,-2.9 -6.2,-3l0,0c-0.1,0 -0.2,0 -0.2,0c0,0.1 0,0.2 0,0.2l0,0c0.2,2.8 1.4,4.8 3,6.2c1.6,1.4 3.6,2.1 5.2,2.1c0.1,-0.1 0.2,-0.1 0.3,-0.1l0,0z"/>
  <path id="path76" class="st2" d="m91.9,49.7l-0.3,-0.3c-0.2,-0.2 -0.5,-0.5 -0.7,-0.7c-2.8,-2.5 -6.1,-3.3 -9,-3.1c-2.9,0.2 -5.6,1.5 -7.2,3.1c-0.1,0.1 -0.2,0.2 -0.2,0.2c-0.1,-0.1 -0.2,-0.3 -0.3,-0.4c-0.2,-0.4 -0.5,-0.7 -0.6,-1.1c-0.9,-1.8 -1,-3.5 -0.6,-5l0,0c0.1,-0.3 0.2,-0.6 0.3,-0.9c0.1,-0.3 0.3,-0.5 0.4,-0.8c0.5,-0.7 1.1,-1.2 1.9,-1.5c1.7,-0.7 4.5,-0.1 4.7,2.1c0.1,1.1 -0.4,1.8 -1,2.2c-0.3,0.2 -0.6,0.2 -0.9,0.2c-0.3,0 -0.6,-0.1 -0.8,-0.2c-0.5,-0.3 -0.8,-0.8 -0.7,-1.8c-1,0.1 -0.8,2 0.2,2.6c0.4,0.2 0.9,0.3 1.3,0.3c0.5,0 0.9,-0.1 1.3,-0.4c0.9,-0.5 1.6,-1.6 1.5,-3.1c-0.2,-2.8 -3.4,-3.7 -5.7,-3c-1.1,0.3 -2,1 -2.6,1.9c-0.2,0.3 -0.4,0.6 -0.5,0.9c-0.2,0.3 -0.3,0.7 -0.4,1l0,0c-0.5,1.7 -0.3,3.7 0.7,5.7c0.2,0.4 0.4,0.8 0.7,1.2c0.1,0.2 0.3,0.4 0.4,0.6l0,0l0,0c-0.2,0.2 -0.3,0.4 -0.4,0.6c-0.3,0.4 -0.5,0.8 -0.7,1.2c-1,2 -1.2,4 -0.7,5.7l0,0c0.1,0.4 0.2,0.7 0.4,1c0.2,0.3 0.3,0.6 0.5,0.9c0.5,0.8 1.3,1.4 2.1,1.7c2.3,1 6,0.2 6.2,-2.8c0.1,-1.5 -0.6,-2.6 -1.5,-3.1c-0.4,-0.2 -0.9,-0.4 -1.3,-0.4c-0.5,0 -0.9,0.1 -1.3,0.3c-1.1,0.6 -1.2,2.6 -0.2,2.6c-0.1,-0.9 0.2,-1.5 0.7,-1.8c0.2,-0.1 0.5,-0.2 0.8,-0.2c0.3,0 0.6,0.1 0.9,0.2c0.6,0.3 1.1,1.1 1,2.2c-0.2,2.4 -3.3,2.8 -5,1.9c-0.6,-0.3 -1.1,-0.8 -1.5,-1.3c-0.2,-0.2 -0.3,-0.5 -0.4,-0.8c-0.1,-0.3 -0.2,-0.6 -0.3,-0.9l0,0c-0.4,-1.4 -0.3,-3.2 0.6,-5c0.2,-0.4 0.4,-0.7 0.6,-1.1c0.1,-0.1 0.2,-0.3 0.3,-0.4c0.1,0.1 0.2,0.2 0.2,0.2c1.6,1.6 4.2,2.8 7.2,3.1c2.9,0.2 6.2,-0.5 9,-3.1c0.3,-0.2 0.5,-0.5 0.7,-0.7l0.2,0.3l0,0zm-16.9,0l0,0c0.1,-0.1 0.2,-0.2 0.3,-0.3c1.5,-1.4 3.9,-2.6 6.6,-2.8c2.7,-0.2 5.7,0.5 8.3,2.8c0.1,0.1 0.2,0.2 0.3,0.3l0,0l0,0c-0.1,0.1 -0.2,0.2 -0.3,0.3c-2.6,2.3 -5.6,3 -8.3,2.8c-2.7,-0.2 -5.1,-1.4 -6.6,-2.8c-0.1,-0.1 -0.2,-0.2 -0.3,-0.3l0,0l0,0z"/>
  <path id="path78" class="st2" d="m76.3,35.1l0,0l0,0c0.2,-0.2 0.3,-0.3 0.4,-0.5c0.1,-0.2 0.2,-0.3 0.3,-0.5c0.5,-0.9 0.7,-1.9 0.6,-2.9l0,-0.4l-0.4,0l0,0c-0.2,0 -0.4,0 -0.6,0c-0.2,0 -0.4,0 -0.6,0c-1,0.1 -1.9,0.6 -2.7,1.3l0,0l0,0c-0.1,0.2 -0.3,0.3 -0.4,0.5c-0.1,0.2 -0.2,0.3 -0.3,0.5c-0.5,0.9 -0.7,1.9 -0.6,2.9l0,0.4l0.4,0l0,0c0.2,0 0.4,0 0.6,0c0.2,0 0.4,0 0.6,0c1,-0.1 2,-0.6 2.7,-1.3l0,0zm-0.7,-0.8l0,0l0,0c-0.6,0.6 -1.4,1 -2.1,1.1c-0.2,0 -0.3,0 -0.5,0l-0.1,0c0,-0.6 0.2,-1.3 0.5,-1.9c0.1,-0.1 0.2,-0.3 0.3,-0.4c0.1,-0.1 0.2,-0.3 0.3,-0.4l0,0l0,0c0.6,-0.6 1.3,-1 2.1,-1.1c0.2,0 0.3,0 0.5,0l0.1,0c0,0.6 -0.2,1.3 -0.5,1.9c-0.1,0.1 -0.2,0.3 -0.3,0.4c0,0.2 -0.1,0.3 -0.3,0.4l0,0z"/>
  <g id="g80">
   <path id="path82" class="st2" d="m87.7,37.2l0,0l0,0c-0.1,0 -0.2,0 -0.2,0.1c-0.1,0 -0.1,0 -0.2,0c-0.4,0.1 -0.8,0.1 -1.2,0.1l0,0l0,0c-1.1,0 -2.1,-0.3 -3.1,-0.7l0,0c-0.2,-0.1 -0.3,-0.2 -0.4,-0.2c-0.6,-0.4 -1.2,-0.8 -1.7,-1.3c0.1,-0.1 0.2,-0.2 0.3,-0.3c0.2,-0.2 0.4,-0.4 0.7,-0.5c1.2,-0.9 2.7,-1.4 4.3,-1.4l0,0l0,0c0.3,0 0.6,0 0.9,0.1l0,0l0.1,0l0,0c0.2,0 0.5,0.1 0.7,0.1l0.9,0.2l-0.3,-0.9l0,0l0,0c0,-0.1 0,-0.1 -0.1,-0.2l0,0l0,0c0,-0.1 0,-0.1 0,-0.2c-0.1,-0.3 -0.1,-0.6 -0.1,-0.9l0,0l0,0c0,-1.1 0.5,-2.1 1.2,-2.9c0.7,-0.7 1.6,-1.1 2.6,-1.2c0,0.1 -0.1,0.1 -0.1,0.2c-0.5,0.9 -0.8,1.9 -0.8,2.9l0,0l0,0c0,1.1 0.3,2.1 0.8,3c0.1,0.1 0.2,0.3 0.3,0.4c0.4,0.5 0.8,1 1.4,1.4l-0.1,0l0.1,0c-0.1,0.1 -0.2,0.1 -0.2,0.2c-0.2,0.2 -0.4,0.4 -0.6,0.6c-1,1.1 -1.6,2.5 -1.6,4.1l0,0l0,0c0,0.7 0.1,1.5 0.4,2.1c0,0.1 0.1,0.2 0.1,0.3c0.1,0.2 0.2,0.5 0.4,0.7c-1,-0.1 -1.9,-0.5 -2.6,-1.2c-0.7,-0.7 -1.2,-1.8 -1.2,-2.9l0,0l0,0l0,0l0,0c0,-0.2 0,-0.4 0.1,-0.6l0,0l0,-0.1l0,0c0,-0.2 0.1,-0.4 0.1,-0.5l0.3,-0.8l-1.2,0.3l0,0zm-1.8,1.2c0.4,0 0.8,0 1.2,-0.1c0,0.3 -0.1,0.5 -0.1,0.8l0,0l0,0l0,0l0,0c0,1.4 0.6,2.7 1.5,3.6c0.9,0.9 2.2,1.5 3.6,1.5l0,0l0,0c0.2,0 0.3,0 0.5,0l0,0l0.1,0l0,0l0.1,0l0,0l0,0l0.9,-0.1l-0.6,-0.7c-0.3,-0.4 -0.6,-0.8 -0.8,-1.2c0,-0.1 -0.1,-0.2 -0.1,-0.3c-0.2,-0.5 -0.3,-1.1 -0.3,-1.8l0,0l0,0c0,-1.3 0.5,-2.5 1.3,-3.4c0.2,-0.2 0.3,-0.3 0.5,-0.5c0.2,-0.1 0.4,-0.3 0.6,-0.4l0,0l0.1,-0.1l0,0l0.1,-0.1l0.5,-0.2l0.3,-0.2l0,0l0,0l-0.6,-0.3l-0.2,-0.1c-0.1,0 -0.1,-0.1 -0.1,-0.1l0,0l-0.1,-0.1l0,0c-0.6,-0.4 -1.1,-0.9 -1.5,-1.4c-0.1,-0.1 -0.2,-0.2 -0.2,-0.4c-0.4,-0.7 -0.7,-1.6 -0.7,-2.5l0,0l0,0c0,-0.9 0.2,-1.7 0.6,-2.5c0.1,-0.1 0.2,-0.3 0.3,-0.4l0,0c0.1,-0.1 0.2,-0.3 0.3,-0.4l0,0l0,0l0.6,-0.7l-0.9,-0.1c-0.1,0 -0.2,0 -0.3,0l-0.1,0l0,0c-0.1,0 -0.2,0 -0.3,0l0,0l0,0l0,0l0,0c-1.4,0 -2.7,0.6 -3.6,1.5c-0.9,0.9 -1.5,2.2 -1.5,3.6l0,0l0,0c0,0.3 0,0.5 0.1,0.8l0,0l0,0l-0.1,-0.1l0,0c-0.3,0 -0.6,-0.1 -1,-0.1l0,0l0,0c-1.8,0 -3.5,0.6 -4.8,1.6c-0.3,0.2 -0.5,0.4 -0.8,0.6c-0.2,0.2 -0.5,0.5 -0.7,0.7l0,0l-0.3,0.3l0.3,0.3c0.6,0.7 1.4,1.4 2.2,1.9c0.2,0.1 0.3,0.2 0.5,0.3l0,0c1.1,0.5 2.3,0.8 3.5,0.8l0,0l0,0l0,0zm-6.2,-3.6l0,0l0,0z"/>
   <path id="path84" class="st2" d="m87.6,66.3l0,0l0,0c-0.1,0 -0.2,0 -0.2,0.1c-0.1,0 -0.1,0 -0.2,0c-0.4,0.1 -0.8,0.1 -1.2,0.1l0,0l0,0c-1.1,0 -2.1,-0.3 -3.1,-0.7l0,0c-0.2,-0.1 -0.3,-0.2 -0.4,-0.2c-0.6,-0.4 -1.2,-0.8 -1.7,-1.3c0.1,-0.1 0.2,-0.2 0.3,-0.3c0.2,-0.2 0.4,-0.4 0.7,-0.5c1.2,-0.9 2.7,-1.4 4.3,-1.4l0,0l0,0c0.3,0 0.6,0 0.9,0.1l0,0l0.1,0l0,0c0.2,0 0.5,0.1 0.7,0.1l0.9,0.2l-0.3,-0.9l0,0l0,0c0,-0.1 0,-0.1 -0.1,-0.2l0,0l0,0c0,-0.1 0,-0.1 0,-0.2c-0.1,-0.3 -0.1,-0.6 -0.1,-0.9l0,0l0,0c0,-1.1 0.5,-2.1 1.2,-2.9c0.7,-0.7 1.6,-1.1 2.6,-1.2c0,0.1 -0.1,0.1 -0.1,0.2c-0.5,0.9 -0.8,1.9 -0.8,2.9l0,0l0,0c0,1.1 0.3,2.1 0.8,3c0.1,0.1 0.2,0.3 0.3,0.4c0.4,0.5 0.8,1 1.4,1.4l-0.1,0l0.1,0c-0.1,0.1 -0.2,0.1 -0.2,0.2c-0.2,0.2 -0.4,0.4 -0.6,0.6c-1,1.1 -1.6,2.5 -1.6,4.1l0,0l0,0c0,0.7 0.1,1.5 0.4,2.1c0,0.1 0.1,0.2 0.1,0.3c0.1,0.2 0.2,0.5 0.4,0.7c-1,-0.1 -1.9,-0.5 -2.6,-1.2c-0.7,-0.7 -1.2,-1.8 -1.2,-2.9l0,0l0,0l0,0l0,0c0,-0.2 0,-0.4 0.1,-0.6l0,0l0,-0.1l0,0c0,-0.2 0.1,-0.4 0.1,-0.5l0.3,-0.8l-1.2,0.3l0,0zm-1.7,1.2c0.4,0 0.8,0 1.2,-0.1c0,0.3 -0.1,0.5 -0.1,0.8l0,0l0,0l0,0l0,0c0,1.4 0.6,2.7 1.5,3.6c0.9,0.9 2.2,1.5 3.6,1.5l0,0l0,0c0.2,0 0.3,0 0.5,0l0,0l0.1,0l0,0l0.1,0l0,0l0,0l0.9,-0.1l-0.6,-0.7c-0.3,-0.4 -0.6,-0.8 -0.8,-1.2c0,-0.1 -0.1,-0.2 -0.1,-0.3c-0.2,-0.5 -0.3,-1.1 -0.3,-1.8l0,0l0,0c0,-1.3 0.5,-2.5 1.3,-3.4c0.2,-0.2 0.3,-0.3 0.5,-0.5c0.2,-0.1 0.4,-0.3 0.6,-0.4l0,0l0.1,-0.1l0,0l0.1,-0.1l0.5,-0.2l0.3,-0.2l0,0l0,0l-0.6,-0.3l-0.2,-0.1c-0.1,0 -0.1,-0.1 -0.1,-0.1l0,0l-0.1,-0.1l0,0c-0.6,-0.4 -1.1,-0.9 -1.5,-1.4c-0.1,-0.1 -0.2,-0.2 -0.2,-0.4c-0.4,-0.7 -0.7,-1.6 -0.7,-2.5l0,0l0,0c0,-0.9 0.2,-1.7 0.6,-2.5c0.1,-0.1 0.2,-0.3 0.3,-0.4l0,0c0.1,-0.1 0.2,-0.3 0.3,-0.4l0,0l0,0l0.6,-0.7l-0.9,-0.1c-0.1,0 -0.2,0 -0.3,0l-0.1,0l0,0c-0.1,0 -0.2,0 -0.3,0l0,0l0,0l0,0l0,0c-1.4,0 -2.7,0.6 -3.6,1.5c-0.9,0.9 -1.5,2.2 -1.5,3.6l0,0l0,0c0,0.3 0,0.5 0.1,0.8l0,0l0,0l-0.2,0l0,0c-0.3,0 -0.6,-0.1 -1,-0.1l0,0l0,0c-1.8,0 -3.5,0.6 -4.8,1.6c-0.3,0.2 -0.5,0.4 -0.8,0.6c-0.2,0.2 -0.5,0.5 -0.7,0.7l0,0l-0.3,0.3l0.3,0.3c0.6,0.7 1.4,1.4 2.2,1.9c0.2,0.1 0.3,0.2 0.5,0.3l0,0c1.2,0.4 2.4,0.7 3.6,0.7l0,0l0,0l0,0zm-6.2,-3.6l0,0l0,0z"/>
  </g>
  <path id="path86" class="st2" d="m76,64.5l0,0l0,0c0.2,0.2 0.3,0.3 0.4,0.5c0.1,0.2 0.2,0.3 0.3,0.5c0.5,0.9 0.7,1.9 0.6,2.9l0,0.4l-0.4,0l0,0c-0.2,0 -0.4,0 -0.6,0c-0.2,0 -0.4,0 -0.6,0c-1,-0.1 -1.9,-0.6 -2.7,-1.3l0,0l0,0c-0.1,-0.2 -0.3,-0.3 -0.4,-0.5c-0.1,-0.2 -0.2,-0.3 -0.3,-0.5c-0.5,-0.9 -0.7,-1.9 -0.6,-2.9l0,-0.4l0.4,0l0,0c0.2,0 0.4,0 0.6,0c0.2,0 0.4,0 0.6,0c1,0.1 1.9,0.5 2.7,1.3l0,0zm-0.7,0.7l0,0l0,0c-0.6,-0.6 -1.4,-1 -2.1,-1.1c-0.2,0 -0.3,0 -0.5,0l-0.1,0c0,0.6 0.2,1.3 0.5,1.9c0.1,0.1 0.2,0.3 0.3,0.4c0.1,0.1 0.2,0.3 0.3,0.4l0,0l0,0c0.6,0.6 1.3,1 2.1,1.1c0.2,0 0.3,0 0.5,0l0.1,0c0,-0.6 -0.2,-1.3 -0.5,-1.9c-0.1,-0.1 -0.2,-0.3 -0.3,-0.4c-0.1,-0.1 -0.2,-0.3 -0.3,-0.4l0,0z"/>
  <g id="g88">
   <path id="path90" class="st3" d="m97.6,46.4c-1.8,0 -3.3,1.5 -3.3,3.3c0,1.8 1.5,3.3 3.3,3.3"/>
   <path id="path92" class="st2" d="m97.6,45.9l0,0l0,0c-1.1,0 -2,0.4 -2.7,1.1c-0.7,0.7 -1.1,1.6 -1.1,2.7l0,0l0,0l0,0l0,0c0,1.1 0.4,2 1.1,2.7c0.7,0.7 1.6,1.1 2.7,1.1l0,0l0,0l0,-1l0,0l0,0c-0.8,0 -1.5,-0.3 -2,-0.8c-0.5,-0.5 -0.8,-1.2 -0.8,-2l0,0l0,0l0,0l0,0c0,-0.8 0.3,-1.5 0.8,-2c0.5,-0.5 1.2,-0.8 2,-0.8l0,0l0,0l0,-1l0,0z"/>
   <path id="path94" class="st2" d="m97.6,18.7l0,0l0,0c-1.1,0 -2,0.4 -2.7,1.1c-0.7,0.7 -1.1,1.6 -1.1,2.7l0,0l0,0l0,0l0,0c0,1.1 0.4,2 1.1,2.7c0.7,0.7 1.6,1.1 2.7,1.1l0,0l0,0l0,-1l0,0l0,0c-0.8,0 -1.5,-0.3 -2,-0.8c-0.5,-0.5 -0.8,-1.2 -0.8,-2l0,0l0,0l0,0l0,0c0,-0.8 0.3,-1.5 0.8,-2c0.5,-0.5 1.2,-0.8 2,-0.8l0,0l0,0l0,-1l0,0z"/>
   <path id="path96" class="st2" d="m97.6,72.6l0,0l0,0c-1.1,0 -2,0.4 -2.7,1.1c-0.7,0.7 -1.1,1.6 -1.1,2.7l0,0l0,0l0,0l0,0c0,1.1 0.4,2 1.1,2.7c0.7,0.7 1.6,1.1 2.7,1.1l0,0l0,0l0,-1l0,0l0,0c-0.8,0 -1.5,-0.3 -2,-0.8c-0.5,-0.5 -0.8,-1.2 -0.8,-2l0,0l0,0l0,0l0,0c0,-0.8 0.3,-1.5 0.8,-2c0.5,-0.5 1.2,-0.8 2,-0.8l0,0l0,0l0,-1l0,0z"/>
  </g>
  <g id="g98">
   <path id="path100" class="st3" d="m2.5,46.4c1.8,0 3.3,1.5 3.3,3.3c0,1.8 -1.5,3.3 -3.3,3.3"/>
   <path id="path102" class="st2" d="m2.5,45.9l0,0l0,0c1.1,0 2,0.4 2.7,1.1c0.7,0.7 1.1,1.6 1.1,2.7l0,0l0,0l0,0l0,0c0,1.1 -0.4,2 -1.1,2.7c-0.7,0.7 -1.6,1.1 -2.7,1.1l0,0l0,0l0,-1l0,0l0,0c0.8,0 1.5,-0.3 2,-0.8c0.5,-0.5 0.8,-1.2 0.8,-2l0,0l0,0l0,0l0,0c0,-0.8 -0.3,-1.5 -0.8,-2c-0.5,-0.5 -1.2,-0.8 -2,-0.8l0,0l0,0l0,-1l0,0z"/>
   <path id="path104" class="st2" d="m2.5,18.7l0,0l0,0c1.1,0 2,0.4 2.7,1.1c0.7,0.7 1.1,1.6 1.1,2.7l0,0l0,0l0,0l0,0c0,1.1 -0.4,2 -1.1,2.7c-0.7,0.7 -1.6,1.1 -2.7,1.1l0,0l0,0l0,-1l0,0l0,0c0.8,0 1.5,-0.3 2,-0.8c0.5,-0.5 0.8,-1.2 0.8,-2l0,0l0,0l0,0l0,0c0,-0.8 -0.3,-1.5 -0.8,-2c-0.5,-0.5 -1.2,-0.8 -2,-0.8l0,0l0,0l0,-1l0,0z"/>
   <path id="path106" class="st2" d="m2.5,72.6l0,0l0,0c1.1,0 2,0.4 2.7,1.1c0.7,0.7 1.1,1.6 1.1,2.7l0,0l0,0l0,0l0,0c0,1.1 -0.4,2 -1.1,2.7c-0.7,0.7 -1.6,1.1 -2.7,1.1l0,0l0,0l0,-1l0,0l0,0c0.8,0 1.5,-0.3 2,-0.8c0.5,-0.5 0.8,-1.2 0.8,-2l0,0l0,0l0,0l0,0c0,-0.8 -0.3,-1.5 -0.8,-2c-0.5,-0.5 -1.2,-0.8 -2,-0.8l0,0l0,0l0,-1l0,0z"/>
  </g>
  <g id="g108">
   <path id="path110" class="st2" d="m8.2,49.7l0.3,-0.3c0.2,-0.2 0.5,-0.5 0.7,-0.7c2.8,-2.5 6.1,-3.3 9,-3.1c2.9,0.2 5.6,1.5 7.2,3.1c0.1,0.1 0.2,0.2 0.2,0.2c0.1,-0.1 0.2,-0.3 0.3,-0.4c0.2,-0.4 0.5,-0.7 0.6,-1.1c0.9,-1.8 1,-3.5 0.6,-5l0,0c-0.1,-0.3 -0.2,-0.6 -0.3,-0.9c-0.1,-0.3 -0.3,-0.5 -0.4,-0.8c-0.5,-0.7 -1.1,-1.2 -1.9,-1.5c-1.7,-0.7 -4.5,-0.1 -4.7,2.1c-0.1,1.1 0.4,1.8 1,2.2c0.3,0.2 0.6,0.2 0.9,0.2c0.3,0 0.6,-0.1 0.8,-0.2c0.5,-0.3 0.8,-0.8 0.7,-1.8c1,0.1 0.8,2 -0.2,2.6c-0.4,0.2 -0.9,0.3 -1.3,0.3c-0.5,0 -0.9,-0.1 -1.3,-0.4c-0.9,-0.5 -1.6,-1.6 -1.5,-3.1c0.2,-2.8 3.4,-3.7 5.7,-3c1.1,0.3 2,1 2.6,1.9c0.2,0.3 0.4,0.6 0.5,0.9c0.2,0.3 0.3,0.7 0.4,1l0,0c0.5,1.7 0.3,3.7 -0.7,5.7c-0.2,0.4 -0.4,0.8 -0.7,1.2c-0.1,0.2 -0.3,0.4 -0.4,0.6l0,0l0,0c0.2,0.2 0.3,0.4 0.4,0.6c0.3,0.4 0.5,0.8 0.7,1.2c1,2 1.2,4 0.7,5.7l0,0c-0.1,0.4 -0.2,0.7 -0.4,1c-0.2,0.3 -0.3,0.6 -0.5,0.9c-0.5,0.8 -1.3,1.4 -2.1,1.7c-2.3,1 -6,0.2 -6.2,-2.8c-0.1,-1.5 0.6,-2.6 1.5,-3.1c0.4,-0.2 0.9,-0.4 1.3,-0.4c0.5,0 0.9,0.1 1.3,0.3c1.1,0.6 1.2,2.6 0.2,2.6c0.1,-0.9 -0.2,-1.5 -0.7,-1.8c-0.2,-0.1 -0.5,-0.2 -0.8,-0.2c-0.3,0 -0.6,0.1 -0.9,0.2c-0.6,0.3 -1.1,1.1 -1,2.2c0.2,2.4 3.3,2.8 5,1.9c0.6,-0.3 1.1,-0.8 1.5,-1.3c0.2,-0.2 0.3,-0.5 0.4,-0.8c0.1,-0.3 0.2,-0.6 0.3,-0.9l0,0c0.4,-1.4 0.3,-3.2 -0.6,-5c-0.2,-0.4 -0.4,-0.7 -0.6,-1.1c-0.1,-0.1 -0.2,-0.3 -0.3,-0.4c-0.1,0.1 -0.2,0.2 -0.2,0.2c-1.6,1.6 -4.2,2.8 -7.2,3.1c-2.9,0.2 -6.2,-0.5 -9,-3.1c-0.3,-0.2 -0.5,-0.5 -0.7,-0.7l-0.2,0.3l0,0zm16.8,0l0,0c-0.1,-0.1 -0.2,-0.2 -0.3,-0.3c-1.5,-1.4 -3.9,-2.6 -6.6,-2.8c-2.7,-0.2 -5.7,0.5 -8.3,2.8c-0.1,0.1 -0.2,0.2 -0.3,0.3l0,0l0,0c0.1,0.1 0.2,0.2 0.3,0.3c2.6,2.3 5.6,3 8.3,2.8c2.7,-0.2 5.1,-1.4 6.6,-2.8c0.1,-0.1 0.2,-0.2 0.3,-0.3l0,0l0,0z"/>
   <path id="path112" class="st2" d="m23.7,35.1l0,0l0,0c-0.2,-0.2 -0.3,-0.3 -0.4,-0.5c-0.1,-0.2 -0.2,-0.3 -0.3,-0.5c-0.5,-0.9 -0.7,-1.9 -0.6,-2.9l0,-0.4l0.4,0l0,0c0.2,0 0.4,0 0.6,0c0.2,0 0.4,0 0.6,0c1,0.1 1.9,0.6 2.7,1.3l0,0l0,0c0.1,0.2 0.3,0.3 0.4,0.5c0.1,0.2 0.2,0.3 0.3,0.5c0.5,0.9 0.7,1.9 0.6,2.9l0,0.4l-0.4,0l0,0c-0.2,0 -0.4,0 -0.6,0c-0.2,0 -0.4,0 -0.6,0c-1,-0.1 -1.9,-0.6 -2.7,-1.3l0,0zm0.7,-0.8l0,0l0,0c0.6,0.6 1.4,1 2.1,1.1c0.2,0 0.3,0 0.5,0l0.1,0c0,-0.6 -0.2,-1.3 -0.5,-1.9c-0.1,-0.1 -0.2,-0.3 -0.3,-0.4c-0.1,-0.1 -0.2,-0.3 -0.3,-0.4l0,0l0,0c-0.6,-0.6 -1.3,-1 -2.1,-1.1c-0.2,0 -0.3,0 -0.5,0l-0.1,0c0,0.6 0.2,1.3 0.5,1.9c0.1,0.1 0.2,0.3 0.3,0.4c0.1,0.2 0.2,0.3 0.3,0.4l0,0z"/>
   <g id="g114">
    <path id="path116" class="st2" d="m12.5,37.2l0,0l0,0c0.1,0 0.2,0 0.2,0.1c0.1,0 0.1,0 0.2,0c0.4,0.1 0.8,0.1 1.2,0.1l0,0l0,0c1.1,0 2.1,-0.3 3.1,-0.7l0,0c0.2,-0.1 0.3,-0.2 0.4,-0.2c0.6,-0.4 1.2,-0.8 1.7,-1.3c-0.1,-0.1 -0.2,-0.2 -0.3,-0.3c-0.2,-0.2 -0.4,-0.4 -0.7,-0.5c-1.2,-0.9 -2.7,-1.4 -4.3,-1.4l0,0l0,0c-0.3,0 -0.6,0 -0.9,0.1l0,0l-0.1,0l0,0c-0.2,0 -0.5,0.1 -0.7,0.1l-0.9,0.2l0.3,-0.9l0,0l0,0c0,-0.1 0,-0.1 0.1,-0.2l0,0l0,0c0,-0.1 0,-0.1 0,-0.2c0.1,-0.3 0.1,-0.6 0.1,-0.9l0,0l0,0c0,-1.1 -0.5,-2.1 -1.2,-2.9c-0.7,-0.7 -1.6,-1.1 -2.6,-1.2c0,0.1 0.1,0.1 0.1,0.2c0.5,0.9 0.8,1.9 0.8,2.9l0,0l0,0c0,1.1 -0.3,2.1 -0.8,3c-0.1,0.1 -0.2,0.3 -0.3,0.4c-0.4,0.5 -0.8,1 -1.4,1.4l0.1,0l-0.1,0c0.1,0.1 0.2,0.1 0.2,0.2c0.2,0.2 0.4,0.4 0.6,0.6c1,1.1 1.6,2.5 1.6,4.1l0,0l0,0c0,0.7 -0.1,1.5 -0.4,2.1c0,0.1 -0.1,0.2 -0.1,0.3c-0.1,0.2 -0.2,0.5 -0.4,0.7c1,-0.1 1.9,-0.5 2.6,-1.2c0.7,-0.7 1.2,-1.8 1.2,-2.9l0,0l0,0l0,0l0,0c0,-0.2 0,-0.4 -0.1,-0.6l0,0l0,-0.1l0,0c0,-0.2 -0.1,-0.4 -0.1,-0.5l0,-0.7l0.9,0.2l0,0zm1.7,1.2c-0.4,0 -0.8,0 -1.2,-0.1c0,0.3 0.1,0.5 0.1,0.8l0,0l0,0l0,0l0,0c0,1.4 -0.6,2.7 -1.5,3.6c-0.9,0.9 -2.2,1.5 -3.6,1.5l0,0l0,0c-0.2,0 -0.3,0 -0.5,0l0,0l-0.1,0l0,0l-0.1,0l0,0l0,0l-0.9,-0.2l0.6,-0.7c0.3,-0.4 0.6,-0.8 0.8,-1.2c0,-0.1 0.1,-0.2 0.1,-0.3c0.2,-0.5 0.3,-1.1 0.3,-1.8l0,0l0,0c0,-1.3 -0.5,-2.5 -1.3,-3.4c-0.2,-0.2 -0.3,-0.3 -0.5,-0.5c-0.2,-0.1 -0.4,-0.2 -0.6,-0.3l0,0l-0.1,-0.1l0,0l-0.1,-0.1l-0.5,-0.2l-0.3,-0.2l0,0l0,0l0.6,-0.3l0.2,-0.1c0.1,0 0.1,-0.1 0.1,-0.1l0,0l0.1,-0.1l0,0c0.6,-0.4 1.1,-0.9 1.5,-1.4c0.1,-0.1 0.2,-0.2 0.2,-0.4c0.4,-0.7 0.7,-1.6 0.7,-2.5l0,0l0,0c0,-0.9 -0.2,-1.7 -0.6,-2.5c-0.1,-0.1 -0.2,-0.3 -0.3,-0.4l0,0c-0.1,-0.1 -0.2,-0.3 -0.3,-0.4l0,0l0,0l-0.6,-0.7l0.9,-0.1c0.1,0 0.2,0 0.3,0l0.1,0l0,0c0.1,0 0.2,0 0.3,0l0,0l0,0l0,0l0,0c1.4,0 2.7,0.6 3.6,1.5c0.9,0.9 1.5,2.2 1.5,3.6l0,0l0,0c0,0.3 0,0.5 -0.1,0.8l0,0l0,0l0.2,0l0,0c0.3,0 0.6,-0.1 1,-0.1l0,0l0,0c1.8,0 3.5,0.6 4.8,1.6c0.3,0.2 0.5,0.4 0.8,0.6c0.2,0.2 0.5,0.5 0.7,0.7l0,0l0.3,0.3l-0.3,0.3c-0.6,0.7 -1.4,1.4 -2.2,1.9c-0.2,0.1 -0.3,0.2 -0.5,0.3l0,0c-1.1,0.4 -2.3,0.7 -3.6,0.7l0,0l0,0l0,0zm6.3,-3.6l0,0l0,0z"/>
    <path id="path118" class="st2" d="m12.5,66.3l0,0l0,0c0.1,0 0.2,0 0.2,0.1c0.1,0 0.1,0 0.2,0c0.4,0.1 0.8,0.1 1.2,0.1l0,0l0,0c1.1,0 2.1,-0.3 3.1,-0.7l0,0c0.2,-0.1 0.3,-0.2 0.4,-0.2c0.6,-0.4 1.2,-0.8 1.7,-1.3c-0.1,-0.1 -0.2,-0.2 -0.3,-0.3c-0.2,-0.2 -0.4,-0.4 -0.7,-0.5c-1.2,-0.9 -2.7,-1.4 -4.3,-1.4l0,0l0,0c-0.3,0 -0.6,0 -0.9,0.1l0,0l-0.1,0l0,0c-0.2,0 -0.5,0.1 -0.7,0.1l-0.9,0.2l0.3,-0.9l0,0l0,0c0,-0.1 0,-0.1 0.1,-0.2l0,0l0,0c0,-0.1 0,-0.1 0,-0.2c0.1,-0.3 0.1,-0.6 0.1,-0.9l0,0l0,0c0,-1.1 -0.5,-2.1 -1.2,-2.9c-0.7,-0.7 -1.6,-1.1 -2.6,-1.2c0,0.1 0.1,0.1 0.1,0.2c0.5,0.9 0.8,1.9 0.8,2.9l0,0l0,0c0,1.1 -0.3,2.1 -0.8,3c-0.1,0.1 -0.2,0.3 -0.3,0.4c-0.4,0.5 -0.8,1 -1.4,1.4l0.1,0l-0.1,0c0.1,0.1 0.2,0.1 0.2,0.2c0.2,0.2 0.4,0.4 0.6,0.6c1,1.1 1.6,2.5 1.6,4.1l0,0l0,0c0,0.7 -0.1,1.5 -0.4,2.1c0,0.1 -0.1,0.2 -0.1,0.3c-0.1,0.2 -0.2,0.5 -0.4,0.7c1,-0.1 1.9,-0.5 2.6,-1.2c0.7,-0.7 1.2,-1.8 1.2,-2.9l0,0l0,0l0,0l0,0c0,-0.2 0,-0.4 -0.1,-0.6l0,0l0,-0.1l0,0c0,-0.2 -0.1,-0.4 -0.1,-0.5l-0.3,-0.8l1.2,0.3l0,0zm1.7,1.2c-0.4,0 -0.8,0 -1.2,-0.1c0,0.3 0.1,0.5 0.1,0.8l0,0l0,0l0,0l0,0c0,1.4 -0.6,2.7 -1.5,3.6c-0.9,0.9 -2.2,1.5 -3.6,1.5l0,0l0,0c-0.2,0 -0.3,0 -0.5,0l0,0l-0.1,0l0,0l-0.1,0l0,0l0,0l-0.9,-0.1l0.6,-0.8c0.3,-0.4 0.6,-0.8 0.8,-1.2c0,-0.1 0.1,-0.2 0.1,-0.3c0.2,-0.5 0.3,-1.1 0.3,-1.8l0,0l0,0c0,-1.3 -0.5,-2.5 -1.3,-3.4c-0.2,-0.2 -0.3,-0.3 -0.5,-0.5c-0.2,-0.1 -0.4,-0.3 -0.6,-0.4l0,0l-0.1,-0.1l0,0l-0.1,-0.1l-0.5,-0.2l-0.3,-0.2l0,0l0,0l0.6,-0.3l0.2,-0.1c0.1,0 0.1,-0.1 0.1,-0.1l0,0l0.1,-0.1l0,0c0.6,-0.4 1.1,-0.9 1.5,-1.4c0.1,-0.1 0.2,-0.2 0.2,-0.4c0.4,-0.7 0.7,-1.6 0.7,-2.5l0,0l0,0c0,-0.9 -0.2,-1.7 -0.6,-2.5c-0.1,-0.1 -0.2,-0.3 -0.3,-0.4l0,0c-0.1,-0.1 -0.2,-0.3 -0.3,-0.4l0,0l0,0l-0.6,-0.7l0.9,-0.1c0.1,0 0.2,0 0.3,0l0.1,0l0,0c0.1,0 0.2,0 0.3,0l0,0l0,0l0,0l0,0c1.4,0 2.7,0.6 3.6,1.5c0.9,0.9 1.5,2.2 1.5,3.6l0,0l0,0c0,0.3 0,0.5 -0.1,0.8l0,0l0,0l0.2,0l0,0c0.3,0 0.6,-0.1 1,-0.1l0,0l0,0c1.8,0 3.5,0.6 4.8,1.6c0.3,0.2 0.5,0.4 0.8,0.6c0.2,0.2 0.5,0.5 0.7,0.7l0,0l0.3,0.3l-0.3,0.3c-0.6,0.7 -1.4,1.4 -2.2,1.9c-0.2,0.1 -0.3,0.2 -0.5,0.3l0,0c-1.1,0.5 -2.3,0.8 -3.6,0.8l0,0l0,0l0,0zm6.3,-3.6l0,0l0,0z"/>
   </g>
   <path id="path120" class="st2" d="m24.1,64.5l0,0l0,0c-0.2,0.2 -0.3,0.3 -0.4,0.5c-0.1,0.2 -0.2,0.3 -0.3,0.5c-0.5,0.9 -0.7,1.9 -0.6,2.9l0,0.4l0.4,0l0,0c0.2,0 0.4,0 0.6,0c0.2,0 0.4,0 0.6,0c1,-0.1 1.9,-0.6 2.7,-1.3l0,0l0,0c0.1,-0.2 0.3,-0.3 0.4,-0.5c0.1,-0.2 0.2,-0.3 0.3,-0.5c0.5,-0.9 0.7,-1.9 0.6,-2.9l0,-0.4l-0.4,0l0,0c-0.2,0 -0.4,0 -0.6,0c-0.2,0 -0.4,0 -0.6,0c-1,0.1 -1.9,0.5 -2.7,1.3l0,0zm0.7,0.7l0,0l0,0c0.6,-0.6 1.4,-1 2.1,-1.1c0.2,0 0.3,0 0.5,0l0.1,0c0,0.6 -0.2,1.3 -0.5,1.9c-0.1,0.1 -0.2,0.3 -0.3,0.4c-0.1,0.1 -0.2,0.3 -0.3,0.4l0,0l0,0c-0.6,0.6 -1.3,1 -2.1,1.1c-0.2,0 -0.3,0 -0.5,0l-0.1,0c0,-0.6 0.2,-1.3 0.5,-1.9c0.1,-0.1 0.2,-0.3 0.3,-0.4c0.1,-0.1 0.2,-0.3 0.3,-0.4l0,0z"/>
  </g>
 </g>
</svg>