<svg width="344" height="99" xmlns="http://www.w3.org/2000/svg">
 <style type="text/css">.st0{fill:#FFFFFF;}
	.st1{fill:#1B1918;stroke:#FFFFFF;stroke-miterlimit:10;}
	.st2{fill:#E53114;}
	.st3{fill:#9A9C9A;}
	.st4{fill:none;}</style>

 <g>
  <title>background</title>
  <rect fill="none" id="canvas_background" height="101" width="346" y="-1" x="-1"/>
 </g>
 <g>
  <title>Layer 1</title>
  <path d="m123.25,2.2l4.7,0l0,13.2l9.7,-13.2l4.4,0l0,20.3l-4.6,0l0,-13.2l-9.7,13.2l-4.4,0l-0.1,-20.3l0,0zm35.4,12.1c1.8,0.6 2.8,1.9 2.8,3.7c0,1.4 -0.5,2.5 -1.6,3.3c-1.1,0.8 -2.6,1.2 -4.8,1.2l-8.3,0l0,-15.6l8,0c2,0 3.5,0.4 4.6,1.1c1.1,0.7 1.7,1.7 1.7,3c0,0.8 -0.2,1.5 -0.6,2c-0.5,0.5 -1.1,1 -1.8,1.3l0,0zm-7.8,-1l3.4,0c1.6,0 2.4,-0.6 2.4,-1.7c0,-1.1 -0.8,-1.7 -2.4,-1.7l-3.4,0l0,3.4zm3.8,6.1c1.7,0 2.5,-0.6 2.5,-1.7c0,-0.6 -0.2,-1 -0.6,-1.3c-0.4,-0.3 -1,-0.4 -1.8,-0.4l-3.9,0l0,3.5l3.8,-0.1l0,0zm16.2,-12.8c2.4,0 4.3,0.6 5.6,1.7c1.3,1.2 1.9,2.9 1.9,5.2l0,8.9l-4.2,0l0,-1.9c-0.9,1.5 -2.4,2.2 -4.8,2.2c-1.2,0 -2.2,-0.2 -3.1,-0.6c-0.9,-0.4 -1.6,-1 -2,-1.7c-0.5,-0.7 -0.7,-1.5 -0.7,-2.4c0,-1.5 0.5,-2.6 1.6,-3.4c1.1,-0.8 2.8,-1.2 5.1,-1.2l3.6,0c0,-1 -0.3,-1.7 -0.9,-2.3c-0.6,-0.5 -1.5,-0.8 -2.7,-0.8c-0.8,0 -1.6,0.1 -2.5,0.4c-0.8,0.3 -1.5,0.6 -2,1.1l-1.6,-3.2c0.9,-0.6 1.9,-1.1 3.1,-1.4c1.1,-0.4 2.3,-0.6 3.6,-0.6l0,0zm-0.4,13c0.8,0 1.5,-0.2 2.1,-0.5c0.6,-0.4 1,-0.9 1.3,-1.6l0,-1.6l-3.1,0c-1.9,0 -2.8,0.6 -2.8,1.8c0,0.6 0.2,1 0.7,1.4c0.4,0.4 1,0.5 1.8,0.5zm11.8,-12.7l4.5,0l0,6.1l6.8,0l0,-6.1l4.5,0l0,15.6l-4.5,0l0,-5.8l-6.8,0l0,5.8l-4.5,0l0,-15.6zm-51.1,38.5l-3.2,0l0,8.2l-4.7,0l0,-20.3l4.7,0l0,8.2l3.4,0l5.3,-8.2l5,0l-6.6,9.8l6.8,10.5l-5.3,0l-5.4,-8.2l0,0zm19.2,-7.6c2.4,0 4.3,0.6 5.6,1.7c1.3,1.2 1.9,2.9 1.9,5.2l0,8.9l-4.2,0l0,-1.9c-0.9,1.5 -2.4,2.2 -4.8,2.2c-1.2,0 -2.2,-0.2 -3.1,-0.6c-0.9,-0.4 -1.6,-1 -2,-1.7c-0.5,-0.7 -0.7,-1.5 -0.7,-2.4c0,-1.5 0.5,-2.6 1.6,-3.4c1.1,-0.8 2.8,-1.2 5.1,-1.2l3.6,0c0,-1 -0.3,-1.7 -0.9,-2.3c-0.6,-0.5 -1.5,-0.8 -2.7,-0.8c-0.8,0 -1.6,0.1 -2.5,0.4c-0.8,0.3 -1.5,0.6 -2,1.1l-1.6,-3.2c0.9,-0.6 1.9,-1.1 3.1,-1.4c1.1,-0.5 2.3,-0.6 3.6,-0.6l0,0zm-0.4,13c0.8,0 1.5,-0.2 2.1,-0.5c0.6,-0.4 1,-0.9 1.3,-1.6l0,-1.6l-3.1,0c-1.9,0 -2.8,0.6 -2.8,1.8c0,0.6 0.2,1 0.7,1.4c0.4,0.3 1,0.5 1.8,0.5zm27.3,-12.8l0,15.6l-4.5,0l0,-11.9l-6.5,0l0,11.9l-4.5,0l0,-15.6l15.5,0zm20,0l-7,16.6c-0.7,1.8 -1.6,3.1 -2.7,3.8c-1.1,0.7 -2.3,1.1 -3.8,1.1c-0.8,0 -1.6,-0.1 -2.4,-0.4c-0.8,-0.3 -1.4,-0.6 -1.9,-1l1.7,-3.2c0.3,0.3 0.7,0.6 1.2,0.7c0.5,0.2 0.9,0.3 1.3,0.3c0.6,0 1.1,-0.1 1.5,-0.4c0.4,-0.3 0.7,-0.8 1,-1.5l0.1,-0.1l-6.8,-15.9l4.7,0l4.4,10.6l4.4,-10.6l4.3,0zm9.6,15.8c-1.7,0 -3.2,-0.3 -4.5,-1c-1.3,-0.7 -2.4,-1.6 -3.1,-2.9c-0.7,-1.2 -1.1,-2.6 -1.1,-4.1c0,-1.5 0.4,-2.9 1.1,-4.1c0.7,-1.2 1.8,-2.2 3.1,-2.9c1.3,-0.7 2.8,-1 4.5,-1c1.6,0 3.1,0.3 4.3,1c1.2,0.7 2.1,1.7 2.7,2.9l-3.5,1.9c-0.8,-1.4 -2,-2.1 -3.5,-2.1c-1.2,0 -2.2,0.4 -2.9,1.2c-0.8,0.8 -1.2,1.8 -1.2,3.2c0,1.3 0.4,2.4 1.2,3.2c0.8,0.8 1.7,1.2 2.9,1.2c1.5,0 2.7,-0.7 3.5,-2.1l3.5,1.9c-0.6,1.2 -1.5,2.2 -2.7,2.9c-1.2,0.5 -2.7,0.8 -4.3,0.8l0,0zm22.9,-12.1l-5.3,0l0,11.9l-4.5,0l0,-11.9l-5.3,0l0,-3.7l15.1,0l0,3.7l0,0zm16.2,-3.7l0,15.6l-4,0l0,-4.5l-3.3,0l-3,4.5l-4.8,0l3.6,-5.1c-1.1,-0.4 -1.9,-1 -2.5,-1.8c-0.6,-0.8 -0.9,-1.8 -0.9,-2.9c0,-1.8 0.7,-3.3 2,-4.2c1.3,-1 3.1,-1.5 5.5,-1.5l7.4,0l0,-0.1zm-7.3,3.7c-1,0 -1.7,0.2 -2.2,0.5c-0.5,0.3 -0.7,0.9 -0.7,1.7c0,0.8 0.2,1.3 0.7,1.7c0.5,0.4 1.2,0.5 2.2,0.5l3.4,0l0,-4.4l-3.4,0l0,0zm11.7,-3.7l4.5,0l0,6.1l6.8,0l0,-6.1l4.5,0l0,15.6l-4.5,0l0,-5.8l-6.8,0l0,5.8l-4.5,0l0,-15.6zm27.5,15.8c-1.7,0 -3.2,-0.3 -4.5,-1c-1.3,-0.7 -2.4,-1.6 -3.1,-2.9c-0.7,-1.2 -1.1,-2.6 -1.1,-4.1c0,-1.5 0.4,-2.9 1.1,-4.1c0.7,-1.2 1.8,-2.2 3.1,-2.9c1.3,-0.7 2.8,-1 4.5,-1c1.6,0 3.1,0.3 4.3,1c1.2,0.7 2.1,1.7 2.7,2.9l-3.5,1.9c-0.8,-1.4 -2,-2.1 -3.5,-2.1c-1.2,0 -2.2,0.4 -2.9,1.2c-0.8,0.8 -1.2,1.8 -1.2,3.2c0,1.3 0.4,2.4 1.2,3.2c0.8,0.8 1.7,1.2 2.9,1.2c1.5,0 2.7,-0.7 3.5,-2.1l3.5,1.9c-0.6,1.2 -1.5,2.2 -2.7,2.9c-1.2,0.5 -2.6,0.8 -4.3,0.8l0,0zm16.6,-6.1l-2.3,0l0,5.9l-4.5,0l0,-15.6l4.5,0l0,6l2.4,0l4.2,-6.1l4.8,0l-5.5,7.5l5.8,8.1l-5.3,0l-4.1,-5.8l0,0zm11.8,-9.7l4.5,0l0,9.3l7.6,-9.3l4.1,0l0,15.6l-4.5,0l0,-9.3l-7.6,9.3l-4.2,0l0,-15.6l0.1,0zm20.6,0l4.5,0l0,9.3l7.6,-9.3l4.1,0l0,15.6l-4.5,0l0,-9.3l-7.6,9.3l-4.2,0l0.1,-15.6l0,0zm7.8,-1.7c-3.4,0 -5.1,-1.5 -5.1,-4.5l3,0c0,0.7 0.2,1.2 0.6,1.6c0.4,0.4 0.9,0.6 1.6,0.6c0.7,0 1.2,-0.2 1.6,-0.6c0.4,-0.4 0.6,-0.9 0.6,-1.6l3,0c-0.2,3 -1.9,4.5 -5.3,4.5z" class="st0" id="path4"/>
  <path d="m131.15,67.6l0,9.4l-1,0l0,-8.5l-5.9,0l0,8.5l-1,0l0,-9.4l7.9,0l0,0zm9,6.2l-5.9,0c0.1,0.7 0.3,1.3 0.8,1.8c0.5,0.5 1.2,0.7 1.9,0.7c0.4,0 0.8,-0.1 1.2,-0.2c0.4,-0.2 0.7,-0.4 1,-0.7l0.5,0.6c-0.3,0.4 -0.7,0.7 -1.2,0.9c-0.5,0.2 -1,0.3 -1.5,0.3c-0.7,0 -1.4,-0.2 -1.9,-0.5c-0.6,-0.3 -1,-0.7 -1.3,-1.3c-0.3,-0.5 -0.5,-1.2 -0.5,-1.8c0,-0.7 0.1,-1.3 0.4,-1.8c0.3,-0.5 0.7,-1 1.2,-1.3c0.5,-0.3 1.1,-0.5 1.8,-0.5c0.7,0 1.2,0.2 1.8,0.5s0.9,0.7 1.2,1.3c0.3,0.5 0.4,1.2 0.4,1.9l0.1,0.1l0,0zm-3.4,-3.1c-0.7,0 -1.2,0.2 -1.7,0.6c-0.5,0.4 -0.7,1 -0.8,1.7l5,0c-0.1,-0.7 -0.3,-1.3 -0.8,-1.7c-0.4,-0.3 -1,-0.6 -1.7,-0.6l0,0zm9.2,-0.8c0.7,0 1.3,0.1 1.8,0.4c0.5,0.3 1,0.7 1.3,1.3c0.3,0.5 0.5,1.2 0.5,1.9c0,0.7 -0.2,1.3 -0.5,1.9c-0.3,0.5 -0.7,1 -1.3,1.3c-0.5,0.3 -1.1,0.4 -1.8,0.4c-0.6,0 -1.1,-0.1 -1.5,-0.4c-0.5,-0.2 -0.8,-0.6 -1.1,-1l0,3.9l-1,0l0,-9.6l0.9,0l0,1.4c0.3,-0.5 0.7,-0.8 1.1,-1.1c0.5,-0.3 1,-0.4 1.6,-0.4l0,0zm-0.1,6.3c0.5,0 0.9,-0.1 1.3,-0.3c0.4,-0.2 0.7,-0.6 0.9,-1c0.2,-0.4 0.3,-0.9 0.3,-1.4c0,-0.5 -0.1,-1 -0.3,-1.4c-0.2,-0.4 -0.5,-0.7 -0.9,-1c-0.4,-0.2 -0.8,-0.3 -1.3,-0.3c-0.5,0 -0.9,0.1 -1.3,0.3c-0.4,0.2 -0.7,0.6 -0.9,1c-0.2,0.4 -0.3,0.9 -0.3,1.4c0,0.5 0.1,1 0.3,1.4c0.2,0.4 0.5,0.7 0.9,1c0.4,0.2 0.8,0.3 1.3,0.3zm8.6,0.9c-0.7,0 -1.3,-0.2 -1.9,-0.5c-0.5,-0.3 -1,-0.7 -1.3,-1.3c-0.3,-0.5 -0.5,-1.2 -0.5,-1.9c0,-0.7 0.2,-1.3 0.5,-1.8c0.3,-0.5 0.7,-1 1.3,-1.3s1.2,-0.5 1.9,-0.5c0.6,0 1.1,0.1 1.6,0.4c0.5,0.2 0.9,0.6 1.1,1l-0.7,0.5c-0.2,-0.3 -0.5,-0.6 -0.9,-0.8c-0.4,-0.2 -0.7,-0.3 -1.2,-0.3c-0.5,0 -1,0.1 -1.4,0.3s-0.7,0.6 -1,1c-0.2,0.4 -0.3,0.9 -0.3,1.4c0,0.5 0.1,1 0.3,1.4c0.2,0.4 0.5,0.7 1,1c0.4,0.2 0.9,0.3 1.4,0.3c0.4,0 0.8,-0.1 1.2,-0.3c0.4,-0.2 0.7,-0.4 0.9,-0.8l0.7,0.5c-0.3,0.5 -0.7,0.8 -1.1,1c-0.5,0.6 -1,0.7 -1.6,0.7l0,0zm7.5,0c-0.7,0 -1.3,-0.2 -1.8,-0.5c-0.5,-0.3 -1,-0.7 -1.3,-1.3c-0.3,-0.5 -0.5,-1.2 -0.5,-1.8c0,-0.7 0.2,-1.3 0.5,-1.8c0.3,-0.5 0.7,-1 1.3,-1.3c0.5,-0.3 1.2,-0.5 1.8,-0.5s1.3,0.2 1.8,0.5c0.5,0.3 1,0.7 1.3,1.3c0.3,0.5 0.5,1.2 0.5,1.8c0,0.7 -0.2,1.3 -0.5,1.8c-0.3,0.5 -0.7,1 -1.3,1.3c-0.5,0.3 -1.1,0.5 -1.8,0.5zm0,-0.9c0.5,0 0.9,-0.1 1.3,-0.3c0.4,-0.2 0.7,-0.6 0.9,-1c0.2,-0.4 0.3,-0.9 0.3,-1.4c0,-0.5 -0.1,-1 -0.3,-1.4c-0.2,-0.4 -0.5,-0.7 -0.9,-1c-0.4,-0.2 -0.8,-0.3 -1.3,-0.3c-0.5,0 -0.9,0.1 -1.3,0.3s-0.7,0.6 -0.9,1c-0.2,0.4 -0.3,0.9 -0.3,1.4c0,0.5 0.1,1 0.3,1.4c0.2,0.4 0.5,0.7 0.9,1c0.4,0.2 0.8,0.3 1.3,0.3zm5.6,-6.2l1,0l0,3.1l4.4,0l0,-3.1l1,0l0,7l-1,0l0,-3.1l-4.4,0l0,3.1l-1,0l0,-7zm11.5,-0.1c0.9,0 1.6,0.2 2.1,0.7c0.5,0.5 0.7,1.1 0.7,2l0,4.4l-0.9,0l0,-1.1c-0.2,0.4 -0.5,0.7 -0.9,0.9c-0.4,0.2 -0.9,0.3 -1.5,0.3c-0.8,0 -1.4,-0.2 -1.9,-0.6s-0.7,-0.9 -0.7,-1.5c0,-0.6 0.2,-1.1 0.6,-1.4c0.4,-0.4 1.1,-0.5 2.1,-0.5l2.2,0l0,-0.4c0,-0.6 -0.2,-1.1 -0.5,-1.4c-0.3,-0.3 -0.8,-0.5 -1.5,-0.5c-0.4,0 -0.9,0.1 -1.3,0.2c-0.4,0.1 -0.8,0.4 -1.1,0.6l-0.4,-0.7c0.4,-0.3 0.8,-0.5 1.3,-0.7c0.6,-0.2 1.1,-0.3 1.7,-0.3l0,0zm-0.4,6.4c0.5,0 1,-0.1 1.4,-0.4c0.4,-0.2 0.7,-0.6 0.9,-1.1l0,-1.2l-2.2,0c-1.2,0 -1.8,0.4 -1.8,1.3c0,0.4 0.2,0.7 0.5,1c0.2,0.3 0.7,0.4 1.2,0.4l0,0zm11.5,-6.3l0,7l-1,0l0,-6.2l-3.4,0l-0.1,1.7c-0.1,1.5 -0.2,2.6 -0.5,3.4c-0.3,0.8 -0.7,1.2 -1.4,1.2c-0.2,0 -0.4,0 -0.7,-0.1l0.1,-0.8c0.2,0 0.3,0.1 0.3,0.1c0.4,0 0.6,-0.2 0.8,-0.5c0.2,-0.3 0.3,-0.8 0.4,-1.3c0.1,-0.5 0.1,-1.2 0.2,-2l0.1,-2.5l5.2,0l0,0zm5.8,2.5c0.9,0 1.6,0.2 2,0.6c0.5,0.4 0.7,0.9 0.7,1.7c0,0.8 -0.2,1.3 -0.7,1.7c-0.5,0.4 -1.2,0.6 -2.1,0.6l-2.8,0l0,-7l1,0l0,2.5l1.9,-0.1l0,0zm-0.3,3.8c0.7,0 1.1,-0.1 1.5,-0.4c0.3,-0.3 0.5,-0.7 0.5,-1.2c0,-0.5 -0.2,-0.9 -0.5,-1.2c-0.3,-0.3 -0.8,-0.4 -1.5,-0.4l-1.8,0l0,3.1l1.8,0.1l0,0zm4.8,-6.3l1,0l0,3.1l4.4,0l0,-3.1l1,0l0,7l-1,0l0,-3.1l-4.4,0l0,3.1l-1,0l0,-7zm12,2.5c0.9,0 1.6,0.2 2,0.6c0.5,0.4 0.7,0.9 0.7,1.7c0,0.8 -0.3,1.3 -0.8,1.7c-0.5,0.4 -1.2,0.6 -2.1,0.6l-2.8,0l0,-7l1,0l0,2.5l2,-0.1l0,0zm3.9,-2.5l1,0l0,7l-1,0l0,-7zm-4.2,6.3c0.7,0 1.1,-0.1 1.5,-0.4c0.3,-0.3 0.5,-0.7 0.5,-1.2c0,-0.5 -0.2,-0.9 -0.5,-1.2c-0.3,-0.3 -0.8,-0.4 -1.5,-0.4l-1.8,0l0,3.1l1.8,0.1l0,0zm7.8,-6.3l1,0l0,5.6l4.7,-5.6l0.8,0l0,7l-1,0l0,-5.6l-4.7,5.6l-0.9,0l0,-7l0.1,0zm3.2,-1c-0.6,0 -1.1,-0.2 -1.4,-0.5c-0.4,-0.3 -0.5,-0.7 -0.5,-1.3l0.7,0c0,0.3 0.1,0.6 0.4,0.8c0.2,0.2 0.6,0.3 0.9,0.3c0.4,0 0.7,-0.1 0.9,-0.3c0.2,-0.2 0.4,-0.5 0.4,-0.8l0.7,0c0,0.6 -0.2,1 -0.6,1.3c-0.4,0.3 -0.9,0.5 -1.5,0.5l0,0zm-91.7,22.1c0,1.1 -0.4,2 -1.1,2.6c-0.7,0.6 -1.7,1 -3.1,1l0,2.5l-0.9,0l0,-2.5c-1.3,-0.1 -2.3,-0.4 -3,-1c-0.7,-0.6 -1.1,-1.5 -1.1,-2.6c0,-1.1 0.4,-1.9 1.1,-2.6c0.7,-0.6 1.7,-1 3,-1l0,-2.8l0.9,0l0,2.8c1.3,0.1 2.3,0.4 3.1,1c0.8,0.7 1.1,1.5 1.1,2.6l0,0zm-8.2,0c0,0.8 0.3,1.5 0.8,2c0.5,0.5 1.3,0.7 2.4,0.8l0,-5.5c-1,0.1 -1.8,0.3 -2.4,0.8c-0.5,0.4 -0.8,1.1 -0.8,1.9zm4.1,2.8c1,-0.1 1.8,-0.3 2.4,-0.8c0.5,-0.5 0.8,-1.1 0.8,-2c0,-0.8 -0.3,-1.5 -0.8,-1.9c-0.5,-0.5 -1.3,-0.7 -2.4,-0.8l0,5.5zm6.2,-6.3l1,0l0,5.6l4.7,-5.6l0.8,0l0,7l-1,0l0,-5.6l-4.7,5.6l-0.9,0l0.1,-7l0,0zm9.2,0l1,0l0,3.1l4.4,0l0,-3.1l1,0l0,7l-1,0l0,-3.1l-4.4,0l0,3.1l-1,0l0,-7zm11.4,-0.1c0.9,0 1.6,0.2 2.1,0.7c0.5,0.5 0.7,1.1 0.7,2l0,4.4l-0.9,0l0,-1.1c-0.2,0.4 -0.5,0.7 -0.9,0.9c-0.4,0.2 -0.9,0.3 -1.5,0.3c-0.8,0 -1.4,-0.2 -1.9,-0.6c-0.5,-0.4 -0.7,-0.9 -0.7,-1.5c0,-0.6 0.2,-1.1 0.6,-1.4c0.4,-0.4 1.1,-0.5 2.1,-0.5l2.2,0l0,-0.4c0,-0.6 -0.2,-1.1 -0.5,-1.4c-0.3,-0.3 -0.8,-0.5 -1.5,-0.5c-0.4,0 -0.9,0.1 -1.3,0.2c-0.4,0.1 -0.8,0.4 -1.1,0.6l-0.4,-0.7c0.4,-0.3 0.8,-0.5 1.3,-0.7c0.7,-0.2 1.2,-0.3 1.7,-0.3l0,0zm-0.3,6.4c0.5,0 1,-0.1 1.4,-0.4c0.4,-0.2 0.7,-0.6 0.9,-1.1l0,-1.2l-2.2,0c-1.2,0 -1.8,0.4 -1.8,1.3c0,0.4 0.2,0.7 0.5,1c0.2,0.3 0.6,0.4 1.2,0.4l0,0zm5.7,-6.3l1,0l0,3.1l4.4,0l0,-3.1l1,0l0,7l-1,0l0,-3.1l-4.4,0l0,3.1l-1,0l0,-7zm12,7.1c-0.7,0 -1.3,-0.2 -1.9,-0.5c-0.5,-0.3 -1,-0.7 -1.3,-1.3c-0.3,-0.5 -0.5,-1.2 -0.5,-1.9c0,-0.7 0.2,-1.3 0.5,-1.8c0.3,-0.5 0.7,-1 1.3,-1.3c0.5,-0.3 1.2,-0.5 1.9,-0.5c0.6,0 1.1,0.1 1.6,0.4c0.5,0.2 0.9,0.6 1.1,1l-0.7,0.5c-0.2,-0.3 -0.5,-0.6 -0.9,-0.8c-0.4,-0.2 -0.7,-0.3 -1.2,-0.3c-0.5,0 -1,0.1 -1.4,0.3c-0.4,0.2 -0.7,0.6 -1,1c-0.2,0.4 -0.3,0.9 -0.3,1.4c0,0.5 0.1,1 0.3,1.4c0.2,0.4 0.5,0.7 1,1c0.4,0.2 0.9,0.3 1.4,0.3c0.4,0 0.8,-0.1 1.2,-0.3c0.4,-0.2 0.7,-0.4 0.9,-0.8l0.7,0.5c-0.3,0.5 -0.7,0.8 -1.1,1s-1,0.7 -1.6,0.7l0,0zm7.5,0c-0.7,0 -1.3,-0.2 -1.8,-0.5c-0.5,-0.3 -1,-0.7 -1.3,-1.3c-0.3,-0.5 -0.5,-1.2 -0.5,-1.8c0,-0.7 0.2,-1.3 0.5,-1.8c0.3,-0.5 0.7,-1 1.3,-1.3c0.5,-0.3 1.2,-0.5 1.8,-0.5s1.3,0.2 1.8,0.5c0.5,0.3 1,0.7 1.3,1.3c0.3,0.5 0.5,1.2 0.5,1.8c0,0.7 -0.2,1.3 -0.5,1.8c-0.3,0.5 -0.7,1 -1.3,1.3c-0.5,0.3 -1.1,0.5 -1.8,0.5zm0,-0.8c0.5,0 0.9,-0.1 1.3,-0.3c0.4,-0.2 0.7,-0.6 0.9,-1c0.2,-0.4 0.3,-0.9 0.3,-1.4c0,-0.5 -0.1,-1 -0.3,-1.4c-0.2,-0.4 -0.5,-0.7 -0.9,-1c-0.4,-0.2 -0.8,-0.3 -1.3,-0.3c-0.5,0 -0.9,0.1 -1.3,0.3c-0.4,0.2 -0.7,0.6 -0.9,1c-0.2,0.4 -0.3,0.9 -0.3,1.4c0,0.5 0.1,1 0.3,1.4c0.2,0.4 0.5,0.7 0.9,1c0.4,0.1 0.8,0.3 1.3,0.3zm10.1,-2.9c1,0.2 1.4,0.8 1.4,1.7c0,0.6 -0.2,1.1 -0.7,1.4c-0.5,0.3 -1.1,0.5 -2,0.5l-3.2,0l0,-7l3.1,0c0.8,0 1.4,0.2 1.9,0.5c0.5,0.3 0.7,0.8 0.7,1.3c0,0.4 -0.1,0.7 -0.3,1c-0.2,0.3 -0.5,0.5 -0.9,0.6l0,0zm-3.6,-0.3l2.1,0c0.5,0 1,-0.1 1.3,-0.3c0.3,-0.2 0.4,-0.5 0.4,-0.9c0,-0.4 -0.1,-0.7 -0.4,-0.9c-0.3,-0.2 -0.7,-0.3 -1.3,-0.3l-2.1,0l0,2.4l0,0zm2.3,3.2c0.6,0 1.1,-0.1 1.4,-0.3c0.3,-0.2 0.5,-0.5 0.5,-0.9c0,-0.4 -0.1,-0.7 -0.4,-0.9c-0.3,-0.2 -0.7,-0.3 -1.3,-0.3l-2.3,0l0,2.5l2.1,0l0,-0.1zm7.9,-3.8c0.9,0 1.6,0.2 2,0.6c0.5,0.4 0.7,0.9 0.7,1.7c0,0.8 -0.3,1.3 -0.8,1.7c-0.5,0.4 -1.2,0.6 -2.1,0.6l-2.8,0l0,-7l1,0l0,2.5l2,-0.1l0,0zm3.9,-2.5l1,0l0,7l-1,0l0,-7zm-4.1,6.3c0.7,0 1.1,-0.1 1.5,-0.4c0.3,-0.3 0.5,-0.7 0.5,-1.2c0,-0.5 -0.2,-0.9 -0.5,-1.2c-0.3,-0.3 -0.8,-0.4 -1.5,-0.4l-1.8,0l0,3.1l1.8,0.1l0,0zm7.8,-6.3l1,0l0,5.6l4.7,-5.6l0.8,0l0,7l-1,0l0,-5.6l-4.7,5.6l-0.9,0l0,-7l0.1,0zm3.2,-1c-0.6,0 -1.1,-0.2 -1.4,-0.5c-0.4,-0.3 -0.5,-0.7 -0.5,-1.3l0.7,0c0,0.3 0.1,0.6 0.4,0.8c0.2,0.2 0.6,0.3 0.9,0.3c0.4,0 0.7,-0.1 0.9,-0.3s0.4,-0.5 0.4,-0.8l0.7,0c0,0.6 -0.2,1 -0.6,1.3c-0.4,0.3 -0.9,0.5 -1.5,0.5l0,0zm12.1,4.9l-1.6,0l0,3.1l-1,0l0,-7l1,0l0,3.1l1.6,0l2.5,-3.1l1,0l-2.8,3.4l3,3.6l-1.1,0l-2.6,-3.1l0,0zm8.1,3.2c-0.7,0 -1.3,-0.2 -1.8,-0.5c-0.5,-0.3 -1,-0.7 -1.3,-1.3c-0.3,-0.5 -0.5,-1.2 -0.5,-1.8c0,-0.7 0.2,-1.3 0.5,-1.8c0.3,-0.5 0.7,-1 1.3,-1.3c0.5,-0.3 1.2,-0.5 1.8,-0.5s1.3,0.2 1.8,0.5c0.5,0.3 1,0.7 1.3,1.3c0.3,0.5 0.5,1.2 0.5,1.8c0,0.7 -0.2,1.3 -0.5,1.8c-0.3,0.5 -0.7,1 -1.3,1.3c-0.5,0.3 -1.1,0.5 -1.8,0.5zm0,-0.8c0.5,0 0.9,-0.1 1.3,-0.3c0.4,-0.2 0.7,-0.6 0.9,-1c0.2,-0.4 0.3,-0.9 0.3,-1.4c0,-0.5 -0.1,-1 -0.3,-1.4c-0.2,-0.4 -0.5,-0.7 -0.9,-1c-0.4,-0.2 -0.8,-0.3 -1.3,-0.3s-0.9,0.1 -1.3,0.3c-0.4,0.2 -0.7,0.6 -0.9,1c-0.2,0.4 -0.3,0.9 -0.3,1.4c0,0.5 0.1,1 0.3,1.4c0.2,0.4 0.5,0.7 0.9,1c0.3,0.1 0.8,0.3 1.3,0.3zm5.6,-6.3l1,0l0,3.1l4.4,0l0,-3.1l1,0l0,7l-1,0l0,-3.1l-4.4,0l0,3.1l-1,0l0,-7zm12,7.1c-0.7,0 -1.3,-0.2 -1.9,-0.5c-0.5,-0.3 -1,-0.7 -1.3,-1.3c-0.3,-0.5 -0.5,-1.2 -0.5,-1.9c0,-0.7 0.2,-1.3 0.5,-1.8c0.3,-0.5 0.7,-1 1.3,-1.3c0.5,-0.3 1.2,-0.5 1.9,-0.5c0.6,0 1.1,0.1 1.6,0.4c0.5,0.2 0.9,0.6 1.1,1l-0.7,0.5c-0.2,-0.3 -0.5,-0.6 -0.9,-0.8c-0.4,-0.2 -0.7,-0.3 -1.2,-0.3c-0.5,0 -1,0.1 -1.4,0.3c-0.4,0.2 -0.7,0.6 -1,1c-0.2,0.4 -0.3,0.9 -0.3,1.4c0,0.5 0.1,1 0.3,1.4c0.2,0.4 0.5,0.7 1,1c0.4,0.2 0.9,0.3 1.4,0.3c0.4,0 0.8,-0.1 1.2,-0.3c0.4,-0.2 0.7,-0.4 0.9,-0.8l0.7,0.5c-0.3,0.5 -0.7,0.8 -1.1,1c-0.5,0.6 -1,0.7 -1.6,0.7l0,0zm10.6,-7.1l-3.5,7.9c-0.3,0.7 -0.6,1.1 -1,1.4c-0.4,0.3 -0.8,0.4 -1.4,0.4c-0.3,0 -0.7,-0.1 -1,-0.2c-0.3,-0.1 -0.5,-0.3 -0.8,-0.5l0.4,-0.7c0.4,0.4 0.8,0.5 1.3,0.5c0.3,0 0.6,-0.1 0.8,-0.3c0.2,-0.2 0.4,-0.5 0.6,-0.9l0.3,-0.7l-3.1,-7l1,0l2.7,6l2.7,-6l1,0l0,0.1zm7.2,0l0,7l-1,0l0,-6.2l-3.4,0l-0.1,1.7c-0.1,1.5 -0.2,2.6 -0.5,3.4c-0.3,0.8 -0.7,1.2 -1.4,1.2c-0.2,0 -0.4,0 -0.7,-0.1l0.1,-0.8c0.2,0 0.3,0.1 0.3,0.1c0.4,0 0.6,-0.2 0.8,-0.5c0.2,-0.3 0.3,-0.8 0.4,-1.3c0.1,-0.5 0.1,-1.2 0.2,-2l0.1,-2.5l5.2,0l0,0zm5.7,2.5c0.9,0 1.6,0.2 2,0.6c0.5,0.4 0.7,0.9 0.7,1.7c0,0.8 -0.2,1.3 -0.7,1.7c-0.5,0.4 -1.2,0.6 -2.1,0.6l-2.8,0l0,-7l1,0l0,2.5l1.9,-0.1l0,0zm-0.2,3.8c0.7,0 1.1,-0.1 1.5,-0.4c0.3,-0.3 0.5,-0.7 0.5,-1.2c0,-0.5 -0.2,-0.9 -0.5,-1.2c-0.3,-0.3 -0.8,-0.4 -1.5,-0.4l-1.8,0l0,3.1l1.8,0.1l0,0zm9.7,-5.5l-2.7,0l0,6.2l-1,0l0,-6.2l-2.7,0l0,-0.8l6.3,0l0,0.8l0.1,0zm3.8,-0.9c0.9,0 1.6,0.2 2.1,0.7c0.5,0.5 0.7,1.1 0.7,2l0,4.4l-0.9,0l0,-1.1c-0.2,0.4 -0.5,0.7 -0.9,0.9c-0.4,0.2 -0.9,0.3 -1.5,0.3c-0.8,0 -1.4,-0.2 -1.9,-0.6c-0.5,-0.4 -0.7,-0.9 -0.7,-1.5c0,-0.6 0.2,-1.1 0.6,-1.4c0.4,-0.4 1.1,-0.5 2.1,-0.5l2.2,0l0,-0.4c0,-0.6 -0.2,-1.1 -0.5,-1.4c-0.3,-0.3 -0.8,-0.5 -1.5,-0.5c-0.4,0 -0.9,0.1 -1.3,0.2c-0.4,0.1 -0.8,0.4 -1.1,0.6l-0.4,-0.7c0.4,-0.3 0.8,-0.5 1.3,-0.7c0.6,-0.2 1.2,-0.3 1.7,-0.3l0,0zm-0.3,6.4c0.5,0 1,-0.1 1.4,-0.4c0.4,-0.2 0.7,-0.6 0.9,-1.1l0,-1.2l-2.2,0c-1.2,0 -1.8,0.4 -1.8,1.3c0,0.4 0.2,0.7 0.5,1c0.2,0.3 0.6,0.4 1.2,0.4l0,0zm5.7,-6.3l1,0l0,3.1l4.4,0l0,-3.1l1,0l0,7l-1,0l0,-3.1l-4.4,0l0,3.1l-1,0l0,-7zm14,0.8l-2.7,0l0,6.2l-1,0l0,-6.2l-2.7,0l0,-0.8l6.3,0l0,0.8l0.1,0z" class="st1" id="path6"/>
  <path d="m50,53l-4.7,0l0,12l-6.8,0l0,-29.7l6.8,0l0,12l4.9,0l7.8,-12l7.3,0l-9.7,14.3l10,15.4l-7.8,0l-7.8,-12l0,0z" class="st2" id="path8"/>
  <path d="m2,1.2l96,0l0.5,0l0,0.5l0,96l0,0.5l-0.5,0l-96,0l-0.5,0l0,-0.5l0,-96l0,-0.5l0.5,0zm95.6,1l-95,0l0,95l95,0l0,-95z" class="st3" id="path10"/>
  <path d="m50.1,7.9l0.3,0.3c0.2,0.2 0.5,0.5 0.7,0.7c2.5,2.8 3.3,6.1 3.1,9c-0.2,2.9 -1.5,5.6 -3.1,7.2c-0.1,0.1 -0.2,0.2 -0.2,0.2c0.1,0.1 0.3,0.2 0.4,0.3c0.4,0.2 0.7,0.5 1.1,0.6c1.8,0.9 3.5,1 5,0.6l0,0c0.3,-0.1 0.6,-0.2 0.9,-0.3c0.3,-0.1 0.5,-0.3 0.8,-0.4c0.7,-0.5 1.2,-1.1 1.5,-1.9c0.7,-1.7 0.1,-4.5 -2.1,-4.7c-1.1,-0.1 -1.8,0.4 -2.2,1c-0.2,0.3 -0.2,0.6 -0.2,0.9c0,0.3 0.1,0.6 0.2,0.8c0.3,0.5 0.8,0.8 1.8,0.7c-0.1,1 -2,0.8 -2.6,-0.2c-0.2,-0.4 -0.3,-0.9 -0.3,-1.3c0,-0.5 0.1,-0.9 0.4,-1.3c0.5,-0.9 1.6,-1.6 3.1,-1.5c2.8,0.2 3.7,3.4 3,5.7c-0.3,1.1 -1,2 -1.9,2.6c-0.3,0.2 -0.6,0.4 -0.9,0.5c-0.3,0.2 -0.7,0.3 -1,0.4l0,0c-1.7,0.5 -3.7,0.3 -5.7,-0.7c-0.4,-0.2 -0.8,-0.4 -1.2,-0.7c-0.2,-0.1 -0.4,-0.3 -0.6,-0.4l0,0l0,0c-0.2,0.2 -0.4,0.3 -0.6,0.4c-0.4,0.3 -0.8,0.5 -1.2,0.7c-2,1 -4,1.2 -5.7,0.7l0,0c-0.4,-0.1 -0.7,-0.2 -1,-0.4c-0.3,-0.2 -0.6,-0.3 -0.9,-0.5c-0.8,-0.5 -1.4,-1.3 -1.7,-2.1c-1,-2.3 -0.2,-6 2.8,-6.2c1.5,-0.1 2.6,0.6 3.1,1.5c0.2,0.4 0.4,0.9 0.4,1.3c0,0.5 -0.1,0.9 -0.3,1.3c-0.6,1.1 -2.6,1.2 -2.6,0.2c0.9,0.1 1.5,-0.2 1.8,-0.7c0.1,-0.2 0.2,-0.5 0.2,-0.8c0,-0.3 -0.1,-0.6 -0.2,-0.9c-0.3,-0.6 -1.1,-1.1 -2.2,-1c-2.4,0.2 -2.8,3.3 -1.9,5c0.3,0.6 0.8,1.1 1.3,1.5c0.2,0.2 0.5,0.3 0.8,0.4c0.3,0.1 0.6,0.2 0.9,0.3l0,0c1.4,0.4 3.2,0.3 5,-0.6c0.4,-0.2 0.7,-0.4 1.1,-0.6c0.1,-0.1 0.3,-0.2 0.4,-0.3c-0.1,-0.1 -0.2,-0.2 -0.2,-0.2c-1.6,-1.6 -2.8,-4.2 -3.1,-7.2c-0.2,-2.9 0.5,-6.2 3.1,-9c0.2,-0.3 0.5,-0.5 0.7,-0.7l-0.3,-0.2l0,0zm0,16.8l0,0c0.1,-0.1 0.2,-0.2 0.3,-0.3c1.4,-1.5 2.6,-3.9 2.8,-6.6c0.2,-2.7 -0.5,-5.7 -2.8,-8.3c-0.1,-0.1 -0.2,-0.2 -0.3,-0.3l0,0l0,0c-0.1,0.1 -0.2,0.2 -0.3,0.3c-2.3,2.6 -3,5.6 -2.8,8.3c0.2,2.7 1.4,5.1 2.8,6.6c0.1,0.2 0.2,0.3 0.3,0.3l0,0l0,0z" class="st3" id="path12"/>
  <path d="m64.7,23.4l0,0l0,0c0.2,-0.2 0.3,-0.3 0.5,-0.4c0.2,-0.1 0.3,-0.2 0.5,-0.3c0.9,-0.5 1.9,-0.7 2.9,-0.6l0.4,0l0,0.4l0,0c0,0.2 0,0.4 0,0.6c0,0.2 0,0.4 0,0.6c-0.1,1 -0.6,1.9 -1.3,2.7l0,0l0,0c-0.2,0.1 -0.3,0.3 -0.5,0.4c-0.2,0.1 -0.3,0.2 -0.5,0.3c-0.9,0.5 -1.9,0.7 -2.9,0.6l-0.4,0l0,-0.4l0,0c0,-0.2 0,-0.4 0,-0.6c0,-0.2 0,-0.4 0,-0.6c0.1,-0.9 0.6,-1.9 1.3,-2.7l0,0zm0.7,0.7l0,0l0,0c-0.6,0.6 -1,1.4 -1.1,2.1c0,0.2 0,0.3 0,0.5l0,0.1c0.6,0 1.3,-0.2 1.9,-0.5c0.1,-0.1 0.3,-0.2 0.4,-0.3c0.1,-0.1 0.3,-0.2 0.4,-0.3l0,0l0,0c0.6,-0.6 1,-1.3 1.1,-2.1c0,-0.2 0,-0.3 0,-0.5l0,-0.1c-0.6,0 -1.3,0.2 -1.9,0.5c-0.1,0.1 -0.3,0.2 -0.4,0.3c-0.1,0.1 -0.3,0.2 -0.4,0.3l0,0z" class="st3" id="path14"/>
  <g id="g16">
   <path d="m62.6,12.2l0,0l0,0c0,0.1 0,0.2 -0.1,0.2c0,0.1 0,0.1 0,0.2c-0.1,0.4 -0.1,0.8 -0.1,1.2l0,0l0,0c0,1.1 0.3,2.1 0.7,3.1l0,0c0.1,0.2 0.2,0.3 0.2,0.4c0.4,0.6 0.8,1.2 1.3,1.7c0.1,-0.1 0.2,-0.2 0.3,-0.3c0.2,-0.2 0.4,-0.4 0.5,-0.7c0.9,-1.2 1.4,-2.7 1.4,-4.3l0,0l0,0c0,-0.3 0,-0.6 -0.1,-0.9l0,0l0,-0.1l0,0c0,-0.2 -0.1,-0.5 -0.1,-0.7l-0.2,-0.9l0.9,0.3l0,0l0,0c0.1,0 0.1,0 0.2,0.1l0,0l0,0c0.1,0 0.1,0 0.2,0c0.3,0.1 0.6,0.1 0.9,0.1l0,0l0,0c1.1,0 2.1,-0.5 2.9,-1.2c0.6,-0.5 1.1,-1.4 1.1,-2.4c-0.1,0 -0.1,0.1 -0.2,0.1c-0.9,0.5 -1.9,0.8 -2.9,0.8l0,0l0,0c-1.1,0 -2.1,-0.3 -3,-0.8c-0.1,-0.1 -0.3,-0.2 -0.4,-0.3c-0.5,-0.4 -1,-0.8 -1.4,-1.4l0,0.1l0,-0.1c-0.1,0.1 -0.1,0.2 -0.2,0.2c-0.2,0.2 -0.4,0.4 -0.6,0.6c-1.1,1 -2.5,1.6 -4.1,1.6l0,0l0,0c-0.7,0 -1.5,-0.1 -2.1,-0.4c-0.1,0 -0.2,-0.1 -0.3,-0.1c-0.4,0 -0.6,-0.1 -0.8,-0.3c0.1,1 0.5,1.9 1.2,2.6c0.7,0.7 1.8,1.2 2.9,1.2l0,0l0,0l0,0l0,0c0.2,0 0.4,0 0.6,-0.1l0,0l0.1,0l0,0c0.2,0 0.4,-0.1 0.5,-0.1l0.8,-0.3l-0.1,0.9l0,0zm-1.2,1.7c0,-0.4 0,-0.8 0.1,-1.2c-0.3,0 -0.5,0.1 -0.8,0.1l0,0l0,0l0,0l0,0c-1.4,0 -2.7,-0.6 -3.6,-1.5c-0.9,-0.9 -1.5,-2.2 -1.5,-3.6l0,0l0,0c0,-0.2 0,-0.3 0,-0.5l0,0l0,-0.1l0,0l0,-0.1l0,0l0,0l0.1,-0.9l0.7,0.6c0.4,0.3 0.8,0.6 1.2,0.8c0.1,0 0.2,0.1 0.3,0.1c0.5,0.2 1.1,0.3 1.8,0.3l0,0l0,0c1.3,0 2.5,-0.5 3.4,-1.3c0.2,-0.2 0.3,-0.3 0.5,-0.5c0.1,-0.2 0.3,-0.4 0.4,-0.6l0,0l0.1,-0.1l0,0l0.1,-0.1l0.2,-0.5l0.2,-0.3l0,0l0,0l0.3,0.5l0.1,0.2c0,0.1 0.1,0.1 0.1,0.1l0,0l0.1,0.1l0,0c0.4,0.6 0.9,1.1 1.4,1.5c0.1,0.1 0.2,0.2 0.4,0.2c0.7,0.4 1.6,0.7 2.5,0.7l0,0l0,0c0.9,0 1.7,-0.2 2.5,-0.6c0.1,-0.1 0.3,-0.2 0.4,-0.3l0,0c0.1,-0.1 0.3,-0.2 0.4,-0.3l0,0l0,0l0.7,-0.6l0.1,1c0,0.1 0,0.2 0,0.3l0,0.1l0,0c0,0.1 0,0.2 0,0.3l0,0l0,0l0,0l0,0c0,1.4 -0.6,2.7 -1.5,3.6c-0.9,0.9 -2.2,1.5 -3.6,1.5l0,0l0,0c-0.3,0 -0.5,0 -0.8,-0.1l0,0l0,0l0,0.2l0,0c0,0.3 0.1,0.6 0.1,1l0,0l0,0c0,1.8 -0.6,3.5 -1.6,4.8c-0.2,0.3 -0.4,0.5 -0.6,0.8c-0.2,0.2 -0.5,0.5 -0.7,0.7l0,0l-0.3,0.3l-0.3,-0.3c-0.7,-0.6 -1.4,-1.4 -1.9,-2.2c-0.1,-0.2 -0.2,-0.3 -0.3,-0.5l0,0c-0.4,-1.1 -0.7,-2.3 -0.7,-3.6l0,0l0,0l0,0zm3.5,6.3l0,0l0,0z" class="st3" id="path18"/>
   <path d="m33.5,12.2l0,0l0,0c0,0.1 0,0.2 -0.1,0.2c0,0.1 0,0.1 0,0.2c-0.1,0.4 -0.1,0.8 -0.1,1.2l0,0l0,0c0,1.1 0.3,2.1 0.7,3.1l0,0c0.1,0.2 0.2,0.3 0.2,0.4c0.4,0.6 0.8,1.2 1.3,1.7c0.1,-0.1 0.2,-0.2 0.3,-0.3c0.2,-0.2 0.4,-0.4 0.5,-0.7c0.9,-1.2 1.4,-2.7 1.4,-4.3l0,0l0,0c0,-0.3 0,-0.6 -0.1,-0.9l0,0l0,-0.1l0,0c0,-0.2 -0.1,-0.5 -0.1,-0.7l-0.2,-0.9l0.9,0.3l0,0l0,0c0.1,0 0.1,0 0.2,0.1l0,0l0,0c0.1,0 0.1,0 0.2,0c0.3,0.1 0.6,0.1 0.9,0.1l0,0l0,0c1.1,0 2.1,-0.5 2.9,-1.2c0.6,-0.4 1.1,-1.3 1.2,-2.4c-0.1,0 -0.1,0.1 -0.2,0.1c-0.9,0.5 -1.9,0.8 -2.9,0.8l0,0l0,0c-1.1,0 -2.1,-0.3 -3,-0.8c-0.2,-0.1 -0.4,-0.2 -0.5,-0.3c-0.5,-0.4 -1,-0.8 -1.4,-1.4l0,0.1l0,-0.1c-0.1,0.1 -0.1,0.2 -0.2,0.2c-0.2,0.2 -0.4,0.4 -0.6,0.6c-1.1,1 -2.5,1.6 -4.1,1.6l0,0l0,0c-0.7,0 -1.5,-0.1 -2.1,-0.4c-0.1,0 -0.2,-0.1 -0.3,-0.1c-0.3,0 -0.6,-0.1 -0.8,-0.3c0.1,1 0.5,1.9 1.2,2.6c0.7,0.7 1.8,1.2 2.9,1.2l0,0l0,0l0,0l0,0c0.2,0 0.4,0 0.6,-0.1l0,0l0.1,0l0,0c0.2,0 0.4,-0.1 0.5,-0.1l0.8,-0.3l-0.1,0.9l0,0zm-1.2,1.7c0,-0.4 0,-0.8 0.1,-1.2c-0.3,0 -0.5,0.1 -0.8,0.1l0,0l0,0l0,0l0,0c-1.4,0 -2.7,-0.6 -3.6,-1.5c-0.9,-0.9 -1.5,-2.2 -1.5,-3.6l0,0l0,0c0,-0.2 0,-0.3 0,-0.5l0,0l0,-0.1l0,0l0,-0.1l0,0l0,0l0.1,-0.9l0.7,0.6c0.4,0.3 0.8,0.6 1.2,0.8c0.1,0 0.2,0.1 0.3,0.1c0.5,0.2 1.1,0.3 1.8,0.3l0,0l0,0c1.3,0 2.5,-0.5 3.4,-1.3c0.2,-0.2 0.3,-0.3 0.5,-0.5c0.1,-0.2 0.3,-0.4 0.4,-0.6l0,0l0.1,-0.1l0,0l0.1,-0.1l0.2,-0.5l0.2,-0.3l0,0l0,0l0.4,0.5l0.1,0.2c0,0.1 0,0.1 0,0.2l0,0l0.1,0.1l0,0c0.4,0.6 0.9,1.1 1.5,1.5c0.1,0.1 0.2,0.2 0.4,0.2c0.7,0.4 1.6,0.7 2.5,0.7l0,0l0,0c0.9,0 1.7,-0.2 2.5,-0.6c0,-0.1 0.2,-0.2 0.3,-0.3l0,0c0.1,-0.1 0.3,-0.2 0.4,-0.3l0,0l0,0l0.7,-0.6l0.1,0.9c0,0.1 0,0.2 0,0.3l0,0.1l0,0c0,0.1 0,0.2 0,0.3l0,0l0,0l0,0l0,0c0,1.4 -0.6,2.7 -1.5,3.6c-0.9,0.9 -2.2,1.5 -3.6,1.5l0,0l0,0c-0.3,0 -0.5,0 -0.8,-0.1l0,0l0,0l0,0.2l0,0c0,0.3 0.1,0.6 0.1,1l0,0l0,0c0,1.8 -0.6,3.5 -1.6,4.8c-0.2,0.3 -0.4,0.5 -0.6,0.8c-0.2,0.2 -0.5,0.5 -0.7,0.7l0,0l-0.3,0.3l-0.3,-0.3c-0.7,-0.6 -1.4,-1.4 -1.9,-2.2c-0.1,-0.2 -0.2,-0.3 -0.3,-0.5l0,0c-0.4,-1.1 -0.7,-2.3 -0.7,-3.6l0,0l0,0l0,0zm3.6,6.3l0,0l0,0z" class="st3" id="path20"/>
  </g>
  <path d="m12.1,8.9l0,0l0,0c-0.1,-0.1 -0.1,-0.1 -0.2,-0.2c0,0 -0.1,-0.1 -0.1,-0.2l0,0c-0.2,-0.3 -0.5,-0.7 -0.8,-1l0,0l0,0c-0.3,-0.2 -0.5,-0.4 -0.7,-0.6c-0.3,-0.2 -0.5,-0.3 -0.8,-0.5c-1.2,-0.7 -2.5,-1 -3.8,-1c0,0.2 0,0.3 0,0.4c0,0.3 0,0.6 0.1,0.9c0.2,1.5 0.9,2.8 2,4l0,0l0,0c0.1,0.1 0.1,0.1 0.2,0.2c0.1,0.1 0.1,0.1 0.2,0.2c0.3,0.3 0.7,0.5 1,0.7l0.8,0.5l-0.8,0.4l0,0c0,0 -0.1,0 -0.2,0.1c-0.1,0 -0.1,0.1 -0.2,0.1c-0.3,0.2 -0.5,0.4 -0.7,0.6l0,0l0,0l0,0c-0.8,0.8 -1.2,1.8 -1.2,2.9l0,0c0,0.9 0.3,1.9 1,2.7c0,-0.1 0,-0.1 0.1,-0.2c0.3,-1 0.8,-1.9 1.5,-2.6l0,0l0,0c0.2,-0.2 0.4,-0.4 0.7,-0.6c0.2,-0.2 0.5,-0.3 0.7,-0.5l0,0c0.9,-0.5 1.9,-0.7 2.9,-0.7c0.3,0 0.6,0 0.9,0.1c0,-0.1 0,-0.3 -0.1,-0.4c0,-0.3 0,-0.6 0,-0.9c0.1,-1.5 0.6,-2.9 1.8,-4l0,0l0,0l0,0c0.1,-0.1 0.3,-0.3 0.5,-0.4l0,0l0,0c0.2,-0.1 0.3,-0.3 0.5,-0.4c0.6,-0.4 1.2,-0.6 1.9,-0.8c-0.8,-0.7 -1.7,-1 -2.7,-1c-1,0 -2.1,0.4 -2.9,1.2l0,0l0,0l0,0c-0.1,0.1 -0.1,0.1 -0.1,0.1l0,0c0,0 -0.1,0.1 -0.1,0.1l0,0c-0.2,0.2 -0.4,0.5 -0.5,0.8l-0.4,0.8l-0.5,-0.8l0,0zm-0.4,-2.1c0.3,0.3 0.5,0.6 0.8,0.9c0.1,-0.1 0.1,-0.2 0.2,-0.3l0,0c0,-0.1 0.1,-0.1 0.2,-0.2l0,0c0.1,-0.1 0.1,-0.1 0.2,-0.2l0,0l0,0l0,0c1,-1 2.3,-1.5 3.6,-1.5c1.3,0 2.6,0.5 3.6,1.5l0,0l0,0l0,0c0.1,0.1 0.2,0.3 0.3,0.4l0,0l0.1,0.1l0,0l0.1,0.1l0,0l0,0l0.5,0.7l-0.9,0.1c-0.8,0.1 -1.6,0.3 -2.3,0.8c-0.1,0.1 -0.3,0.2 -0.4,0.3l0,0c-0.1,0.1 -0.3,0.2 -0.4,0.3l0,0l0,0l0,0c-0.9,0.9 -1.4,2.1 -1.5,3.4c0,0.2 0,0.5 0,0.7c0.1,0.6 0.3,1.3 0.4,1.8c-0.9,-0.3 -1.9,-0.5 -2.8,-0.4c-0.7,0.1 -1.3,0.2 -1.9,0.6l0,0c-0.2,0.1 -0.4,0.2 -0.6,0.4c-0.2,0.1 -0.4,0.3 -0.6,0.5l0,0l0,0c-0.6,0.6 -1.1,1.4 -1.3,2.2c0,0.2 -0.1,0.3 -0.1,0.5c0,0.1 0,0.3 -0.1,0.5l0,0l-0.1,0.9l-0.7,-0.5c-0.1,-0.1 -0.3,-0.2 -0.4,-0.3l0,0l-0.1,-0.1l0,0l-0.1,-0.1l0,0l0,0l0,0l0,0c-1,-1 -1.5,-2.3 -1.5,-3.6l0,0c0,-1.3 0.5,-2.6 1.5,-3.6l0,0l0,0l0,0c0.2,-0.2 0.4,-0.4 0.6,-0.5c-0.2,-0.1 -0.3,-0.3 -0.5,-0.4c-0.1,-0.1 -0.1,-0.1 -0.2,-0.2c-0.1,-0.1 -0.1,-0.1 -0.2,-0.2l0,0l0,0c-1.3,-1.3 -2,-2.9 -2.3,-4.5c-0.1,-0.3 -0.1,-0.6 -0.1,-1c0,-0.3 0,-0.7 0,-1l0,0l0,-0.4l0.4,0c1.8,-0.2 3.5,0.2 4.9,1.1c0.3,0.2 0.6,0.4 0.8,0.6c0.4,0.1 0.6,0.4 0.9,0.6l0,0l0,0l0,0z" class="st3" id="path22"/>
  <path d="m16.9,22.5c0.3,0.1 0.5,0.2 0.7,0.3c0.2,0.2 0.4,0.4 0.6,0.7c0.4,0.9 0.3,2 -0.4,2.8c-0.4,0.5 -0.9,0.8 -1.6,0.9c-0.1,0 -0.1,0 -0.2,0c-2,0.2 -3.7,-1.3 -4,-3.3l0,0l0,0l0,0c0,-0.1 0,-0.3 0,-0.4c0,-0.1 0,-0.3 0,-0.4c0,-0.7 0.3,-1.5 0.6,-2.2l0,0l0,0l0,0c0.1,-0.2 0.3,-0.5 0.5,-0.7c0.2,-0.2 0.4,-0.4 0.6,-0.6c1,-0.9 2.4,-1.6 4.2,-1.9c0.2,-1.8 0.9,-3.2 1.9,-4.2c0.2,-0.2 0.4,-0.4 0.6,-0.6c0.2,-0.2 0.5,-0.3 0.7,-0.5l0,0l0,0l0,0c0.7,-0.4 1.4,-0.6 2.2,-0.6c0.1,0 0.3,0 0.4,0c0.1,0 0.3,0 0.4,0l0,0l0,0l0,0c2,0.3 3.5,2 3.3,4c0,0.1 0,0.1 0,0.2c-0.1,0.7 -0.4,1.2 -0.9,1.6c-0.8,0.6 -1.9,0.8 -2.8,0.4c-0.3,-0.1 -0.5,-0.3 -0.7,-0.6c-0.2,-0.2 -0.3,-0.5 -0.3,-0.7c-0.2,-0.8 0.6,-1.9 1.4,-1.6c-0.3,0.2 -0.5,0.6 -0.5,0.9c0,0.2 0,0.3 0,0.5c0,0.1 0.1,0.3 0.2,0.4c0.5,0.7 1.6,0.5 2.1,-0.1c0.4,-0.4 0.5,-1 0.5,-1.6c-0.1,-0.6 -0.4,-1.2 -0.8,-1.6c-0.4,-0.4 -1,-0.7 -1.6,-0.8l0,0l0,0l0,0c-0.1,0 -0.2,0 -0.3,0c-0.1,0 -0.2,0 -0.3,0c-0.6,0 -1.2,0.2 -1.7,0.5l0,0l0,0l0,0c-0.2,0.1 -0.4,0.2 -0.6,0.4c-0.2,0.1 -0.4,0.3 -0.5,0.5c-0.8,0.8 -1.3,1.9 -1.6,3.4c0.1,0 0.1,0 0.2,0c1.8,0 4,0.8 5.9,2.3c1.8,1.5 3.2,3.8 3.4,6.9l0,0c0,0.3 0,0.5 0,0.8l0,0.5l-0.5,0c-0.3,0 -0.6,0 -0.8,0l0,0c-3.1,-0.2 -5.4,-1.6 -6.9,-3.4c-1.5,-1.8 -2.3,-4 -2.3,-5.9c0,-0.1 0,-0.1 0,-0.2c-1.5,0.2 -2.6,0.8 -3.4,1.6c-0.2,0.2 -0.3,0.3 -0.5,0.5c-0.1,0.2 -0.3,0.4 -0.4,0.6l0,0l0,0l0,0c-0.3,0.6 -0.5,1.2 -0.5,1.7c0,0.1 0,0.2 0,0.3c0,0.1 0,0.2 0,0.3l0,0l0,0l0,0c0.1,0.6 0.4,1.2 0.8,1.6c0.4,0.5 1,0.8 1.6,0.8c0.6,0.1 1.2,-0.1 1.6,-0.5c0.6,-0.6 0.7,-1.6 0.1,-2.1c-0.1,-0.1 -0.2,-0.1 -0.4,-0.2c-0.1,0 -0.3,0 -0.5,0c-0.3,0 -0.6,0.2 -0.9,0.5c-0.5,-0.6 0.7,-1.4 1.4,-1.2l0,0zm2,-3.9c0,0.1 0,0.2 0,0.2c0,1.6 0.7,3.6 2.1,5.2c1.4,1.6 3.4,2.9 6.2,3l0,0c0.1,0 0.2,0 0.2,0c0,-0.1 0,-0.2 0,-0.2l0,0c-0.2,-2.8 -1.4,-4.8 -3,-6.2c-1.6,-1.4 -3.6,-2.1 -5.2,-2.1c-0.2,0.1 -0.2,0.1 -0.3,0.1l0,0z" class="st3" id="path24"/>
  <path d="m88.1,8.9l0,0l0,0c0.1,-0.1 0.1,-0.2 0.1,-0.2c0,0 0.1,-0.1 0.1,-0.2l0,0c0.2,-0.3 0.5,-0.7 0.8,-1l0,0l0,0c0.2,-0.2 0.4,-0.4 0.7,-0.6c0.2,-0.2 0.5,-0.4 0.7,-0.5c1.2,-0.7 2.5,-1 3.8,-1c0,0.2 0,0.3 0,0.4c0,0.3 0,0.6 -0.1,0.9c-0.2,1.5 -0.9,2.8 -2,4l0,0l0,0c-0.1,0.1 -0.1,0.1 -0.2,0.2c0.1,0 0,0.1 0,0.2c-0.3,0.3 -0.7,0.5 -1,0.7l-0.8,0.5l0.8,0.4l0,0c0,0 0.1,0 0.2,0.1c0.1,0 0.1,0.1 0.2,0.1c0.3,0.2 0.5,0.4 0.7,0.6l0,0l0,0l0,0c0.8,0.8 1.2,1.8 1.2,2.9l0,0c0,0.9 -0.3,1.9 -1,2.7c0,-0.1 0,-0.1 -0.1,-0.2c-0.3,-1 -0.8,-1.9 -1.5,-2.6l0,0l0,0c-0.2,-0.2 -0.4,-0.4 -0.7,-0.6c-0.2,-0.2 -0.5,-0.3 -0.7,-0.5l0,0c-0.9,-0.5 -1.9,-0.7 -2.9,-0.7c-0.3,0 -0.6,0 -0.9,0.1c0,-0.1 0,-0.3 0.1,-0.4c0,-0.3 0,-0.6 0,-0.9c-0.1,-1.5 -0.6,-2.9 -1.8,-4l0,0l0,0l0,0c-0.1,-0.1 -0.3,-0.3 -0.5,-0.4l0,0l0,0c-0.2,-0.1 -0.3,-0.3 -0.5,-0.4c-0.6,-0.4 -1.2,-0.6 -1.9,-0.8c0.8,-0.7 1.7,-1 2.7,-1c1,0 2.1,0.4 2.9,1.2l0,0l0,0l0,0c0.1,0.1 0.1,0.1 0.1,0.1l0,0c0,0 0.1,0.1 0.1,0.1l0,0c0.2,0.2 0.4,0.5 0.5,0.8l0.4,0.8l0.5,-0.8l0,0zm0.4,-2.1c-0.3,0.3 -0.5,0.6 -0.8,0.9c-0.1,-0.1 -0.1,-0.2 -0.2,-0.3l0,0c0,-0.1 -0.1,-0.1 -0.2,-0.2l0,0c-0.1,-0.1 -0.1,-0.1 -0.2,-0.2l0,0l0,0l0,0c-1,-1 -2.3,-1.5 -3.6,-1.5c-1.3,0 -2.6,0.5 -3.6,1.5l0,0l0,0l0,0c-0.1,0.1 -0.2,0.3 -0.3,0.4l0,0l-0.1,0.1l0,0l-0.1,0.1l0,0l0,0l-0.4,0.8l0.9,0.1c0.8,0.1 1.6,0.3 2.3,0.8c0.1,0.1 0.3,0.2 0.4,0.3l0,0c0.1,0.1 0.3,0.2 0.4,0.3l0,0l0,0l0,0c0.9,0.9 1.4,2.1 1.5,3.4c0,0.2 0,0.5 0,0.7c-0.1,0.6 -0.3,1.3 -0.4,1.8c0.9,-0.3 1.9,-0.5 2.8,-0.4c0.7,0.1 1.3,0.2 1.9,0.6l0,0c0.2,0.1 0.4,0.2 0.6,0.4c0.2,0.1 0.4,0.3 0.6,0.5l0,0l0,0c0.6,0.6 1.1,1.4 1.3,2.2c0,0.2 0.1,0.3 0.1,0.5c0,0.1 0,0.3 0.1,0.5l0,0l0.1,0.9l0.7,-0.5c0.1,-0.1 0.3,-0.2 0.4,-0.3l0,0l0.1,-0.1l0,0l0.1,-0.1l0,0l0,0l0,0l0,0c1,-1 1.5,-2.3 1.5,-3.6l0,0c0,-1.3 -0.5,-2.6 -1.5,-3.6l0,0l0,0l0,0c-0.2,-0.2 -0.4,-0.4 -0.6,-0.5c0.2,-0.1 0.3,-0.3 0.5,-0.4c0.1,-0.1 0.1,-0.1 0.2,-0.2c0.1,-0.1 0.1,-0.1 0.2,-0.2l0,0l0,0c1.3,-1.3 2,-2.9 2.3,-4.5c0.1,-0.3 0.1,-0.6 0.1,-1c0,-0.3 0,-0.7 0,-1l0,0l0,-0.4l-0.4,0c-1.7,-0.1 -3.4,0.2 -4.9,1.1c-0.3,0.2 -0.6,0.4 -0.8,0.6c-0.5,0 -0.8,0.3 -1,0.5l0,0l0,0l0,0z" class="st3" id="path26"/>
  <path d="m35.3,23.8l0,0l0,0c-0.2,-0.2 -0.3,-0.3 -0.5,-0.4c-0.2,-0.1 -0.3,-0.2 -0.5,-0.3c-0.9,-0.5 -1.9,-0.7 -2.9,-0.6l-0.4,0l0,0.4l0,0c0,0.2 0,0.4 0,0.6c0,0.2 0,0.4 0,0.6c0.1,1 0.6,1.9 1.3,2.7l0,0l0,0c0.2,0.1 0.3,0.3 0.5,0.4c0.2,0.1 0.3,0.2 0.5,0.3c0.9,0.5 1.9,0.7 2.9,0.6l0.4,0l0,-0.4l0,0c0,-0.2 0,-0.4 0,-0.6c0,-0.2 0,-0.4 0,-0.6c-0.1,-1 -0.6,-1.9 -1.3,-2.7l0,0zm-0.7,0.7l0,0l0,0c0.6,0.6 1,1.4 1.1,2.1c0,0.2 0,0.3 0,0.5l0,0.1c-0.6,0 -1.3,-0.2 -1.9,-0.5c-0.1,-0.1 -0.3,-0.2 -0.4,-0.3c-0.1,-0.1 -0.3,-0.2 -0.4,-0.3l0,0l0,0c-0.6,-0.6 -1,-1.3 -1.1,-2.1c0,-0.2 0,-0.3 0,-0.5l0,-0.1c0.6,0 1.3,0.2 1.9,0.5c0.1,0.1 0.3,0.2 0.4,0.3c0.1,0.1 0.2,0.2 0.4,0.3l0,0z" class="st3" id="path28"/>
  <path d="m53.4,2.2c0,1.8 -1.5,3.3 -3.3,3.3c-1.8,0 -3.3,-1.5 -3.3,-3.3" class="st4" id="path30"/>
  <path d="m53.9,2.2l0,0l0,0c0,1.1 -0.4,2 -1.1,2.7c-0.7,0.7 -1.7,1.1 -2.7,1.1l0,0l0,0l0,0l0,0c-1.1,0 -2,-0.4 -2.7,-1.1c-0.7,-0.7 -1.1,-1.6 -1.1,-2.7l0,0l0,0l1,0l0,0l0,0c0,0.8 0.3,1.5 0.8,2c0.5,0.5 1.2,0.8 2,0.8l0,0l0,0l0,0l0,0c0.8,0 1.5,-0.3 2,-0.8c0.5,-0.5 0.8,-1.2 0.8,-2l0,0l0,0l1,0l0,0z" class="st3" id="path32"/>
  <path d="m80.3,2.2c0,1.8 -1.5,3.3 -3.3,3.3c-1.8,0 -3.3,-1.5 -3.3,-3.3" class="st4" id="path34"/>
  <path d="m80.8,2.2l0,0l0,0c0,1.1 -0.4,2 -1.1,2.7c-0.8,0.7 -1.7,1.1 -2.8,1.1l0,0l0,0l0,0l0,0c-1.1,0 -2,-0.4 -2.7,-1.1c-0.7,-0.7 -1.1,-1.6 -1.1,-2.7l0,0l0,0l1,0l0,0l0,0c0,0.8 0.3,1.5 0.8,2c0.5,0.5 1.2,0.8 2,0.8l0,0l0,0l0,0l0,0c0.8,0 1.5,-0.3 2,-0.8c0.5,-0.5 0.8,-1.2 0.8,-2l0,0l0,0l1.1,0l0,0z" class="st3" id="path36"/>
  <path d="m26.1,2.2c0,1.8 -1.5,3.3 -3.3,3.3c-1.8,0 -3.3,-1.5 -3.3,-3.3" class="st4" id="path38"/>
  <path d="m26.6,2.2l0,0l0,0c0,1.1 -0.4,2 -1.1,2.7c-0.7,0.7 -1.7,1.1 -2.7,1.1l0,0l0,0l0,0l0,0c-1.1,0 -2,-0.4 -2.7,-1.1c-0.7,-0.7 -1.1,-1.6 -1.1,-2.7l0,0l0,0l1,0l0,0l0,0c0,0.8 0.3,1.5 0.8,2c0.5,0.5 1.2,0.8 1.9,0.8l0,0l0,0l0,0l0,0c0.8,0 1.5,-0.3 2,-0.8c0.5,-0.5 0.8,-1.2 0.8,-2l0,0l0,0l1.1,0l0,0z" class="st3" id="path40"/>
  <path d="m83.6,22.5c-0.3,0.1 -0.5,0.2 -0.7,0.3c-0.2,0.2 -0.4,0.4 -0.6,0.7c-0.4,0.9 -0.3,2 0.4,2.8c0.4,0.5 0.9,0.8 1.6,0.9c0.1,0 0.1,0 0.2,0c2,0.2 3.7,-1.3 4,-3.3l0,0l0,0l0,0c0,-0.1 0,-0.3 0,-0.4c0,-0.1 0,-0.3 0,-0.4c0,-0.7 -0.3,-1.5 -0.6,-2.2l0,0l0,0l0,0c-0.1,-0.2 -0.3,-0.5 -0.5,-0.7c-0.2,-0.2 -0.4,-0.4 -0.6,-0.6c-1,-0.9 -2.4,-1.6 -4.2,-1.9c-0.2,-1.8 -0.9,-3.2 -1.9,-4.2c-0.2,-0.2 -0.4,-0.4 -0.6,-0.6c-0.2,-0.2 -0.5,-0.3 -0.7,-0.5l0,0l0,0l0,0c-0.7,-0.4 -1.4,-0.6 -2.2,-0.6c-0.1,0 -0.3,0 -0.4,0c-0.1,0 -0.3,0 -0.4,0l0,0l0,0l0,0c-2,0.3 -3.5,2 -3.3,4c0,0.1 0,0.1 0,0.2c0.1,0.7 0.4,1.2 0.9,1.6c0.8,0.6 1.9,0.8 2.8,0.4c0.3,-0.1 0.5,-0.3 0.7,-0.6c0.2,-0.2 0.3,-0.5 0.3,-0.7c0.2,-0.8 -0.6,-1.9 -1.4,-1.6c0.3,0.2 0.5,0.6 0.5,0.9c0,0.2 0,0.3 0,0.5c0,0.1 -0.1,0.3 -0.2,0.4c-0.5,0.7 -1.6,0.5 -2.1,-0.1c-0.4,-0.4 -0.5,-1 -0.5,-1.6c0.1,-0.6 0.4,-1.2 0.8,-1.6c0.4,-0.4 1,-0.7 1.6,-0.8l0,0l0,0l0,0c0.1,0 0.2,0 0.3,0c0.1,0 0.2,0 0.3,0c0.6,0 1.2,0.2 1.7,0.5l0,0l0,0l0,0c0.2,0.1 0.4,0.2 0.6,0.4c0.2,0.1 0.4,0.3 0.5,0.5c0.8,0.8 1.3,1.9 1.6,3.4c-0.1,0 -0.1,0 -0.2,0c-1.8,0 -4,0.8 -5.9,2.3c-1.8,1.5 -3.2,3.8 -3.4,6.9l0,0c0,0.3 0,0.5 0,0.8l0,0.5l0.5,0c0.3,0 0.6,0 0.8,0l0,0c3.1,-0.2 5.4,-1.6 6.9,-3.4c1.5,-1.8 2.3,-4 2.3,-5.9c0,-0.1 0,-0.1 0,-0.2c1.5,0.2 2.6,0.8 3.4,1.6c0.2,0.2 0.3,0.3 0.5,0.5c0.1,0.2 0.3,0.4 0.4,0.6l0,0l0,0l0,0c0.3,0.6 0.5,1.2 0.5,1.7c0,0.1 0,0.2 0,0.3c0,0.1 0,0.2 0,0.3l0,0l0,0l0,0c-0.1,0.6 -0.4,1.2 -0.8,1.6c-0.4,0.5 -1,0.8 -1.6,0.8c-0.6,0.1 -1.2,-0.1 -1.6,-0.5c-0.6,-0.6 -0.7,-1.6 -0.1,-2.1c0.1,-0.1 0.2,-0.1 0.4,-0.2c0.1,0 0.3,0 0.5,0c0.3,0 0.6,0.2 0.9,0.5c0.6,-0.6 -0.6,-1.4 -1.4,-1.2l0,0zm-1.9,-3.9c0,0.1 0,0.2 0,0.2c0,1.6 -0.7,3.6 -2.1,5.2c-1.4,1.6 -3.4,2.9 -6.2,3l0,0c-0.1,0 -0.2,0 -0.2,0c0,-0.1 0,-0.2 0,-0.2l0,0c0.2,-2.8 1.4,-4.8 3,-6.2c1.6,-1.4 3.6,-2.1 5.2,-2.1c0.1,0.1 0.2,0.1 0.3,0.1l0,0z" class="st3" id="path42"/>
  <path d="m50.1,91.5l0.3,-0.3c0.2,-0.2 0.5,-0.5 0.7,-0.7c2.5,-2.8 3.3,-6.1 3.1,-9c-0.2,-2.9 -1.5,-5.6 -3.1,-7.2c-0.1,-0.1 -0.2,-0.2 -0.2,-0.2c0.1,-0.1 0.3,-0.2 0.4,-0.3c0.4,-0.2 0.7,-0.5 1.1,-0.6c1.8,-0.9 3.5,-1 5,-0.6l0,0c0.3,0.1 0.6,0.2 0.9,0.3c0.3,0.1 0.5,0.3 0.8,0.4c0.7,0.5 1.2,1.1 1.5,1.9c0.7,1.7 0.1,4.5 -2.1,4.7c-1.1,0.1 -1.8,-0.4 -2.2,-1c-0.2,-0.3 -0.2,-0.6 -0.2,-0.9c0,-0.3 0.1,-0.6 0.2,-0.8c0.3,-0.5 0.8,-0.8 1.8,-0.7c-0.1,-1 -2,-0.8 -2.6,0.2c-0.2,0.4 -0.3,0.9 -0.3,1.3c0,0.5 0.1,0.9 0.4,1.3c0.5,0.9 1.6,1.6 3.1,1.5c2.8,-0.2 3.7,-3.4 3,-5.7c-0.3,-1.1 -1,-2 -1.9,-2.6c-0.3,-0.2 -0.6,-0.4 -0.9,-0.5c-0.3,-0.2 -0.7,-0.3 -1,-0.4l0,0c-1.7,-0.5 -3.7,-0.3 -5.7,0.7c-0.4,0.2 -0.8,0.4 -1.2,0.7c-0.2,0.1 -0.4,0.3 -0.6,0.4l0,0l0,0c-0.2,-0.2 -0.4,-0.3 -0.6,-0.4c-0.4,-0.3 -0.8,-0.5 -1.2,-0.7c-2,-1 -4,-1.2 -5.7,-0.7l0,0c-0.4,0.1 -0.7,0.2 -1,0.4c-0.3,0.2 -0.6,0.3 -0.9,0.5c-0.8,0.5 -1.4,1.3 -1.7,2.1c-1,2.3 -0.2,6 2.8,6.2c1.5,0.1 2.6,-0.6 3.1,-1.5c0.2,-0.4 0.4,-0.9 0.4,-1.3c0,-0.5 -0.1,-0.9 -0.3,-1.3c-0.6,-1.1 -2.6,-1.2 -2.6,-0.2c0.9,-0.1 1.5,0.2 1.8,0.7c0.1,0.2 0.2,0.5 0.2,0.8c0,0.3 -0.1,0.6 -0.2,0.9c-0.3,0.6 -1.1,1.1 -2.2,1c-2.4,-0.2 -2.8,-3.3 -1.9,-5c0.3,-0.6 0.8,-1.1 1.3,-1.5c0.2,-0.2 0.5,-0.3 0.8,-0.4c0.3,-0.1 0.6,-0.2 0.9,-0.3l0,0c1.4,-0.4 3.2,-0.3 5,0.6c0.4,0.2 0.7,0.4 1.1,0.6c0.1,0.1 0.3,0.2 0.4,0.3c-0.1,0.1 -0.2,0.2 -0.2,0.2c-1.6,1.6 -2.8,4.2 -3.1,7.2c-0.2,2.9 0.5,6.2 3.1,9c0.2,0.3 0.5,0.5 0.7,0.7l-0.3,0.2l0,0zm0,-16.8l0,0c0.1,0.1 0.2,0.2 0.3,0.3c1.4,1.5 2.6,3.9 2.8,6.6c0.2,2.7 -0.5,5.7 -2.8,8.3c-0.1,0.1 -0.2,0.2 -0.3,0.3l0,0l0,0c-0.1,-0.1 -0.2,-0.2 -0.3,-0.3c-2.3,-2.6 -3,-5.6 -2.8,-8.3c0.2,-2.7 1.4,-5.1 2.8,-6.6c0.1,-0.1 0.2,-0.2 0.3,-0.3l0,0l0,0z" class="st3" id="path44"/>
  <path d="m64.7,76l0,0l0,0c0.2,0.2 0.3,0.3 0.5,0.4c0.2,0.1 0.3,0.2 0.5,0.3c0.9,0.5 1.9,0.7 2.9,0.6l0.4,0l0,-0.4l0,0c0,-0.2 0,-0.4 0,-0.6c0,-0.2 0,-0.4 0,-0.6c-0.1,-1 -0.6,-1.9 -1.3,-2.7l0,0l0,0c-0.2,-0.1 -0.3,-0.3 -0.5,-0.4c-0.2,-0.1 -0.3,-0.2 -0.5,-0.3c-0.9,-0.5 -1.9,-0.7 -2.9,-0.6l-0.4,0l0,0.4l0,0c0,0.2 0,0.4 0,0.6c0,0.2 0,0.4 0,0.6c0.1,1 0.6,1.9 1.3,2.7l0,0zm0.7,-0.7l0,0l0,0c-0.6,-0.6 -1,-1.4 -1.1,-2.1c0,-0.2 0,-0.3 0,-0.5l0,-0.1c0.6,0 1.3,0.2 1.9,0.5c0.1,0.1 0.3,0.2 0.4,0.3c0.1,0.1 0.3,0.2 0.4,0.3l0,0l0,0c0.6,0.6 1,1.3 1.1,2.1c0,0.2 0,0.3 0,0.5l0,0.1c-0.6,0 -1.3,-0.2 -1.9,-0.5c-0.1,-0.1 -0.3,-0.2 -0.4,-0.3c-0.1,-0.1 -0.3,-0.2 -0.4,-0.3l0,0z" class="st3" id="path46"/>
  <g id="g48">
   <path d="m62.6,87.3l0,0l0,0c0,-0.1 0,-0.2 -0.1,-0.2c0,-0.1 0,-0.1 0,-0.2c-0.1,-0.4 -0.1,-0.8 -0.1,-1.2l0,0l0,0c0,-1.1 0.3,-2.1 0.7,-3.1l0,0c0.1,-0.2 0.2,-0.3 0.2,-0.4c0.4,-0.6 0.8,-1.2 1.3,-1.7c0.1,0.1 0.2,0.2 0.3,0.3c0.2,0.2 0.4,0.4 0.5,0.7c0.9,1.2 1.4,2.7 1.4,4.3l0,0l0,0c0,0.3 0,0.6 -0.1,0.9l0,0l0,0.1l0,0c0,0.2 -0.1,0.5 -0.1,0.7l-0.2,0.9l0.9,-0.3l0,0l0,0c0.1,0 0.1,0 0.2,-0.1l0,0l0,0c0.1,0 0.1,0 0.2,0c0.3,-0.1 0.6,-0.1 0.9,-0.1l0,0l0,0c1.1,0 2.1,0.5 2.9,1.2c0.7,0.7 1.1,1.6 1.2,2.6c-0.1,0 -0.1,-0.1 -0.2,-0.1c-0.9,-0.5 -1.9,-0.8 -2.9,-0.8l0,0l0,0c-1.1,0 -2.1,0.3 -3,0.8c-0.1,0.1 -0.3,0.2 -0.4,0.3c-0.5,0.4 -1,0.8 -1.4,1.4l0,-0.1l0,0.1c-0.1,-0.1 -0.1,-0.2 -0.2,-0.2c-0.2,-0.2 -0.4,-0.4 -0.6,-0.6c-1.1,-1 -2.5,-1.6 -4.1,-1.6l0,0l0,0c-0.7,0 -1.5,0.1 -2.1,0.4c-0.1,0 -0.2,0.1 -0.3,0.1c-0.2,0.1 -0.5,0.2 -0.7,0.4c0.1,-1 0.5,-1.9 1.2,-2.6c0.7,-0.7 1.8,-1.2 2.9,-1.2l0,0l0,0l0,0l0,0c0.2,0 0.4,0 0.6,0.1l0,0l0.1,0l0,0c0.2,0 0.4,0.1 0.5,0.1l0.8,0.3l-0.3,-1.2l0,0zm-1.2,-1.8c0,0.4 0,0.8 0.1,1.2c-0.3,0 -0.5,-0.1 -0.8,-0.1l0,0l0,0l0,0l0,0c-1.4,0 -2.7,0.6 -3.6,1.5c-0.9,0.9 -1.5,2.2 -1.5,3.6l0,0l0,0c0,0.2 0,0.3 0,0.5l0,0l0,0.1l0,0l0,0.1l0,0l0,0l0.1,0.9l0.7,-0.6c0.4,-0.3 0.8,-0.6 1.2,-0.8c0.1,0 0.2,-0.1 0.3,-0.1c0.5,-0.2 1.1,-0.3 1.8,-0.3l0,0l0,0c1.3,0 2.5,0.5 3.4,1.3c0.2,0.2 0.3,0.3 0.5,0.5c0.1,0.2 0.3,0.4 0.4,0.6l0,0l0.1,0.1l0,0l0.1,0.1l0.2,0.5l0.2,0.3l0,0l0,0l0.3,-0.6l0.1,-0.2c0,-0.1 0.1,-0.1 0.1,-0.1l0,0l0.1,-0.1l0,0c0.4,-0.6 0.9,-1.1 1.4,-1.5c0.1,-0.1 0.2,-0.2 0.4,-0.2c0.7,-0.4 1.6,-0.7 2.5,-0.7l0,0l0,0c0.9,0 1.7,0.2 2.5,0.6c0.1,0.1 0.3,0.2 0.4,0.3l0,0c0.1,0.1 0.3,0.2 0.4,0.3l0,0l0,0l0.7,0.6l0.1,-0.9c0,-0.1 0,-0.2 0,-0.3l0,-0.1l0,0c0,-0.1 0,-0.2 0,-0.3l0,0l0,0l0,0l0,0c0,-1.4 -0.6,-2.7 -1.5,-3.6c-0.9,-0.9 -2.2,-1.5 -3.6,-1.5l0,0l0,0c-0.3,0 -0.5,0 -0.8,0.1l0,0l0,0l0,-0.2l0,0c0,-0.3 0.1,-0.6 0.1,-1l0,0l0,0c0,-1.8 -0.6,-3.5 -1.6,-4.8c-0.2,-0.3 -0.4,-0.5 -0.6,-0.8c-0.2,-0.2 -0.5,-0.5 -0.7,-0.7l0,0l-0.3,-0.2l-0.3,0.3c-0.7,0.6 -1.4,1.4 -1.9,2.2c-0.1,0.2 -0.2,0.3 -0.3,0.5l0,0c-0.4,1.1 -0.7,2.3 -0.7,3.5l0,0l0,0l0,0zm3.5,-6.2l0,0l0,0z" class="st3" id="path50"/>
   <path d="m33.5,87.2l0,0l0,0c0,-0.1 0,-0.2 -0.1,-0.2c0,-0.1 0,-0.1 0,-0.2c-0.1,-0.4 -0.1,-0.8 -0.1,-1.2l0,0l0,0c0,-1.1 0.3,-2.1 0.7,-3.1l0,0c0.1,-0.2 0.2,-0.3 0.2,-0.4c0.4,-0.6 0.8,-1.2 1.3,-1.7c0.1,0.1 0.2,0.2 0.3,0.3c0.2,0.2 0.4,0.4 0.5,0.7c0.9,1.2 1.4,2.7 1.4,4.3l0,0l0,0c0,0.3 0,0.6 -0.1,0.9l0,0l0,0.1l0,0c0,0.2 -0.1,0.5 -0.1,0.7l-0.2,0.9l0.9,-0.3l0,0l0,0c0.1,0 0.1,0 0.2,-0.1l0,0l0,0c0.1,0 0.1,0 0.2,0c0.3,-0.1 0.6,-0.1 0.9,-0.1l0,0l0,0c1.1,0 2.1,0.5 2.9,1.2c0.7,0.7 1.1,1.6 1.2,2.6c-0.1,0 -0.1,-0.1 -0.2,-0.1c-0.9,-0.5 -1.9,-0.8 -2.9,-0.8l0,0l0,0c-1.1,0 -2.1,0.3 -3,0.8c-0.1,0.1 -0.3,0.2 -0.4,0.3c-0.5,0.4 -1,0.8 -1.4,1.4l0,-0.1l0,0.1c-0.1,-0.1 -0.1,-0.2 -0.2,-0.2c-0.2,-0.2 -0.4,-0.4 -0.6,-0.6c-1.1,-1 -2.5,-1.6 -4.1,-1.6l0,0l0,0c-0.7,0 -1.5,0.1 -2.1,0.4c-0.1,0 -0.2,0.1 -0.3,0.1c-0.2,0.1 -0.5,0.2 -0.7,0.4c0.1,-1 0.5,-1.9 1.2,-2.6c0.7,-0.7 1.8,-1.2 2.9,-1.2l0,0l0,0l0,0l0,0c0.2,0 0.4,0 0.6,0.1l0,0l0.1,0l0,0c0.2,0 0.4,0.1 0.5,0.1l0.8,0.3l-0.3,-1.2l0,0zm-1.2,-1.7c0,0.4 0,0.8 0.1,1.2c-0.3,0 -0.5,-0.1 -0.8,-0.1l0,0l0,0l0,0l0,0c-1.4,0 -2.7,0.6 -3.6,1.5c-0.9,0.9 -1.5,2.2 -1.5,3.6l0,0l0,0c0,0.2 0,0.3 0,0.5l0,0l0,0.1l0,0l0,0.1l0,0l0,0l0.1,0.9l0.7,-0.6c0.4,-0.3 0.8,-0.6 1.2,-0.8c0.1,0 0.2,-0.1 0.3,-0.1c0.5,-0.2 1.1,-0.3 1.8,-0.3l0,0l0,0c1.3,0 2.5,0.5 3.4,1.3c0.2,0.2 0.3,0.3 0.5,0.5c0.1,0.2 0.3,0.4 0.4,0.6l0,0l0.1,0.1l0,0l0.1,0.1l0.2,0.5l0.2,0.3l0,0l0,0l0.3,-0.6l0.1,-0.2c0,-0.1 0.1,-0.1 0.1,-0.1l0,0l0.1,-0.1l0,0c0.4,-0.6 0.9,-1.1 1.4,-1.5c0.1,-0.1 0.2,-0.2 0.4,-0.2c0.7,-0.4 1.6,-0.7 2.5,-0.7l0,0l0,0c0.9,0 1.7,0.2 2.5,0.6c0.1,0.1 0.3,0.2 0.4,0.3l0,0c0.1,0.1 0.3,0.2 0.4,0.3l0,0l0,0l0.7,0.6l0.1,-0.9c0,-0.1 0,-0.2 0,-0.3l0,-0.1l0,0c0,-0.1 0,-0.2 0,-0.3l0,0l0,0l0,0l0,0c0,-1.4 -0.6,-2.7 -1.5,-3.6c-0.9,-0.9 -2.2,-1.5 -3.6,-1.5l0,0l0,0c-0.3,0 -0.5,0 -0.8,0.1l0,0l0,0l0,-0.2l0,0c0,-0.3 0.1,-0.6 0.1,-1l0,0l0,0c0,-1.8 -0.6,-3.5 -1.6,-4.8c-0.2,-0.3 -0.4,-0.5 -0.6,-0.8c-0.2,-0.2 -0.5,-0.5 -0.7,-0.7l0,0l-0.3,-0.3l-0.3,0.3c-0.7,0.6 -1.4,1.4 -1.9,2.2c-0.1,0.2 -0.2,0.3 -0.3,0.5l0,0c-0.4,1.1 -0.7,2.3 -0.7,3.6l0,0l0,0l0,0zm3.6,-6.3l0,0l0,0z" class="st3" id="path52"/>
  </g>
  <path d="m12.1,90.5l0,0l0,0c-0.1,0.1 -0.1,0.2 -0.1,0.2c0,0 -0.1,0.1 -0.1,0.2l0,0c-0.2,0.3 -0.5,0.7 -0.8,1l0,0l0,0c-0.2,0.2 -0.4,0.4 -0.7,0.6c-0.4,0.2 -0.6,0.4 -0.9,0.5c-1.2,0.7 -2.5,1 -3.8,1c0,-0.2 0,-0.3 0,-0.4c0,-0.3 0,-0.6 0.1,-0.9c0.2,-1.5 0.9,-2.8 2,-4l0,0l0,0c0.1,-0.1 0.1,-0.1 0.2,-0.2c0.1,-0.1 0.1,-0.1 0.2,-0.2c0.3,-0.3 0.7,-0.5 1,-0.7l0.8,-0.5l-0.8,-0.4l0,0c0,0 -0.1,0 -0.2,-0.1c-0.1,0 -0.1,-0.1 -0.2,-0.1c-0.3,-0.2 -0.5,-0.4 -0.7,-0.6l0,0l0,0l0,0c-0.8,-0.8 -1.2,-1.8 -1.2,-2.9l0,0c0,-0.9 0.3,-1.9 1,-2.7c0,0.1 0,0.1 0.1,0.2c0.3,1 0.8,1.9 1.5,2.6l0,0l0,0c0.2,0.2 0.4,0.4 0.7,0.6c0.2,0.2 0.5,0.3 0.7,0.5l0,0c0.9,0.5 1.9,0.7 2.9,0.7c0.3,0 0.6,0 0.9,-0.1c0,0.1 0,0.3 -0.1,0.4c0,0.3 0,0.6 0,0.9c0.1,1.5 0.6,2.9 1.8,4l0,0l0,0l0,0c0.1,0.1 0.3,0.3 0.5,0.4l0,0l0,0c0.2,0.1 0.3,0.3 0.5,0.4c0.6,0.4 1.2,0.6 1.9,0.8c-0.8,0.7 -1.7,1 -2.7,1c-1,0 -2.1,-0.4 -2.9,-1.2l0,0l0,0l0,0c-0.1,-0.1 -0.1,-0.1 -0.1,-0.1l0,0c0,0 -0.1,-0.1 -0.1,-0.1l0,0c-0.2,-0.2 -0.4,-0.5 -0.5,-0.8l-0.4,-0.8l-0.5,0.8l0,0zm-0.4,2.1c0.3,-0.3 0.5,-0.6 0.8,-0.9c0.1,0.1 0.1,0.2 0.2,0.3l0,0c0,0.1 0.1,0.1 0.2,0.2l0,0c0.1,0.1 0.1,0.1 0.2,0.2l0,0l0,0l0,0c1,1 2.3,1.5 3.6,1.5c1.3,0 2.6,-0.5 3.6,-1.5l0,0l0,0l0,0c0.1,-0.1 0.2,-0.3 0.3,-0.4l0,0l0.1,-0.1l0,0l0.1,-0.1l0,0l0,0l0.5,-0.7l-1,-0.1c-0.8,-0.1 -1.6,-0.3 -2.3,-0.8c-0.1,-0.1 -0.3,-0.2 -0.4,-0.3l0,0c-0.1,-0.1 -0.3,-0.2 -0.4,-0.3l0,0l0,0l0,0c-0.9,-0.9 -1.4,-2.1 -1.5,-3.4c0,-0.2 0,-0.5 0,-0.7c0.1,-0.6 0.3,-1.3 0.4,-1.8c-0.9,0.3 -1.9,0.5 -2.8,0.4c-0.7,-0.1 -1.3,-0.2 -1.9,-0.6l0,0c-0.2,-0.1 -0.4,-0.2 -0.6,-0.4c-0.2,-0.1 -0.4,-0.3 -0.6,-0.5l0,0l0,0c-0.6,-0.6 -1.1,-1.4 -1.3,-2.2c0,-0.2 -0.1,-0.3 -0.1,-0.5c0,-0.1 0,-0.3 -0.1,-0.5l0,0l-0.1,-0.9l-0.7,0.5c-0.1,0.1 -0.3,0.2 -0.4,0.3l0,0l-0.1,0.1l0,0l-0.1,0.1l0,0l0,0l0,0l0,0c-1,1 -1.5,2.3 -1.5,3.6l0,0c0,1.3 0.5,2.6 1.5,3.6l0,0l0,0l0,0c0.2,0.2 0.4,0.4 0.6,0.5c-0.2,0.1 -0.3,0.3 -0.5,0.4c-0.1,0.1 -0.1,0.1 -0.2,0.2c-0.1,0.1 -0.1,0.1 -0.2,0.2l0,0l0,0c-1.3,1.3 -2,2.9 -2.3,4.5c-0.1,0.3 -0.1,0.6 -0.1,1c0,0.3 0,0.7 0,1l0,0l0,0.4l0.4,0c1.7,0.1 3.4,-0.2 4.9,-1.1c0.3,-0.2 0.6,-0.4 0.8,-0.6c0.5,-0.1 0.7,-0.4 1,-0.6l0,0l0,0l0,0z" class="st3" id="path54"/>
  <path d="m16.9,76.9c0.3,-0.1 0.5,-0.2 0.7,-0.3c0.2,-0.2 0.4,-0.4 0.6,-0.7c0.4,-0.9 0.3,-2 -0.4,-2.8c-0.4,-0.5 -0.9,-0.8 -1.6,-0.9c-0.1,0 -0.1,0 -0.2,0c-2,-0.2 -3.7,1.3 -4,3.3l0,0l0,0l0,0c0,0.1 0,0.3 0,0.4c0,0.1 0,0.3 0,0.4c0,0.7 0.3,1.5 0.6,2.2l0,0l0,0l0,0c0.1,0.2 0.3,0.5 0.5,0.7c0.2,0.2 0.4,0.4 0.6,0.6c1,0.9 2.4,1.6 4.2,1.9c0.2,1.8 0.9,3.2 1.9,4.2c0.2,0.2 0.4,0.4 0.6,0.6c0.2,0.2 0.5,0.3 0.7,0.5l0,0l0,0l0,0c0.7,0.4 1.4,0.6 2.2,0.6c0.1,0 0.3,0 0.4,0c0.1,0 0.3,0 0.4,0l0,0l0,0l0,0c2,-0.3 3.5,-2 3.3,-4c0,-0.1 0,-0.1 0,-0.2c-0.1,-0.7 -0.4,-1.2 -0.9,-1.6c-0.8,-0.6 -1.9,-0.8 -2.8,-0.4c-0.3,0.1 -0.5,0.3 -0.7,0.6c-0.2,0.2 -0.3,0.5 -0.3,0.7c-0.2,0.8 0.6,1.9 1.4,1.6c-0.3,-0.2 -0.5,-0.6 -0.5,-0.9c0,-0.2 0,-0.3 0,-0.5c0,-0.1 0.1,-0.3 0.2,-0.4c0.5,-0.7 1.6,-0.5 2.1,0.1c0.4,0.4 0.5,1 0.5,1.6c-0.1,0.6 -0.4,1.2 -0.8,1.6c-0.4,0.4 -1,0.7 -1.6,0.8l0,0l0,0l0,0c-0.1,0 -0.2,0 -0.3,0c-0.1,0 -0.2,0 -0.3,0c-0.6,0 -1.2,-0.2 -1.7,-0.5l0,0l0,0l0,0c-0.2,-0.1 -0.4,-0.2 -0.6,-0.4c-0.2,-0.1 -0.4,-0.3 -0.5,-0.5c-0.8,-0.8 -1.3,-1.9 -1.6,-3.4c0.1,0 0.1,0 0.2,0c1.8,0 4,-0.8 5.9,-2.3c1.8,-1.5 3.2,-3.8 3.4,-6.9l0,0c0,-0.3 0,-0.5 0,-0.8l0,-0.5l-0.5,0c-0.3,0 -0.6,0 -0.8,0l0,0c-3.1,0.2 -5.4,1.6 -6.9,3.4c-1.5,1.8 -2.3,4 -2.3,5.9c0,0.1 0,0.1 0,0.2c-1.5,-0.2 -2.6,-0.8 -3.4,-1.6c-0.2,-0.2 -0.3,-0.3 -0.5,-0.5c-0.1,-0.2 -0.3,-0.4 -0.4,-0.6l0,0l0,0l0,0c-0.3,-0.6 -0.5,-1.2 -0.5,-1.7c0,-0.1 0,-0.2 0,-0.3c0,-0.1 0,-0.2 0,-0.3l0,0l0,0l0,0c0.1,-0.6 0.4,-1.2 0.8,-1.6c0.4,-0.5 1,-0.8 1.6,-0.8c0.6,-0.1 1.2,0.1 1.6,0.5c0.6,0.6 0.7,1.6 0.1,2.1c-0.1,0.1 -0.2,0.1 -0.4,0.2c-0.1,0 -0.3,0 -0.5,0c-0.3,0 -0.6,-0.2 -0.9,-0.5c-0.5,0.6 0.7,1.4 1.4,1.2l0,0zm2,3.9c0,-0.1 0,-0.2 0,-0.2c0,-1.6 0.7,-3.6 2.1,-5.2c1.4,-1.6 3.4,-2.9 6.2,-3l0,0c0.1,0 0.2,0 0.2,0c0,0.1 0,0.2 0,0.2l0,0c-0.2,2.8 -1.4,4.8 -3,6.2c-1.6,1.4 -3.6,2.1 -5.2,2.1c-0.2,-0.1 -0.2,-0.1 -0.3,-0.1l0,0z" class="st3" id="path56"/>
  <path d="m88.1,90.5l0,0l0,0c0.1,0.1 0.1,0.2 0.1,0.2c0,0 0.1,0.1 0.1,0.2l0,0c0.2,0.3 0.5,0.7 0.8,1l0,0l0,0c0.2,0.2 0.4,0.4 0.7,0.6c0.2,0.2 0.5,0.4 0.7,0.5c1.2,0.7 2.5,1 3.8,1c0,-0.2 0,-0.3 0,-0.4c0,-0.3 0,-0.6 -0.1,-0.9c-0.2,-1.5 -0.9,-2.8 -2,-4l0,0l0,0c-0.1,-0.1 -0.1,-0.1 -0.2,-0.2c-0.1,-0.1 -0.1,-0.1 -0.2,-0.2c-0.3,-0.3 -0.7,-0.5 -1,-0.7l-0.8,-0.5l0.8,-0.4l0,0c0,0 0.1,0 0.2,-0.1c0.1,0 0.1,-0.1 0.2,-0.1c0.3,-0.2 0.5,-0.4 0.7,-0.6l0,0l0,0l0,0c0.8,-0.8 1.2,-1.8 1.2,-2.9l0,0c0,-0.9 -0.3,-1.9 -1,-2.7c0,0.1 0,0.1 -0.1,0.2c-0.3,1 -0.8,1.9 -1.5,2.6l0,0l0,0c-0.2,0.2 -0.4,0.4 -0.7,0.6c-0.2,0.2 -0.5,0.3 -0.7,0.5l0,0c-0.9,0.5 -1.9,0.7 -2.9,0.7c-0.3,0 -0.6,0 -0.9,-0.1c0,0.1 0,0.3 0.1,0.4c0,0.3 0,0.6 0,0.9c-0.1,1.5 -0.6,2.9 -1.8,4l0,0l0,0l0,0c-0.1,0.1 -0.3,0.3 -0.5,0.4l0,0l0,0c-0.2,0.1 -0.3,0.3 -0.5,0.4c-0.6,0.4 -1.2,0.6 -1.9,0.8c0.8,0.7 1.7,1 2.7,1c1,0 2.1,-0.4 2.9,-1.2l0,0l0,0l0,0c0.1,-0.1 0.1,-0.1 0.1,-0.1l0,0c0,0 0.1,-0.1 0.1,-0.1l0,0c0.2,-0.2 0.4,-0.5 0.5,-0.8l0.4,-0.8l0.7,0.8l0,0zm0.4,2.1c-0.3,-0.3 -0.5,-0.6 -0.8,-0.9c-0.1,0.1 -0.1,0.2 -0.2,0.3l0,0c0,0.1 -0.1,0.1 -0.2,0.2l0,0c-0.1,0.1 -0.1,0.1 -0.2,0.2l0,0l0,0l0,0c-1,1 -2.3,1.5 -3.6,1.5c-1.3,0 -2.6,-0.5 -3.6,-1.5l0,0l0,0l0,0c-0.1,-0.1 -0.2,-0.3 -0.3,-0.4l0,0l-0.1,-0.1l0,0l-0.1,-0.1l0,0l0,0l-0.4,-0.7l0.9,-0.1c0.8,-0.1 1.6,-0.3 2.3,-0.8c0.1,-0.1 0.3,-0.2 0.4,-0.3l0,0c0.1,-0.1 0.3,-0.2 0.4,-0.3l0,0l0,0l0,0c0.9,-0.9 1.4,-2.1 1.5,-3.4c0,-0.2 0,-0.5 0,-0.7c-0.1,-0.6 -0.3,-1.3 -0.4,-1.8c0.9,0.3 1.9,0.5 2.8,0.4c0.7,-0.1 1.3,-0.2 1.9,-0.6l0,0c0.2,-0.1 0.4,-0.2 0.6,-0.4c0.2,-0.1 0.4,-0.3 0.6,-0.5l0,0l0,0c0.6,-0.6 1.1,-1.4 1.3,-2.2c0,-0.2 0.1,-0.3 0.1,-0.5c0,-0.1 0,-0.3 0.1,-0.5l0,0l0.1,-0.9l0.7,0.5c0.1,0.1 0.3,0.2 0.4,0.3l0,0l0.1,0.1l0,0l0.1,0.1l0,0l0,0l0,0l0,0c1,1 1.5,2.3 1.5,3.6l0,0c0,1.3 -0.5,2.6 -1.5,3.6l0,0l0,0l0,0c-0.2,0.2 -0.4,0.4 -0.6,0.5c0.2,0.1 0.3,0.3 0.5,0.4c0.1,0.1 0.1,0.1 0.2,0.2c0.1,0.1 0.1,0.1 0.2,0.2l0,0l0,0c1.3,1.3 2,2.9 2.3,4.5c0.1,0.3 0.1,0.6 0.1,1c0,0.3 0,0.7 0,1l0,0l0,0.4l-0.6,0.1c-1.7,0.1 -3.4,-0.2 -4.9,-1.1c-0.3,-0.2 -0.6,-0.4 -0.8,-0.6c-0.3,-0.2 -0.6,-0.5 -0.8,-0.7l0,0l0,0l0,0z" class="st3" id="path58"/>
  <path d="m35.3,75.6l0,0l0,0c-0.2,0.2 -0.3,0.3 -0.5,0.4c-0.2,0.1 -0.3,0.2 -0.5,0.3c-0.9,0.5 -1.9,0.7 -2.9,0.6l-0.4,0l0,-0.4l0,0c0,-0.2 0,-0.4 0,-0.6c0,-0.2 0,-0.4 0,-0.6c0.1,-1 0.6,-1.9 1.3,-2.7l0,0l0,0c0.2,-0.1 0.3,-0.3 0.5,-0.4c0.2,-0.1 0.3,-0.2 0.5,-0.3c0.9,-0.5 1.9,-0.7 2.9,-0.6l0.4,0l0,0.4l0,0c0,0.2 0,0.4 0,0.6c0,0.2 0,0.4 0,0.6c-0.1,1 -0.6,2 -1.3,2.7l0,0zm-0.7,-0.7l0,0l0,0c0.6,-0.6 1,-1.4 1.1,-2.1c0,-0.2 0,-0.3 0,-0.5l0,-0.1c-0.6,0 -1.3,0.2 -1.9,0.5c-0.1,0.1 -0.3,0.2 -0.4,0.3c-0.1,0.1 -0.3,0.2 -0.4,0.3l0,0l0,0c-0.6,0.6 -1,1.3 -1.1,2.1c0,0.2 0,0.3 0,0.5l0,0.1c0.6,0 1.3,-0.2 1.9,-0.5c0.1,-0.1 0.3,-0.2 0.4,-0.3c0.1,-0.1 0.2,-0.2 0.4,-0.3l0,0z" class="st3" id="path60"/>
  <path d="m53.4,97.2c0,-1.8 -1.5,-3.3 -3.3,-3.3c-1.8,0 -3.3,1.5 -3.3,3.3" class="st4" id="path62"/>
  <path d="m53.9,97.2l0,0l0,0c0,-1.1 -0.4,-2 -1.1,-2.7c-0.7,-0.7 -1.6,-1.1 -2.7,-1.1l0,0l0,0l0,0l0,0c-1.1,0 -2,0.4 -2.7,1.1c-0.7,0.7 -1.1,1.6 -1.1,2.7l0,0l0,0l1,0l0,0l0,0c0,-0.8 0.3,-1.5 0.8,-2c0.5,-0.5 1.2,-0.8 2,-0.8l0,0l0,0l0,0l0,0c0.8,0 1.5,0.3 2,0.8c0.5,0.5 0.8,1.2 0.8,2l0,0l0,0l1,0l0,0z" class="st3" id="path64"/>
  <path d="m80.3,97.2c0,-1.8 -1.5,-3.3 -3.3,-3.3c-1.8,0 -3.3,1.5 -3.3,3.3" class="st4" id="path66"/>
  <path d="m80.8,97.2l0,0l0,0c0,-1.1 -0.4,-2 -1.1,-2.7c-0.7,-0.7 -1.6,-1.1 -2.7,-1.1l0,0l0,0l0,0l0,0c-1.1,0 -2,0.4 -2.7,1.1c-0.7,0.7 -1.1,1.6 -1.1,2.7l0,0l0,0l1,0l0,0l0,0c0,-0.8 0.3,-1.5 0.8,-2c0.5,-0.5 1.2,-0.8 2,-0.8l0,0l0,0l0,0l0,0c0.8,0 1.5,0.3 2,0.8c0.5,0.5 0.8,1.2 0.8,2l0,0l0,0l1,0l0,0z" class="st3" id="path68"/>
  <path d="m26.1,97.2c0,-1.8 -1.5,-3.3 -3.3,-3.3c-1.8,0 -3.3,1.5 -3.3,3.3" class="st4" id="path70"/>
  <path d="m26.6,97.2l0,0l0,0c0,-1.1 -0.4,-2 -1.1,-2.7c-0.7,-0.7 -1.6,-1.1 -2.7,-1.1l0,0l0,0l0,0l0,0c-1.1,0 -2,0.4 -2.7,1.1c-0.7,0.7 -1.1,1.6 -1.1,2.7l0,0l0,0l1,0l0,0l0,0c0,-0.8 0.3,-1.5 0.8,-2c0.5,-0.5 1.2,-0.8 2,-0.8l0,0l0,0l0,0l0,0c0.8,0 1.5,0.3 2,0.8c0.5,0.5 0.8,1.2 0.8,2l0,0l0,0l1,0l0,0z" class="st3" id="path72"/>
  <path d="m83.6,76.9c-0.3,-0.1 -0.5,-0.2 -0.7,-0.3c-0.2,-0.2 -0.4,-0.4 -0.6,-0.7c-0.4,-0.9 -0.3,-2 0.4,-2.8c0.4,-0.5 0.9,-0.8 1.6,-0.9c0.1,0 0.1,0 0.2,0c2,-0.2 3.7,1.3 4,3.3l0,0l0,0l0,0c0,0.1 0,0.3 0,0.4c0,0.1 0,0.3 0,0.4c0,0.7 -0.3,1.5 -0.6,2.2l0,0l0,0l0,0c-0.1,0.2 -0.3,0.5 -0.5,0.7c-0.2,0.2 -0.4,0.4 -0.6,0.6c-1,0.9 -2.4,1.6 -4.2,1.9c-0.2,1.8 -0.9,3.2 -1.9,4.2c-0.2,0.2 -0.4,0.4 -0.6,0.6c-0.2,0.2 -0.5,0.3 -0.7,0.5l0,0l0,0l0,0c-0.7,0.4 -1.4,0.6 -2.2,0.6c-0.1,0 -0.3,0 -0.4,0c-0.1,0 -0.3,0 -0.4,0l0,0l0,0l0,0c-2,-0.3 -3.5,-2 -3.3,-4c0,-0.1 0,-0.1 0,-0.2c0.1,-0.7 0.4,-1.2 0.9,-1.6c0.8,-0.6 1.9,-0.8 2.8,-0.4c0.3,0.1 0.5,0.3 0.7,0.6c0.2,0.2 0.3,0.5 0.3,0.7c0.2,0.8 -0.6,1.9 -1.4,1.6c0.3,-0.2 0.5,-0.6 0.5,-0.9c0,-0.2 0,-0.3 0,-0.5c0,-0.1 -0.1,-0.3 -0.2,-0.4c-0.5,-0.7 -1.6,-0.5 -2.1,0.1c-0.4,0.4 -0.5,1 -0.5,1.6c0.1,0.6 0.4,1.2 0.8,1.6c0.4,0.4 1,0.7 1.6,0.8l0,0l0,0l0,0c0.1,0 0.2,0 0.3,0c0.1,0 0.2,0 0.3,0c0.6,0 1.2,-0.2 1.7,-0.5l0,0l0,0l0,0c0.2,-0.1 0.4,-0.2 0.6,-0.4c0.2,-0.1 0.4,-0.3 0.5,-0.5c0.8,-0.8 1.3,-1.9 1.6,-3.4c-0.1,0 -0.1,0 -0.2,0c-1.8,0 -4,-0.8 -5.9,-2.3c-1.8,-1.5 -3.2,-3.8 -3.4,-6.9l0,0c0,-0.3 0,-0.5 0,-0.8l0,-0.5l0.5,0c0.3,0 0.6,0 0.8,0l0,0c3.1,0.2 5.4,1.6 6.9,3.4c1.5,1.8 2.3,4 2.3,5.9c0,0.1 0,0.1 0,0.2c1.5,-0.2 2.6,-0.8 3.4,-1.6c0.2,-0.2 0.3,-0.3 0.5,-0.5c0.1,-0.2 0.3,-0.4 0.4,-0.6l0,0l0,0l0,0c0.3,-0.6 0.5,-1.2 0.5,-1.7c0,-0.1 0,-0.2 0,-0.3c0,-0.1 0,-0.2 0,-0.3l0,0l0,0l0,0c-0.1,-0.6 -0.4,-1.2 -0.8,-1.6c-0.4,-0.5 -1,-0.8 -1.6,-0.8c-0.6,-0.1 -1.2,0.1 -1.6,0.5c-0.6,0.6 -0.7,1.6 -0.1,2.1c0.1,0.1 0.2,0.1 0.4,0.2c0.1,0 0.3,0 0.5,0c0.3,0 0.6,-0.2 0.9,-0.5c0.6,0.6 -0.6,1.4 -1.4,1.2l0,0zm-1.9,3.9c0,-0.1 0,-0.2 0,-0.2c0,-1.6 -0.7,-3.6 -2.1,-5.2c-1.4,-1.6 -3.4,-2.9 -6.2,-3l0,0c-0.1,0 -0.2,0 -0.2,0c0,0.1 0,0.2 0,0.2l0,0c0.2,2.8 1.4,4.8 3,6.2c1.6,1.4 3.6,2.1 5.2,2.1c0.1,-0.1 0.2,-0.1 0.3,-0.1l0,0z" class="st3" id="path74"/>
  <path d="m91.9,49.7l-0.3,-0.3c-0.2,-0.2 -0.5,-0.5 -0.7,-0.7c-2.8,-2.5 -6.1,-3.3 -9,-3.1c-2.9,0.2 -5.6,1.5 -7.2,3.1c-0.1,0.1 -0.2,0.2 -0.2,0.2c-0.1,-0.1 -0.2,-0.3 -0.3,-0.4c-0.2,-0.4 -0.5,-0.7 -0.6,-1.1c-0.9,-1.8 -1,-3.5 -0.6,-5l0,0c0.1,-0.3 0.2,-0.6 0.3,-0.9c0.1,-0.3 0.3,-0.5 0.4,-0.8c0.5,-0.7 1.1,-1.2 1.9,-1.5c1.7,-0.7 4.5,-0.1 4.7,2.1c0.1,1.1 -0.4,1.8 -1,2.2c-0.3,0.2 -0.6,0.2 -0.9,0.2c-0.3,0 -0.6,-0.1 -0.8,-0.2c-0.5,-0.3 -0.8,-0.8 -0.7,-1.8c-1,0.1 -0.8,2 0.2,2.6c0.4,0.2 0.9,0.3 1.3,0.3c0.5,0 0.9,-0.1 1.3,-0.4c0.9,-0.5 1.6,-1.6 1.5,-3.1c-0.2,-2.8 -3.4,-3.7 -5.7,-3c-1.1,0.3 -2,1 -2.6,1.9c-0.2,0.3 -0.4,0.6 -0.5,0.9c-0.2,0.3 -0.3,0.7 -0.4,1l0,0c-0.5,1.7 -0.3,3.7 0.7,5.7c0.2,0.4 0.4,0.8 0.7,1.2c0.1,0.2 0.3,0.4 0.4,0.6l0,0l0,0c-0.2,0.2 -0.3,0.4 -0.4,0.6c-0.3,0.4 -0.5,0.8 -0.7,1.2c-1,2 -1.2,4 -0.7,5.7l0,0c0.1,0.4 0.2,0.7 0.4,1c0.2,0.3 0.3,0.6 0.5,0.9c0.5,0.8 1.3,1.4 2.1,1.7c2.3,1 6,0.2 6.2,-2.8c0.1,-1.5 -0.6,-2.6 -1.5,-3.1c-0.4,-0.2 -0.9,-0.4 -1.3,-0.4c-0.5,0 -0.9,0.1 -1.3,0.3c-1.1,0.6 -1.2,2.6 -0.2,2.6c-0.1,-0.9 0.2,-1.5 0.7,-1.8c0.2,-0.1 0.5,-0.2 0.8,-0.2c0.3,0 0.6,0.1 0.9,0.2c0.6,0.3 1.1,1.1 1,2.2c-0.2,2.4 -3.3,2.8 -5,1.9c-0.6,-0.3 -1.1,-0.8 -1.5,-1.3c-0.2,-0.2 -0.3,-0.5 -0.4,-0.8c-0.1,-0.3 -0.2,-0.6 -0.3,-0.9l0,0c-0.4,-1.4 -0.3,-3.2 0.6,-5c0.2,-0.4 0.4,-0.7 0.6,-1.1c0.1,-0.1 0.2,-0.3 0.3,-0.4c0.1,0.1 0.2,0.2 0.2,0.2c1.6,1.6 4.2,2.8 7.2,3.1c2.9,0.2 6.2,-0.5 9,-3.1c0.3,-0.2 0.5,-0.5 0.7,-0.7l0.2,0.3l0,0zm-16.9,0l0,0c0.1,-0.1 0.2,-0.2 0.3,-0.3c1.5,-1.4 3.9,-2.6 6.6,-2.8c2.7,-0.2 5.7,0.5 8.3,2.8c0.1,0.1 0.2,0.2 0.3,0.3l0,0l0,0c-0.1,0.1 -0.2,0.2 -0.3,0.3c-2.6,2.3 -5.6,3 -8.3,2.8c-2.7,-0.2 -5.1,-1.4 -6.6,-2.8c-0.1,-0.1 -0.2,-0.2 -0.3,-0.3l0,0l0,0z" class="st3" id="path76"/>
  <path d="m76.3,35.1l0,0l0,0c0.2,-0.2 0.3,-0.3 0.4,-0.5c0.1,-0.2 0.2,-0.3 0.3,-0.5c0.5,-0.9 0.7,-1.9 0.6,-2.9l0,-0.4l-0.4,0l0,0c-0.2,0 -0.4,0 -0.6,0c-0.2,0 -0.4,0 -0.6,0c-1,0.1 -1.9,0.6 -2.7,1.3l0,0l0,0c-0.1,0.2 -0.3,0.3 -0.4,0.5c-0.1,0.2 -0.2,0.3 -0.3,0.5c-0.5,0.9 -0.7,1.9 -0.6,2.9l0,0.4l0.4,0l0,0c0.2,0 0.4,0 0.6,0c0.2,0 0.4,0 0.6,0c1,-0.1 2,-0.6 2.7,-1.3l0,0zm-0.7,-0.8l0,0l0,0c-0.6,0.6 -1.4,1 -2.1,1.1c-0.2,0 -0.3,0 -0.5,0l-0.1,0c0,-0.6 0.2,-1.3 0.5,-1.9c0.1,-0.1 0.2,-0.3 0.3,-0.4c0.1,-0.1 0.2,-0.3 0.3,-0.4l0,0l0,0c0.6,-0.6 1.3,-1 2.1,-1.1c0.2,0 0.3,0 0.5,0l0.1,0c0,0.6 -0.2,1.3 -0.5,1.9c-0.1,0.1 -0.2,0.3 -0.3,0.4c0,0.2 -0.1,0.3 -0.3,0.4l0,0z" class="st3" id="path78"/>
  <g id="g80">
   <path d="m87.7,37.2l0,0l0,0c-0.1,0 -0.2,0 -0.2,0.1c-0.1,0 -0.1,0 -0.2,0c-0.4,0.1 -0.8,0.1 -1.2,0.1l0,0l0,0c-1.1,0 -2.1,-0.3 -3.1,-0.7l0,0c-0.2,-0.1 -0.3,-0.2 -0.4,-0.2c-0.6,-0.4 -1.2,-0.8 -1.7,-1.3c0.1,-0.1 0.2,-0.2 0.3,-0.3c0.2,-0.2 0.4,-0.4 0.7,-0.5c1.2,-0.9 2.7,-1.4 4.3,-1.4l0,0l0,0c0.3,0 0.6,0 0.9,0.1l0,0l0.1,0l0,0c0.2,0 0.5,0.1 0.7,0.1l0.9,0.2l-0.3,-0.9l0,0l0,0c0,-0.1 0,-0.1 -0.1,-0.2l0,0l0,0c0,-0.1 0,-0.1 0,-0.2c-0.1,-0.3 -0.1,-0.6 -0.1,-0.9l0,0l0,0c0,-1.1 0.5,-2.1 1.2,-2.9c0.7,-0.7 1.6,-1.1 2.6,-1.2c0,0.1 -0.1,0.1 -0.1,0.2c-0.5,0.9 -0.8,1.9 -0.8,2.9l0,0l0,0c0,1.1 0.3,2.1 0.8,3c0.1,0.1 0.2,0.3 0.3,0.4c0.4,0.5 0.8,1 1.4,1.4l-0.1,0l0.1,0c-0.1,0.1 -0.2,0.1 -0.2,0.2c-0.2,0.2 -0.4,0.4 -0.6,0.6c-1,1.1 -1.6,2.5 -1.6,4.1l0,0l0,0c0,0.7 0.1,1.5 0.4,2.1c0,0.1 0.1,0.2 0.1,0.3c0.1,0.2 0.2,0.5 0.4,0.7c-1,-0.1 -1.9,-0.5 -2.6,-1.2c-0.7,-0.7 -1.2,-1.8 -1.2,-2.9l0,0l0,0l0,0l0,0c0,-0.2 0,-0.4 0.1,-0.6l0,0l0,-0.1l0,0c0,-0.2 0.1,-0.4 0.1,-0.5l0.3,-0.8l-1.2,0.3l0,0zm-1.8,1.2c0.4,0 0.8,0 1.2,-0.1c0,0.3 -0.1,0.5 -0.1,0.8l0,0l0,0l0,0l0,0c0,1.4 0.6,2.7 1.5,3.6c0.9,0.9 2.2,1.5 3.6,1.5l0,0l0,0c0.2,0 0.3,0 0.5,0l0,0l0.1,0l0,0l0.1,0l0,0l0,0l0.9,-0.1l-0.6,-0.7c-0.3,-0.4 -0.6,-0.8 -0.8,-1.2c0,-0.1 -0.1,-0.2 -0.1,-0.3c-0.2,-0.5 -0.3,-1.1 -0.3,-1.8l0,0l0,0c0,-1.3 0.5,-2.5 1.3,-3.4c0.2,-0.2 0.3,-0.3 0.5,-0.5c0.2,-0.1 0.4,-0.3 0.6,-0.4l0,0l0.1,-0.1l0,0l0.1,-0.1l0.5,-0.2l0.3,-0.2l0,0l0,0l-0.6,-0.3l-0.2,-0.1c-0.1,0 -0.1,-0.1 -0.1,-0.1l0,0l-0.1,-0.1l0,0c-0.6,-0.4 -1.1,-0.9 -1.5,-1.4c-0.1,-0.1 -0.2,-0.2 -0.2,-0.4c-0.4,-0.7 -0.7,-1.6 -0.7,-2.5l0,0l0,0c0,-0.9 0.2,-1.7 0.6,-2.5c0.1,-0.1 0.2,-0.3 0.3,-0.4l0,0c0.1,-0.1 0.2,-0.3 0.3,-0.4l0,0l0,0l0.6,-0.7l-0.9,-0.1c-0.1,0 -0.2,0 -0.3,0l-0.1,0l0,0c-0.1,0 -0.2,0 -0.3,0l0,0l0,0l0,0l0,0c-1.4,0 -2.7,0.6 -3.6,1.5c-0.9,0.9 -1.5,2.2 -1.5,3.6l0,0l0,0c0,0.3 0,0.5 0.1,0.8l0,0l0,0l-0.1,-0.1l0,0c-0.3,0 -0.6,-0.1 -1,-0.1l0,0l0,0c-1.8,0 -3.5,0.6 -4.8,1.6c-0.3,0.2 -0.5,0.4 -0.8,0.6c-0.2,0.2 -0.5,0.5 -0.7,0.7l0,0l-0.3,0.3l0.3,0.3c0.6,0.7 1.4,1.4 2.2,1.9c0.2,0.1 0.3,0.2 0.5,0.3l0,0c1.1,0.5 2.3,0.8 3.5,0.8l0,0l0,0l0,0zm-6.2,-3.6l0,0l0,0z" class="st3" id="path82"/>
   <path d="m87.6,66.3l0,0l0,0c-0.1,0 -0.2,0 -0.2,0.1c-0.1,0 -0.1,0 -0.2,0c-0.4,0.1 -0.8,0.1 -1.2,0.1l0,0l0,0c-1.1,0 -2.1,-0.3 -3.1,-0.7l0,0c-0.2,-0.1 -0.3,-0.2 -0.4,-0.2c-0.6,-0.4 -1.2,-0.8 -1.7,-1.3c0.1,-0.1 0.2,-0.2 0.3,-0.3c0.2,-0.2 0.4,-0.4 0.7,-0.5c1.2,-0.9 2.7,-1.4 4.3,-1.4l0,0l0,0c0.3,0 0.6,0 0.9,0.1l0,0l0.1,0l0,0c0.2,0 0.5,0.1 0.7,0.1l0.9,0.2l-0.3,-0.9l0,0l0,0c0,-0.1 0,-0.1 -0.1,-0.2l0,0l0,0c0,-0.1 0,-0.1 0,-0.2c-0.1,-0.3 -0.1,-0.6 -0.1,-0.9l0,0l0,0c0,-1.1 0.5,-2.1 1.2,-2.9c0.7,-0.7 1.6,-1.1 2.6,-1.2c0,0.1 -0.1,0.1 -0.1,0.2c-0.5,0.9 -0.8,1.9 -0.8,2.9l0,0l0,0c0,1.1 0.3,2.1 0.8,3c0.1,0.1 0.2,0.3 0.3,0.4c0.4,0.5 0.8,1 1.4,1.4l-0.1,0l0.1,0c-0.1,0.1 -0.2,0.1 -0.2,0.2c-0.2,0.2 -0.4,0.4 -0.6,0.6c-1,1.1 -1.6,2.5 -1.6,4.1l0,0l0,0c0,0.7 0.1,1.5 0.4,2.1c0,0.1 0.1,0.2 0.1,0.3c0.1,0.2 0.2,0.5 0.4,0.7c-1,-0.1 -1.9,-0.5 -2.6,-1.2c-0.7,-0.7 -1.2,-1.8 -1.2,-2.9l0,0l0,0l0,0l0,0c0,-0.2 0,-0.4 0.1,-0.6l0,0l0,-0.1l0,0c0,-0.2 0.1,-0.4 0.1,-0.5l0.3,-0.8l-1.2,0.3l0,0zm-1.7,1.2c0.4,0 0.8,0 1.2,-0.1c0,0.3 -0.1,0.5 -0.1,0.8l0,0l0,0l0,0l0,0c0,1.4 0.6,2.7 1.5,3.6c0.9,0.9 2.2,1.5 3.6,1.5l0,0l0,0c0.2,0 0.3,0 0.5,0l0,0l0.1,0l0,0l0.1,0l0,0l0,0l0.9,-0.1l-0.6,-0.7c-0.3,-0.4 -0.6,-0.8 -0.8,-1.2c0,-0.1 -0.1,-0.2 -0.1,-0.3c-0.2,-0.5 -0.3,-1.1 -0.3,-1.8l0,0l0,0c0,-1.3 0.5,-2.5 1.3,-3.4c0.2,-0.2 0.3,-0.3 0.5,-0.5c0.2,-0.1 0.4,-0.3 0.6,-0.4l0,0l0.1,-0.1l0,0l0.1,-0.1l0.5,-0.2l0.3,-0.2l0,0l0,0l-0.6,-0.3l-0.2,-0.1c-0.1,0 -0.1,-0.1 -0.1,-0.1l0,0l-0.1,-0.1l0,0c-0.6,-0.4 -1.1,-0.9 -1.5,-1.4c-0.1,-0.1 -0.2,-0.2 -0.2,-0.4c-0.4,-0.7 -0.7,-1.6 -0.7,-2.5l0,0l0,0c0,-0.9 0.2,-1.7 0.6,-2.5c0.1,-0.1 0.2,-0.3 0.3,-0.4l0,0c0.1,-0.1 0.2,-0.3 0.3,-0.4l0,0l0,0l0.6,-0.7l-0.9,-0.1c-0.1,0 -0.2,0 -0.3,0l-0.1,0l0,0c-0.1,0 -0.2,0 -0.3,0l0,0l0,0l0,0l0,0c-1.4,0 -2.7,0.6 -3.6,1.5c-0.9,0.9 -1.5,2.2 -1.5,3.6l0,0l0,0c0,0.3 0,0.5 0.1,0.8l0,0l0,0l-0.2,0l0,0c-0.3,0 -0.6,-0.1 -1,-0.1l0,0l0,0c-1.8,0 -3.5,0.6 -4.8,1.6c-0.3,0.2 -0.5,0.4 -0.8,0.6c-0.2,0.2 -0.5,0.5 -0.7,0.7l0,0l-0.3,0.3l0.3,0.3c0.6,0.7 1.4,1.4 2.2,1.9c0.2,0.1 0.3,0.2 0.5,0.3l0,0c1.2,0.4 2.4,0.7 3.6,0.7l0,0l0,0l0,0zm-6.2,-3.6l0,0l0,0z" class="st3" id="path84"/>
  </g>
  <path d="m76,64.5l0,0l0,0c0.2,0.2 0.3,0.3 0.4,0.5c0.1,0.2 0.2,0.3 0.3,0.5c0.5,0.9 0.7,1.9 0.6,2.9l0,0.4l-0.4,0l0,0c-0.2,0 -0.4,0 -0.6,0c-0.2,0 -0.4,0 -0.6,0c-1,-0.1 -1.9,-0.6 -2.7,-1.3l0,0l0,0c-0.1,-0.2 -0.3,-0.3 -0.4,-0.5c-0.1,-0.2 -0.2,-0.3 -0.3,-0.5c-0.5,-0.9 -0.7,-1.9 -0.6,-2.9l0,-0.4l0.4,0l0,0c0.2,0 0.4,0 0.6,0c0.2,0 0.4,0 0.6,0c1,0.1 1.9,0.5 2.7,1.3l0,0zm-0.7,0.7l0,0l0,0c-0.6,-0.6 -1.4,-1 -2.1,-1.1c-0.2,0 -0.3,0 -0.5,0l-0.1,0c0,0.6 0.2,1.3 0.5,1.9c0.1,0.1 0.2,0.3 0.3,0.4c0.1,0.1 0.2,0.3 0.3,0.4l0,0l0,0c0.6,0.6 1.3,1 2.1,1.1c0.2,0 0.3,0 0.5,0l0.1,0c0,-0.6 -0.2,-1.3 -0.5,-1.9c-0.1,-0.1 -0.2,-0.3 -0.3,-0.4c-0.1,-0.1 -0.2,-0.3 -0.3,-0.4l0,0z" class="st3" id="path86"/>
  <g id="g88">
   <path d="m97.6,46.4c-1.8,0 -3.3,1.5 -3.3,3.3c0,1.8 1.5,3.3 3.3,3.3" class="st4" id="path90"/>
   <path d="m97.6,45.9l0,0l0,0c-1.1,0 -2,0.4 -2.7,1.1c-0.7,0.7 -1.1,1.6 -1.1,2.7l0,0l0,0l0,0l0,0c0,1.1 0.4,2 1.1,2.7c0.7,0.7 1.6,1.1 2.7,1.1l0,0l0,0l0,-1l0,0l0,0c-0.8,0 -1.5,-0.3 -2,-0.8c-0.5,-0.5 -0.8,-1.2 -0.8,-2l0,0l0,0l0,0l0,0c0,-0.8 0.3,-1.5 0.8,-2c0.5,-0.5 1.2,-0.8 2,-0.8l0,0l0,0l0,-1l0,0z" class="st3" id="path92"/>
   <path d="m97.6,18.7l0,0l0,0c-1.1,0 -2,0.4 -2.7,1.1c-0.7,0.7 -1.1,1.6 -1.1,2.7l0,0l0,0l0,0l0,0c0,1.1 0.4,2 1.1,2.7c0.7,0.7 1.6,1.1 2.7,1.1l0,0l0,0l0,-1l0,0l0,0c-0.8,0 -1.5,-0.3 -2,-0.8c-0.5,-0.5 -0.8,-1.2 -0.8,-2l0,0l0,0l0,0l0,0c0,-0.8 0.3,-1.5 0.8,-2c0.5,-0.5 1.2,-0.8 2,-0.8l0,0l0,0l0,-1l0,0z" class="st3" id="path94"/>
   <path d="m97.6,72.6l0,0l0,0c-1.1,0 -2,0.4 -2.7,1.1c-0.7,0.7 -1.1,1.6 -1.1,2.7l0,0l0,0l0,0l0,0c0,1.1 0.4,2 1.1,2.7c0.7,0.7 1.6,1.1 2.7,1.1l0,0l0,0l0,-1l0,0l0,0c-0.8,0 -1.5,-0.3 -2,-0.8c-0.5,-0.5 -0.8,-1.2 -0.8,-2l0,0l0,0l0,0l0,0c0,-0.8 0.3,-1.5 0.8,-2c0.5,-0.5 1.2,-0.8 2,-0.8l0,0l0,0l0,-1l0,0z" class="st3" id="path96"/>
  </g>
  <g id="g98">
   <path d="m2.5,46.4c1.8,0 3.3,1.5 3.3,3.3c0,1.8 -1.5,3.3 -3.3,3.3" class="st4" id="path100"/>
   <path d="m2.5,45.9l0,0l0,0c1.1,0 2,0.4 2.7,1.1c0.7,0.7 1.1,1.6 1.1,2.7l0,0l0,0l0,0l0,0c0,1.1 -0.4,2 -1.1,2.7c-0.7,0.7 -1.6,1.1 -2.7,1.1l0,0l0,0l0,-1l0,0l0,0c0.8,0 1.5,-0.3 2,-0.8c0.5,-0.5 0.8,-1.2 0.8,-2l0,0l0,0l0,0l0,0c0,-0.8 -0.3,-1.5 -0.8,-2c-0.5,-0.5 -1.2,-0.8 -2,-0.8l0,0l0,0l0,-1l0,0z" class="st3" id="path102"/>
   <path d="m2.5,18.7l0,0l0,0c1.1,0 2,0.4 2.7,1.1c0.7,0.7 1.1,1.6 1.1,2.7l0,0l0,0l0,0l0,0c0,1.1 -0.4,2 -1.1,2.7c-0.7,0.7 -1.6,1.1 -2.7,1.1l0,0l0,0l0,-1l0,0l0,0c0.8,0 1.5,-0.3 2,-0.8c0.5,-0.5 0.8,-1.2 0.8,-2l0,0l0,0l0,0l0,0c0,-0.8 -0.3,-1.5 -0.8,-2c-0.5,-0.5 -1.2,-0.8 -2,-0.8l0,0l0,0l0,-1l0,0z" class="st3" id="path104"/>
   <path d="m2.5,72.6l0,0l0,0c1.1,0 2,0.4 2.7,1.1c0.7,0.7 1.1,1.6 1.1,2.7l0,0l0,0l0,0l0,0c0,1.1 -0.4,2 -1.1,2.7c-0.7,0.7 -1.6,1.1 -2.7,1.1l0,0l0,0l0,-1l0,0l0,0c0.8,0 1.5,-0.3 2,-0.8c0.5,-0.5 0.8,-1.2 0.8,-2l0,0l0,0l0,0l0,0c0,-0.8 -0.3,-1.5 -0.8,-2c-0.5,-0.5 -1.2,-0.8 -2,-0.8l0,0l0,0l0,-1l0,0z" class="st3" id="path106"/>
  </g>
  <g id="g108">
   <path d="m8.2,49.7l0.3,-0.3c0.2,-0.2 0.5,-0.5 0.7,-0.7c2.8,-2.5 6.1,-3.3 9,-3.1c2.9,0.2 5.6,1.5 7.2,3.1c0.1,0.1 0.2,0.2 0.2,0.2c0.1,-0.1 0.2,-0.3 0.3,-0.4c0.2,-0.4 0.5,-0.7 0.6,-1.1c0.9,-1.8 1,-3.5 0.6,-5l0,0c-0.1,-0.3 -0.2,-0.6 -0.3,-0.9c-0.1,-0.3 -0.3,-0.5 -0.4,-0.8c-0.5,-0.7 -1.1,-1.2 -1.9,-1.5c-1.7,-0.7 -4.5,-0.1 -4.7,2.1c-0.1,1.1 0.4,1.8 1,2.2c0.3,0.2 0.6,0.2 0.9,0.2c0.3,0 0.6,-0.1 0.8,-0.2c0.5,-0.3 0.8,-0.8 0.7,-1.8c1,0.1 0.8,2 -0.2,2.6c-0.4,0.2 -0.9,0.3 -1.3,0.3c-0.5,0 -0.9,-0.1 -1.3,-0.4c-0.9,-0.5 -1.6,-1.6 -1.5,-3.1c0.2,-2.8 3.4,-3.7 5.7,-3c1.1,0.3 2,1 2.6,1.9c0.2,0.3 0.4,0.6 0.5,0.9c0.2,0.3 0.3,0.7 0.4,1l0,0c0.5,1.7 0.3,3.7 -0.7,5.7c-0.2,0.4 -0.4,0.8 -0.7,1.2c-0.1,0.2 -0.3,0.4 -0.4,0.6l0,0l0,0c0.2,0.2 0.3,0.4 0.4,0.6c0.3,0.4 0.5,0.8 0.7,1.2c1,2 1.2,4 0.7,5.7l0,0c-0.1,0.4 -0.2,0.7 -0.4,1c-0.2,0.3 -0.3,0.6 -0.5,0.9c-0.5,0.8 -1.3,1.4 -2.1,1.7c-2.3,1 -6,0.2 -6.2,-2.8c-0.1,-1.5 0.6,-2.6 1.5,-3.1c0.4,-0.2 0.9,-0.4 1.3,-0.4c0.5,0 0.9,0.1 1.3,0.3c1.1,0.6 1.2,2.6 0.2,2.6c0.1,-0.9 -0.2,-1.5 -0.7,-1.8c-0.2,-0.1 -0.5,-0.2 -0.8,-0.2c-0.3,0 -0.6,0.1 -0.9,0.2c-0.6,0.3 -1.1,1.1 -1,2.2c0.2,2.4 3.3,2.8 5,1.9c0.6,-0.3 1.1,-0.8 1.5,-1.3c0.2,-0.2 0.3,-0.5 0.4,-0.8c0.1,-0.3 0.2,-0.6 0.3,-0.9l0,0c0.4,-1.4 0.3,-3.2 -0.6,-5c-0.2,-0.4 -0.4,-0.7 -0.6,-1.1c-0.1,-0.1 -0.2,-0.3 -0.3,-0.4c-0.1,0.1 -0.2,0.2 -0.2,0.2c-1.6,1.6 -4.2,2.8 -7.2,3.1c-2.9,0.2 -6.2,-0.5 -9,-3.1c-0.3,-0.2 -0.5,-0.5 -0.7,-0.7l-0.2,0.3l0,0zm16.8,0l0,0c-0.1,-0.1 -0.2,-0.2 -0.3,-0.3c-1.5,-1.4 -3.9,-2.6 -6.6,-2.8c-2.7,-0.2 -5.7,0.5 -8.3,2.8c-0.1,0.1 -0.2,0.2 -0.3,0.3l0,0l0,0c0.1,0.1 0.2,0.2 0.3,0.3c2.6,2.3 5.6,3 8.3,2.8c2.7,-0.2 5.1,-1.4 6.6,-2.8c0.1,-0.1 0.2,-0.2 0.3,-0.3l0,0l0,0z" class="st3" id="path110"/>
   <path d="m23.7,35.1l0,0l0,0c-0.2,-0.2 -0.3,-0.3 -0.4,-0.5c-0.1,-0.2 -0.2,-0.3 -0.3,-0.5c-0.5,-0.9 -0.7,-1.9 -0.6,-2.9l0,-0.4l0.4,0l0,0c0.2,0 0.4,0 0.6,0c0.2,0 0.4,0 0.6,0c1,0.1 1.9,0.6 2.7,1.3l0,0l0,0c0.1,0.2 0.3,0.3 0.4,0.5c0.1,0.2 0.2,0.3 0.3,0.5c0.5,0.9 0.7,1.9 0.6,2.9l0,0.4l-0.4,0l0,0c-0.2,0 -0.4,0 -0.6,0c-0.2,0 -0.4,0 -0.6,0c-1,-0.1 -1.9,-0.6 -2.7,-1.3l0,0zm0.7,-0.8l0,0l0,0c0.6,0.6 1.4,1 2.1,1.1c0.2,0 0.3,0 0.5,0l0.1,0c0,-0.6 -0.2,-1.3 -0.5,-1.9c-0.1,-0.1 -0.2,-0.3 -0.3,-0.4c-0.1,-0.1 -0.2,-0.3 -0.3,-0.4l0,0l0,0c-0.6,-0.6 -1.3,-1 -2.1,-1.1c-0.2,0 -0.3,0 -0.5,0l-0.1,0c0,0.6 0.2,1.3 0.5,1.9c0.1,0.1 0.2,0.3 0.3,0.4c0.1,0.2 0.2,0.3 0.3,0.4l0,0z" class="st3" id="path112"/>
   <g id="g114">
    <path d="m12.5,37.2l0,0l0,0c0.1,0 0.2,0 0.2,0.1c0.1,0 0.1,0 0.2,0c0.4,0.1 0.8,0.1 1.2,0.1l0,0l0,0c1.1,0 2.1,-0.3 3.1,-0.7l0,0c0.2,-0.1 0.3,-0.2 0.4,-0.2c0.6,-0.4 1.2,-0.8 1.7,-1.3c-0.1,-0.1 -0.2,-0.2 -0.3,-0.3c-0.2,-0.2 -0.4,-0.4 -0.7,-0.5c-1.2,-0.9 -2.7,-1.4 -4.3,-1.4l0,0l0,0c-0.3,0 -0.6,0 -0.9,0.1l0,0l-0.1,0l0,0c-0.2,0 -0.5,0.1 -0.7,0.1l-0.9,0.2l0.3,-0.9l0,0l0,0c0,-0.1 0,-0.1 0.1,-0.2l0,0l0,0c0,-0.1 0,-0.1 0,-0.2c0.1,-0.3 0.1,-0.6 0.1,-0.9l0,0l0,0c0,-1.1 -0.5,-2.1 -1.2,-2.9c-0.7,-0.7 -1.6,-1.1 -2.6,-1.2c0,0.1 0.1,0.1 0.1,0.2c0.5,0.9 0.8,1.9 0.8,2.9l0,0l0,0c0,1.1 -0.3,2.1 -0.8,3c-0.1,0.1 -0.2,0.3 -0.3,0.4c-0.4,0.5 -0.8,1 -1.4,1.4l0.1,0l-0.1,0c0.1,0.1 0.2,0.1 0.2,0.2c0.2,0.2 0.4,0.4 0.6,0.6c1,1.1 1.6,2.5 1.6,4.1l0,0l0,0c0,0.7 -0.1,1.5 -0.4,2.1c0,0.1 -0.1,0.2 -0.1,0.3c-0.1,0.2 -0.2,0.5 -0.4,0.7c1,-0.1 1.9,-0.5 2.6,-1.2c0.7,-0.7 1.2,-1.8 1.2,-2.9l0,0l0,0l0,0l0,0c0,-0.2 0,-0.4 -0.1,-0.6l0,0l0,-0.1l0,0c0,-0.2 -0.1,-0.4 -0.1,-0.5l0,-0.7l0.9,0.2l0,0zm1.7,1.2c-0.4,0 -0.8,0 -1.2,-0.1c0,0.3 0.1,0.5 0.1,0.8l0,0l0,0l0,0l0,0c0,1.4 -0.6,2.7 -1.5,3.6c-0.9,0.9 -2.2,1.5 -3.6,1.5l0,0l0,0c-0.2,0 -0.3,0 -0.5,0l0,0l-0.1,0l0,0l-0.1,0l0,0l0,0l-0.9,-0.2l0.6,-0.7c0.3,-0.4 0.6,-0.8 0.8,-1.2c0,-0.1 0.1,-0.2 0.1,-0.3c0.2,-0.5 0.3,-1.1 0.3,-1.8l0,0l0,0c0,-1.3 -0.5,-2.5 -1.3,-3.4c-0.2,-0.2 -0.3,-0.3 -0.5,-0.5c-0.2,-0.1 -0.4,-0.2 -0.6,-0.3l0,0l-0.1,-0.1l0,0l-0.1,-0.1l-0.5,-0.2l-0.3,-0.2l0,0l0,0l0.6,-0.3l0.2,-0.1c0.1,0 0.1,-0.1 0.1,-0.1l0,0l0.1,-0.1l0,0c0.6,-0.4 1.1,-0.9 1.5,-1.4c0.1,-0.1 0.2,-0.2 0.2,-0.4c0.4,-0.7 0.7,-1.6 0.7,-2.5l0,0l0,0c0,-0.9 -0.2,-1.7 -0.6,-2.5c-0.1,-0.1 -0.2,-0.3 -0.3,-0.4l0,0c-0.1,-0.1 -0.2,-0.3 -0.3,-0.4l0,0l0,0l-0.6,-0.7l0.9,-0.1c0.1,0 0.2,0 0.3,0l0.1,0l0,0c0.1,0 0.2,0 0.3,0l0,0l0,0l0,0l0,0c1.4,0 2.7,0.6 3.6,1.5c0.9,0.9 1.5,2.2 1.5,3.6l0,0l0,0c0,0.3 0,0.5 -0.1,0.8l0,0l0,0l0.2,0l0,0c0.3,0 0.6,-0.1 1,-0.1l0,0l0,0c1.8,0 3.5,0.6 4.8,1.6c0.3,0.2 0.5,0.4 0.8,0.6c0.2,0.2 0.5,0.5 0.7,0.7l0,0l0.3,0.3l-0.3,0.3c-0.6,0.7 -1.4,1.4 -2.2,1.9c-0.2,0.1 -0.3,0.2 -0.5,0.3l0,0c-1.1,0.4 -2.3,0.7 -3.6,0.7l0,0l0,0l0,0zm6.3,-3.6l0,0l0,0z" class="st3" id="path116"/>
    <path d="m12.5,66.3l0,0l0,0c0.1,0 0.2,0 0.2,0.1c0.1,0 0.1,0 0.2,0c0.4,0.1 0.8,0.1 1.2,0.1l0,0l0,0c1.1,0 2.1,-0.3 3.1,-0.7l0,0c0.2,-0.1 0.3,-0.2 0.4,-0.2c0.6,-0.4 1.2,-0.8 1.7,-1.3c-0.1,-0.1 -0.2,-0.2 -0.3,-0.3c-0.2,-0.2 -0.4,-0.4 -0.7,-0.5c-1.2,-0.9 -2.7,-1.4 -4.3,-1.4l0,0l0,0c-0.3,0 -0.6,0 -0.9,0.1l0,0l-0.1,0l0,0c-0.2,0 -0.5,0.1 -0.7,0.1l-0.9,0.2l0.3,-0.9l0,0l0,0c0,-0.1 0,-0.1 0.1,-0.2l0,0l0,0c0,-0.1 0,-0.1 0,-0.2c0.1,-0.3 0.1,-0.6 0.1,-0.9l0,0l0,0c0,-1.1 -0.5,-2.1 -1.2,-2.9c-0.7,-0.7 -1.6,-1.1 -2.6,-1.2c0,0.1 0.1,0.1 0.1,0.2c0.5,0.9 0.8,1.9 0.8,2.9l0,0l0,0c0,1.1 -0.3,2.1 -0.8,3c-0.1,0.1 -0.2,0.3 -0.3,0.4c-0.4,0.5 -0.8,1 -1.4,1.4l0.1,0l-0.1,0c0.1,0.1 0.2,0.1 0.2,0.2c0.2,0.2 0.4,0.4 0.6,0.6c1,1.1 1.6,2.5 1.6,4.1l0,0l0,0c0,0.7 -0.1,1.5 -0.4,2.1c0,0.1 -0.1,0.2 -0.1,0.3c-0.1,0.2 -0.2,0.5 -0.4,0.7c1,-0.1 1.9,-0.5 2.6,-1.2c0.7,-0.7 1.2,-1.8 1.2,-2.9l0,0l0,0l0,0l0,0c0,-0.2 0,-0.4 -0.1,-0.6l0,0l0,-0.1l0,0c0,-0.2 -0.1,-0.4 -0.1,-0.5l-0.3,-0.8l1.2,0.3l0,0zm1.7,1.2c-0.4,0 -0.8,0 -1.2,-0.1c0,0.3 0.1,0.5 0.1,0.8l0,0l0,0l0,0l0,0c0,1.4 -0.6,2.7 -1.5,3.6c-0.9,0.9 -2.2,1.5 -3.6,1.5l0,0l0,0c-0.2,0 -0.3,0 -0.5,0l0,0l-0.1,0l0,0l-0.1,0l0,0l0,0l-0.9,-0.1l0.6,-0.8c0.3,-0.4 0.6,-0.8 0.8,-1.2c0,-0.1 0.1,-0.2 0.1,-0.3c0.2,-0.5 0.3,-1.1 0.3,-1.8l0,0l0,0c0,-1.3 -0.5,-2.5 -1.3,-3.4c-0.2,-0.2 -0.3,-0.3 -0.5,-0.5c-0.2,-0.1 -0.4,-0.3 -0.6,-0.4l0,0l-0.1,-0.1l0,0l-0.1,-0.1l-0.5,-0.2l-0.3,-0.2l0,0l0,0l0.6,-0.3l0.2,-0.1c0.1,0 0.1,-0.1 0.1,-0.1l0,0l0.1,-0.1l0,0c0.6,-0.4 1.1,-0.9 1.5,-1.4c0.1,-0.1 0.2,-0.2 0.2,-0.4c0.4,-0.7 0.7,-1.6 0.7,-2.5l0,0l0,0c0,-0.9 -0.2,-1.7 -0.6,-2.5c-0.1,-0.1 -0.2,-0.3 -0.3,-0.4l0,0c-0.1,-0.1 -0.2,-0.3 -0.3,-0.4l0,0l0,0l-0.6,-0.7l0.9,-0.1c0.1,0 0.2,0 0.3,0l0.1,0l0,0c0.1,0 0.2,0 0.3,0l0,0l0,0l0,0l0,0c1.4,0 2.7,0.6 3.6,1.5c0.9,0.9 1.5,2.2 1.5,3.6l0,0l0,0c0,0.3 0,0.5 -0.1,0.8l0,0l0,0l0.2,0l0,0c0.3,0 0.6,-0.1 1,-0.1l0,0l0,0c1.8,0 3.5,0.6 4.8,1.6c0.3,0.2 0.5,0.4 0.8,0.6c0.2,0.2 0.5,0.5 0.7,0.7l0,0l0.3,0.3l-0.3,0.3c-0.6,0.7 -1.4,1.4 -2.2,1.9c-0.2,0.1 -0.3,0.2 -0.5,0.3l0,0c-1.1,0.5 -2.3,0.8 -3.6,0.8l0,0l0,0l0,0zm6.3,-3.6l0,0l0,0z" class="st3" id="path118"/>
   </g>
   <path d="m24.1,64.5l0,0l0,0c-0.2,0.2 -0.3,0.3 -0.4,0.5c-0.1,0.2 -0.2,0.3 -0.3,0.5c-0.5,0.9 -0.7,1.9 -0.6,2.9l0,0.4l0.4,0l0,0c0.2,0 0.4,0 0.6,0c0.2,0 0.4,0 0.6,0c1,-0.1 1.9,-0.6 2.7,-1.3l0,0l0,0c0.1,-0.2 0.3,-0.3 0.4,-0.5c0.1,-0.2 0.2,-0.3 0.3,-0.5c0.5,-0.9 0.7,-1.9 0.6,-2.9l0,-0.4l-0.4,0l0,0c-0.2,0 -0.4,0 -0.6,0c-0.2,0 -0.4,0 -0.6,0c-1,0.1 -1.9,0.5 -2.7,1.3l0,0zm0.7,0.7l0,0l0,0c0.6,-0.6 1.4,-1 2.1,-1.1c0.2,0 0.3,0 0.5,0l0.1,0c0,0.6 -0.2,1.3 -0.5,1.9c-0.1,0.1 -0.2,0.3 -0.3,0.4c-0.1,0.1 -0.2,0.3 -0.3,0.4l0,0l0,0c-0.6,0.6 -1.3,1 -2.1,1.1c-0.2,0 -0.3,0 -0.5,0l-0.1,0c0,-0.6 0.2,-1.3 0.5,-1.9c0.1,-0.1 0.2,-0.3 0.3,-0.4c0.1,-0.1 0.2,-0.3 0.3,-0.4l0,0z" class="st3" id="path120"/>
  </g>
 </g>
</svg>