<?xml version="1.0" encoding="utf-8"?>
<!-- Generator: Adobe Illustrator 22.0.1, SVG Export Plug-In . SVG Version: 6.00 Build 0)  -->
<svg version="1.1"
	 id="svg2" xmlns:cc="http://creativecommons.org/ns#" xmlns:dc="http://purl.org/dc/elements/1.1/" xmlns:rdf="http://www.w3.org/1999/02/22-rdf-syntax-ns#" xmlns:svg="http://www.w3.org/2000/svg"
	 xmlns="http://www.w3.org/2000/svg" xmlns:xlink="http://www.w3.org/1999/xlink" x="0px" y="0px" viewBox="0 0 330.8 96.8"
	 style="enable-background:new 0 0 330.8 96.8;" xml:space="preserve">
<style type="text/css">
	.st0{fill:#FFFFFF;}
	.st1{fill:#1B1918;stroke:#FFFFFF;stroke-miterlimit:10;}
	.st2{fill:#E53114;}
	.st3{fill:#9A9C9A;}
	.st4{fill:none;}
</style>
<path id="path4" class="st0" d="M110.5,1.2h4.7v13.2l9.7-13.2h4.4v20.3h-4.6V8.3L115,21.5h-4.4L110.5,1.2L110.5,1.2z M145.9,13.3
	c1.8,0.6,2.8,1.9,2.8,3.7c0,1.4-0.5,2.5-1.6,3.3c-1.1,0.8-2.6,1.2-4.8,1.2H134V5.9h8c2,0,3.5,0.4,4.6,1.1c1.1,0.7,1.7,1.7,1.7,3
	c0,0.8-0.2,1.5-0.6,2C147.2,12.5,146.6,13,145.9,13.3L145.9,13.3z M138.1,12.3h3.4c1.6,0,2.4-0.6,2.4-1.7c0-1.1-0.8-1.7-2.4-1.7
	h-3.4V12.3z M141.9,18.4c1.7,0,2.5-0.6,2.5-1.7c0-0.6-0.2-1-0.6-1.3c-0.4-0.3-1-0.4-1.8-0.4h-3.9v3.5L141.9,18.4L141.9,18.4z
	 M158.1,5.6c2.4,0,4.3,0.6,5.6,1.7c1.3,1.2,1.9,2.9,1.9,5.2v8.9h-4.2v-1.9c-0.9,1.5-2.4,2.2-4.8,2.2c-1.2,0-2.2-0.2-3.1-0.6
	c-0.9-0.4-1.6-1-2-1.7c-0.5-0.7-0.7-1.5-0.7-2.4c0-1.5,0.5-2.6,1.6-3.4c1.1-0.8,2.8-1.2,5.1-1.2h3.6c0-1-0.3-1.7-0.9-2.3
	c-0.6-0.5-1.5-0.8-2.7-0.8c-0.8,0-1.6,0.1-2.5,0.4c-0.8,0.3-1.5,0.6-2,1.1l-1.6-3.2c0.9-0.6,1.9-1.1,3.1-1.4
	C155.6,5.8,156.8,5.6,158.1,5.6L158.1,5.6z M157.7,18.6c0.8,0,1.5-0.2,2.1-0.5c0.6-0.4,1-0.9,1.3-1.6v-1.6H158
	c-1.9,0-2.8,0.6-2.8,1.8c0,0.6,0.2,1,0.7,1.4C156.3,18.5,156.9,18.6,157.7,18.6z M169.5,5.9h4.5v6.1h6.8V5.9h4.5v15.6h-4.5v-5.8H174
	v5.8h-4.5V5.9z M118.4,44.4h-3.2v8.2h-4.7V32.3h4.7v8.2h3.4l5.3-8.2h5l-6.6,9.8l6.8,10.5h-5.3L118.4,44.4L118.4,44.4z M137.6,36.8
	c2.4,0,4.3,0.6,5.6,1.7c1.3,1.2,1.9,2.9,1.9,5.2v8.9h-4.2v-1.9c-0.9,1.5-2.4,2.2-4.8,2.2c-1.2,0-2.2-0.2-3.1-0.6
	c-0.9-0.4-1.6-1-2-1.7c-0.5-0.7-0.7-1.5-0.7-2.4c0-1.5,0.5-2.6,1.6-3.4c1.1-0.8,2.8-1.2,5.1-1.2h3.6c0-1-0.3-1.7-0.9-2.3
	c-0.6-0.5-1.5-0.8-2.7-0.8c-0.8,0-1.6,0.1-2.5,0.4c-0.8,0.3-1.5,0.6-2,1.1l-1.6-3.2c0.9-0.6,1.9-1.1,3.1-1.4
	C135.1,36.9,136.3,36.8,137.6,36.8L137.6,36.8z M137.2,49.8c0.8,0,1.5-0.2,2.1-0.5c0.6-0.4,1-0.9,1.3-1.6v-1.6h-3.1
	c-1.9,0-2.8,0.6-2.8,1.8c0,0.6,0.2,1,0.7,1.4C135.8,49.6,136.4,49.8,137.2,49.8z M164.5,37v15.6H160V40.7h-6.5v11.9H149V37H164.5z
	 M184.5,37l-7,16.6c-0.7,1.8-1.6,3.1-2.7,3.8c-1.1,0.7-2.3,1.1-3.8,1.1c-0.8,0-1.6-0.1-2.4-0.4c-0.8-0.3-1.4-0.6-1.9-1l1.7-3.2
	c0.3,0.3,0.7,0.6,1.2,0.7c0.5,0.2,0.9,0.3,1.3,0.3c0.6,0,1.1-0.1,1.5-0.4c0.4-0.3,0.7-0.8,1-1.5l0.1-0.1L166.7,37h4.7l4.4,10.6
	l4.4-10.6H184.5z M194.1,52.8c-1.7,0-3.2-0.3-4.5-1c-1.3-0.7-2.4-1.6-3.1-2.9c-0.7-1.2-1.1-2.6-1.1-4.1c0-1.5,0.4-2.9,1.1-4.1
	c0.7-1.2,1.8-2.2,3.1-2.9c1.3-0.7,2.8-1,4.5-1c1.6,0,3.1,0.3,4.3,1c1.2,0.7,2.1,1.7,2.7,2.9l-3.5,1.9c-0.8-1.4-2-2.1-3.5-2.1
	c-1.2,0-2.2,0.4-2.9,1.2c-0.8,0.8-1.2,1.8-1.2,3.2c0,1.3,0.4,2.4,1.2,3.2c0.8,0.8,1.7,1.2,2.9,1.2c1.5,0,2.7-0.7,3.5-2.1l3.5,1.9
	c-0.6,1.2-1.5,2.2-2.7,2.9C197.2,52.5,195.7,52.8,194.1,52.8L194.1,52.8z M217,40.7h-5.3v11.9h-4.5V40.7h-5.3V37H217L217,40.7
	L217,40.7z M233.2,37v15.6h-4v-4.5h-3.3l-3,4.5h-4.8l3.6-5.1c-1.1-0.4-1.9-1-2.5-1.8c-0.6-0.8-0.9-1.8-0.9-2.9c0-1.8,0.7-3.3,2-4.2
	c1.3-1,3.1-1.5,5.5-1.5H233.2z M225.9,40.7c-1,0-1.7,0.2-2.2,0.5c-0.5,0.3-0.7,0.9-0.7,1.7c0,0.8,0.2,1.3,0.7,1.7
	c0.5,0.4,1.2,0.5,2.2,0.5h3.4v-4.4L225.9,40.7L225.9,40.7z M237.6,37h4.5v6.1h6.8V37h4.5v15.6h-4.5v-5.8h-6.8v5.8h-4.5V37z
	 M265.1,52.8c-1.7,0-3.2-0.3-4.5-1c-1.3-0.7-2.4-1.6-3.1-2.9c-0.7-1.2-1.1-2.6-1.1-4.1c0-1.5,0.4-2.9,1.1-4.1
	c0.7-1.2,1.8-2.2,3.1-2.9c1.3-0.7,2.8-1,4.5-1c1.6,0,3.1,0.3,4.3,1c1.2,0.7,2.1,1.7,2.7,2.9l-3.5,1.9c-0.8-1.4-2-2.1-3.5-2.1
	c-1.2,0-2.2,0.4-2.9,1.2c-0.8,0.8-1.2,1.8-1.2,3.2c0,1.3,0.4,2.4,1.2,3.2c0.8,0.8,1.7,1.2,2.9,1.2c1.5,0,2.7-0.7,3.5-2.1l3.5,1.9
	c-0.6,1.2-1.5,2.2-2.7,2.9C268.2,52.5,266.8,52.8,265.1,52.8L265.1,52.8z M281.7,46.7h-2.3v5.9h-4.5V37h4.5V43h2.4l4.2-6.1h4.8
	l-5.5,7.5l5.8,8.1h-5.3L281.7,46.7L281.7,46.7z M293.5,37h4.5v9.3l7.6-9.3h4.1v15.6h-4.5v-9.3l-7.6,9.3h-4.2V37z M314.1,37h4.5v9.3
	l7.6-9.3h4.1v15.6h-4.5v-9.3l-7.6,9.3h-4.2L314.1,37L314.1,37z M321.9,35.3c-3.4,0-5.1-1.5-5.1-4.5h3c0,0.7,0.2,1.2,0.6,1.6
	c0.4,0.4,0.9,0.6,1.6,0.6c0.7,0,1.2-0.2,1.6-0.6c0.4-0.4,0.6-0.9,0.6-1.6h3C327,33.8,325.3,35.3,321.9,35.3z"/>
<path id="path6" class="st1" d="M118.4,66.6V76h-1v-8.5h-5.9V76h-1v-9.4H118.4L118.4,66.6z M127.4,72.8h-5.9
	c0.1,0.7,0.3,1.3,0.8,1.8c0.5,0.5,1.2,0.7,1.9,0.7c0.4,0,0.8-0.1,1.2-0.2c0.4-0.2,0.7-0.4,1-0.7l0.5,0.6c-0.3,0.4-0.7,0.7-1.2,0.9
	c-0.5,0.2-1,0.3-1.5,0.3c-0.7,0-1.4-0.2-1.9-0.5c-0.6-0.3-1-0.7-1.3-1.3c-0.3-0.5-0.5-1.2-0.5-1.8c0-0.7,0.1-1.3,0.4-1.8
	c0.3-0.5,0.7-1,1.2-1.3c0.5-0.3,1.1-0.5,1.8-0.5c0.7,0,1.2,0.2,1.8,0.5s0.9,0.7,1.2,1.3c0.3,0.5,0.4,1.2,0.4,1.9L127.4,72.8
	L127.4,72.8z M124,69.7c-0.7,0-1.2,0.2-1.7,0.6c-0.5,0.4-0.7,1-0.8,1.7h5c-0.1-0.7-0.3-1.3-0.8-1.7C125.3,70,124.7,69.7,124,69.7
	L124,69.7z M133.2,68.9c0.7,0,1.3,0.1,1.8,0.4c0.5,0.3,1,0.7,1.3,1.3c0.3,0.5,0.5,1.2,0.5,1.9c0,0.7-0.2,1.3-0.5,1.9
	c-0.3,0.5-0.7,1-1.3,1.3c-0.5,0.3-1.1,0.4-1.8,0.4c-0.6,0-1.1-0.1-1.5-0.4c-0.5-0.2-0.8-0.6-1.1-1v3.9h-1V69h0.9v1.4
	c0.3-0.5,0.7-0.8,1.1-1.1C132.1,69,132.6,68.9,133.2,68.9L133.2,68.9z M133.1,75.2c0.5,0,0.9-0.1,1.3-0.3c0.4-0.2,0.7-0.6,0.9-1
	c0.2-0.4,0.3-0.9,0.3-1.4c0-0.5-0.1-1-0.3-1.4c-0.2-0.4-0.5-0.7-0.9-1c-0.4-0.2-0.8-0.3-1.3-0.3c-0.5,0-0.9,0.1-1.3,0.3
	c-0.4,0.2-0.7,0.6-0.9,1c-0.2,0.4-0.3,0.9-0.3,1.4c0,0.5,0.1,1,0.3,1.4c0.2,0.4,0.5,0.7,0.9,1C132.2,75.1,132.6,75.2,133.1,75.2z
	 M141.7,76.1c-0.7,0-1.3-0.2-1.9-0.5c-0.5-0.3-1-0.7-1.3-1.3c-0.3-0.5-0.5-1.2-0.5-1.9c0-0.7,0.2-1.3,0.5-1.8c0.3-0.5,0.7-1,1.3-1.3
	s1.2-0.5,1.9-0.5c0.6,0,1.1,0.1,1.6,0.4c0.5,0.2,0.9,0.6,1.1,1l-0.7,0.5c-0.2-0.3-0.5-0.6-0.9-0.8c-0.4-0.2-0.7-0.3-1.2-0.3
	c-0.5,0-1,0.1-1.4,0.3s-0.7,0.6-1,1c-0.2,0.4-0.3,0.9-0.3,1.4c0,0.5,0.1,1,0.3,1.4c0.2,0.4,0.5,0.7,1,1c0.4,0.2,0.9,0.3,1.4,0.3
	c0.4,0,0.8-0.1,1.2-0.3c0.4-0.2,0.7-0.4,0.9-0.8l0.7,0.5c-0.3,0.5-0.7,0.8-1.1,1C142.8,76,142.3,76.1,141.7,76.1L141.7,76.1z
	 M149.2,76.1c-0.7,0-1.3-0.2-1.8-0.5c-0.5-0.3-1-0.7-1.3-1.3c-0.3-0.5-0.5-1.2-0.5-1.8c0-0.7,0.2-1.3,0.5-1.8c0.3-0.5,0.7-1,1.3-1.3
	c0.5-0.3,1.2-0.5,1.8-0.5s1.3,0.2,1.8,0.5c0.5,0.3,1,0.7,1.3,1.3c0.3,0.5,0.5,1.2,0.5,1.8c0,0.7-0.2,1.3-0.5,1.8
	c-0.3,0.5-0.7,1-1.3,1.3C150.5,75.9,149.9,76.1,149.2,76.1z M149.2,75.2c0.5,0,0.9-0.1,1.3-0.3c0.4-0.2,0.7-0.6,0.9-1
	c0.2-0.4,0.3-0.9,0.3-1.4c0-0.5-0.1-1-0.3-1.4c-0.2-0.4-0.5-0.7-0.9-1c-0.4-0.2-0.8-0.3-1.3-0.3c-0.5,0-0.9,0.1-1.3,0.3
	s-0.7,0.6-0.9,1c-0.2,0.4-0.3,0.9-0.3,1.4c0,0.5,0.1,1,0.3,1.4c0.2,0.4,0.5,0.7,0.9,1C148.3,75.1,148.7,75.2,149.2,75.2z M154.8,69
	h1v3.1h4.4V69h1v7h-1v-3.1h-4.4V76h-1V69z M166.3,68.9c0.9,0,1.6,0.2,2.1,0.7c0.5,0.5,0.7,1.1,0.7,2V76h-0.9v-1.1
	c-0.2,0.4-0.5,0.7-0.9,0.9c-0.4,0.2-0.9,0.3-1.5,0.3c-0.8,0-1.4-0.2-1.9-0.6s-0.7-0.9-0.7-1.5c0-0.6,0.2-1.1,0.6-1.4
	c0.4-0.4,1.1-0.5,2.1-0.5h2.2v-0.4c0-0.6-0.2-1.1-0.5-1.4c-0.3-0.3-0.8-0.5-1.5-0.5c-0.4,0-0.9,0.1-1.3,0.2
	c-0.4,0.1-0.8,0.4-1.1,0.6l-0.4-0.7c0.4-0.3,0.8-0.5,1.3-0.7C165.2,69,165.7,68.9,166.3,68.9L166.3,68.9z M165.9,75.3
	c0.5,0,1-0.1,1.4-0.4c0.4-0.2,0.7-0.6,0.9-1.1v-1.2H166c-1.2,0-1.8,0.4-1.8,1.3c0,0.4,0.2,0.7,0.5,1
	C164.9,75.2,165.4,75.3,165.9,75.3L165.9,75.3z M177.4,69v7h-1v-6.2h-3.4l-0.1,1.7c-0.1,1.5-0.2,2.6-0.5,3.4
	c-0.3,0.8-0.7,1.2-1.4,1.2c-0.2,0-0.4,0-0.7-0.1l0.1-0.8c0.2,0,0.3,0.1,0.3,0.1c0.4,0,0.6-0.2,0.8-0.5c0.2-0.3,0.3-0.8,0.4-1.3
	c0.1-0.5,0.1-1.2,0.2-2l0.1-2.5H177.4L177.4,69z M183.2,71.5c0.9,0,1.6,0.2,2,0.6c0.5,0.4,0.7,0.9,0.7,1.7c0,0.8-0.2,1.3-0.7,1.7
	c-0.5,0.4-1.2,0.6-2.1,0.6l-2.8,0v-7h1v2.5L183.2,71.5L183.2,71.5z M182.9,75.3c0.7,0,1.1-0.1,1.5-0.4c0.3-0.3,0.5-0.7,0.5-1.2
	c0-0.5-0.2-0.9-0.5-1.2c-0.3-0.3-0.8-0.4-1.5-0.4l-1.8,0v3.1L182.9,75.3L182.9,75.3z M187.7,69h1v3.1h4.4V69h1v7h-1v-3.1h-4.4V76h-1
	V69z M199.7,71.5c0.9,0,1.6,0.2,2,0.6c0.5,0.4,0.7,0.9,0.7,1.7c0,0.8-0.3,1.3-0.8,1.7c-0.5,0.4-1.2,0.6-2.1,0.6l-2.8,0v-7h1v2.5
	L199.7,71.5L199.7,71.5z M203.6,69h1v7h-1V69z M199.4,75.3c0.7,0,1.1-0.1,1.5-0.4c0.3-0.3,0.5-0.7,0.5-1.2c0-0.5-0.2-0.9-0.5-1.2
	c-0.3-0.3-0.8-0.4-1.5-0.4l-1.8,0v3.1L199.4,75.3L199.4,75.3z M207.2,69h1v5.6l4.7-5.6h0.8v7h-1v-5.6l-4.7,5.6h-0.9V69z M210.4,68
	c-0.6,0-1.1-0.2-1.4-0.5c-0.4-0.3-0.5-0.7-0.5-1.3h0.7c0,0.3,0.1,0.6,0.4,0.8c0.2,0.2,0.6,0.3,0.9,0.3c0.4,0,0.7-0.1,0.9-0.3
	c0.2-0.2,0.4-0.5,0.4-0.8h0.7c0,0.6-0.2,1-0.6,1.3C211.5,67.8,211,68,210.4,68L210.4,68z M118.7,90.1c0,1.1-0.4,2-1.1,2.6
	c-0.7,0.6-1.7,1-3.1,1v2.5h-0.9v-2.5c-1.3-0.1-2.3-0.4-3-1c-0.7-0.6-1.1-1.5-1.1-2.6c0-1.1,0.4-1.9,1.1-2.6c0.7-0.6,1.7-1,3-1v-2.8
	h0.9v2.8c1.3,0.1,2.3,0.4,3.1,1C118.4,88.2,118.7,89,118.7,90.1L118.7,90.1z M110.5,90.1c0,0.8,0.3,1.5,0.8,2
	c0.5,0.5,1.3,0.7,2.4,0.8v-5.5c-1,0.1-1.8,0.3-2.4,0.8C110.8,88.6,110.5,89.3,110.5,90.1z M114.6,92.9c1-0.1,1.8-0.3,2.4-0.8
	c0.5-0.5,0.8-1.1,0.8-2c0-0.8-0.3-1.5-0.8-1.9c-0.5-0.5-1.3-0.7-2.4-0.8V92.9z M120.8,86.6h1v5.6l4.7-5.6h0.8v7h-1V88l-4.7,5.6h-0.9
	L120.8,86.6L120.8,86.6z M130,86.6h1v3.1h4.4v-3.1h1v7h-1v-3.1h-4.4v3.1h-1V86.6z M141.4,86.5c0.9,0,1.6,0.2,2.1,0.7
	c0.5,0.5,0.7,1.1,0.7,2v4.4h-0.9v-1.1c-0.2,0.4-0.5,0.7-0.9,0.9c-0.4,0.2-0.9,0.3-1.5,0.3c-0.8,0-1.4-0.2-1.9-0.6
	c-0.5-0.4-0.7-0.9-0.7-1.5c0-0.6,0.2-1.1,0.6-1.4c0.4-0.4,1.1-0.5,2.1-0.5h2.2v-0.4c0-0.6-0.2-1.1-0.5-1.4c-0.3-0.3-0.8-0.5-1.5-0.5
	c-0.4,0-0.9,0.1-1.3,0.2c-0.4,0.1-0.8,0.4-1.1,0.6l-0.4-0.7c0.4-0.3,0.8-0.5,1.3-0.7C140.4,86.6,140.9,86.5,141.4,86.5L141.4,86.5z
	 M141.1,92.9c0.5,0,1-0.1,1.4-0.4c0.4-0.2,0.7-0.6,0.9-1.1v-1.2h-2.2c-1.2,0-1.8,0.4-1.8,1.3c0,0.4,0.2,0.7,0.5,1
	C140.1,92.8,140.5,92.9,141.1,92.9L141.1,92.9z M146.8,86.6h1v3.1h4.4v-3.1h1v7h-1v-3.1h-4.4v3.1h-1V86.6z M158.8,93.7
	c-0.7,0-1.3-0.2-1.9-0.5c-0.5-0.3-1-0.7-1.3-1.3c-0.3-0.5-0.5-1.2-0.5-1.9c0-0.7,0.2-1.3,0.5-1.8c0.3-0.5,0.7-1,1.3-1.3
	c0.5-0.3,1.2-0.5,1.9-0.5c0.6,0,1.1,0.1,1.6,0.4c0.5,0.2,0.9,0.6,1.1,1l-0.7,0.5c-0.2-0.3-0.5-0.6-0.9-0.8c-0.4-0.2-0.7-0.3-1.2-0.3
	c-0.5,0-1,0.1-1.4,0.3c-0.4,0.2-0.7,0.6-1,1c-0.2,0.4-0.3,0.9-0.3,1.4c0,0.5,0.1,1,0.3,1.4c0.2,0.4,0.5,0.7,1,1
	c0.4,0.2,0.9,0.3,1.4,0.3c0.4,0,0.8-0.1,1.2-0.3c0.4-0.2,0.7-0.4,0.9-0.8l0.7,0.5c-0.3,0.5-0.7,0.8-1.1,1S159.4,93.7,158.8,93.7
	L158.8,93.7z M166.3,93.7c-0.7,0-1.3-0.2-1.8-0.5c-0.5-0.3-1-0.7-1.3-1.3c-0.3-0.5-0.5-1.2-0.5-1.8c0-0.7,0.2-1.3,0.5-1.8
	c0.3-0.5,0.7-1,1.3-1.3c0.5-0.3,1.2-0.5,1.8-0.5s1.3,0.2,1.8,0.5c0.5,0.3,1,0.7,1.3,1.3c0.3,0.5,0.5,1.2,0.5,1.8
	c0,0.7-0.2,1.3-0.5,1.8c-0.3,0.5-0.7,1-1.3,1.3C167.6,93.5,167,93.7,166.3,93.7z M166.3,92.9c0.5,0,0.9-0.1,1.3-0.3
	c0.4-0.2,0.7-0.6,0.9-1c0.2-0.4,0.3-0.9,0.3-1.4c0-0.5-0.1-1-0.3-1.4c-0.2-0.4-0.5-0.7-0.9-1c-0.4-0.2-0.8-0.3-1.3-0.3
	c-0.5,0-0.9,0.1-1.3,0.3c-0.4,0.2-0.7,0.6-0.9,1c-0.2,0.4-0.3,0.9-0.3,1.4c0,0.5,0.1,1,0.3,1.4c0.2,0.4,0.5,0.7,0.9,1
	C165.4,92.7,165.8,92.9,166.3,92.9z M176.4,90c1,0.2,1.4,0.8,1.4,1.7c0,0.6-0.2,1.1-0.7,1.4c-0.5,0.3-1.1,0.5-2,0.5h-3.2v-7h3.1
	c0.8,0,1.4,0.2,1.9,0.5c0.5,0.3,0.7,0.8,0.7,1.3c0,0.4-0.1,0.7-0.3,1C177.1,89.7,176.8,89.9,176.4,90L176.4,90z M172.8,89.7h2.1
	c0.5,0,1-0.1,1.3-0.3c0.3-0.2,0.4-0.5,0.4-0.9c0-0.4-0.1-0.7-0.4-0.9c-0.3-0.2-0.7-0.3-1.3-0.3h-2.1V89.7L172.8,89.7z M175.1,92.9
	c0.6,0,1.1-0.1,1.4-0.3c0.3-0.2,0.5-0.5,0.5-0.9c0-0.4-0.1-0.7-0.4-0.9c-0.3-0.2-0.7-0.3-1.3-0.3h-2.3v2.5H175.1z M183,89.1
	c0.9,0,1.6,0.2,2,0.6c0.5,0.4,0.7,0.9,0.7,1.7c0,0.8-0.3,1.3-0.8,1.7c-0.5,0.4-1.2,0.6-2.1,0.6l-2.8,0v-7h1v2.5L183,89.1L183,89.1z
	 M186.9,86.6h1v7h-1V86.6z M182.8,92.9c0.7,0,1.1-0.1,1.5-0.4c0.3-0.3,0.5-0.7,0.5-1.2c0-0.5-0.2-0.9-0.5-1.2
	c-0.3-0.3-0.8-0.4-1.5-0.4l-1.8,0v3.1L182.8,92.9L182.8,92.9z M190.6,86.6h1v5.6l4.7-5.6h0.8v7h-1V88l-4.7,5.6h-0.9V86.6z
	 M193.8,85.6c-0.6,0-1.1-0.2-1.4-0.5c-0.4-0.3-0.5-0.7-0.5-1.3h0.7c0,0.3,0.1,0.6,0.4,0.8c0.2,0.2,0.6,0.3,0.9,0.3
	c0.4,0,0.7-0.1,0.9-0.3s0.4-0.5,0.4-0.8h0.7c0,0.6-0.2,1-0.6,1.3C194.9,85.4,194.4,85.6,193.8,85.6L193.8,85.6z M205.9,90.5h-1.6
	v3.1h-1v-7h1v3.1h1.6l2.5-3.1h1l-2.8,3.4l3,3.6h-1.1L205.9,90.5L205.9,90.5z M214,93.7c-0.7,0-1.3-0.2-1.8-0.5
	c-0.5-0.3-1-0.7-1.3-1.3c-0.3-0.5-0.5-1.2-0.5-1.8c0-0.7,0.2-1.3,0.5-1.8c0.3-0.5,0.7-1,1.3-1.3c0.5-0.3,1.2-0.5,1.8-0.5
	s1.3,0.2,1.8,0.5c0.5,0.3,1,0.7,1.3,1.3c0.3,0.5,0.5,1.2,0.5,1.8c0,0.7-0.2,1.3-0.5,1.8c-0.3,0.5-0.7,1-1.3,1.3
	C215.3,93.5,214.7,93.7,214,93.7z M214,92.9c0.5,0,0.9-0.1,1.3-0.3c0.4-0.2,0.7-0.6,0.9-1c0.2-0.4,0.3-0.9,0.3-1.4
	c0-0.5-0.1-1-0.3-1.4c-0.2-0.4-0.5-0.7-0.9-1c-0.4-0.2-0.8-0.3-1.3-0.3s-0.9,0.1-1.3,0.3c-0.4,0.2-0.7,0.6-0.9,1
	c-0.2,0.4-0.3,0.9-0.3,1.4c0,0.5,0.1,1,0.3,1.4c0.2,0.4,0.5,0.7,0.9,1C213,92.7,213.5,92.9,214,92.9z M219.6,86.6h1v3.1h4.4v-3.1h1
	v7h-1v-3.1h-4.4v3.1h-1V86.6z M231.6,93.7c-0.7,0-1.3-0.2-1.9-0.5c-0.5-0.3-1-0.7-1.3-1.3c-0.3-0.5-0.5-1.2-0.5-1.9
	c0-0.7,0.2-1.3,0.5-1.8c0.3-0.5,0.7-1,1.3-1.3c0.5-0.3,1.2-0.5,1.9-0.5c0.6,0,1.1,0.1,1.6,0.4c0.5,0.2,0.9,0.6,1.1,1l-0.7,0.5
	c-0.2-0.3-0.5-0.6-0.9-0.8c-0.4-0.2-0.7-0.3-1.2-0.3c-0.5,0-1,0.1-1.4,0.3c-0.4,0.2-0.7,0.6-1,1c-0.2,0.4-0.3,0.9-0.3,1.4
	c0,0.5,0.1,1,0.3,1.4c0.2,0.4,0.5,0.7,1,1c0.4,0.2,0.9,0.3,1.4,0.3c0.4,0,0.8-0.1,1.2-0.3c0.4-0.2,0.7-0.4,0.9-0.8l0.7,0.5
	c-0.3,0.5-0.7,0.8-1.1,1C232.7,93.6,232.2,93.7,231.6,93.7L231.6,93.7z M242.2,86.6l-3.5,7.9c-0.3,0.7-0.6,1.1-1,1.4
	c-0.4,0.3-0.8,0.4-1.4,0.4c-0.3,0-0.7-0.1-1-0.2c-0.3-0.1-0.5-0.3-0.8-0.5l0.4-0.7c0.4,0.4,0.8,0.5,1.3,0.5c0.3,0,0.6-0.1,0.8-0.3
	c0.2-0.2,0.4-0.5,0.6-0.9l0.3-0.7l-3.1-7h1l2.7,6l2.7-6H242.2L242.2,86.6z M249.4,86.6v7h-1v-6.2h-3.4l-0.1,1.7
	c-0.1,1.5-0.2,2.6-0.5,3.4c-0.3,0.8-0.7,1.2-1.4,1.2c-0.2,0-0.4,0-0.7-0.1l0.1-0.8c0.2,0,0.3,0.1,0.3,0.1c0.4,0,0.6-0.2,0.8-0.5
	c0.2-0.3,0.3-0.8,0.4-1.3c0.1-0.5,0.1-1.2,0.2-2l0.1-2.5L249.4,86.6L249.4,86.6z M255.1,89.1c0.9,0,1.6,0.2,2,0.6
	c0.5,0.4,0.7,0.9,0.7,1.7c0,0.8-0.2,1.3-0.7,1.7c-0.5,0.4-1.2,0.6-2.1,0.6l-2.8,0v-7h1v2.5L255.1,89.1L255.1,89.1z M254.9,92.9
	c0.7,0,1.1-0.1,1.5-0.4c0.3-0.3,0.5-0.7,0.5-1.2c0-0.5-0.2-0.9-0.5-1.2c-0.3-0.3-0.8-0.4-1.5-0.4l-1.8,0v3.1L254.9,92.9L254.9,92.9z
	 M264.6,87.4h-2.7v6.2h-1v-6.2h-2.7v-0.8h6.3V87.4z M268.4,86.5c0.9,0,1.6,0.2,2.1,0.7c0.5,0.5,0.7,1.1,0.7,2v4.4h-0.9v-1.1
	c-0.2,0.4-0.5,0.7-0.9,0.9c-0.4,0.2-0.9,0.3-1.5,0.3c-0.8,0-1.4-0.2-1.9-0.6c-0.5-0.4-0.7-0.9-0.7-1.5c0-0.6,0.2-1.1,0.6-1.4
	c0.4-0.4,1.1-0.5,2.1-0.5h2.2v-0.4c0-0.6-0.2-1.1-0.5-1.4c-0.3-0.3-0.8-0.5-1.5-0.5c-0.4,0-0.9,0.1-1.3,0.2
	c-0.4,0.1-0.8,0.4-1.1,0.6l-0.4-0.7c0.4-0.3,0.8-0.5,1.3-0.7C267.3,86.6,267.9,86.5,268.4,86.5L268.4,86.5z M268.1,92.9
	c0.5,0,1-0.1,1.4-0.4c0.4-0.2,0.7-0.6,0.9-1.1v-1.2h-2.2c-1.2,0-1.8,0.4-1.8,1.3c0,0.4,0.2,0.7,0.5,1
	C267.1,92.8,267.5,92.9,268.1,92.9L268.1,92.9z M273.8,86.6h1v3.1h4.4v-3.1h1v7h-1v-3.1h-4.4v3.1h-1V86.6z M287.8,87.4h-2.7v6.2h-1
	v-6.2h-2.7v-0.8h6.3V87.4z"/>
<path id="path8" class="st2" d="M49,52h-4.7v12h-6.8V34.3h6.8v12h4.9l7.8-12h7.3l-9.7,14.3l10,15.4h-7.8L49,52L49,52z"/>
<path id="path10" class="st3" d="M1,0.2h96h0.5v0.5v96v0.5h-0.5H1H0.5v-0.5v-96V0.2H1z M96.6,1.2h-95v95h95V1.2z"/>
<path id="path12" class="st3" d="M49.1,6.9l0.3,0.3c0.2,0.2,0.5,0.5,0.7,0.7c2.5,2.8,3.3,6.1,3.1,9c-0.2,2.9-1.5,5.6-3.1,7.2
	c-0.1,0.1-0.2,0.2-0.2,0.2c0.1,0.1,0.3,0.2,0.4,0.3c0.4,0.2,0.7,0.5,1.1,0.6c1.8,0.9,3.5,1,5,0.6l0,0c0.3-0.1,0.6-0.2,0.9-0.3
	c0.3-0.1,0.5-0.3,0.8-0.4c0.7-0.5,1.2-1.1,1.5-1.9c0.7-1.7,0.1-4.5-2.1-4.7c-1.1-0.1-1.8,0.4-2.2,1c-0.2,0.3-0.2,0.6-0.2,0.9
	c0,0.3,0.1,0.6,0.2,0.8c0.3,0.5,0.8,0.8,1.8,0.7c-0.1,1-2,0.8-2.6-0.2c-0.2-0.4-0.3-0.9-0.3-1.3c0-0.5,0.1-0.9,0.4-1.3
	c0.5-0.9,1.6-1.6,3.1-1.5c2.8,0.2,3.7,3.4,3,5.7c-0.3,1.1-1,2-1.9,2.6c-0.3,0.2-0.6,0.4-0.9,0.5c-0.3,0.2-0.7,0.3-1,0.4l0,0
	c-1.7,0.5-3.7,0.3-5.7-0.7c-0.4-0.2-0.8-0.4-1.2-0.7c-0.2-0.1-0.4-0.3-0.6-0.4l0,0l0,0c-0.2,0.2-0.4,0.3-0.6,0.4
	c-0.4,0.3-0.8,0.5-1.2,0.7c-2,1-4,1.2-5.7,0.7l0,0c-0.4-0.1-0.7-0.2-1-0.4c-0.3-0.2-0.6-0.3-0.9-0.5c-0.8-0.5-1.4-1.3-1.7-2.1
	c-1-2.3-0.2-6,2.8-6.2c1.5-0.1,2.6,0.6,3.1,1.5c0.2,0.4,0.4,0.9,0.4,1.3c0,0.5-0.1,0.9-0.3,1.3c-0.6,1.1-2.6,1.2-2.6,0.2
	c0.9,0.1,1.5-0.2,1.8-0.7c0.1-0.2,0.2-0.5,0.2-0.8c0-0.3-0.1-0.6-0.2-0.9c-0.3-0.6-1.1-1.1-2.2-1c-2.4,0.2-2.8,3.3-1.9,5
	c0.3,0.6,0.8,1.1,1.3,1.5c0.2,0.2,0.5,0.3,0.8,0.4c0.3,0.1,0.6,0.2,0.9,0.3l0,0c1.4,0.4,3.2,0.3,5-0.6c0.4-0.2,0.7-0.4,1.1-0.6
	c0.1-0.1,0.3-0.2,0.4-0.3c-0.1-0.1-0.2-0.2-0.2-0.2c-1.6-1.6-2.8-4.2-3.1-7.2c-0.2-2.9,0.5-6.2,3.1-9c0.2-0.3,0.5-0.5,0.7-0.7
	L49.1,6.9L49.1,6.9z M49.1,23.7L49.1,23.7c0.1-0.1,0.2-0.2,0.3-0.3c1.4-1.5,2.6-3.9,2.8-6.6c0.2-2.7-0.5-5.7-2.8-8.3
	c-0.1-0.1-0.2-0.2-0.3-0.3l0,0l0,0c-0.1,0.1-0.2,0.2-0.3,0.3c-2.3,2.6-3,5.6-2.8,8.3c0.2,2.7,1.4,5.1,2.8,6.6
	C48.9,23.6,49,23.7,49.1,23.7L49.1,23.7L49.1,23.7z"/>
<path id="path14" class="st3" d="M63.7,22.4L63.7,22.4L63.7,22.4c0.2-0.2,0.3-0.3,0.5-0.4c0.2-0.1,0.3-0.2,0.5-0.3
	c0.9-0.5,1.9-0.7,2.9-0.6l0.4,0l0,0.4l0,0c0,0.2,0,0.4,0,0.6c0,0.2,0,0.4,0,0.6c-0.1,1-0.6,1.9-1.3,2.7l0,0h0
	c-0.2,0.1-0.3,0.3-0.5,0.4c-0.2,0.1-0.3,0.2-0.5,0.3c-0.9,0.5-1.9,0.7-2.9,0.6l-0.4,0l0-0.4l0,0c0-0.2,0-0.4,0-0.6
	c0-0.2,0-0.4,0-0.6C62.5,24.2,63,23.2,63.7,22.4L63.7,22.4z M64.4,23.1L64.4,23.1L64.4,23.1c-0.6,0.6-1,1.4-1.1,2.1
	c0,0.2,0,0.3,0,0.5l0,0.1c0.6,0,1.3-0.2,1.9-0.5c0.1-0.1,0.3-0.2,0.4-0.3c0.1-0.1,0.3-0.2,0.4-0.3l0,0l0,0c0.6-0.6,1-1.3,1.1-2.1
	c0-0.2,0-0.3,0-0.5l0-0.1c-0.6,0-1.3,0.2-1.9,0.5c-0.1,0.1-0.3,0.2-0.4,0.3C64.7,22.9,64.5,23,64.4,23.1L64.4,23.1z"/>
<g id="g16">
	<path id="path18" class="st3" d="M61.6,11.2L61.6,11.2L61.6,11.2c0,0.1,0,0.2-0.1,0.2c0,0.1,0,0.1,0,0.2c-0.1,0.4-0.1,0.8-0.1,1.2
		v0h0c0,1.1,0.3,2.1,0.7,3.1v0c0.1,0.2,0.2,0.3,0.2,0.4c0.4,0.6,0.8,1.2,1.3,1.7c0.1-0.1,0.2-0.2,0.3-0.3c0.2-0.2,0.4-0.4,0.5-0.7
		c0.9-1.2,1.4-2.7,1.4-4.3h0v0c0-0.3,0-0.6-0.1-0.9l0,0l0-0.1h0c0-0.2-0.1-0.5-0.1-0.7l-0.2-0.9l0.9,0.3l0,0l0,0
		c0.1,0,0.1,0,0.2,0.1h0v0c0.1,0,0.1,0,0.2,0c0.3,0.1,0.6,0.1,0.9,0.1h0v0c1.1,0,2.1-0.5,2.9-1.2C71.1,8.9,71.6,8,71.6,7
		c-0.1,0-0.1,0.1-0.2,0.1c-0.9,0.5-1.9,0.8-2.9,0.8h0v0c-1.1,0-2.1-0.3-3-0.8c-0.1-0.1-0.3-0.2-0.4-0.3c-0.5-0.4-1-0.8-1.4-1.4
		l0,0.1l0-0.1c-0.1,0.1-0.1,0.2-0.2,0.2c-0.2,0.2-0.4,0.4-0.6,0.6c-1.1,1-2.5,1.6-4.1,1.6h0v0c-0.7,0-1.5-0.1-2.1-0.4
		c-0.1,0-0.2-0.1-0.3-0.1C56,7.3,55.8,7.2,55.6,7c0.1,1,0.5,1.9,1.2,2.6c0.7,0.7,1.8,1.2,2.9,1.2v0h0h0v0c0.2,0,0.4,0,0.6-0.1l0,0
		l0.1,0l0,0c0.2,0,0.4-0.1,0.5-0.1l0.8-0.3L61.6,11.2L61.6,11.2z M60.4,12.9c0-0.4,0-0.8,0.1-1.2c-0.3,0-0.5,0.1-0.8,0.1v0h0h0v0
		c-1.4,0-2.7-0.6-3.6-1.5c-0.9-0.9-1.5-2.2-1.5-3.6h0v0c0-0.2,0-0.3,0-0.5v0l0-0.1l0,0l0-0.1v0l0,0l0.1-0.9l0.7,0.6
		c0.4,0.3,0.8,0.6,1.2,0.8c0.1,0,0.2,0.1,0.3,0.1c0.5,0.2,1.1,0.3,1.8,0.3v0h0c1.3,0,2.5-0.5,3.4-1.3c0.2-0.2,0.3-0.3,0.5-0.5
		c0.1-0.2,0.3-0.4,0.4-0.6l0,0l0.1-0.1l0,0l0.1-0.1l0.2-0.5l0.2-0.3l0,0l0,0L63.9,4L64,4.2c0,0.1,0.1,0.1,0.1,0.1l0,0l0.1,0.1l0,0
		c0.4,0.6,0.9,1.1,1.4,1.5c0.1,0.1,0.2,0.2,0.4,0.2c0.7,0.4,1.6,0.7,2.5,0.7v0h0c0.9,0,1.7-0.2,2.5-0.6c0.1-0.1,0.3-0.2,0.4-0.3l0,0
		c0.1-0.1,0.3-0.2,0.4-0.3l0,0l0,0l0.7-0.6L72.6,6c0,0.1,0,0.2,0,0.3l0,0.1v0c0,0.1,0,0.2,0,0.3l0,0v0v0h0c0,1.4-0.6,2.7-1.5,3.6
		c-0.9,0.9-2.2,1.5-3.6,1.5v0h0c-0.3,0-0.5,0-0.8-0.1l0,0v0l0,0.2l0,0c0,0.3,0.1,0.6,0.1,1v0h0c0,1.8-0.6,3.5-1.6,4.8
		c-0.2,0.3-0.4,0.5-0.6,0.8c-0.2,0.2-0.5,0.5-0.7,0.7l0,0l-0.3,0.3l-0.3-0.3c-0.7-0.6-1.4-1.4-1.9-2.2c-0.1-0.2-0.2-0.3-0.3-0.5l0,0
		C60.7,15.4,60.4,14.2,60.4,12.9L60.4,12.9L60.4,12.9L60.4,12.9z M63.9,19.2L63.9,19.2L63.9,19.2z"/>
	<path id="path20" class="st3" d="M32.5,11.2L32.5,11.2L32.5,11.2c0,0.1,0,0.2-0.1,0.2c0,0.1,0,0.1,0,0.2c-0.1,0.4-0.1,0.8-0.1,1.2
		v0h0c0,1.1,0.3,2.1,0.7,3.1v0c0.1,0.2,0.2,0.3,0.2,0.4c0.4,0.6,0.8,1.2,1.3,1.7c0.1-0.1,0.2-0.2,0.3-0.3c0.2-0.2,0.4-0.4,0.5-0.7
		c0.9-1.2,1.4-2.7,1.4-4.3h0v0c0-0.3,0-0.6-0.1-0.9l0,0l0-0.1h0c0-0.2-0.1-0.5-0.1-0.7l-0.2-0.9l0.9,0.3l0,0l0,0
		c0.1,0,0.1,0,0.2,0.1h0v0c0.1,0,0.1,0,0.2,0c0.3,0.1,0.6,0.1,0.9,0.1h0v0c1.1,0,2.1-0.5,2.9-1.2C42,9,42.5,8.1,42.6,7
		c-0.1,0-0.1,0.1-0.2,0.1c-0.9,0.5-1.9,0.8-2.9,0.8h0v0c-1.1,0-2.1-0.3-3-0.8C36.3,7,36.1,6.9,36,6.8c-0.5-0.4-1-0.8-1.4-1.4l0,0.1
		l0-0.1c-0.1,0.1-0.1,0.2-0.2,0.2c-0.2,0.2-0.4,0.4-0.6,0.6c-1.1,1-2.5,1.6-4.1,1.6h0v0c-0.7,0-1.5-0.1-2.1-0.4
		c-0.1,0-0.2-0.1-0.3-0.1C27,7.3,26.7,7.2,26.5,7c0.1,1,0.5,1.9,1.2,2.6c0.7,0.7,1.8,1.2,2.9,1.2v0h0h0v0c0.2,0,0.4,0,0.6-0.1l0,0
		l0.1,0l0,0c0.2,0,0.4-0.1,0.5-0.1l0.8-0.3L32.5,11.2L32.5,11.2z M31.3,12.9c0-0.4,0-0.8,0.1-1.2c-0.3,0-0.5,0.1-0.8,0.1v0h0h0v0
		c-1.4,0-2.7-0.6-3.6-1.5c-0.9-0.9-1.5-2.2-1.5-3.6h0v0c0-0.2,0-0.3,0-0.5v0l0-0.1l0,0l0-0.1v0l0,0l0.1-0.9l0.7,0.6
		c0.4,0.3,0.8,0.6,1.2,0.8c0.1,0,0.2,0.1,0.3,0.1c0.5,0.2,1.1,0.3,1.8,0.3v0h0c1.3,0,2.5-0.5,3.4-1.3c0.2-0.2,0.3-0.3,0.5-0.5
		c0.1-0.2,0.3-0.4,0.4-0.6l0,0L34,4.4l0,0l0.1-0.1l0.2-0.5l0.2-0.3l0,0l0,0L34.9,4L35,4.2C35,4.3,35,4.3,35,4.4l0,0l0.1,0.1l0,0
		C35.5,5.1,36,5.6,36.6,6c0.1,0.1,0.2,0.2,0.4,0.2c0.7,0.4,1.6,0.7,2.5,0.7v0h0c0.9,0,1.7-0.2,2.5-0.6C42,6.2,42.2,6.1,42.3,6l0,0
		c0.1-0.1,0.3-0.2,0.4-0.3l0,0l0,0l0.7-0.6L43.5,6c0,0.1,0,0.2,0,0.3l0,0.1v0c0,0.1,0,0.2,0,0.3l0,0v0v0h0c0,1.4-0.6,2.7-1.5,3.6
		c-0.9,0.9-2.2,1.5-3.6,1.5v0h0c-0.3,0-0.5,0-0.8-0.1l0,0v0l0,0.2l0,0c0,0.3,0.1,0.6,0.1,1v0h0c0,1.8-0.6,3.5-1.6,4.8
		c-0.2,0.3-0.4,0.5-0.6,0.8c-0.2,0.2-0.5,0.5-0.7,0.7l0,0l-0.3,0.3l-0.3-0.3c-0.7-0.6-1.4-1.4-1.9-2.2c-0.1-0.2-0.2-0.3-0.3-0.5l0,0
		C31.6,15.4,31.3,14.2,31.3,12.9L31.3,12.9L31.3,12.9L31.3,12.9z M34.9,19.2L34.9,19.2L34.9,19.2z"/>
</g>
<path id="path22" class="st3" d="M11.1,7.9L11.1,7.9L11.1,7.9C11,7.8,11,7.8,10.9,7.7c0,0-0.1-0.1-0.1-0.2l0,0
	c-0.2-0.3-0.5-0.7-0.8-1l0,0l0,0C9.7,6.3,9.5,6.1,9.3,5.9C9,5.7,8.8,5.6,8.5,5.4c-1.2-0.7-2.5-1-3.8-1c0,0.2,0,0.3,0,0.4
	c0,0.3,0,0.6,0.1,0.9c0.2,1.5,0.9,2.8,2,4l0,0l0,0C6.9,9.8,6.9,9.8,7,9.9c0.1,0.1,0.1,0.1,0.2,0.2c0.3,0.3,0.7,0.5,1,0.7l0.8,0.5
	l-0.8,0.4l0,0c0,0-0.1,0-0.2,0.1c-0.1,0-0.1,0.1-0.2,0.1c-0.3,0.2-0.5,0.4-0.7,0.6l0,0l0,0l0,0c-0.8,0.8-1.2,1.8-1.2,2.9h0
	c0,0.9,0.3,1.9,1,2.7c0-0.1,0-0.1,0.1-0.2c0.3-1,0.8-1.9,1.5-2.6l0,0h0c0.2-0.2,0.4-0.4,0.7-0.6c0.2-0.2,0.5-0.3,0.7-0.5l0,0
	c0.9-0.5,1.9-0.7,2.9-0.7c0.3,0,0.6,0,0.9,0.1c0-0.1,0-0.3-0.1-0.4c0-0.3,0-0.6,0-0.9c0.1-1.5,0.6-2.9,1.8-4l0,0l0,0h0
	c0.1-0.1,0.3-0.3,0.5-0.4l0,0l0,0c0.2-0.1,0.3-0.3,0.5-0.4c0.6-0.4,1.2-0.6,1.9-0.8c-0.8-0.7-1.7-1-2.7-1c-1,0-2.1,0.4-2.9,1.2l0,0
	l0,0l0,0c-0.1,0.1-0.1,0.1-0.1,0.1v0c0,0-0.1,0.1-0.1,0.1h0c-0.2,0.2-0.4,0.5-0.5,0.8l-0.4,0.8L11.1,7.9L11.1,7.9z M10.7,5.8
	c0.3,0.3,0.5,0.6,0.8,0.9c0.1-0.1,0.1-0.2,0.2-0.3l0,0c0-0.1,0.1-0.1,0.2-0.2l0,0c0.1-0.1,0.1-0.1,0.2-0.2l0,0l0,0h0
	c1-1,2.3-1.5,3.6-1.5c1.3,0,2.6,0.5,3.6,1.5h0l0,0l0,0c0.1,0.1,0.2,0.3,0.3,0.4l0,0l0.1,0.1l0,0l0.1,0.1l0,0l0,0l0.5,0.7l-0.9,0.1
	c-0.8,0.1-1.6,0.3-2.3,0.8c-0.1,0.1-0.3,0.2-0.4,0.3l0,0c-0.1,0.1-0.3,0.2-0.4,0.3l0,0l0,0h0c-0.9,0.9-1.4,2.1-1.5,3.4
	c0,0.2,0,0.5,0,0.7c0.1,0.6,0.3,1.3,0.4,1.8c-0.9-0.3-1.9-0.5-2.8-0.4c-0.7,0.1-1.3,0.2-1.9,0.6h0c-0.2,0.1-0.4,0.2-0.6,0.4
	c-0.2,0.1-0.4,0.3-0.6,0.5l0,0l0,0c-0.6,0.6-1.1,1.4-1.3,2.2c0,0.2-0.1,0.3-0.1,0.5c0,0.1,0,0.3-0.1,0.5l0,0l-0.1,0.9l-0.7-0.5
	c-0.1-0.1-0.3-0.2-0.4-0.3l0,0L6.5,19l0,0l-0.1-0.1l0,0l0,0l0,0v0c-1-1-1.5-2.3-1.5-3.6h0c0-1.3,0.5-2.6,1.5-3.6v0l0,0h0
	c0.2-0.2,0.4-0.4,0.6-0.5c-0.2-0.1-0.3-0.3-0.5-0.4c-0.1-0.1-0.1-0.1-0.2-0.2c-0.1-0.1-0.1-0.1-0.2-0.2h0l0,0
	c-1.3-1.3-2-2.9-2.3-4.5c-0.1-0.3-0.1-0.6-0.1-1c0-0.3,0-0.7,0-1l0,0l0-0.4l0.4,0C5.9,3.3,7.6,3.7,9,4.6c0.3,0.2,0.6,0.4,0.8,0.6
	C10.2,5.3,10.4,5.6,10.7,5.8L10.7,5.8L10.7,5.8L10.7,5.8z"/>
<path id="path24" class="st3" d="M15.9,21.5c0.3,0.1,0.5,0.2,0.7,0.3c0.2,0.2,0.4,0.4,0.6,0.7c0.4,0.9,0.3,2-0.4,2.8
	c-0.4,0.5-0.9,0.8-1.6,0.9c-0.1,0-0.1,0-0.2,0c-2,0.2-3.7-1.3-4-3.3l0,0v0l0,0c0-0.1,0-0.3,0-0.4c0-0.1,0-0.3,0-0.4
	c0-0.7,0.3-1.5,0.6-2.2l0,0l0,0l0,0c0.1-0.2,0.3-0.5,0.5-0.7c0.2-0.2,0.4-0.4,0.6-0.6c1-0.9,2.4-1.6,4.2-1.9
	c0.2-1.8,0.9-3.2,1.9-4.2c0.2-0.2,0.4-0.4,0.6-0.6c0.2-0.2,0.5-0.3,0.7-0.5l0,0l0,0l0,0c0.7-0.4,1.4-0.6,2.2-0.6c0.1,0,0.3,0,0.4,0
	c0.1,0,0.3,0,0.4,0l0,0h0l0,0c2,0.3,3.5,2,3.3,4c0,0.1,0,0.1,0,0.2c-0.1,0.7-0.4,1.2-0.9,1.6c-0.8,0.6-1.9,0.8-2.8,0.4
	c-0.3-0.1-0.5-0.3-0.7-0.6c-0.2-0.2-0.3-0.5-0.3-0.7c-0.2-0.8,0.6-1.9,1.4-1.6c-0.3,0.2-0.5,0.6-0.5,0.9c0,0.2,0,0.3,0,0.5
	c0,0.1,0.1,0.3,0.2,0.4c0.5,0.7,1.6,0.5,2.1-0.1c0.4-0.4,0.5-1,0.5-1.6c-0.1-0.6-0.4-1.2-0.8-1.6c-0.4-0.4-1-0.7-1.6-0.8l0,0h0l0,0
	c-0.1,0-0.2,0-0.3,0c-0.1,0-0.2,0-0.3,0c-0.6,0-1.2,0.2-1.7,0.5l0,0l0,0l0,0c-0.2,0.1-0.4,0.2-0.6,0.4c-0.2,0.1-0.4,0.3-0.5,0.5
	c-0.8,0.8-1.3,1.9-1.6,3.4c0.1,0,0.1,0,0.2,0c1.8,0,4,0.8,5.9,2.3c1.8,1.5,3.2,3.8,3.4,6.9l0,0c0,0.3,0,0.5,0,0.8l0,0.5l-0.5,0
	c-0.3,0-0.6,0-0.8,0l0,0c-3.1-0.2-5.4-1.6-6.9-3.4c-1.5-1.8-2.3-4-2.3-5.9c0-0.1,0-0.1,0-0.2c-1.5,0.2-2.6,0.8-3.4,1.6
	c-0.2,0.2-0.3,0.3-0.5,0.5c-0.1,0.2-0.3,0.4-0.4,0.6l0,0l0,0l0,0c-0.3,0.6-0.5,1.2-0.5,1.7c0,0.1,0,0.2,0,0.3c0,0.1,0,0.2,0,0.3l0,0
	v0l0,0c0.1,0.6,0.4,1.2,0.8,1.6c0.4,0.5,1,0.8,1.6,0.8c0.6,0.1,1.2-0.1,1.6-0.5c0.6-0.6,0.7-1.6,0.1-2.1c-0.1-0.1-0.2-0.1-0.4-0.2
	c-0.1,0-0.3,0-0.5,0c-0.3,0-0.6,0.2-0.9,0.5C14,22.1,15.2,21.3,15.9,21.5L15.9,21.5z M17.9,17.6c0,0.1,0,0.2,0,0.2
	c0,1.6,0.7,3.6,2.1,5.2c1.4,1.6,3.4,2.9,6.2,3l0,0c0.1,0,0.2,0,0.2,0c0-0.1,0-0.2,0-0.2l0,0c-0.2-2.8-1.4-4.8-3-6.2
	c-1.6-1.4-3.6-2.1-5.2-2.1C18,17.6,18,17.6,17.9,17.6L17.9,17.6z"/>
<path id="path26" class="st3" d="M87.1,7.9L87.1,7.9L87.1,7.9c0.1-0.1,0.1-0.2,0.1-0.2c0,0,0.1-0.1,0.1-0.2l0,0
	c0.2-0.3,0.5-0.7,0.8-1l0,0l0,0c0.2-0.2,0.4-0.4,0.7-0.6c0.2-0.2,0.5-0.4,0.7-0.5c1.2-0.7,2.5-1,3.8-1c0,0.2,0,0.3,0,0.4
	c0,0.3,0,0.6-0.1,0.9c-0.2,1.5-0.9,2.8-2,4l0,0l0,0c-0.1,0.1-0.1,0.1-0.2,0.2C91.1,9.9,91,10,91,10.1c-0.3,0.3-0.7,0.5-1,0.7
	l-0.8,0.5l0.8,0.4l0,0c0,0,0.1,0,0.2,0.1c0.1,0,0.1,0.1,0.2,0.1c0.3,0.2,0.5,0.4,0.7,0.6l0,0l0,0l0,0c0.8,0.8,1.2,1.8,1.2,2.9h0
	c0,0.9-0.3,1.9-1,2.7c0-0.1,0-0.1-0.1-0.2c-0.3-1-0.8-1.9-1.5-2.6l0,0h0c-0.2-0.2-0.4-0.4-0.7-0.6c-0.2-0.2-0.5-0.3-0.7-0.5l0,0
	c-0.9-0.5-1.9-0.7-2.9-0.7c-0.3,0-0.6,0-0.9,0.1c0-0.1,0-0.3,0.1-0.4c0-0.3,0-0.6,0-0.9c-0.1-1.5-0.6-2.9-1.8-4l0,0l0,0h0
	c-0.1-0.1-0.3-0.3-0.5-0.4l0,0l0,0c-0.2-0.1-0.3-0.3-0.5-0.4c-0.6-0.4-1.2-0.6-1.9-0.8c0.8-0.7,1.7-1,2.7-1c1,0,2.1,0.4,2.9,1.2l0,0
	l0,0l0,0c0.1,0.1,0.1,0.1,0.1,0.1v0c0,0,0.1,0.1,0.1,0.1h0c0.2,0.2,0.4,0.5,0.5,0.8l0.4,0.8L87.1,7.9L87.1,7.9z M87.5,5.8
	c-0.3,0.3-0.5,0.6-0.8,0.9c-0.1-0.1-0.1-0.2-0.2-0.3l0,0c0-0.1-0.1-0.1-0.2-0.2l0,0c-0.1-0.1-0.1-0.1-0.2-0.2l0,0l0,0h0
	c-1-1-2.3-1.5-3.6-1.5c-1.3,0-2.6,0.5-3.6,1.5h0l0,0l0,0c-0.1,0.1-0.2,0.3-0.3,0.4l0,0l-0.1,0.1l0,0l-0.1,0.1l0,0l0,0L78,7.4
	l0.9,0.1c0.8,0.1,1.6,0.3,2.3,0.8c0.1,0.1,0.3,0.2,0.4,0.3l0,0c0.1,0.1,0.3,0.2,0.4,0.3l0,0l0,0h0c0.9,0.9,1.4,2.1,1.5,3.4
	c0,0.2,0,0.5,0,0.7c-0.1,0.6-0.3,1.3-0.4,1.8c0.9-0.3,1.9-0.5,2.8-0.4c0.7,0.1,1.3,0.2,1.9,0.6h0c0.2,0.1,0.4,0.2,0.6,0.4
	c0.2,0.1,0.4,0.3,0.6,0.5l0,0l0,0c0.6,0.6,1.1,1.4,1.3,2.2c0,0.2,0.1,0.3,0.1,0.5c0,0.1,0,0.3,0.1,0.5l0,0l0.1,0.9l0.7-0.5
	c0.1-0.1,0.3-0.2,0.4-0.3l0,0l0.1-0.1l0,0l0.1-0.1l0,0l0,0l0,0v0c1-1,1.5-2.3,1.5-3.6h0c0-1.3-0.5-2.6-1.5-3.6v0l0,0h0
	c-0.2-0.2-0.4-0.4-0.6-0.5c0.2-0.1,0.3-0.3,0.5-0.4c0.1-0.1,0.1-0.1,0.2-0.2c0.1-0.1,0.1-0.1,0.2-0.2h0l0,0c1.3-1.3,2-2.9,2.3-4.5
	c0.1-0.3,0.1-0.6,0.1-1c0-0.3,0-0.7,0-1l0,0l0-0.4l-0.4,0c-1.7-0.1-3.4,0.2-4.9,1.1c-0.3,0.2-0.6,0.4-0.8,0.6
	C88,5.3,87.7,5.6,87.5,5.8L87.5,5.8L87.5,5.8L87.5,5.8z"/>
<path id="path28" class="st3" d="M34.3,22.8L34.3,22.8L34.3,22.8c-0.2-0.2-0.3-0.3-0.5-0.4c-0.2-0.1-0.3-0.2-0.5-0.3
	c-0.9-0.5-1.9-0.7-2.9-0.6l-0.4,0l0,0.4l0,0c0,0.2,0,0.4,0,0.6c0,0.2,0,0.4,0,0.6c0.1,1,0.6,1.9,1.3,2.7l0,0h0
	c0.2,0.1,0.3,0.3,0.5,0.4c0.2,0.1,0.3,0.2,0.5,0.3c0.9,0.5,1.9,0.7,2.9,0.6l0.4,0l0-0.4l0,0c0-0.2,0-0.4,0-0.6c0-0.2,0-0.4,0-0.6
	C35.5,24.5,35,23.6,34.3,22.8L34.3,22.8z M33.6,23.5L33.6,23.5L33.6,23.5c0.6,0.6,1,1.4,1.1,2.1c0,0.2,0,0.3,0,0.5l0,0.1
	c-0.6,0-1.3-0.2-1.9-0.5c-0.1-0.1-0.3-0.2-0.4-0.3c-0.1-0.1-0.3-0.2-0.4-0.3l0,0l0,0c-0.6-0.6-1-1.3-1.1-2.1c0-0.2,0-0.3,0-0.5
	l0-0.1c0.6,0,1.3,0.2,1.9,0.5c0.1,0.1,0.3,0.2,0.4,0.3C33.3,23.3,33.4,23.4,33.6,23.5L33.6,23.5z"/>
<path id="path30" class="st4" d="M52.4,1.2c0,1.8-1.5,3.3-3.3,3.3c-1.8,0-3.3-1.5-3.3-3.3"/>
<path id="path32" class="st3" d="M52.9,1.2L52.9,1.2L52.9,1.2c0,1.1-0.4,2-1.1,2.7C51.1,4.6,50.1,5,49.1,5v0h0h0v0
	c-1.1,0-2-0.4-2.7-1.1c-0.7-0.7-1.1-1.6-1.1-2.7h0v0h1v0h0c0,0.8,0.3,1.5,0.8,2c0.5,0.5,1.2,0.8,2,0.8v0h0h0v0c0.8,0,1.5-0.3,2-0.8
	c0.5-0.5,0.8-1.2,0.8-2h0v0L52.9,1.2L52.9,1.2z"/>
<path id="path34" class="st4" d="M79.3,1.2c0,1.8-1.5,3.3-3.3,3.3c-1.8,0-3.3-1.5-3.3-3.3"/>
<path id="path36" class="st3" d="M79.8,1.2L79.8,1.2L79.8,1.2c0,1.1-0.4,2-1.1,2.7C77.9,4.6,77,5,75.9,5v0h0h0v0
	c-1.1,0-2-0.4-2.7-1.1c-0.7-0.7-1.1-1.6-1.1-2.7h0v0h1v0h0c0,0.8,0.3,1.5,0.8,2c0.5,0.5,1.2,0.8,2,0.8v0h0h0v0c0.8,0,1.5-0.3,2-0.8
	c0.5-0.5,0.8-1.2,0.8-2h0v0L79.8,1.2L79.8,1.2z"/>
<path id="path38" class="st4" d="M25.1,1.2c0,1.8-1.5,3.3-3.3,3.3c-1.8,0-3.3-1.5-3.3-3.3"/>
<path id="path40" class="st3" d="M25.6,1.2L25.6,1.2L25.6,1.2c0,1.1-0.4,2-1.1,2.7C23.8,4.6,22.8,5,21.8,5v0h0h0v0
	c-1.1,0-2-0.4-2.7-1.1c-0.7-0.7-1.1-1.6-1.1-2.7h0v0h1v0h0c0,0.8,0.3,1.5,0.8,2C20.3,3.7,21,4,21.7,4v0h0h0v0c0.8,0,1.5-0.3,2-0.8
	c0.5-0.5,0.8-1.2,0.8-2h0v0L25.6,1.2L25.6,1.2z"/>
<path id="path42" class="st3" d="M82.6,21.5c-0.3,0.1-0.5,0.2-0.7,0.3c-0.2,0.2-0.4,0.4-0.6,0.7c-0.4,0.9-0.3,2,0.4,2.8
	c0.4,0.5,0.9,0.8,1.6,0.9c0.1,0,0.1,0,0.2,0c2,0.2,3.7-1.3,4-3.3l0,0v0l0,0c0-0.1,0-0.3,0-0.4c0-0.1,0-0.3,0-0.4
	c0-0.7-0.3-1.5-0.6-2.2l0,0l0,0l0,0c-0.1-0.2-0.3-0.5-0.5-0.7c-0.2-0.2-0.4-0.4-0.6-0.6c-1-0.9-2.4-1.6-4.2-1.9
	c-0.2-1.8-0.9-3.2-1.9-4.2c-0.2-0.2-0.4-0.4-0.6-0.6c-0.2-0.2-0.5-0.3-0.7-0.5l0,0l0,0l0,0c-0.7-0.4-1.4-0.6-2.2-0.6
	c-0.1,0-0.3,0-0.4,0c-0.1,0-0.3,0-0.4,0l0,0h0l0,0c-2,0.3-3.5,2-3.3,4c0,0.1,0,0.1,0,0.2c0.1,0.7,0.4,1.2,0.9,1.6
	c0.8,0.6,1.9,0.8,2.8,0.4c0.3-0.1,0.5-0.3,0.7-0.6c0.2-0.2,0.3-0.5,0.3-0.7c0.2-0.8-0.6-1.9-1.4-1.6c0.3,0.2,0.5,0.6,0.5,0.9
	c0,0.2,0,0.3,0,0.5c0,0.1-0.1,0.3-0.2,0.4c-0.5,0.7-1.6,0.5-2.1-0.1c-0.4-0.4-0.5-1-0.5-1.6c0.1-0.6,0.4-1.2,0.8-1.6
	c0.4-0.4,1-0.7,1.6-0.8l0,0h0l0,0c0.1,0,0.2,0,0.3,0c0.1,0,0.2,0,0.3,0c0.6,0,1.2,0.2,1.7,0.5l0,0l0,0l0,0c0.2,0.1,0.4,0.2,0.6,0.4
	c0.2,0.1,0.4,0.3,0.5,0.5c0.8,0.8,1.3,1.9,1.6,3.4c-0.1,0-0.1,0-0.2,0c-1.8,0-4,0.8-5.9,2.3c-1.8,1.5-3.2,3.8-3.4,6.9l0,0
	c0,0.3,0,0.5,0,0.8l0,0.5l0.5,0c0.3,0,0.6,0,0.8,0l0,0c3.1-0.2,5.4-1.6,6.9-3.4c1.5-1.8,2.3-4,2.3-5.9c0-0.1,0-0.1,0-0.2
	c1.5,0.2,2.6,0.8,3.4,1.6c0.2,0.2,0.3,0.3,0.5,0.5c0.1,0.2,0.3,0.4,0.4,0.6l0,0l0,0l0,0c0.3,0.6,0.5,1.2,0.5,1.7c0,0.1,0,0.2,0,0.3
	c0,0.1,0,0.2,0,0.3l0,0v0l0,0c-0.1,0.6-0.4,1.2-0.8,1.6c-0.4,0.5-1,0.8-1.6,0.8c-0.6,0.1-1.2-0.1-1.6-0.5c-0.6-0.6-0.7-1.6-0.1-2.1
	c0.1-0.1,0.2-0.1,0.4-0.2c0.1,0,0.3,0,0.5,0c0.3,0,0.6,0.2,0.9,0.5C84.6,22.1,83.4,21.3,82.6,21.5L82.6,21.5z M80.7,17.6
	c0,0.1,0,0.2,0,0.2c0,1.6-0.7,3.6-2.1,5.2c-1.4,1.6-3.4,2.9-6.2,3l0,0c-0.1,0-0.2,0-0.2,0c0-0.1,0-0.2,0-0.2l0,0
	c0.2-2.8,1.4-4.8,3-6.2c1.6-1.4,3.6-2.1,5.2-2.1C80.5,17.6,80.6,17.6,80.7,17.6L80.7,17.6z"/>
<path id="path44" class="st3" d="M49.1,90.5l0.3-0.3c0.2-0.2,0.5-0.5,0.7-0.7c2.5-2.8,3.3-6.1,3.1-9c-0.2-2.9-1.5-5.6-3.1-7.2
	c-0.1-0.1-0.2-0.2-0.2-0.2c0.1-0.1,0.3-0.2,0.4-0.3c0.4-0.2,0.7-0.5,1.1-0.6c1.8-0.9,3.5-1,5-0.6l0,0c0.3,0.1,0.6,0.2,0.9,0.3
	c0.3,0.1,0.5,0.3,0.8,0.4c0.7,0.5,1.2,1.1,1.5,1.9c0.7,1.7,0.1,4.5-2.1,4.7c-1.1,0.1-1.8-0.4-2.2-1c-0.2-0.3-0.2-0.6-0.2-0.9
	c0-0.3,0.1-0.6,0.2-0.8c0.3-0.5,0.8-0.8,1.8-0.7c-0.1-1-2-0.8-2.6,0.2c-0.2,0.4-0.3,0.9-0.3,1.3c0,0.5,0.1,0.9,0.4,1.3
	c0.5,0.9,1.6,1.6,3.1,1.5c2.8-0.2,3.7-3.4,3-5.7c-0.3-1.1-1-2-1.9-2.6c-0.3-0.2-0.6-0.4-0.9-0.5c-0.3-0.2-0.7-0.3-1-0.4l0,0
	c-1.7-0.5-3.7-0.3-5.7,0.7c-0.4,0.2-0.8,0.4-1.2,0.7c-0.2,0.1-0.4,0.3-0.6,0.4l0,0l0,0c-0.2-0.2-0.4-0.3-0.6-0.4
	c-0.4-0.3-0.8-0.5-1.2-0.7c-2-1-4-1.2-5.7-0.7l0,0c-0.4,0.1-0.7,0.2-1,0.4c-0.3,0.2-0.6,0.3-0.9,0.5c-0.8,0.5-1.4,1.3-1.7,2.1
	c-1,2.3-0.2,6,2.8,6.2c1.5,0.1,2.6-0.6,3.1-1.5c0.2-0.4,0.4-0.9,0.4-1.3c0-0.5-0.1-0.9-0.3-1.3c-0.6-1.1-2.6-1.2-2.6-0.2
	c0.9-0.1,1.5,0.2,1.8,0.7c0.1,0.2,0.2,0.5,0.2,0.8c0,0.3-0.1,0.6-0.2,0.9c-0.3,0.6-1.1,1.1-2.2,1c-2.4-0.2-2.8-3.3-1.9-5
	c0.3-0.6,0.8-1.1,1.3-1.5c0.2-0.2,0.5-0.3,0.8-0.4c0.3-0.1,0.6-0.2,0.9-0.3l0,0c1.4-0.4,3.2-0.3,5,0.6c0.4,0.2,0.7,0.4,1.1,0.6
	c0.1,0.1,0.3,0.2,0.4,0.3c-0.1,0.1-0.2,0.2-0.2,0.2c-1.6,1.6-2.8,4.2-3.1,7.2c-0.2,2.9,0.5,6.2,3.1,9c0.2,0.3,0.5,0.5,0.7,0.7
	L49.1,90.5L49.1,90.5z M49.1,73.7L49.1,73.7c0.1,0.1,0.2,0.2,0.3,0.3c1.4,1.5,2.6,3.9,2.8,6.6c0.2,2.7-0.5,5.7-2.8,8.3
	c-0.1,0.1-0.2,0.2-0.3,0.3l0,0l0,0c-0.1-0.1-0.2-0.2-0.3-0.3c-2.3-2.6-3-5.6-2.8-8.3c0.2-2.7,1.4-5.1,2.8-6.6
	C48.9,73.9,49,73.8,49.1,73.7L49.1,73.7L49.1,73.7z"/>
<path id="path46" class="st3" d="M63.7,75L63.7,75L63.7,75c0.2,0.2,0.3,0.3,0.5,0.4c0.2,0.1,0.3,0.2,0.5,0.3
	c0.9,0.5,1.9,0.7,2.9,0.6l0.4,0l0-0.4l0,0c0-0.2,0-0.4,0-0.6c0-0.2,0-0.4,0-0.6c-0.1-1-0.6-1.9-1.3-2.7l0,0h0
	c-0.2-0.1-0.3-0.3-0.5-0.4c-0.2-0.1-0.3-0.2-0.5-0.3c-0.9-0.5-1.9-0.7-2.9-0.6l-0.4,0l0,0.4l0,0c0,0.2,0,0.4,0,0.6
	c0,0.2,0,0.4,0,0.6C62.5,73.3,63,74.2,63.7,75L63.7,75z M64.4,74.3L64.4,74.3L64.4,74.3c-0.6-0.6-1-1.4-1.1-2.1c0-0.2,0-0.3,0-0.5
	l0-0.1c0.6,0,1.3,0.2,1.9,0.5c0.1,0.1,0.3,0.2,0.4,0.3c0.1,0.1,0.3,0.2,0.4,0.3l0,0l0,0c0.6,0.6,1,1.3,1.1,2.1c0,0.2,0,0.3,0,0.5
	l0,0.1c-0.6,0-1.3-0.2-1.9-0.5c-0.1-0.1-0.3-0.2-0.4-0.3C64.7,74.5,64.5,74.4,64.4,74.3L64.4,74.3z"/>
<g id="g48">
	<path id="path50" class="st3" d="M61.6,86.3L61.6,86.3L61.6,86.3c0-0.1,0-0.2-0.1-0.2c0-0.1,0-0.1,0-0.2c-0.1-0.4-0.1-0.8-0.1-1.2
		v0h0c0-1.1,0.3-2.1,0.7-3.1v0c0.1-0.2,0.2-0.3,0.2-0.4c0.4-0.6,0.8-1.2,1.3-1.7c0.1,0.1,0.2,0.2,0.3,0.3c0.2,0.2,0.4,0.4,0.5,0.7
		c0.9,1.2,1.4,2.7,1.4,4.3h0v0c0,0.3,0,0.6-0.1,0.9l0,0l0,0.1h0c0,0.2-0.1,0.5-0.1,0.7l-0.2,0.9l0.9-0.3l0,0l0,0
		c0.1,0,0.1,0,0.2-0.1h0v0c0.1,0,0.1,0,0.2,0c0.3-0.1,0.6-0.1,0.9-0.1h0v0c1.1,0,2.1,0.5,2.9,1.2c0.7,0.7,1.1,1.6,1.2,2.6
		c-0.1,0-0.1-0.1-0.2-0.1c-0.9-0.5-1.9-0.8-2.9-0.8h0v0c-1.1,0-2.1,0.3-3,0.8c-0.1,0.1-0.3,0.2-0.4,0.3c-0.5,0.4-1,0.8-1.4,1.4
		l0-0.1l0,0.1c-0.1-0.1-0.1-0.2-0.2-0.2c-0.2-0.2-0.4-0.4-0.6-0.6c-1.1-1-2.5-1.6-4.1-1.6h0v0c-0.7,0-1.5,0.1-2.1,0.4
		c-0.1,0-0.2,0.1-0.3,0.1c-0.2,0.1-0.5,0.2-0.7,0.4c0.1-1,0.5-1.9,1.2-2.6c0.7-0.7,1.8-1.2,2.9-1.2v0h0h0v0c0.2,0,0.4,0,0.6,0.1l0,0
		l0.1,0l0,0c0.2,0,0.4,0.1,0.5,0.1l0.8,0.3L61.6,86.3L61.6,86.3z M60.4,84.5c0,0.4,0,0.8,0.1,1.2c-0.3,0-0.5-0.1-0.8-0.1v0h0h0v0
		c-1.4,0-2.7,0.6-3.6,1.5c-0.9,0.9-1.5,2.2-1.5,3.6h0v0c0,0.2,0,0.3,0,0.5v0l0,0.1l0,0l0,0.1v0l0,0l0.1,0.9l0.7-0.6
		c0.4-0.3,0.8-0.6,1.2-0.8c0.1,0,0.2-0.1,0.3-0.1c0.5-0.2,1.1-0.3,1.8-0.3v0h0c1.3,0,2.5,0.5,3.4,1.3c0.2,0.2,0.3,0.3,0.5,0.5
		c0.1,0.2,0.3,0.4,0.4,0.6l0,0l0.1,0.1l0,0l0.1,0.1l0.2,0.5l0.2,0.3l0,0l0,0l0.3-0.6l0.1-0.2c0-0.1,0.1-0.1,0.1-0.1l0,0l0.1-0.1l0,0
		c0.4-0.6,0.9-1.1,1.4-1.5c0.1-0.1,0.2-0.2,0.4-0.2c0.7-0.4,1.6-0.7,2.5-0.7v0h0c0.9,0,1.7,0.2,2.5,0.6c0.1,0.1,0.3,0.2,0.4,0.3l0,0
		c0.1,0.1,0.3,0.2,0.4,0.3l0,0l0,0l0.7,0.6l0.1-0.9c0-0.1,0-0.2,0-0.3l0-0.1v0c0-0.1,0-0.2,0-0.3l0,0v0v0h0c0-1.4-0.6-2.7-1.5-3.6
		c-0.9-0.9-2.2-1.5-3.6-1.5v0h0c-0.3,0-0.5,0-0.8,0.1l0,0v0l0-0.2l0,0c0-0.3,0.1-0.6,0.1-1v0h0c0-1.8-0.6-3.5-1.6-4.8
		c-0.2-0.3-0.4-0.5-0.6-0.8c-0.2-0.2-0.5-0.5-0.7-0.7l0,0L63.6,78l-0.3,0.3c-0.7,0.6-1.4,1.4-1.9,2.2c-0.1,0.2-0.2,0.3-0.3,0.5l0,0
		C60.7,82.1,60.4,83.3,60.4,84.5L60.4,84.5L60.4,84.5L60.4,84.5z M63.9,78.3L63.9,78.3L63.9,78.3z"/>
	<path id="path52" class="st3" d="M32.5,86.2L32.5,86.2L32.5,86.2c0-0.1,0-0.2-0.1-0.2c0-0.1,0-0.1,0-0.2c-0.1-0.4-0.1-0.8-0.1-1.2
		v0h0c0-1.1,0.3-2.1,0.7-3.1v0c0.1-0.2,0.2-0.3,0.2-0.4c0.4-0.6,0.8-1.2,1.3-1.7c0.1,0.1,0.2,0.2,0.3,0.3c0.2,0.2,0.4,0.4,0.5,0.7
		c0.9,1.2,1.4,2.7,1.4,4.3h0v0c0,0.3,0,0.6-0.1,0.9l0,0l0,0.1h0c0,0.2-0.1,0.5-0.1,0.7l-0.2,0.9l0.9-0.3l0,0l0,0
		c0.1,0,0.1,0,0.2-0.1h0v0c0.1,0,0.1,0,0.2,0c0.3-0.1,0.6-0.1,0.9-0.1h0v0c1.1,0,2.1,0.5,2.9,1.2c0.7,0.7,1.1,1.6,1.2,2.6
		c-0.1,0-0.1-0.1-0.2-0.1c-0.9-0.5-1.9-0.8-2.9-0.8h0v0c-1.1,0-2.1,0.3-3,0.8c-0.1,0.1-0.3,0.2-0.4,0.3c-0.5,0.4-1,0.8-1.4,1.4
		l0-0.1l0,0.1c-0.1-0.1-0.1-0.2-0.2-0.2c-0.2-0.2-0.4-0.4-0.6-0.6c-1.1-1-2.5-1.6-4.1-1.6h0v0c-0.7,0-1.5,0.1-2.1,0.4
		c-0.1,0-0.2,0.1-0.3,0.1c-0.2,0.1-0.5,0.2-0.7,0.4c0.1-1,0.5-1.9,1.2-2.6c0.7-0.7,1.8-1.2,2.9-1.2v0h0h0v0c0.2,0,0.4,0,0.6,0.1l0,0
		l0.1,0l0,0c0.2,0,0.4,0.1,0.5,0.1l0.8,0.3L32.5,86.2L32.5,86.2z M31.3,84.5c0,0.4,0,0.8,0.1,1.2c-0.3,0-0.5-0.1-0.8-0.1v0h0h0v0
		c-1.4,0-2.7,0.6-3.6,1.5c-0.9,0.9-1.5,2.2-1.5,3.6h0v0c0,0.2,0,0.3,0,0.5v0l0,0.1l0,0l0,0.1v0l0,0l0.1,0.9l0.7-0.6
		c0.4-0.3,0.8-0.6,1.2-0.8c0.1,0,0.2-0.1,0.3-0.1c0.5-0.2,1.1-0.3,1.8-0.3v0h0c1.3,0,2.5,0.5,3.4,1.3c0.2,0.2,0.3,0.3,0.5,0.5
		c0.1,0.2,0.3,0.4,0.4,0.6l0,0L34,93l0,0l0.1,0.1l0.2,0.5l0.2,0.3l0,0l0,0l0.3-0.6l0.1-0.2c0-0.1,0.1-0.1,0.1-0.1l0,0l0.1-0.1l0,0
		c0.4-0.6,0.9-1.1,1.4-1.5c0.1-0.1,0.2-0.2,0.4-0.2c0.7-0.4,1.6-0.7,2.5-0.7v0h0c0.9,0,1.7,0.2,2.5,0.6c0.1,0.1,0.3,0.2,0.4,0.3l0,0
		c0.1,0.1,0.3,0.2,0.4,0.3l0,0l0,0l0.7,0.6l0.1-0.9c0-0.1,0-0.2,0-0.3l0-0.1v0c0-0.1,0-0.2,0-0.3l0,0v0v0h0c0-1.4-0.6-2.7-1.5-3.6
		c-0.9-0.9-2.2-1.5-3.6-1.5v0h0c-0.3,0-0.5,0-0.8,0.1l0,0v0l0-0.2l0,0c0-0.3,0.1-0.6,0.1-1v0h0c0-1.8-0.6-3.5-1.6-4.8
		c-0.2-0.3-0.4-0.5-0.6-0.8c-0.2-0.2-0.5-0.5-0.7-0.7l0,0l-0.3-0.3l-0.3,0.3c-0.7,0.6-1.4,1.4-1.9,2.2c-0.1,0.2-0.2,0.3-0.3,0.5l0,0
		C31.6,82,31.3,83.2,31.3,84.5L31.3,84.5L31.3,84.5L31.3,84.5z M34.9,78.2L34.9,78.2L34.9,78.2z"/>
</g>
<path id="path54" class="st3" d="M11.1,89.5L11.1,89.5L11.1,89.5c-0.1,0.1-0.1,0.2-0.1,0.2c0,0-0.1,0.1-0.1,0.2l0,0
	c-0.2,0.3-0.5,0.7-0.8,1l0,0l0,0c-0.2,0.2-0.4,0.4-0.7,0.6C9,91.7,8.8,91.9,8.5,92c-1.2,0.7-2.5,1-3.8,1c0-0.2,0-0.3,0-0.4
	c0-0.3,0-0.6,0.1-0.9c0.2-1.5,0.9-2.8,2-4l0,0l0,0c0.1-0.1,0.1-0.1,0.2-0.2c0.1-0.1,0.1-0.1,0.2-0.2c0.3-0.3,0.7-0.5,1-0.7l0.8-0.5
	l-0.8-0.4l0,0c0,0-0.1,0-0.2-0.1c-0.1,0-0.1-0.1-0.2-0.1c-0.3-0.2-0.5-0.4-0.7-0.6l0,0l0,0l0,0c-0.8-0.8-1.2-1.8-1.2-2.9h0
	c0-0.9,0.3-1.9,1-2.7c0,0.1,0,0.1,0.1,0.2c0.3,1,0.8,1.9,1.5,2.6l0,0h0c0.2,0.2,0.4,0.4,0.7,0.6c0.2,0.2,0.5,0.3,0.7,0.5l0,0
	c0.9,0.5,1.9,0.7,2.9,0.7c0.3,0,0.6,0,0.9-0.1c0,0.1,0,0.3-0.1,0.4c0,0.3,0,0.6,0,0.9c0.1,1.5,0.6,2.9,1.8,4l0,0l0,0h0
	c0.1,0.1,0.3,0.3,0.5,0.4l0,0l0,0c0.2,0.1,0.3,0.3,0.5,0.4c0.6,0.4,1.2,0.6,1.9,0.8c-0.8,0.7-1.7,1-2.7,1c-1,0-2.1-0.4-2.9-1.2l0,0
	l0,0l0,0c-0.1-0.1-0.1-0.1-0.1-0.1v0c0,0-0.1-0.1-0.1-0.1h0c-0.2-0.2-0.4-0.5-0.5-0.8l-0.4-0.8L11.1,89.5L11.1,89.5z M10.7,91.6
	c0.3-0.3,0.5-0.6,0.8-0.9c0.1,0.1,0.1,0.2,0.2,0.3l0,0c0,0.1,0.1,0.1,0.2,0.2l0,0c0.1,0.1,0.1,0.1,0.2,0.2l0,0l0,0h0
	c1,1,2.3,1.5,3.6,1.5c1.3,0,2.6-0.5,3.6-1.5h0l0,0l0,0c0.1-0.1,0.2-0.3,0.3-0.4l0,0l0.1-0.1l0,0l0.1-0.1l0,0l0,0l0.5-0.7L19.3,90
	c-0.8-0.1-1.6-0.3-2.3-0.8c-0.1-0.1-0.3-0.2-0.4-0.3l0,0c-0.1-0.1-0.3-0.2-0.4-0.3l0,0l0,0h0c-0.9-0.9-1.4-2.1-1.5-3.4
	c0-0.2,0-0.5,0-0.7c0.1-0.6,0.3-1.3,0.4-1.8c-0.9,0.3-1.9,0.5-2.8,0.4c-0.7-0.1-1.3-0.2-1.9-0.6h0c-0.2-0.1-0.4-0.2-0.6-0.4
	c-0.2-0.1-0.4-0.3-0.6-0.5l0,0l0,0c-0.6-0.6-1.1-1.4-1.3-2.2c0-0.2-0.1-0.3-0.1-0.5c0-0.1,0-0.3-0.1-0.5l0,0l-0.1-0.9l-0.7,0.5
	c-0.1,0.1-0.3,0.2-0.4,0.3l0,0l-0.1,0.1l0,0l-0.1,0.1l0,0l0,0l0,0v0c-1,1-1.5,2.3-1.5,3.6h0c0,1.3,0.5,2.6,1.5,3.6v0l0,0h0
	c0.2,0.2,0.4,0.4,0.6,0.5c-0.2,0.1-0.3,0.3-0.5,0.4c-0.1,0.1-0.1,0.1-0.2,0.2c-0.1,0.1-0.1,0.1-0.2,0.2h0l0,0
	c-1.3,1.3-2,2.9-2.3,4.5c-0.1,0.3-0.1,0.6-0.1,1c0,0.3,0,0.7,0,1l0,0l0,0.4l0.4,0c1.7,0.1,3.4-0.2,4.9-1.1c0.3-0.2,0.6-0.4,0.8-0.6
	C10.2,92.1,10.4,91.8,10.7,91.6L10.7,91.6L10.7,91.6L10.7,91.6z"/>
<path id="path56" class="st3" d="M15.9,75.9c0.3-0.1,0.5-0.2,0.7-0.3c0.2-0.2,0.4-0.4,0.6-0.7c0.4-0.9,0.3-2-0.4-2.8
	c-0.4-0.5-0.9-0.8-1.6-0.9c-0.1,0-0.1,0-0.2,0c-2-0.2-3.7,1.3-4,3.3l0,0v0l0,0c0,0.1,0,0.3,0,0.4c0,0.1,0,0.3,0,0.4
	c0,0.7,0.3,1.5,0.6,2.2l0,0l0,0l0,0c0.1,0.2,0.3,0.5,0.5,0.7c0.2,0.2,0.4,0.4,0.6,0.6c1,0.9,2.4,1.6,4.2,1.9
	c0.2,1.8,0.9,3.2,1.9,4.2c0.2,0.2,0.4,0.4,0.6,0.6c0.2,0.2,0.5,0.3,0.7,0.5l0,0l0,0l0,0c0.7,0.4,1.4,0.6,2.2,0.6c0.1,0,0.3,0,0.4,0
	c0.1,0,0.3,0,0.4,0l0,0h0l0,0c2-0.3,3.5-2,3.3-4c0-0.1,0-0.1,0-0.2c-0.1-0.7-0.4-1.2-0.9-1.6c-0.8-0.6-1.9-0.8-2.8-0.4
	c-0.3,0.1-0.5,0.3-0.7,0.6c-0.2,0.2-0.3,0.5-0.3,0.7c-0.2,0.8,0.6,1.9,1.4,1.6c-0.3-0.2-0.5-0.6-0.5-0.9c0-0.2,0-0.3,0-0.5
	c0-0.1,0.1-0.3,0.2-0.4c0.5-0.7,1.6-0.5,2.1,0.1c0.4,0.4,0.5,1,0.5,1.6c-0.1,0.6-0.4,1.2-0.8,1.6c-0.4,0.4-1,0.7-1.6,0.8l0,0h0l0,0
	c-0.1,0-0.2,0-0.3,0c-0.1,0-0.2,0-0.3,0c-0.6,0-1.2-0.2-1.7-0.5l0,0l0,0l0,0c-0.2-0.1-0.4-0.2-0.6-0.4c-0.2-0.1-0.4-0.3-0.5-0.5
	c-0.8-0.8-1.3-1.9-1.6-3.4c0.1,0,0.1,0,0.2,0c1.8,0,4-0.8,5.9-2.3c1.8-1.5,3.2-3.8,3.4-6.9l0,0c0-0.3,0-0.5,0-0.8l0-0.5l-0.5,0
	c-0.3,0-0.6,0-0.8,0l0,0c-3.1,0.2-5.4,1.6-6.9,3.4c-1.5,1.8-2.3,4-2.3,5.9c0,0.1,0,0.1,0,0.2c-1.5-0.2-2.6-0.8-3.4-1.6
	c-0.2-0.2-0.3-0.3-0.5-0.5c-0.1-0.2-0.3-0.4-0.4-0.6l0,0l0,0l0,0c-0.3-0.6-0.5-1.2-0.5-1.7c0-0.1,0-0.2,0-0.3c0-0.1,0-0.2,0-0.3l0,0
	v0l0,0c0.1-0.6,0.4-1.2,0.8-1.6c0.4-0.5,1-0.8,1.6-0.8c0.6-0.1,1.2,0.1,1.6,0.5c0.6,0.6,0.7,1.6,0.1,2.1c-0.1,0.1-0.2,0.1-0.4,0.2
	c-0.1,0-0.3,0-0.5,0c-0.3,0-0.6-0.2-0.9-0.5C14,75.3,15.2,76.1,15.9,75.9L15.9,75.9z M17.9,79.8c0-0.1,0-0.2,0-0.2
	c0-1.6,0.7-3.6,2.1-5.2c1.4-1.6,3.4-2.9,6.2-3l0,0c0.1,0,0.2,0,0.2,0c0,0.1,0,0.2,0,0.2l0,0c-0.2,2.8-1.4,4.8-3,6.2
	c-1.6,1.4-3.6,2.1-5.2,2.1C18,79.8,18,79.8,17.9,79.8L17.9,79.8z"/>
<path id="path58" class="st3" d="M87.1,89.5L87.1,89.5L87.1,89.5c0.1,0.1,0.1,0.2,0.1,0.2c0,0,0.1,0.1,0.1,0.2l0,0
	c0.2,0.3,0.5,0.7,0.8,1l0,0l0,0c0.2,0.2,0.4,0.4,0.7,0.6c0.2,0.2,0.5,0.4,0.7,0.5c1.2,0.7,2.5,1,3.8,1c0-0.2,0-0.3,0-0.4
	c0-0.3,0-0.6-0.1-0.9c-0.2-1.5-0.9-2.8-2-4l0,0l0,0c-0.1-0.1-0.1-0.1-0.2-0.2c-0.1-0.1-0.1-0.1-0.2-0.2c-0.3-0.3-0.7-0.5-1-0.7
	l-0.8-0.5l0.8-0.4l0,0c0,0,0.1,0,0.2-0.1c0.1,0,0.1-0.1,0.2-0.1c0.3-0.2,0.5-0.4,0.7-0.6l0,0l0,0l0,0c0.8-0.8,1.2-1.8,1.2-2.9h0
	c0-0.9-0.3-1.9-1-2.7c0,0.1,0,0.1-0.1,0.2c-0.3,1-0.8,1.9-1.5,2.6l0,0h0c-0.2,0.2-0.4,0.4-0.7,0.6c-0.2,0.2-0.5,0.3-0.7,0.5l0,0
	c-0.9,0.5-1.9,0.7-2.9,0.7c-0.3,0-0.6,0-0.9-0.1c0,0.1,0,0.3,0.1,0.4c0,0.3,0,0.6,0,0.9c-0.1,1.5-0.6,2.9-1.8,4l0,0l0,0h0
	c-0.1,0.1-0.3,0.3-0.5,0.4l0,0l0,0c-0.2,0.1-0.3,0.3-0.5,0.4c-0.6,0.4-1.2,0.6-1.9,0.8c0.8,0.7,1.7,1,2.7,1c1,0,2.1-0.4,2.9-1.2l0,0
	l0,0l0,0c0.1-0.1,0.1-0.1,0.1-0.1v0c0,0,0.1-0.1,0.1-0.1h0c0.2-0.2,0.4-0.5,0.5-0.8l0.4-0.8L87.1,89.5L87.1,89.5z M87.5,91.6
	c-0.3-0.3-0.5-0.6-0.8-0.9c-0.1,0.1-0.1,0.2-0.2,0.3l0,0c0,0.1-0.1,0.1-0.2,0.2l0,0c-0.1,0.1-0.1,0.1-0.2,0.2l0,0l0,0h0
	c-1,1-2.3,1.5-3.6,1.5c-1.3,0-2.6-0.5-3.6-1.5h0l0,0l0,0c-0.1-0.1-0.2-0.3-0.3-0.4l0,0l-0.1-0.1l0,0l-0.1-0.1l0,0l0,0L78,90.1
	l0.9-0.1c0.8-0.1,1.6-0.3,2.3-0.8c0.1-0.1,0.3-0.2,0.4-0.3l0,0c0.1-0.1,0.3-0.2,0.4-0.3l0,0l0,0h0c0.9-0.9,1.4-2.1,1.5-3.4
	c0-0.2,0-0.5,0-0.7c-0.1-0.6-0.3-1.3-0.4-1.8c0.9,0.3,1.9,0.5,2.8,0.4c0.7-0.1,1.3-0.2,1.9-0.6h0c0.2-0.1,0.4-0.2,0.6-0.4
	c0.2-0.1,0.4-0.3,0.6-0.5l0,0l0,0c0.6-0.6,1.1-1.4,1.3-2.2c0-0.2,0.1-0.3,0.1-0.5c0-0.1,0-0.3,0.1-0.5l0,0l0.1-0.9l0.7,0.5
	c0.1,0.1,0.3,0.2,0.4,0.3l0,0l0.1,0.1l0,0l0.1,0.1l0,0l0,0l0,0v0c1,1,1.5,2.3,1.5,3.6h0c0,1.3-0.5,2.6-1.5,3.6v0l0,0h0
	c-0.2,0.2-0.4,0.4-0.6,0.5c0.2,0.1,0.3,0.3,0.5,0.4c0.1,0.1,0.1,0.1,0.2,0.2c0.1,0.1,0.1,0.1,0.2,0.2h0l0,0c1.3,1.3,2,2.9,2.3,4.5
	c0.1,0.3,0.1,0.6,0.1,1c0,0.3,0,0.7,0,1l0,0l0,0.4L94,94c-1.7,0.1-3.4-0.2-4.9-1.1c-0.3-0.2-0.6-0.4-0.8-0.6
	C88,92.1,87.7,91.8,87.5,91.6L87.5,91.6L87.5,91.6L87.5,91.6z"/>
<path id="path60" class="st3" d="M34.3,74.6L34.3,74.6L34.3,74.6c-0.2,0.2-0.3,0.3-0.5,0.4c-0.2,0.1-0.3,0.2-0.5,0.3
	c-0.9,0.5-1.9,0.7-2.9,0.6l-0.4,0l0-0.4l0,0c0-0.2,0-0.4,0-0.6c0-0.2,0-0.4,0-0.6c0.1-1,0.6-1.9,1.3-2.7l0,0h0
	c0.2-0.1,0.3-0.3,0.5-0.4c0.2-0.1,0.3-0.2,0.5-0.3c0.9-0.5,1.9-0.7,2.9-0.6l0.4,0l0,0.4l0,0c0,0.2,0,0.4,0,0.6c0,0.2,0,0.4,0,0.6
	C35.5,72.9,35,73.9,34.3,74.6L34.3,74.6z M33.6,73.9L33.6,73.9L33.6,73.9c0.6-0.6,1-1.4,1.1-2.1c0-0.2,0-0.3,0-0.5l0-0.1
	c-0.6,0-1.3,0.2-1.9,0.5c-0.1,0.1-0.3,0.2-0.4,0.3c-0.1,0.1-0.3,0.2-0.4,0.3l0,0l0,0c-0.6,0.6-1,1.3-1.1,2.1c0,0.2,0,0.3,0,0.5
	l0,0.1c0.6,0,1.3-0.2,1.9-0.5c0.1-0.1,0.3-0.2,0.4-0.3C33.3,74.1,33.4,74,33.6,73.9L33.6,73.9z"/>
<path id="path62" class="st4" d="M52.4,96.2c0-1.8-1.5-3.3-3.3-3.3c-1.8,0-3.3,1.5-3.3,3.3"/>
<path id="path64" class="st3" d="M52.9,96.2L52.9,96.2L52.9,96.2c0-1.1-0.4-2-1.1-2.7c-0.7-0.7-1.6-1.1-2.7-1.1v0h0h0v0
	c-1.1,0-2,0.4-2.7,1.1c-0.7,0.7-1.1,1.6-1.1,2.7h0v0h1v0h0c0-0.8,0.3-1.5,0.8-2c0.5-0.5,1.2-0.8,2-0.8v0h0h0v0c0.8,0,1.5,0.3,2,0.8
	c0.5,0.5,0.8,1.2,0.8,2h0v0H52.9L52.9,96.2z"/>
<path id="path66" class="st4" d="M79.3,96.2c0-1.8-1.5-3.3-3.3-3.3c-1.8,0-3.3,1.5-3.3,3.3"/>
<path id="path68" class="st3" d="M79.8,96.2L79.8,96.2L79.8,96.2c0-1.1-0.4-2-1.1-2.7c-0.7-0.7-1.6-1.1-2.7-1.1v0h0h0v0
	c-1.1,0-2,0.4-2.7,1.1c-0.7,0.7-1.1,1.6-1.1,2.7h0v0h1v0h0c0-0.8,0.3-1.5,0.8-2c0.5-0.5,1.2-0.8,2-0.8v0h0h0v0c0.8,0,1.5,0.3,2,0.8
	c0.5,0.5,0.8,1.2,0.8,2h0v0H79.8L79.8,96.2z"/>
<path id="path70" class="st4" d="M25.1,96.2c0-1.8-1.5-3.3-3.3-3.3c-1.8,0-3.3,1.5-3.3,3.3"/>
<path id="path72" class="st3" d="M25.6,96.2L25.6,96.2L25.6,96.2c0-1.1-0.4-2-1.1-2.7c-0.7-0.7-1.6-1.1-2.7-1.1v0h0h0v0
	c-1.1,0-2,0.4-2.7,1.1c-0.7,0.7-1.1,1.6-1.1,2.7h0v0h1v0h0c0-0.8,0.3-1.5,0.8-2c0.5-0.5,1.2-0.8,2-0.8v0h0h0v0c0.8,0,1.5,0.3,2,0.8
	c0.5,0.5,0.8,1.2,0.8,2h0v0H25.6L25.6,96.2z"/>
<path id="path74" class="st3" d="M82.6,75.9c-0.3-0.1-0.5-0.2-0.7-0.3c-0.2-0.2-0.4-0.4-0.6-0.7c-0.4-0.9-0.3-2,0.4-2.8
	c0.4-0.5,0.9-0.8,1.6-0.9c0.1,0,0.1,0,0.2,0c2-0.2,3.7,1.3,4,3.3l0,0v0l0,0c0,0.1,0,0.3,0,0.4c0,0.1,0,0.3,0,0.4
	c0,0.7-0.3,1.5-0.6,2.2l0,0l0,0l0,0c-0.1,0.2-0.3,0.5-0.5,0.7c-0.2,0.2-0.4,0.4-0.6,0.6c-1,0.9-2.4,1.6-4.2,1.9
	c-0.2,1.8-0.9,3.2-1.9,4.2c-0.2,0.2-0.4,0.4-0.6,0.6c-0.2,0.2-0.5,0.3-0.7,0.5l0,0l0,0l0,0c-0.7,0.4-1.4,0.6-2.2,0.6
	c-0.1,0-0.3,0-0.4,0c-0.1,0-0.3,0-0.4,0l0,0h0l0,0c-2-0.3-3.5-2-3.3-4c0-0.1,0-0.1,0-0.2c0.1-0.7,0.4-1.2,0.9-1.6
	c0.8-0.6,1.9-0.8,2.8-0.4c0.3,0.1,0.5,0.3,0.7,0.6c0.2,0.2,0.3,0.5,0.3,0.7c0.2,0.8-0.6,1.9-1.4,1.6c0.3-0.2,0.5-0.6,0.5-0.9
	c0-0.2,0-0.3,0-0.5c0-0.1-0.1-0.3-0.2-0.4c-0.5-0.7-1.6-0.5-2.1,0.1c-0.4,0.4-0.5,1-0.5,1.6c0.1,0.6,0.4,1.2,0.8,1.6
	c0.4,0.4,1,0.7,1.6,0.8l0,0h0l0,0c0.1,0,0.2,0,0.3,0c0.1,0,0.2,0,0.3,0c0.6,0,1.2-0.2,1.7-0.5l0,0l0,0l0,0c0.2-0.1,0.4-0.2,0.6-0.4
	c0.2-0.1,0.4-0.3,0.5-0.5c0.8-0.8,1.3-1.9,1.6-3.4c-0.1,0-0.1,0-0.2,0c-1.8,0-4-0.8-5.9-2.3c-1.8-1.5-3.2-3.8-3.4-6.9l0,0
	c0-0.3,0-0.5,0-0.8l0-0.5l0.5,0c0.3,0,0.6,0,0.8,0l0,0c3.1,0.2,5.4,1.6,6.9,3.4c1.5,1.8,2.3,4,2.3,5.9c0,0.1,0,0.1,0,0.2
	c1.5-0.2,2.6-0.8,3.4-1.6c0.2-0.2,0.3-0.3,0.5-0.5c0.1-0.2,0.3-0.4,0.4-0.6l0,0l0,0l0,0c0.3-0.6,0.5-1.2,0.5-1.7c0-0.1,0-0.2,0-0.3
	c0-0.1,0-0.2,0-0.3l0,0v0l0,0c-0.1-0.6-0.4-1.2-0.8-1.6c-0.4-0.5-1-0.8-1.6-0.8c-0.6-0.1-1.2,0.1-1.6,0.5c-0.6,0.6-0.7,1.6-0.1,2.1
	c0.1,0.1,0.2,0.1,0.4,0.2c0.1,0,0.3,0,0.5,0c0.3,0,0.6-0.2,0.9-0.5C84.6,75.3,83.4,76.1,82.6,75.9L82.6,75.9z M80.7,79.8
	c0-0.1,0-0.2,0-0.2c0-1.6-0.7-3.6-2.1-5.2c-1.4-1.6-3.4-2.9-6.2-3l0,0c-0.1,0-0.2,0-0.2,0c0,0.1,0,0.2,0,0.2l0,0
	c0.2,2.8,1.4,4.8,3,6.2c1.6,1.4,3.6,2.1,5.2,2.1C80.5,79.8,80.6,79.8,80.7,79.8L80.7,79.8z"/>
<path id="path76" class="st3" d="M90.9,48.7l-0.3-0.3c-0.2-0.2-0.5-0.5-0.7-0.7c-2.8-2.5-6.1-3.3-9-3.1c-2.9,0.2-5.6,1.5-7.2,3.1
	c-0.1,0.1-0.2,0.2-0.2,0.2c-0.1-0.1-0.2-0.3-0.3-0.4c-0.2-0.4-0.5-0.7-0.6-1.1c-0.9-1.8-1-3.5-0.6-5l0,0c0.1-0.3,0.2-0.6,0.3-0.9
	c0.1-0.3,0.3-0.5,0.4-0.8c0.5-0.7,1.1-1.2,1.9-1.5c1.7-0.7,4.5-0.1,4.7,2.1c0.1,1.1-0.4,1.8-1,2.2c-0.3,0.2-0.6,0.2-0.9,0.2
	c-0.3,0-0.6-0.1-0.8-0.2c-0.5-0.3-0.8-0.8-0.7-1.8c-1,0.1-0.8,2,0.2,2.6c0.4,0.2,0.9,0.3,1.3,0.3c0.5,0,0.9-0.1,1.3-0.4
	c0.9-0.5,1.6-1.6,1.5-3.1c-0.2-2.8-3.4-3.7-5.7-3c-1.1,0.3-2,1-2.6,1.9c-0.2,0.3-0.4,0.6-0.5,0.9c-0.2,0.3-0.3,0.7-0.4,1l0,0
	c-0.5,1.7-0.3,3.7,0.7,5.7c0.2,0.4,0.4,0.8,0.7,1.2c0.1,0.2,0.3,0.4,0.4,0.6l0,0l0,0c-0.2,0.2-0.3,0.4-0.4,0.6
	c-0.3,0.4-0.5,0.8-0.7,1.2c-1,2-1.2,4-0.7,5.7l0,0c0.1,0.4,0.2,0.7,0.4,1c0.2,0.3,0.3,0.6,0.5,0.9c0.5,0.8,1.3,1.4,2.1,1.7
	c2.3,1,6,0.2,6.2-2.8c0.1-1.5-0.6-2.6-1.5-3.1c-0.4-0.2-0.9-0.4-1.3-0.4c-0.5,0-0.9,0.1-1.3,0.3c-1.1,0.6-1.2,2.6-0.2,2.6
	c-0.1-0.9,0.2-1.5,0.7-1.8c0.2-0.1,0.5-0.2,0.8-0.2c0.3,0,0.6,0.1,0.9,0.2c0.6,0.3,1.1,1.1,1,2.2c-0.2,2.4-3.3,2.8-5,1.9
	c-0.6-0.3-1.1-0.8-1.5-1.3c-0.2-0.2-0.3-0.5-0.4-0.8c-0.1-0.3-0.2-0.6-0.3-0.9l0,0c-0.4-1.4-0.3-3.2,0.6-5c0.2-0.4,0.4-0.7,0.6-1.1
	c0.1-0.1,0.2-0.3,0.3-0.4c0.1,0.1,0.2,0.2,0.2,0.2c1.6,1.6,4.2,2.8,7.2,3.1c2.9,0.2,6.2-0.5,9-3.1c0.3-0.2,0.5-0.5,0.7-0.7
	L90.9,48.7L90.9,48.7z M74,48.7L74,48.7c0.1-0.1,0.2-0.2,0.3-0.3c1.5-1.4,3.9-2.6,6.6-2.8c2.7-0.2,5.7,0.5,8.3,2.8
	c0.1,0.1,0.2,0.2,0.3,0.3l0,0l0,0c-0.1,0.1-0.2,0.2-0.3,0.3c-2.6,2.3-5.6,3-8.3,2.8c-2.7-0.2-5.1-1.4-6.6-2.8
	C74.2,48.9,74.1,48.8,74,48.7L74,48.7L74,48.7z"/>
<path id="path78" class="st3" d="M75.3,34.1L75.3,34.1L75.3,34.1c0.2-0.2,0.3-0.3,0.4-0.5c0.1-0.2,0.2-0.3,0.3-0.5
	c0.5-0.9,0.7-1.9,0.6-2.9l0-0.4l-0.4,0l0,0c-0.2,0-0.4,0-0.6,0c-0.2,0-0.4,0-0.6,0c-1,0.1-1.9,0.6-2.7,1.3l0,0v0
	c-0.1,0.2-0.3,0.3-0.4,0.5c-0.1,0.2-0.2,0.3-0.3,0.5C71.1,33,70.9,34,71,35l0,0.4l0.4,0l0,0c0.2,0,0.4,0,0.6,0c0.2,0,0.4,0,0.6,0
	C73.6,35.3,74.6,34.8,75.3,34.1L75.3,34.1z M74.6,33.3L74.6,33.3L74.6,33.3c-0.6,0.6-1.4,1-2.1,1.1c-0.2,0-0.3,0-0.5,0l-0.1,0
	c0-0.6,0.2-1.3,0.5-1.9c0.1-0.1,0.2-0.3,0.3-0.4c0.1-0.1,0.2-0.3,0.3-0.4l0,0l0,0c0.6-0.6,1.3-1,2.1-1.1c0.2,0,0.3,0,0.5,0l0.1,0
	c0,0.6-0.2,1.3-0.5,1.9c-0.1,0.1-0.2,0.3-0.3,0.4C74.9,33.1,74.8,33.2,74.6,33.3L74.6,33.3z"/>
<g id="g80">
	<path id="path82" class="st3" d="M86.7,36.2L86.7,36.2L86.7,36.2c-0.1,0-0.2,0-0.2,0.1c-0.1,0-0.1,0-0.2,0
		c-0.4,0.1-0.8,0.1-1.2,0.1h0v0c-1.1,0-2.1-0.3-3.1-0.7h0c-0.2-0.1-0.3-0.2-0.4-0.2c-0.6-0.4-1.2-0.8-1.7-1.3
		c0.1-0.1,0.2-0.2,0.3-0.3c0.2-0.2,0.4-0.4,0.7-0.5c1.2-0.9,2.7-1.4,4.3-1.4v0h0c0.3,0,0.6,0,0.9,0.1l0,0l0.1,0v0
		c0.2,0,0.5,0.1,0.7,0.1l0.9,0.2l-0.3-0.9l0,0l0,0c0-0.1,0-0.1-0.1-0.2v0h0c0-0.1,0-0.1,0-0.2c-0.1-0.3-0.1-0.6-0.1-0.9v0h0
		c0-1.1,0.5-2.1,1.2-2.9c0.7-0.7,1.6-1.1,2.6-1.2c0,0.1-0.1,0.1-0.1,0.2c-0.5,0.9-0.8,1.9-0.8,2.9v0h0c0,1.1,0.3,2.1,0.8,3
		c0.1,0.1,0.2,0.3,0.3,0.4c0.4,0.5,0.8,1,1.4,1.4l-0.1,0l0.1,0c-0.1,0.1-0.2,0.1-0.2,0.2c-0.2,0.2-0.4,0.4-0.6,0.6
		c-1,1.1-1.6,2.5-1.6,4.1v0h0c0,0.7,0.1,1.5,0.4,2.1c0,0.1,0.1,0.2,0.1,0.3c0.1,0.2,0.2,0.5,0.4,0.7c-1-0.1-1.9-0.5-2.6-1.2
		c-0.7-0.7-1.2-1.8-1.2-2.9h0v0v0h0c0-0.2,0-0.4,0.1-0.6l0,0l0-0.1l0,0c0-0.2,0.1-0.4,0.1-0.5l0.3-0.8L86.7,36.2L86.7,36.2z
		 M84.9,37.4c0.4,0,0.8,0,1.2-0.1c0,0.3-0.1,0.5-0.1,0.8h0v0v0h0c0,1.4,0.6,2.7,1.5,3.6c0.9,0.9,2.2,1.5,3.6,1.5v0h0
		c0.2,0,0.3,0,0.5,0h0l0.1,0l0,0l0.1,0h0l0,0l0.9-0.1l-0.6-0.7c-0.3-0.4-0.6-0.8-0.8-1.2c0-0.1-0.1-0.2-0.1-0.3
		c-0.2-0.5-0.3-1.1-0.3-1.8h0v0c0-1.3,0.5-2.5,1.3-3.4c0.2-0.2,0.3-0.3,0.5-0.5c0.2-0.1,0.4-0.3,0.6-0.4l0,0l0.1-0.1l0,0l0.1-0.1
		l0.5-0.2l0.3-0.2l0,0l0,0l-0.6-0.3l-0.2-0.1c-0.1,0-0.1-0.1-0.1-0.1l0,0l-0.1-0.1l0,0c-0.6-0.4-1.1-0.9-1.5-1.4
		c-0.1-0.1-0.2-0.2-0.2-0.4c-0.4-0.7-0.7-1.6-0.7-2.5h0v0c0-0.9,0.2-1.7,0.6-2.5c0.1-0.1,0.2-0.3,0.3-0.4l0,0
		c0.1-0.1,0.2-0.3,0.3-0.4l0,0l0,0l0.6-0.7l-0.9-0.1c-0.1,0-0.2,0-0.3,0l-0.1,0h0c-0.1,0-0.2,0-0.3,0l0,0h0h0v0
		c-1.4,0-2.7,0.6-3.6,1.5c-0.9,0.9-1.5,2.2-1.5,3.6h0v0c0,0.3,0,0.5,0.1,0.8l0,0h0L86,31l0,0c-0.3,0-0.6-0.1-1-0.1h0v0
		c-1.8,0-3.5,0.6-4.8,1.6c-0.3,0.2-0.5,0.4-0.8,0.6c-0.2,0.2-0.5,0.5-0.7,0.7l0,0l-0.3,0.3l0.3,0.3c0.6,0.7,1.4,1.4,2.2,1.9
		c0.2,0.1,0.3,0.2,0.5,0.3l0,0C82.5,37.1,83.7,37.4,84.9,37.4L84.9,37.4L84.9,37.4L84.9,37.4z M78.7,33.8L78.7,33.8L78.7,33.8z"/>
	<path id="path84" class="st3" d="M86.6,65.3L86.6,65.3L86.6,65.3c-0.1,0-0.2,0-0.2,0.1c-0.1,0-0.1,0-0.2,0
		c-0.4,0.1-0.8,0.1-1.2,0.1h0v0c-1.1,0-2.1-0.3-3.1-0.7h0c-0.2-0.1-0.3-0.2-0.4-0.2c-0.6-0.4-1.2-0.8-1.7-1.3
		c0.1-0.1,0.2-0.2,0.3-0.3c0.2-0.2,0.4-0.4,0.7-0.5c1.2-0.9,2.7-1.4,4.3-1.4v0h0c0.3,0,0.6,0,0.9,0.1l0,0l0.1,0v0
		c0.2,0,0.5,0.1,0.7,0.1l0.9,0.2l-0.3-0.9l0,0l0,0c0-0.1,0-0.1-0.1-0.2v0h0c0-0.1,0-0.1,0-0.2c-0.1-0.3-0.1-0.6-0.1-0.9v0h0
		c0-1.1,0.5-2.1,1.2-2.9c0.7-0.7,1.6-1.1,2.6-1.2c0,0.1-0.1,0.1-0.1,0.2c-0.5,0.9-0.8,1.9-0.8,2.9v0h0c0,1.1,0.3,2.1,0.8,3
		c0.1,0.1,0.2,0.3,0.3,0.4c0.4,0.5,0.8,1,1.4,1.4l-0.1,0l0.1,0c-0.1,0.1-0.2,0.1-0.2,0.2c-0.2,0.2-0.4,0.4-0.6,0.6
		c-1,1.1-1.6,2.5-1.6,4.1v0h0c0,0.7,0.1,1.5,0.4,2.1c0,0.1,0.1,0.2,0.1,0.3c0.1,0.2,0.2,0.5,0.4,0.7c-1-0.1-1.9-0.5-2.6-1.2
		c-0.7-0.7-1.2-1.8-1.2-2.9h0v0v0h0c0-0.2,0-0.4,0.1-0.6l0,0l0-0.1l0,0c0-0.2,0.1-0.4,0.1-0.5l0.3-0.8L86.6,65.3L86.6,65.3z
		 M84.9,66.5c0.4,0,0.8,0,1.2-0.1c0,0.3-0.1,0.5-0.1,0.8h0v0v0h0c0,1.4,0.6,2.7,1.5,3.6c0.9,0.9,2.2,1.5,3.6,1.5v0h0
		c0.2,0,0.3,0,0.5,0h0l0.1,0l0,0l0.1,0h0l0,0l0.9-0.1l-0.6-0.7c-0.3-0.4-0.6-0.8-0.8-1.2c0-0.1-0.1-0.2-0.1-0.3
		c-0.2-0.5-0.3-1.1-0.3-1.8h0v0c0-1.3,0.5-2.5,1.3-3.4c0.2-0.2,0.3-0.3,0.5-0.5c0.2-0.1,0.4-0.3,0.6-0.4l0,0l0.1-0.1l0,0l0.1-0.1
		l0.5-0.2l0.3-0.2l0,0l0,0l-0.6-0.3l-0.2-0.1c-0.1,0-0.1-0.1-0.1-0.1l0,0l-0.1-0.1l0,0c-0.6-0.4-1.1-0.9-1.5-1.4
		c-0.1-0.1-0.2-0.2-0.2-0.4c-0.4-0.7-0.7-1.6-0.7-2.5h0v0c0-0.9,0.2-1.7,0.6-2.5c0.1-0.1,0.2-0.3,0.3-0.4l0,0
		c0.1-0.1,0.2-0.3,0.3-0.4l0,0l0,0l0.6-0.7l-0.9-0.1c-0.1,0-0.2,0-0.3,0l-0.1,0h0c-0.1,0-0.2,0-0.3,0l0,0h0h0v0
		c-1.4,0-2.7,0.6-3.6,1.5c-0.9,0.9-1.5,2.2-1.5,3.6h0v0c0,0.3,0,0.5,0.1,0.8l0,0h0l-0.2,0l0,0c-0.3,0-0.6-0.1-1-0.1h0v0
		c-1.8,0-3.5,0.6-4.8,1.6c-0.3,0.2-0.5,0.4-0.8,0.6c-0.2,0.2-0.5,0.5-0.7,0.7l0,0l-0.3,0.3l0.3,0.3c0.6,0.7,1.4,1.4,2.2,1.9
		c0.2,0.1,0.3,0.2,0.5,0.3l0,0C82.5,66.2,83.7,66.5,84.9,66.5L84.9,66.5L84.9,66.5L84.9,66.5z M78.7,62.9L78.7,62.9L78.7,62.9z"/>
</g>
<path id="path86" class="st3" d="M75,63.5L75,63.5L75,63.5c0.2,0.2,0.3,0.3,0.4,0.5c0.1,0.2,0.2,0.3,0.3,0.5
	c0.5,0.9,0.7,1.9,0.6,2.9l0,0.4l-0.4,0l0,0c-0.2,0-0.4,0-0.6,0c-0.2,0-0.4,0-0.6,0c-1-0.1-1.9-0.6-2.7-1.3l0,0v0
	c-0.1-0.2-0.3-0.3-0.4-0.5c-0.1-0.2-0.2-0.3-0.3-0.5c-0.5-0.9-0.7-1.9-0.6-2.9l0-0.4l0.4,0l0,0c0.2,0,0.4,0,0.6,0c0.2,0,0.4,0,0.6,0
	C73.3,62.3,74.2,62.7,75,63.5L75,63.5z M74.3,64.2L74.3,64.2L74.3,64.2c-0.6-0.6-1.4-1-2.1-1.1c-0.2,0-0.3,0-0.5,0l-0.1,0
	c0,0.6,0.2,1.3,0.5,1.9c0.1,0.1,0.2,0.3,0.3,0.4c0.1,0.1,0.2,0.3,0.3,0.4l0,0l0,0c0.6,0.6,1.3,1,2.1,1.1c0.2,0,0.3,0,0.5,0l0.1,0
	c0-0.6-0.2-1.3-0.5-1.9c-0.1-0.1-0.2-0.3-0.3-0.4C74.5,64.5,74.4,64.3,74.3,64.2L74.3,64.2z"/>
<g id="g88">
	<path id="path90" class="st4" d="M96.6,45.4c-1.8,0-3.3,1.5-3.3,3.3c0,1.8,1.5,3.3,3.3,3.3"/>
	<path id="path92" class="st3" d="M96.6,44.9L96.6,44.9L96.6,44.9c-1.1,0-2,0.4-2.7,1.1c-0.7,0.7-1.1,1.6-1.1,2.7h0v0v0h0
		c0,1.1,0.4,2,1.1,2.7c0.7,0.7,1.6,1.1,2.7,1.1v0h0v-1h0v0c-0.8,0-1.5-0.3-2-0.8c-0.5-0.5-0.8-1.2-0.8-2h0v0v0h0
		c0-0.8,0.3-1.5,0.8-2c0.5-0.5,1.2-0.8,2-0.8v0h0V44.9L96.6,44.9z"/>
	<path id="path94" class="st3" d="M96.6,17.7L96.6,17.7L96.6,17.7c-1.1,0-2,0.4-2.7,1.1c-0.7,0.7-1.1,1.6-1.1,2.7h0v0v0h0
		c0,1.1,0.4,2,1.1,2.7c0.7,0.7,1.6,1.1,2.7,1.1v0h0v-1h0v0c-0.8,0-1.5-0.3-2-0.8c-0.5-0.5-0.8-1.2-0.8-2h0v0v0h0
		c0-0.8,0.3-1.5,0.8-2c0.5-0.5,1.2-0.8,2-0.8v0h0V17.7L96.6,17.7z"/>
	<path id="path96" class="st3" d="M96.6,71.6L96.6,71.6L96.6,71.6c-1.1,0-2,0.4-2.7,1.1c-0.7,0.7-1.1,1.6-1.1,2.7h0v0v0h0
		c0,1.1,0.4,2,1.1,2.7c0.7,0.7,1.6,1.1,2.7,1.1v0h0v-1h0v0c-0.8,0-1.5-0.3-2-0.8c-0.5-0.5-0.8-1.2-0.8-2h0v0v0h0
		c0-0.8,0.3-1.5,0.8-2c0.5-0.5,1.2-0.8,2-0.8v0h0V71.6L96.6,71.6z"/>
</g>
<g id="g98">
	<path id="path100" class="st4" d="M1.5,45.4c1.8,0,3.3,1.5,3.3,3.3c0,1.8-1.5,3.3-3.3,3.3"/>
	<path id="path102" class="st3" d="M1.5,44.9L1.5,44.9L1.5,44.9c1.1,0,2,0.4,2.7,1.1c0.7,0.7,1.1,1.6,1.1,2.7h0v0v0h0
		c0,1.1-0.4,2-1.1,2.7c-0.7,0.7-1.6,1.1-2.7,1.1v0h0v-1h0v0c0.8,0,1.5-0.3,2-0.8c0.5-0.5,0.8-1.2,0.8-2h0v0v0h0c0-0.8-0.3-1.5-0.8-2
		c-0.5-0.5-1.2-0.8-2-0.8v0h0L1.5,44.9L1.5,44.9z"/>
	<path id="path104" class="st3" d="M1.5,17.7L1.5,17.7L1.5,17.7c1.1,0,2,0.4,2.7,1.1c0.7,0.7,1.1,1.6,1.1,2.7h0v0v0h0
		c0,1.1-0.4,2-1.1,2.7c-0.7,0.7-1.6,1.1-2.7,1.1v0h0v-1h0v0c0.8,0,1.5-0.3,2-0.8c0.5-0.5,0.8-1.2,0.8-2h0v0v0h0c0-0.8-0.3-1.5-0.8-2
		c-0.5-0.5-1.2-0.8-2-0.8v0h0L1.5,17.7L1.5,17.7z"/>
	<path id="path106" class="st3" d="M1.5,71.6L1.5,71.6L1.5,71.6c1.1,0,2,0.4,2.7,1.1c0.7,0.7,1.1,1.6,1.1,2.7h0v0v0h0
		c0,1.1-0.4,2-1.1,2.7c-0.7,0.7-1.6,1.1-2.7,1.1v0h0v-1h0v0c0.8,0,1.5-0.3,2-0.8c0.5-0.5,0.8-1.2,0.8-2h0v0v0h0c0-0.8-0.3-1.5-0.8-2
		c-0.5-0.5-1.2-0.8-2-0.8v0h0L1.5,71.6L1.5,71.6z"/>
</g>
<g id="g108">
	<path id="path110" class="st3" d="M7.2,48.7l0.3-0.3c0.2-0.2,0.5-0.5,0.7-0.7c2.8-2.5,6.1-3.3,9-3.1c2.9,0.2,5.6,1.5,7.2,3.1
		c0.1,0.1,0.2,0.2,0.2,0.2c0.1-0.1,0.2-0.3,0.3-0.4c0.2-0.4,0.5-0.7,0.6-1.1c0.9-1.8,1-3.5,0.6-5l0,0c-0.1-0.3-0.2-0.6-0.3-0.9
		c-0.1-0.3-0.3-0.5-0.4-0.8c-0.5-0.7-1.1-1.2-1.9-1.5c-1.7-0.7-4.5-0.1-4.7,2.1c-0.1,1.1,0.4,1.8,1,2.2c0.3,0.2,0.6,0.2,0.9,0.2
		c0.3,0,0.6-0.1,0.8-0.2c0.5-0.3,0.8-0.8,0.7-1.8c1,0.1,0.8,2-0.2,2.6c-0.4,0.2-0.9,0.3-1.3,0.3c-0.5,0-0.9-0.1-1.3-0.4
		c-0.9-0.5-1.6-1.6-1.5-3.1c0.2-2.8,3.4-3.7,5.7-3c1.1,0.3,2,1,2.6,1.9c0.2,0.3,0.4,0.6,0.5,0.9c0.2,0.3,0.3,0.7,0.4,1l0,0
		c0.5,1.7,0.3,3.7-0.7,5.7c-0.2,0.4-0.4,0.8-0.7,1.2c-0.1,0.2-0.3,0.4-0.4,0.6l0,0l0,0c0.2,0.2,0.3,0.4,0.4,0.6
		c0.3,0.4,0.5,0.8,0.7,1.2c1,2,1.2,4,0.7,5.7l0,0c-0.1,0.4-0.2,0.7-0.4,1c-0.2,0.3-0.3,0.6-0.5,0.9c-0.5,0.8-1.3,1.4-2.1,1.7
		c-2.3,1-6,0.2-6.2-2.8c-0.1-1.5,0.6-2.6,1.5-3.1c0.4-0.2,0.9-0.4,1.3-0.4c0.5,0,0.9,0.1,1.3,0.3c1.1,0.6,1.2,2.6,0.2,2.6
		c0.1-0.9-0.2-1.5-0.7-1.8c-0.2-0.1-0.5-0.2-0.8-0.2c-0.3,0-0.6,0.1-0.9,0.2c-0.6,0.3-1.1,1.1-1,2.2c0.2,2.4,3.3,2.8,5,1.9
		c0.6-0.3,1.1-0.8,1.5-1.3c0.2-0.2,0.3-0.5,0.4-0.8c0.1-0.3,0.2-0.6,0.3-0.9l0,0c0.4-1.4,0.3-3.2-0.6-5c-0.2-0.4-0.4-0.7-0.6-1.1
		c-0.1-0.1-0.2-0.3-0.3-0.4c-0.1,0.1-0.2,0.2-0.2,0.2c-1.6,1.6-4.2,2.8-7.2,3.1c-2.9,0.2-6.2-0.5-9-3.1c-0.3-0.2-0.5-0.5-0.7-0.7
		L7.2,48.7L7.2,48.7z M24,48.7L24,48.7c-0.1-0.1-0.2-0.2-0.3-0.3c-1.5-1.4-3.9-2.6-6.6-2.8c-2.7-0.2-5.7,0.5-8.3,2.8
		c-0.1,0.1-0.2,0.2-0.3,0.3l0,0l0,0c0.1,0.1,0.2,0.2,0.3,0.3c2.6,2.3,5.6,3,8.3,2.8c2.7-0.2,5.1-1.4,6.6-2.8
		C23.8,48.9,23.9,48.8,24,48.7L24,48.7L24,48.7z"/>
	<path id="path112" class="st3" d="M22.7,34.1L22.7,34.1L22.7,34.1c-0.2-0.2-0.3-0.3-0.4-0.5c-0.1-0.2-0.2-0.3-0.3-0.5
		c-0.5-0.9-0.7-1.9-0.6-2.9l0-0.4l0.4,0l0,0c0.2,0,0.4,0,0.6,0c0.2,0,0.4,0,0.6,0c1,0.1,1.9,0.6,2.7,1.3l0,0v0
		c0.1,0.2,0.3,0.3,0.4,0.5c0.1,0.2,0.2,0.3,0.3,0.5C26.9,33,27.1,34,27,35l0,0.4l-0.4,0l0,0c-0.2,0-0.4,0-0.6,0c-0.2,0-0.4,0-0.6,0
		C24.4,35.3,23.5,34.8,22.7,34.1L22.7,34.1z M23.4,33.3L23.4,33.3L23.4,33.3c0.6,0.6,1.4,1,2.1,1.1c0.2,0,0.3,0,0.5,0l0.1,0
		c0-0.6-0.2-1.3-0.5-1.9c-0.1-0.1-0.2-0.3-0.3-0.4c-0.1-0.1-0.2-0.3-0.3-0.4l0,0l0,0c-0.6-0.6-1.3-1-2.1-1.1c-0.2,0-0.3,0-0.5,0
		l-0.1,0c0,0.6,0.2,1.3,0.5,1.9c0.1,0.1,0.2,0.3,0.3,0.4C23.2,33.1,23.3,33.2,23.4,33.3L23.4,33.3z"/>
	<g id="g114">
		<path id="path116" class="st3" d="M11.5,36.2L11.5,36.2L11.5,36.2c0.1,0,0.2,0,0.2,0.1c0.1,0,0.1,0,0.2,0c0.4,0.1,0.8,0.1,1.2,0.1
			h0v0c1.1,0,2.1-0.3,3.1-0.7h0c0.2-0.1,0.3-0.2,0.4-0.2c0.6-0.4,1.2-0.8,1.7-1.3c-0.1-0.1-0.2-0.2-0.3-0.3
			c-0.2-0.2-0.4-0.4-0.7-0.5c-1.2-0.9-2.7-1.4-4.3-1.4v0h0c-0.3,0-0.6,0-0.9,0.1l0,0l-0.1,0v0c-0.2,0-0.5,0.1-0.7,0.1l-0.9,0.2
			l0.3-0.9l0,0l0,0c0-0.1,0-0.1,0.1-0.2v0h0c0-0.1,0-0.1,0-0.2c0.1-0.3,0.1-0.6,0.1-0.9v0h0c0-1.1-0.5-2.1-1.2-2.9
			c-0.7-0.7-1.6-1.1-2.6-1.2c0,0.1,0.1,0.1,0.1,0.2c0.5,0.9,0.8,1.9,0.8,2.9v0h0c0,1.1-0.3,2.1-0.8,3c-0.1,0.1-0.2,0.3-0.3,0.4
			c-0.4,0.5-0.8,1-1.4,1.4l0.1,0l-0.1,0c0.1,0.1,0.2,0.1,0.2,0.2c0.2,0.2,0.4,0.4,0.6,0.6c1,1.1,1.6,2.5,1.6,4.1v0h0
			c0,0.7-0.1,1.5-0.4,2.1c0,0.1-0.1,0.2-0.1,0.3c-0.1,0.2-0.2,0.5-0.4,0.7c1-0.1,1.9-0.5,2.6-1.2c0.7-0.7,1.2-1.8,1.2-2.9h0v0v0h0
			c0-0.2,0-0.4-0.1-0.6l0,0l0-0.1l0,0c0-0.2-0.1-0.4-0.1-0.5L10.6,36L11.5,36.2L11.5,36.2z M13.2,37.4c-0.4,0-0.8,0-1.2-0.1
			c0,0.3,0.1,0.5,0.1,0.8h0v0v0h0c0,1.4-0.6,2.7-1.5,3.6c-0.9,0.9-2.2,1.5-3.6,1.5v0h0c-0.2,0-0.3,0-0.5,0h0l-0.1,0l0,0l-0.1,0h0
			l0,0L5.4,43L6,42.3c0.3-0.4,0.6-0.8,0.8-1.2c0-0.1,0.1-0.2,0.1-0.3c0.2-0.5,0.3-1.1,0.3-1.8h0v0c0-1.3-0.5-2.5-1.3-3.4
			c-0.2-0.2-0.3-0.3-0.5-0.5C5.2,35,5,34.9,4.8,34.8l0,0l-0.1-0.1l0,0l-0.1-0.1l-0.5-0.2l-0.3-0.2l0,0l0,0l0.6-0.3l0.2-0.1
			c0.1,0,0.1-0.1,0.1-0.1l0,0l0.1-0.1l0,0c0.6-0.4,1.1-0.9,1.5-1.4c0.1-0.1,0.2-0.2,0.2-0.4c0.4-0.7,0.7-1.6,0.7-2.5h0v0
			c0-0.9-0.2-1.7-0.6-2.5c-0.1-0.1-0.2-0.3-0.3-0.4l0,0C6.2,26.3,6.1,26.1,6,26l0,0l0,0l-0.6-0.7l0.9-0.1c0.1,0,0.2,0,0.3,0l0.1,0h0
			c0.1,0,0.2,0,0.3,0l0,0h0h0v0c1.4,0,2.7,0.6,3.6,1.5c0.9,0.9,1.5,2.2,1.5,3.6h0v0c0,0.3,0,0.5-0.1,0.8l0,0h0l0.2,0l0,0
			c0.3,0,0.6-0.1,1-0.1h0v0c1.8,0,3.5,0.6,4.8,1.6c0.3,0.2,0.5,0.4,0.8,0.6c0.2,0.2,0.5,0.5,0.7,0.7l0,0l0.3,0.3l-0.3,0.3
			c-0.6,0.7-1.4,1.4-2.2,1.9c-0.2,0.1-0.3,0.2-0.5,0.3l0,0C15.7,37.1,14.5,37.4,13.2,37.4L13.2,37.4L13.2,37.4L13.2,37.4z
			 M19.5,33.8L19.5,33.8L19.5,33.8z"/>
		<path id="path118" class="st3" d="M11.5,65.3L11.5,65.3L11.5,65.3c0.1,0,0.2,0,0.2,0.1c0.1,0,0.1,0,0.2,0c0.4,0.1,0.8,0.1,1.2,0.1
			h0v0c1.1,0,2.1-0.3,3.1-0.7h0c0.2-0.1,0.3-0.2,0.4-0.2c0.6-0.4,1.2-0.8,1.7-1.3c-0.1-0.1-0.2-0.2-0.3-0.3
			c-0.2-0.2-0.4-0.4-0.7-0.5c-1.2-0.9-2.7-1.4-4.3-1.4v0h0c-0.3,0-0.6,0-0.9,0.1l0,0l-0.1,0v0c-0.2,0-0.5,0.1-0.7,0.1l-0.9,0.2
			l0.3-0.9l0,0l0,0c0-0.1,0-0.1,0.1-0.2v0h0c0-0.1,0-0.1,0-0.2c0.1-0.3,0.1-0.6,0.1-0.9v0h0c0-1.1-0.5-2.1-1.2-2.9
			c-0.7-0.7-1.6-1.1-2.6-1.2c0,0.1,0.1,0.1,0.1,0.2c0.5,0.9,0.8,1.9,0.8,2.9v0h0c0,1.1-0.3,2.1-0.8,3c-0.1,0.1-0.2,0.3-0.3,0.4
			c-0.4,0.5-0.8,1-1.4,1.4l0.1,0l-0.1,0c0.1,0.1,0.2,0.1,0.2,0.2c0.2,0.2,0.4,0.4,0.6,0.6c1,1.1,1.6,2.5,1.6,4.1v0h0
			c0,0.7-0.1,1.5-0.4,2.1c0,0.1-0.1,0.2-0.1,0.3c-0.1,0.2-0.2,0.5-0.4,0.7c1-0.1,1.9-0.5,2.6-1.2c0.7-0.7,1.2-1.8,1.2-2.9h0v0v0h0
			c0-0.2,0-0.4-0.1-0.6l0,0l0-0.1l0,0c0-0.2-0.1-0.4-0.1-0.5l-0.3-0.8L11.5,65.3L11.5,65.3z M13.2,66.5c-0.4,0-0.8,0-1.2-0.1
			c0,0.3,0.1,0.5,0.1,0.8h0v0v0h0c0,1.4-0.6,2.7-1.5,3.6c-0.9,0.9-2.2,1.5-3.6,1.5v0h0c-0.2,0-0.3,0-0.5,0h0l-0.1,0l0,0l-0.1,0h0
			l0,0l-0.9-0.1L6,71.4c0.3-0.4,0.6-0.8,0.8-1.2c0-0.1,0.1-0.2,0.1-0.3c0.2-0.5,0.3-1.1,0.3-1.8h0v0c0-1.3-0.5-2.5-1.3-3.4
			c-0.2-0.2-0.3-0.3-0.5-0.5c-0.2-0.1-0.4-0.3-0.6-0.4l0,0l-0.1-0.1l0,0l-0.1-0.1l-0.5-0.2l-0.3-0.2l0,0l0,0l0.6-0.3l0.2-0.1
			c0.1,0,0.1-0.1,0.1-0.1l0,0l0.1-0.1l0,0c0.6-0.4,1.1-0.9,1.5-1.4c0.1-0.1,0.2-0.2,0.2-0.4c0.4-0.7,0.7-1.6,0.7-2.5h0v0
			c0-0.9-0.2-1.7-0.6-2.5c-0.1-0.1-0.2-0.3-0.3-0.4l0,0c-0.1-0.1-0.2-0.3-0.3-0.4l0,0l0,0l-0.6-0.7l0.9-0.1c0.1,0,0.2,0,0.3,0l0.1,0
			h0c0.1,0,0.2,0,0.3,0l0,0h0h0v0c1.4,0,2.7,0.6,3.6,1.5c0.9,0.9,1.5,2.2,1.5,3.6h0v0c0,0.3,0,0.5-0.1,0.8l0,0h0l0.2,0l0,0
			c0.3,0,0.6-0.1,1-0.1h0v0c1.8,0,3.5,0.6,4.8,1.6c0.3,0.2,0.5,0.4,0.8,0.6c0.2,0.2,0.5,0.5,0.7,0.7l0,0l0.3,0.3l-0.3,0.3
			c-0.6,0.7-1.4,1.4-2.2,1.9c-0.2,0.1-0.3,0.2-0.5,0.3l0,0C15.7,66.2,14.5,66.5,13.2,66.5L13.2,66.5L13.2,66.5L13.2,66.5z
			 M19.5,62.9L19.5,62.9L19.5,62.9z"/>
	</g>
	<path id="path120" class="st3" d="M23.1,63.5L23.1,63.5L23.1,63.5c-0.2,0.2-0.3,0.3-0.4,0.5c-0.1,0.2-0.2,0.3-0.3,0.5
		c-0.5,0.9-0.7,1.9-0.6,2.9l0,0.4l0.4,0l0,0c0.2,0,0.4,0,0.6,0c0.2,0,0.4,0,0.6,0c1-0.1,1.9-0.6,2.7-1.3l0,0v0
		c0.1-0.2,0.3-0.3,0.4-0.5c0.1-0.2,0.2-0.3,0.3-0.5c0.5-0.9,0.7-1.9,0.6-2.9l0-0.4l-0.4,0l0,0c-0.2,0-0.4,0-0.6,0
		c-0.2,0-0.4,0-0.6,0C24.8,62.3,23.9,62.7,23.1,63.5L23.1,63.5z M23.8,64.2L23.8,64.2L23.8,64.2c0.6-0.6,1.4-1,2.1-1.1
		c0.2,0,0.3,0,0.5,0l0.1,0c0,0.6-0.2,1.3-0.5,1.9c-0.1,0.1-0.2,0.3-0.3,0.4c-0.1,0.1-0.2,0.3-0.3,0.4l0,0l0,0
		c-0.6,0.6-1.3,1-2.1,1.1c-0.2,0-0.3,0-0.5,0l-0.1,0c0-0.6,0.2-1.3,0.5-1.9c0.1-0.1,0.2-0.3,0.3-0.4C23.6,64.5,23.7,64.3,23.8,64.2
		L23.8,64.2z"/>
</g>
</svg>
