<?xml version="1.0" encoding="utf-8"?>
<!-- Generator: Adobe Illustrator 23.0.2, SVG Export Plug-In . SVG Version: 6.00 Build 0)  -->
<svg version="1.1" id="Layer_1" xmlns="http://www.w3.org/2000/svg" xmlns:xlink="http://www.w3.org/1999/xlink" x="0px" y="0px"
	 viewBox="0 0 175 33.4" enable-background="new 0 0 175 33.4" xml:space="preserve">
<title>Asset 11</title>
<g>
	<g id="Слой_12">
		<g id="Слой_10">
			<path fill="#1A1C29" d="M84.9,12.4c0.1-2.2,0.3-4.3,0.7-6.4c0.7-3.3,2.8-4.9,6-5.4c3-0.4,6.1-0.6,9.1-0.6c0.3,0,0.6,0,0.6,0.5
				c0.1,3.1-0.2,6.1-0.8,9.1c-0.8,3.3-3.5,5.7-6.8,6.2c-2.7,0.4-5.5,0.7-8.3,0.7c-0.5,0-0.4-0.3-0.4-0.6L84.9,12.4z"/>
			<path fill="#1A1C29" d="M84.9,20.9v-3.4c0-0.3-0.1-0.6,0.4-0.6c2.9,0,5.9,0.2,8.7,0.8c3.8,0.9,5.9,3.4,6.6,7.2
				c0.4,2.6,0.6,5.2,0.6,7.8c0,0.3,0.1,0.7-0.4,0.7c-3.3,0.1-6.6-0.1-9.8-0.6c-3.3-0.7-5-2.7-5.5-5.9C85.1,24.9,85,22.9,84.9,20.9z"
				/>
			<path fill="#1A1C29" d="M105.7,0c1.9,0.2,3.8,0.2,5.7,0.5c4,0.7,5.9,2.6,6.4,6.6c0.3,2.9,0.4,5.8,0.4,8.7c0,0.3,0.1,0.7-0.5,0.6
				c-2.8,0-5.6-0.2-8.3-0.7c-4.1-0.8-6.5-3.7-7.1-7.9c-0.3-2.4-0.3-4.7-0.5-7.1C101.8,0.1,102,0,102.6,0C103.6,0,104.7,0,105.7,0z"
				/>
			<path fill="#1A1C29" d="M105.6,33.4h-3.2c-0.4,0-0.6,0-0.6-0.5c0.2-2.9,0.1-5.9,0.8-8.7c1-4,3.8-6.2,8-6.7c2.3-0.3,4.6-0.4,7-0.4
				c0.3,0,0.6-0.1,0.6,0.4c-0.1,3.5,0.1,6.9-0.7,10.3c-0.8,3.2-2.9,4.6-5.9,5.2C109.6,33.1,107.6,33.3,105.6,33.4z"/>
			<path fill="#070707" d="M12.3,16.5c0,3.9,0,7.8,0,11.8c0,0.7-0.1,1-0.9,0.9c-1.9-0.1-1.9,0-1.9-1.9c0-2.4,0-4.7,0-7.1
				c0-0.6-0.1-0.7-0.7-0.8c-1-0.2-1.9,0.4-2.1,1.4c-1,2.6-2.3,5.1-3.4,7.7c-0.2,0.5-0.5,0.8-1.1,0.7c-0.5,0-1.1,0-1.6,0
				c-0.7,0-0.7-0.2-0.4-0.7c1.4-3,2.8-6.1,4.2-9.1c0.2-0.5,0.2-0.7-0.3-1c-1.4-0.8-2.4-2.2-2.8-3.8c-0.6-2-0.5-4.2,0.2-6.2
				c0.9-2.6,3.4-4.5,6.2-4.5c1.4-0.1,2.7,0,4,0c0.6,0,0.7,0.2,0.7,0.7C12.3,8.5,12.3,12.5,12.3,16.5z M9.6,11.6V6.7
				c0-0.3,0.1-0.6-0.4-0.7C6.9,5.6,4.8,7,4.2,9.2c-0.3,1-0.4,2.1-0.3,3.2c0.1,3.3,1.7,4.8,5,4.8c0.6,0,0.8-0.1,0.8-0.8
				C9.6,14.8,9.6,13.2,9.6,11.6z"/>
			<path fill="#070707" d="M38.3,19.1c0,2.3,0,4.6,0,7c0,0.6,0.1,0.9,0.7,0.8c0.5-0.1,0.7,0.1,0.7,0.6c0,1.5,0,3.1,0,4.6
				c0,0.4-0.1,0.6-0.5,0.6c-1.9,0.1-1.9,0.1-1.9-1.8s0-1.7-1.8-1.7s-3.4,0-5,0c-0.8,0-0.9,0.2-0.9,0.9s0,1.3,0,2
				c0,0.4,0,0.6-0.5,0.6c-2,0.1-2,0.1-2-1.9c0-1.1,0-2.2,0-3.3c0-0.4,0-0.8,0.6-0.7s0.7-0.3,0.8-0.7c0.9-2.8,1.4-5.7,1.4-8.6
				C30,15.8,30,13.9,30,12c0-0.6,0.1-0.8,0.7-0.8c2.3,0,4.6,0,6.9,0c0.7,0,0.7,0.3,0.7,0.8C38.3,14.4,38.3,16.8,38.3,19.1z
				 M30.9,26.9c1.3,0,2.5,0,3.7,0c0.8,0,1.1-0.1,1.1-1c-0.1-3.3,0-6.7,0-10c0-2.4,0-2.4-2.4-2.4c-0.6,0-0.8,0.2-0.8,0.8
				C32.6,18.5,32.1,22.8,30.9,26.9z"/>
			<path fill="#070707" d="M138.3,15.8c0,3.7,0,7.4,0,11c0,0.6,0.1,1.1,0.9,0.9s0.9,0.2,0.9,0.9c-0.1,1.4,0,2.8,0,4.1
				c0,0.4,0,0.7-0.5,0.7s-0.9,0.1-0.9-0.7c0-1-0.1-2-0.1-3c0-0.4-0.1-0.6-0.6-0.6c-3.2,0-6.5,0-9.7,0c-0.5,0-0.6,0.2-0.6,0.6
				c0,1-0.2,2-0.2,3c0,0.6-0.3,0.6-0.8,0.6s-0.7,0-0.7-0.6c0-1.5,0-3,0-4.5c0-0.2-0.2-0.6,0.3-0.6c1,0,1.2-0.9,1.5-1.5
				c0.7-1.8,1.1-3.6,1.2-5.5c0.5-5.3,0.6-10.6,0.6-16c0-0.8,0.2-1,1-0.9c2.4,0,4.7,0,7.1,0c0.7,0,0.9,0.2,0.9,0.9
				C138.3,8.4,138.3,12.1,138.3,15.8z M128.7,27.7c2.5,0,4.9,0,7.3,0c0.5,0,0.6-0.2,0.6-0.6c0-7.1,0-14.1,0-21.2
				c0-0.6-0.2-0.7-0.7-0.7c-1.4,0-2.7,0-4,0c-0.6,0-0.8,0.1-0.8,0.8c-0.1,4.8-0.2,9.5-0.6,14.3C130.2,22.8,130,25.3,128.7,27.7
				L128.7,27.7z"/>
			<path fill="#070707" d="M25.5,20.3c0,2.7,0,5.4,0,8.1c0,0.6-0.1,0.9-0.8,0.8c-2,0-2,0-2-2c0-1.8,0-3.6,0-5.4
				c0-0.5-0.1-0.7-0.7-0.7c-0.9,0-1.8,0-2.8,0c-0.6,0-0.7,0.2-0.7,0.7c0,2.2,0,4.4,0,6.6c0,0.6-0.1,0.7-0.7,0.7c-2.1,0-2.1,0-2.1-2
				c0-5,0-10,0-15.1c0-0.7,0.1-0.9,0.9-0.9c2,0,2,0,2,2c0,1.6,0,3.3,0,5c0,0.6,0.2,0.7,0.7,0.7c0.9,0,1.8,0,2.8,0
				c0.5,0,0.6-0.2,0.6-0.7c0-2.1,0-4.2,0-6.2c0-0.6,0.1-0.7,0.7-0.7c2,0,2,0,2,2L25.5,20.3z"/>
			<path fill="#070707" d="M47.9,20.9c-1,0-2,0-3,0c-0.5,0-0.7,0.1-0.6,0.6c0,1.1,0.2,2.2,0.6,3.3c0.4,1.6,2,2.6,3.6,2.2
				c0.1,0,0.2,0,0.3-0.1c0.4-0.1,0.9-0.3,1.3-0.5s0.9-0.7,1.1-0.5c0.3,0.6,0.5,1.2,0.6,1.8c0.1,0.4-0.3,0.5-0.6,0.6
				c-4,2.5-8.3,0.6-9.3-4.1c-0.7-3.2-0.5-6.4,0.5-9.5c0.6-2,1.8-3.5,4-3.8c2-0.3,3.9,0.9,4.5,2.8c0.7,2.1,1,4.3,0.9,6.6
				c0,0.5-0.3,0.5-0.6,0.5L47.9,20.9z M46.6,18.6c0.6,0,1.2,0,1.8,0c0.3,0,0.4-0.1,0.4-0.4c0-1.3-0.1-2.5-0.6-3.7
				c-0.2-0.7-0.8-1.1-1.5-1.2c-0.7,0-1.3,0.4-1.6,1c-0.4,0.8-0.7,1.7-0.7,2.6c-0.2,1.6-0.2,1.6,1.5,1.6L46.6,18.6z"/>
			<path fill="#070707" d="M57.3,20.7c0,2.6,0,5.1,0,7.7c0,0.6-0.1,0.8-0.8,0.8c-2,0-2,0-2-2c0-5,0-10,0-15.1c0-0.7,0.2-0.9,0.9-0.9
				c1.9,0,1.9,0,1.9,1.9v6.1c0.3-0.1,0.4-0.3,0.5-0.5c1.1-2.1,2.3-4.3,3.3-6.4c0.2-0.7,0.9-1.1,1.6-1c1.7,0.1,1.7,0,0.9,1.6
				c-1.1,2.1-2.2,4.2-3.3,6.2c-0.3,0.4-0.3,0.9,0,1.3c1.4,2.6,2.8,5.2,4.2,7.8c0.2,0.3,0.3,0.6,0.5,1c-0.9,0-1.6,0-2.4,0
				c-0.4,0.1-0.9-0.2-1-0.6c-1.2-2.4-2.5-4.7-3.7-7c-0.2-0.3-0.3-0.6-0.5-0.9L57.3,20.7z"/>
			<path fill="#070707" d="M175,20.3c0,2.7,0,5.5,0,8.2c0,0.7-0.3,0.7-0.9,0.8s-0.8-0.1-0.8-0.8c0-2.4,0-4.8,0-7.2
				c0-0.6-0.2-0.8-0.8-0.8c-1.6,0-3.1,0-4.7,0c-0.6,0-0.7,0.2-0.7,0.7c0,2.4,0,4.8,0,7.2c0,0.7-0.3,0.8-0.9,0.8s-0.9-0.1-0.9-0.8
				c0-5.5,0-11,0-16.5c0-0.8,0.4-0.7,0.9-0.7s0.8,0.1,0.8,0.7c-0.1,2.1,0,4.3,0,6.4c0,0.6,0.1,0.8,0.8,0.8c1.5,0,3.1,0,4.6,0
				c0.7,0,0.8-0.3,0.8-0.9c0-2.1,0-4.2,0-6.3c0-0.6,0.1-0.8,0.8-0.8s0.9,0,0.9,0.8C175,14.7,175,17.5,175,20.3z"/>
			<path fill="#070707" d="M74.7,26c0.1,0.3,0.2,0.5,0.2,0.7c0.5,1.5,0.4,1.6-1.1,2.3c-2.7,1.2-5.8,0.1-7.1-2.6
				c-1.1-2.3-1.5-4.9-1.2-7.5c0-1.7,0.5-3.3,1.2-4.8c1.4-2.8,4.8-4,7.6-2.7c0.6,0.3,0.9,0.6,0.7,1.3c-0.1,0.6-0.2,1.1-0.3,1.7
				c-0.6-0.3-1.1-0.7-1.8-0.9c-1.3-0.6-2.9,0-3.5,1.3c-0.6,1-0.9,2.2-1,3.4c-0.2,1.9-0.1,3.9,0.3,5.8c0.7,3,2.8,3.9,5.5,2.2L74.7,26
				z"/>
			<path fill="#070707" d="M161.9,26.1c0.7,1.5,0.7,1.5-0.4,2.3c-2.1,1.7-5.2,1.3-6.9-0.8c-0.3-0.4-0.5-0.8-0.7-1.2
				c-0.9-2.4-1.3-4.9-1.1-7.5c0-1.8,0.5-3.7,1.3-5.3c0.9-1.6,2-2.8,4-2.8c1.3,0,2.5,0.7,3.2,1.8c1.4,2.3,1.4,4.8,1.2,7.4
				c0,0.5-0.4,0.4-0.7,0.4c-2.2,0-4.4,0-6.6,0c-0.7,0-0.9,0.2-0.8,0.9c0.1,1.4,0.3,2.7,0.7,4c1,2.9,3.9,3.6,6.2,1.6
				C161.5,26.7,161.6,26.4,161.9,26.1z M157.6,19.1h2.8c0.3,0,0.6,0,0.6-0.5c0.1-1.5-0.1-3.1-0.6-4.5c-0.3-1-1.2-1.8-2.2-1.9
				c-1.1,0-2,0.6-2.5,1.6c-0.8,1.5-1.2,3.1-1.2,4.8c0,0.4,0.2,0.4,0.5,0.4L157.6,19.1z"/>
			<path fill="#070707" d="M142.3,14.3c-0.6-1.6-0.5-1.9,0.8-2.7c1.5-0.9,3.4-1,5-0.2c1.3,0.7,2.1,2.2,2,3.7
				c0.1,1.8-0.9,3.6-2.5,4.4c0.1,0.1,0.2,0.2,0.3,0.2c2.5,1.3,3.5,4.4,2.2,7s-4.4,3.5-7,2.2c-0.2-0.1-0.4-0.2-0.5-0.3
				c-1.3-0.8-1.3-0.9-0.6-2.4c0.7,0.8,1.7,1.4,2.8,1.7c1.7,0.5,3.5-0.5,4-2.2c0-0.2,0.1-0.3,0.1-0.5c0.1-0.7,0.1-1.3,0-2
				c-0.1-1.5-1.3-2.6-2.8-2.8c-0.4-0.1-0.9,0-1.4-0.1s-1.1,0.3-1.1-0.7s0.6-0.6,1.1-0.6c2,0,3.1-0.8,3.6-2.4c0.2-0.8,0.2-1.6,0-2.4
				c-0.4-1.6-2-2.3-3.8-1.7C143.6,12.9,142.9,13.5,142.3,14.3z"/>
		</g>
	</g>
</g>
</svg>
